<svg width="83" height="28" viewBox="0 0 83 28" fill="none" xmlns="http://www.w3.org/2000/svg">
<path d="M68.5508 16.9196C68.6801 16.5789 68.7257 16.2123 68.6837 15.8505C68.6418 15.4887 68.5135 15.1421 68.3097 14.8396C68.1002 14.5897 67.8434 14.3834 67.5537 14.2324C67.2641 14.0814 66.9474 13.9887 66.6218 13.9596L52.6365 13.7996C52.5562 13.7996 52.4758 13.7196 52.3954 13.7196C52.3767 13.7056 52.3615 13.6875 52.351 13.6667C52.3406 13.6459 52.3351 13.6229 52.3351 13.5996C52.3351 13.5763 52.3406 13.5534 52.351 13.5325C52.3615 13.5117 52.3767 13.4936 52.3954 13.4796C52.4758 13.3196 52.5562 13.2396 52.7169 13.2396L66.7825 13.0796C67.6755 12.981 68.5259 12.6474 69.2464 12.1131C69.9668 11.5788 70.5313 10.8631 70.8817 10.0396L71.6854 7.95962C71.6854 7.87962 71.7658 7.79962 71.6854 7.71962C71.2484 5.78236 70.188 4.04002 68.6654 2.75738C67.1427 1.47474 65.2409 0.721902 63.2491 0.613271C61.2573 0.50464 59.2843 1.04615 57.63 2.15552C55.9756 3.26489 54.7303 4.88148 54.0833 6.75962C53.2433 6.16253 52.2188 5.87926 51.1898 5.95962C50.2454 6.06443 49.365 6.48583 48.6931 7.15458C48.0212 7.82334 47.5978 8.69968 47.4925 9.63962C47.439 10.1207 47.4662 10.6074 47.5729 11.0796C46.0449 11.1217 44.5937 11.7554 43.528 12.8461C42.4622 13.9367 41.8661 15.3982 41.8663 16.9196C41.8531 17.2152 41.8801 17.5112 41.9467 17.7996C41.9503 17.8621 41.9769 17.921 42.0214 17.9652C42.0658 18.0095 42.125 18.0359 42.1878 18.0396H67.9882C68.1489 18.0396 68.3097 17.9596 68.3097 17.7996L68.5508 16.9196Z" fill="black"/>
<path d="M72.9712 7.95898H72.5693C72.489 7.95898 72.4086 8.03898 72.3282 8.11898L71.7656 10.039C71.6363 10.3797 71.5907 10.7463 71.6326 11.1081C71.6746 11.4699 71.8028 11.8165 72.0067 12.119C72.2161 12.3689 72.473 12.5753 72.7626 12.7263C73.0522 12.8773 73.3689 12.9699 73.6946 12.999L76.6685 13.159C76.7488 13.159 76.8292 13.239 76.9096 13.239C76.9283 13.253 76.9435 13.2711 76.954 13.2919C76.9644 13.3127 76.9699 13.3357 76.9699 13.359C76.9699 13.3823 76.9644 13.4052 76.954 13.4261C76.9435 13.4469 76.9283 13.465 76.9096 13.479C76.8292 13.639 76.7488 13.719 76.5881 13.719L73.5338 13.879C72.6409 13.9776 71.7904 14.3112 71.07 14.8455C70.3495 15.3798 69.7851 16.0955 69.4347 16.919L69.274 17.639C69.1936 17.719 69.274 17.879 69.4347 17.879H80.0442C80.077 17.8836 80.1104 17.8806 80.1418 17.8702C80.1731 17.8598 80.2017 17.8423 80.2251 17.819C80.2485 17.7957 80.2661 17.7673 80.2765 17.7361C80.287 17.7048 80.29 17.6716 80.2853 17.639C80.4767 16.9612 80.5846 16.2627 80.6068 15.559C80.5941 13.5473 79.7855 11.6215 78.3563 10.199C76.9271 8.77645 74.9924 7.97166 72.9712 7.95898Z" fill="black"/>
<path d="M81.6517 22.3596C81.5086 22.3596 81.3688 22.3173 81.2498 22.2382C81.1308 22.1591 81.0381 22.0467 80.9834 21.9151C80.9286 21.7835 80.9143 21.6388 80.9422 21.4991C80.9701 21.3594 81.039 21.2311 81.1402 21.1305C81.2413 21.0298 81.3702 20.9612 81.5106 20.9334C81.6509 20.9056 81.7963 20.9199 81.9285 20.9744C82.0607 21.0289 82.1737 21.1212 82.2531 21.2396C82.3326 21.358 82.3751 21.4972 82.3751 21.6396C82.3755 21.7342 82.357 21.828 82.3208 21.9156C82.2846 22.0031 82.2313 22.0826 82.1641 22.1496C82.0968 22.2165 82.0169 22.2695 81.929 22.3056C81.841 22.3416 81.7468 22.36 81.6517 22.3596ZM81.6517 21.0796C81.5404 21.0796 81.4316 21.1124 81.3391 21.1739C81.2466 21.2355 81.1745 21.3229 81.1319 21.4253C81.0893 21.5276 81.0782 21.6402 81.0999 21.7488C81.1216 21.8575 81.1752 21.9572 81.2538 22.0355C81.3325 22.1139 81.4328 22.1672 81.5419 22.1888C81.6511 22.2104 81.7642 22.1993 81.867 22.1569C81.9698 22.1146 82.0577 22.0428 82.1195 21.9507C82.1813 21.8586 82.2143 21.7503 82.2143 21.6396C82.2161 21.5655 82.2028 21.4919 82.1752 21.4231C82.1475 21.3544 82.1062 21.2919 82.0536 21.2396C82.0009 21.1872 81.9382 21.146 81.8691 21.1185C81.8 21.091 81.7261 21.0778 81.6517 21.0796ZM81.9732 22.0396H81.8124L81.6517 21.7996H81.4909V22.0396H81.3302V21.3196H81.732C81.7648 21.3149 81.7982 21.3179 81.8296 21.3283C81.861 21.3387 81.8895 21.3563 81.9129 21.3796C81.9363 21.4029 81.9539 21.4312 81.9644 21.4625C81.9748 21.4937 81.9779 21.527 81.9732 21.5596C81.9732 21.6396 81.8928 21.7196 81.8124 21.7996L81.9732 22.0396ZM81.732 21.6396C81.8124 21.6396 81.8124 21.6396 81.8124 21.5596C81.8127 21.549 81.8107 21.5385 81.8068 21.5287C81.8028 21.5189 81.7969 21.51 81.7894 21.5025C81.7819 21.495 81.7729 21.4891 81.7631 21.4852C81.7532 21.4813 81.7427 21.4793 81.732 21.4796H81.4909V21.7196H81.732V21.6396ZM9.63568 20.9196H11.4039V25.7196H14.4582V27.2396H9.63568V20.9196ZM16.3068 24.0396C16.3068 23.5952 16.3975 23.1554 16.5732 22.747C16.749 22.3385 17.0062 21.9697 17.3293 21.6631C17.6525 21.3564 18.0348 21.1182 18.4531 20.9629C18.8714 20.8076 19.317 20.7385 19.7629 20.7596C20.2047 20.7398 20.6459 20.8104 21.0591 20.9672C21.4724 21.124 21.8489 21.3635 22.1653 21.671C22.4818 21.9785 22.7315 22.3474 22.8989 22.7548C23.0663 23.1622 23.1479 23.5995 23.1387 24.0396C23.1387 24.4839 23.048 24.9237 22.8722 25.3322C22.6965 25.7407 22.4393 26.1094 22.1161 26.4161C21.793 26.7227 21.4107 26.9609 20.9924 27.1162C20.5741 27.2715 20.1285 27.3407 19.6826 27.3196C19.2425 27.3326 18.8043 27.2572 18.3941 27.098C17.9839 26.9388 17.6101 26.699 17.2951 26.3929C16.98 26.0868 16.7302 25.7206 16.5604 25.3163C16.3906 24.912 16.3043 24.4778 16.3068 24.0396ZM21.3704 24.0396C21.3862 23.8178 21.3566 23.5951 21.2834 23.3851C21.2103 23.175 21.0951 22.9819 20.9449 22.8174C20.7946 22.6529 20.6124 22.5204 20.4093 22.4279C20.2061 22.3355 19.9862 22.285 19.7629 22.2796C19.3295 22.3006 18.9209 22.4868 18.6216 22.7996C18.3223 23.1123 18.1554 23.5277 18.1554 23.9596C18.1554 24.3915 18.3223 24.8068 18.6216 25.1196C18.9209 25.4323 19.3295 25.6185 19.7629 25.6396C20.7274 25.7996 21.3704 24.9996 21.3704 24.0396ZM25.3088 24.4396V20.9196H27.0771V24.4396C27.0771 25.3196 27.5593 25.7996 28.2827 25.7996C28.4516 25.8135 28.6216 25.7893 28.7798 25.7287C28.938 25.6681 29.0804 25.5727 29.1963 25.4496C29.3123 25.3265 29.3988 25.1789 29.4493 25.0179C29.4999 24.8568 29.5132 24.6865 29.4883 24.5196V20.9196H31.2566V24.4396C31.2566 26.5196 30.0509 27.3996 28.2827 27.3996C26.4341 27.3196 25.3088 26.4396 25.3088 24.4396ZM33.9089 20.9196H36.4006C38.6511 20.9196 40.0174 22.1996 40.0174 24.0396C40.0174 25.8796 38.6511 27.2396 36.4006 27.2396H33.9893V20.9196H33.9089ZM36.4006 25.6396C36.6245 25.6608 36.8505 25.6353 37.064 25.5646C37.2775 25.4938 37.4737 25.3795 37.6402 25.2289C37.8067 25.0782 37.9397 24.8946 38.0308 24.6898C38.1218 24.485 38.1688 24.2635 38.1688 24.0396C38.1688 23.8156 38.1218 23.5941 38.0308 23.3893C37.9397 23.1845 37.8067 23.0009 37.6402 22.8503C37.4737 22.6996 37.2775 22.5853 37.064 22.5146C36.8505 22.4438 36.6245 22.4183 36.4006 22.4396H35.6772V25.6396H36.4006ZM42.5091 20.9196H47.5727V22.4396H44.2773V23.4796H47.2512V24.9196H44.2773V27.2396H42.5091V20.9196ZM50.0643 20.9196H51.8326V25.7196H54.8868V27.2396H50.0643V20.9196ZM59.4682 20.8396H61.2364L63.9692 27.2396H62.0402L61.5579 26.1196H59.0663L58.5841 27.2396H56.7354L59.4682 20.8396ZM61.0757 24.7596L60.3523 22.9996L59.6289 24.7596H61.0757ZM66.2197 20.9196H69.1936C69.573 20.8889 69.9547 20.9371 70.3144 21.0611C70.6742 21.185 71.0041 21.382 71.2833 21.6396C71.5136 21.8867 71.6807 22.1854 71.7705 22.5104C71.8603 22.8354 71.8701 23.1772 71.7992 23.5067C71.7282 23.8363 71.5785 24.1441 71.3628 24.4039C71.1471 24.6637 70.8717 24.8681 70.5599 24.9996L72.0871 27.2396H70.0777L68.7917 25.3196H67.9879V27.2396H66.2197V20.9196ZM69.1132 23.9596C69.6758 23.9596 70.0777 23.6396 70.0777 23.2396C70.0777 22.7596 69.6758 22.5196 69.1132 22.5196H67.9879V24.0396H69.1132V23.9596ZM74.3376 20.9196H79.4816V22.3596H76.1058V23.3196H79.1601V24.7596H76.1058V25.7196H79.5619V27.2396H74.3376V20.9196ZM5.77768 24.8396C5.65646 25.1223 5.45503 25.3637 5.19807 25.5342C4.9411 25.7047 4.63976 25.7969 4.33093 25.7996C3.89753 25.7785 3.48886 25.5923 3.18961 25.2796C2.89035 24.9668 2.72343 24.5515 2.72343 24.1196C2.72343 23.6877 2.89035 23.2723 3.18961 22.9596C3.48886 22.6468 3.89753 22.4606 4.33093 22.4396C4.65963 22.4459 4.97931 22.5476 5.25064 22.7324C5.52197 22.9172 5.7331 23.1769 5.85806 23.4796H7.70668C7.54854 22.7132 7.12263 22.0275 6.50459 21.5442C5.88656 21.0608 5.1164 20.8112 4.33093 20.8396C3.88664 20.8252 3.44391 20.899 3.0286 21.0568C2.61328 21.2145 2.23368 21.453 1.91196 21.7583C1.59024 22.0637 1.33283 22.4297 1.15476 22.8351C0.976689 23.2405 0.881521 23.6772 0.874808 24.1196C0.872334 24.5578 0.958565 24.992 1.12836 25.3963C1.29815 25.8006 1.54802 26.1668 1.86307 26.4729C2.17812 26.779 2.55189 27.0188 2.96208 27.178C3.37227 27.3372 3.81048 27.4126 4.25056 27.3996C5.01851 27.4047 5.76649 27.1562 6.37736 26.693C6.98822 26.2297 7.42747 25.5779 7.62631 24.8396H5.77768Z" fill="black"/>
</svg>
