<svg width="77" height="32" viewBox="0 0 77 32" fill="none" xmlns="http://www.w3.org/2000/svg">
<g clip-path="url(#clip0_252_20795)">
<mask id="mask0_252_20795" style="mask-type:luminance" maskUnits="userSpaceOnUse" x="0" y="0" width="77" height="31">
<path d="M76.8051 0.000976562H0.69458V30.9396H76.8051V0.000976562Z" fill="white"/>
</mask>
<g mask="url(#mask0_252_20795)">
<path d="M18.1516 30.7781V22.9839L18.3141 22.8213H19.9378L20.1003 22.9839V30.7781L19.9378 30.9407H18.3141L18.1516 30.7781Z" fill="#08060D"/>
<path d="M18.1516 7.95728V0.163513L18.3141 0.000976562H19.9378L20.1003 0.163513V7.95728L19.9378 8.11982H18.3141L18.1516 7.95728Z" fill="#08060D"/>
<path d="M11.0934 25.1588H10.8638L9.71582 24.0103V23.7807L12.3965 21.1006L13.6121 21.1012L13.7752 21.2631V22.4788L11.0934 25.1588Z" fill="#08060D"/>
<path d="M11.0922 5.78125H10.8626L9.7146 6.92981V7.1594L12.3953 9.83953L13.6109 9.83897L13.774 9.677V8.4614L11.0922 5.78125Z" fill="#08060D"/>
<path d="M0.857116 14.4971H11.8988L12.0613 14.6596V16.2832L11.8988 16.4459H0.857116L0.69458 16.2832V14.6596L0.857116 14.4971Z" fill="#08060D"/>
<path d="M66.2506 14.4971H76.6431L76.8058 14.6596V16.2832L76.6431 16.4459H65.6016L65.439 16.2832L66.088 14.6596L66.2506 14.4971Z" fill="#08060D"/>
<path d="M32.2174 16.1638L32.0549 16.3264H27.0179L26.8554 16.4889C26.8554 16.814 27.1805 17.7886 28.4802 17.7886C28.9678 17.7886 29.4548 17.6261 29.6174 17.301L29.7799 17.1385H31.7298L31.8923 17.301C31.7298 18.2757 30.9177 19.7385 28.4802 19.7385C25.7182 19.7385 24.418 17.7886 24.418 15.5142C24.418 13.2399 25.7176 11.29 28.3176 11.29C30.9177 11.29 32.2174 13.2399 32.2174 15.5142V16.1644V16.1638ZM29.7799 14.5391C29.7799 14.3765 29.6174 13.2393 28.3176 13.2393C27.0179 13.2393 26.8554 14.3765 26.8554 14.5391L27.0179 14.7016H29.6174L29.7799 14.5391Z" fill="#08060D"/>
<path d="M36.7667 17.1385C36.7667 17.4634 36.9292 17.6261 37.2543 17.6261H38.7165L38.8791 17.7886V19.4133L38.7165 19.576H37.2543C35.792 19.576 34.4923 18.9258 34.4923 17.1385V13.5638L34.3297 13.4013H33.1927L33.03 13.2387V11.6139L33.1927 11.4514H34.3297L34.4923 11.2889V9.8266L34.6548 9.66406H36.6047L36.7672 9.8266V11.2889L36.9298 11.4514H38.7171L38.8797 11.6139V13.2387L38.7171 13.4013H36.9298L36.7672 13.5638V17.1385H36.7667Z" fill="#08060D"/>
<path d="M42.7783 19.5748H40.8284L40.6658 19.4121V8.36371L40.8284 8.20117H42.7783L42.9408 8.36371V19.4121L42.7783 19.5748Z" fill="#08060D"/>
<path d="M47.165 10.151H45.2151L45.0525 9.98851V8.36371L45.2151 8.20117H47.165L47.3275 8.36371V9.98851L47.165 10.151ZM47.165 19.5748H45.2151L45.0525 19.4121V11.6133L45.2151 11.4508H47.165L47.3275 11.6133V19.4121L47.165 19.5748Z" fill="#08060D"/>
<path d="M54.8016 8.36371V9.98851L54.6389 10.151H53.1768C52.8517 10.151 52.6891 10.3136 52.6891 10.6386V11.2888L52.8517 11.4513H54.4765L54.6389 11.6139V13.2386L54.4765 13.4012H52.8517L52.6891 13.5637V19.4127L52.5266 19.5752H50.5767L50.4142 19.4127V13.5637L50.2516 13.4012H49.1145L48.9519 13.2386V11.6139L49.1145 11.4513H50.2516L50.4142 11.2888V10.6386C50.4142 8.85132 51.7139 8.20117 53.1762 8.20117H54.6383L54.801 8.36371H54.8016Z" fill="#08060D"/>
<path d="M60.8129 19.7392C60.1626 21.364 59.5132 22.3387 57.2382 22.3387H56.4255L56.263 22.1761V20.5513L56.4255 20.3888H57.2382C58.0503 20.3888 58.2128 20.2262 58.3754 19.7386V19.5761L55.7759 13.2395V11.6147L55.9385 11.4521H57.4007L57.5633 11.6147L59.5132 17.1393H59.6756L61.6255 11.6147L61.788 11.4521H63.2503L63.4128 11.6147V13.2395L60.8134 19.7386L60.8129 19.7392Z" fill="#08060D"/>
<path d="M20.83 19.5759L20.6675 19.4133L20.6686 14.7055C20.6686 13.8934 20.3493 13.2637 19.3689 13.2432C18.8648 13.2302 18.288 13.2421 17.6719 13.2682L17.5799 13.3626L17.5811 19.4133L17.4184 19.5759H15.4692L15.3066 19.4133V11.5275L15.4692 11.365L19.8559 11.3252C22.0536 11.3252 22.943 12.8352 22.943 14.5395V19.4133L22.7805 19.5759H20.83Z" fill="#08060D"/>
</g>
</g>
<defs>
<clipPath id="clip0_252_20795">
<rect width="76.1106" height="31.0686" fill="white" transform="translate(0.69458)"/>
</clipPath>
</defs>
</svg>
