<svg width="83" height="24" viewBox="0 0 83 24" fill="none" xmlns="http://www.w3.org/2000/svg">
<path d="M12.2662 23.3996C18.5917 23.3996 23.7196 18.2957 23.7196 11.9996C23.7196 5.70356 18.5917 0.599609 12.2662 0.599609C5.94062 0.599609 0.812744 5.70356 0.812744 11.9996C0.812744 18.2957 5.94062 23.3996 12.2662 23.3996Z" fill="black"/>
<path d="M15.4524 13.6702C15.7571 13.1448 15.5762 12.4731 15.0484 12.1698C14.5206 11.8665 13.8457 12.0465 13.541 12.5718L10.5067 17.8029C10.2019 18.3283 10.3828 19 10.9106 19.3033C11.4384 19.6066 12.1133 19.4266 12.418 18.9013L15.4524 13.6702Z" fill="white"/>
<path d="M13.0006 12.4436C13.3053 11.9183 13.1245 11.2465 12.5967 10.9432C12.0689 10.6399 11.394 10.8199 11.0893 11.3453L10.8136 11.8206C10.5088 12.3459 10.6897 13.0177 11.2175 13.321C11.7453 13.6243 12.4202 13.4443 12.7249 12.9189L13.0006 12.4436Z" fill="white"/>
<path d="M13.6137 5.95438C13.9184 5.42903 13.7376 4.75728 13.2098 4.45398C12.682 4.15067 12.0071 4.33066 11.7024 4.85602L8.66805 10.0871C8.36332 10.6125 8.54415 11.2842 9.07197 11.5875C9.59976 11.8908 10.2746 11.7108 10.5794 11.1855L13.6137 5.95438Z" fill="white"/>
<path d="M31.5014 16.5553C31.0791 16.5553 30.6748 16.5236 30.2883 16.4601C29.9059 16.4007 29.5732 16.3293 29.2904 16.246C29.0075 16.1588 28.8083 16.0795 28.6928 16.0081L28.9677 14.2832C29.1151 14.3665 29.3143 14.4518 29.5653 14.539C29.8162 14.6262 30.0931 14.7016 30.3959 14.765C30.7026 14.8245 31.0114 14.8542 31.3221 14.8542C31.7404 14.8542 32.0432 14.7947 32.2304 14.6758C32.4217 14.5568 32.5173 14.3665 32.5173 14.1048C32.5173 13.9145 32.4595 13.7539 32.344 13.623C32.2284 13.4882 32.0372 13.3514 31.7703 13.2126C31.5074 13.0738 31.1548 12.8994 30.7126 12.6892C30.3381 12.5108 29.9935 12.3006 29.6788 12.0587C29.3641 11.8129 29.1111 11.5195 28.9199 11.1785C28.7287 10.8335 28.6331 10.4251 28.6331 9.95321C28.6331 9.54876 28.7087 9.19586 28.8601 8.8945C29.0155 8.58918 29.2326 8.3354 29.5115 8.13318C29.7943 7.93095 30.129 7.78027 30.5154 7.68114C30.9018 7.57805 31.3301 7.5265 31.8002 7.5265C32.4695 7.5265 33.0152 7.58796 33.4375 7.71088C33.8598 7.8338 34.1506 7.94285 34.31 8.03801L33.9634 9.69151C33.7841 9.55273 33.5072 9.42584 33.1328 9.31085C32.7623 9.19189 32.3818 9.13241 31.9914 9.13241C31.7125 9.13241 31.4835 9.16414 31.3042 9.22758C31.1249 9.28706 30.9915 9.37231 30.9038 9.48334C30.8162 9.59436 30.7724 9.72323 30.7724 9.86994C30.7724 10.0484 30.8241 10.207 30.9277 10.3458C31.0353 10.4806 31.2006 10.6154 31.4237 10.7502C31.6508 10.8811 31.9436 11.0278 32.3021 11.1904C32.6846 11.3609 33.0252 11.5353 33.324 11.7138C33.6268 11.8922 33.8837 12.0865 34.0948 12.2967C34.306 12.5068 34.4653 12.7467 34.5729 13.0163C34.6845 13.282 34.7402 13.5893 34.7402 13.9383C34.7402 14.4656 34.6147 14.9256 34.3638 15.3182C34.1168 15.7107 33.7522 16.016 33.2702 16.2341C32.7882 16.4482 32.1986 16.5553 31.5014 16.5553ZM38.1899 16.5553C37.7118 16.5553 37.3294 16.476 37.0425 16.3174C36.7597 16.1588 36.5545 15.9209 36.427 15.6036C36.3035 15.2825 36.2418 14.882 36.2418 14.4022V11.2498H35.4769V10.1079C35.7717 10.0246 36.0147 9.93934 36.2059 9.8521C36.3972 9.7609 36.5366 9.6241 36.6242 9.4417C36.6681 9.3505 36.7159 9.24146 36.7676 9.11457C36.8194 8.98768 36.8732 8.85485 36.929 8.71607C36.9848 8.57728 37.0385 8.44643 37.0903 8.32351H38.405V9.83426H40.126V11.2498H38.405V13.6052C38.405 14.0176 38.4269 14.3189 38.4707 14.5092C38.5185 14.6996 38.5982 14.8205 38.7098 14.8721C38.8213 14.9236 38.9747 14.9494 39.1699 14.9494C39.2695 14.9494 39.383 14.9375 39.5105 14.9137C39.638 14.8859 39.7595 14.8522 39.875 14.8126C39.9905 14.7729 40.0822 14.7313 40.1499 14.6877L40.4009 15.8772C40.2973 15.9803 40.132 16.0854 39.9049 16.1925C39.6818 16.2956 39.4209 16.3828 39.1221 16.4542C38.8233 16.5216 38.5126 16.5553 38.1899 16.5553ZM44.3681 16.5553C43.7546 16.5553 43.2327 16.4621 42.8024 16.2758C42.3762 16.0854 42.0336 15.8257 41.7746 15.4966C41.5157 15.1675 41.3284 14.7908 41.2129 14.3665C41.0974 13.9383 41.0416 13.4862 41.0456 13.0104C41.0575 12.3046 41.2109 11.7098 41.5057 11.226C41.8005 10.7423 42.2049 10.3755 42.7188 10.1257C43.2327 9.87589 43.8223 9.75099 44.4876 9.75099C45.3083 9.75099 45.9616 9.91356 46.4476 10.2387C46.9376 10.5639 47.2882 10.9941 47.4993 11.5294C47.7105 12.0647 47.8101 12.6496 47.7981 13.284C47.7902 13.9938 47.6388 14.5925 47.344 15.0802C47.0532 15.564 46.6508 15.9308 46.1369 16.1806C45.623 16.4304 45.0334 16.5553 44.3681 16.5553ZM44.4159 15.0683C44.8421 15.0683 45.137 14.9137 45.3003 14.6044C45.4676 14.2912 45.5513 13.8193 45.5513 13.1888C45.5513 12.832 45.5174 12.5068 45.4497 12.2134C45.382 11.916 45.2684 11.6801 45.1091 11.5056C44.9497 11.3272 44.7306 11.2379 44.4517 11.2379C44.0175 11.2379 43.7147 11.3946 43.5434 11.7078C43.3761 12.0211 43.2924 12.4791 43.2924 13.0818C43.2924 13.4466 43.3263 13.7796 43.394 14.081C43.4657 14.3824 43.5833 14.6223 43.7466 14.8007C43.9099 14.9791 44.133 15.0683 44.4159 15.0683ZM51.0011 12.5584L50.9174 11C50.9971 10.7582 51.1306 10.542 51.3178 10.3517C51.509 10.1614 51.7361 10.0127 51.999 9.90563C52.266 9.7946 52.5548 9.73909 52.8655 9.73909C52.9611 9.73909 53.0567 9.74504 53.1524 9.75694C53.248 9.76883 53.3157 9.78667 53.3555 9.81047V11.9398C53.3037 11.9041 53.2221 11.8684 53.1105 11.8327C52.999 11.7931 52.8416 11.7732 52.6384 11.7732C52.3197 11.7732 52.0508 11.8208 51.8317 11.916C51.6166 12.0072 51.4413 12.1143 51.3059 12.2372C51.1744 12.3601 51.0728 12.4672 51.0011 12.5584ZM48.9694 16.4601V9.83426H50.8577L50.9653 11.0119L51.1326 11.1904V16.4601H48.9694ZM54.5729 16.4601V9.83426H56.5449L56.5927 10.548C56.7441 10.4251 56.9333 10.3022 57.1604 10.1792C57.3915 10.0563 57.6444 9.95321 57.9193 9.86994C58.1942 9.78667 58.477 9.74306 58.7679 9.73909C59.2101 9.7272 59.5806 9.80055 59.8793 9.95916C60.1781 10.1178 60.4012 10.3854 60.5486 10.7621C60.7 11.1348 60.7757 11.6384 60.7757 12.2729V16.4601H58.6244V12.6773C58.6244 12.3561 58.5986 12.1043 58.5468 11.9219C58.495 11.7395 58.4093 11.6107 58.2898 11.5353C58.1703 11.46 58.007 11.4243 57.7998 11.4283C57.6444 11.4283 57.4632 11.464 57.256 11.5353C57.0528 11.6067 56.8756 11.7138 56.7242 11.8565V16.4601H54.5729ZM60.692 11.9041L60.3335 10.5837C60.4371 10.4885 60.6004 10.3735 60.8235 10.2387C61.0466 10.1039 61.3135 9.98692 61.6242 9.88779C61.939 9.78469 62.2816 9.73513 62.6521 9.73909C63.0983 9.73513 63.4807 9.81047 63.7994 9.96511C64.1181 10.1198 64.3631 10.3834 64.5344 10.7562C64.7057 11.1289 64.7914 11.6384 64.7914 12.2848V16.4601H62.6282V12.6654C62.6282 12.3442 62.6023 12.0944 62.5505 11.916C62.4987 11.7336 62.411 11.6067 62.2875 11.5353C62.168 11.46 62.0027 11.4243 61.7916 11.4283C61.5645 11.4283 61.3514 11.4818 61.1522 11.5889C60.953 11.6959 60.7996 11.801 60.692 11.9041ZM72.9326 9.83426L68.4389 14.652L68.4986 14.2119L68.5225 15.3657V16.4601H66.3952V12.5227V6.81276H68.5225V10.4647L68.4269 12.9033L68.1759 12.6059L70.4706 9.83426H72.9326ZM69.0364 13.6884L70.4467 12.2015L73.088 16.4601H70.6857L69.0364 13.6884ZM73.8545 16.4601V9.83426H76.0177V16.4601H73.8545ZM74.8345 9.03725C74.4879 9.03725 74.2011 8.93415 73.974 8.72796C73.7509 8.51781 73.6394 8.25214 73.6394 7.93095C73.6394 7.71287 73.6992 7.51262 73.8187 7.33022C73.9382 7.14782 74.0955 7.00309 74.2907 6.89603C74.4899 6.78501 74.7071 6.72949 74.9421 6.72949C75.2967 6.72949 75.5815 6.83259 75.7966 7.03878C76.0157 7.24101 76.1253 7.50667 76.1253 7.83579C76.1253 8.16094 75.9998 8.44247 75.7488 8.68038C75.4978 8.91829 75.1931 9.03725 74.8345 9.03725ZM79.9029 16.5553C79.4249 16.5553 79.0424 16.476 78.7556 16.3174C78.4727 16.1588 78.2676 15.9209 78.1401 15.6036C78.0166 15.2825 77.9548 14.882 77.9548 14.4022V11.2498H77.19V10.1079C77.4848 10.0246 77.7278 9.93934 77.919 9.8521C78.1102 9.7609 78.2496 9.6241 78.3373 9.4417C78.3811 9.3505 78.4289 9.24146 78.4807 9.11457C78.5325 8.98768 78.5863 8.85485 78.642 8.71607C78.6978 8.57728 78.7516 8.44643 78.8034 8.32351H80.118V9.83426H81.8391V11.2498H80.118V13.6052C80.118 14.0176 80.14 14.3189 80.1838 14.5092C80.2316 14.6996 80.3113 14.8205 80.4228 14.8721C80.5344 14.9236 80.6877 14.9494 80.8829 14.9494C80.9825 14.9494 81.0961 14.9375 81.2236 14.9137C81.351 14.8859 81.4725 14.8522 81.5881 14.8126C81.7036 14.7729 81.7952 14.7313 81.863 14.6877L82.1139 15.8772C82.0104 15.9803 81.845 16.0854 81.618 16.1925C81.3949 16.2956 81.1339 16.3828 80.8351 16.4542C80.5363 16.5216 80.2256 16.5553 79.9029 16.5553Z" fill="black"/>
</svg>
