<svg width="81" height="16" viewBox="0 0 81 16" fill="none" xmlns="http://www.w3.org/2000/svg">
<g clip-path="url(#clip0_252_20792)">
<path fill-rule="evenodd" clip-rule="evenodd" d="M18.7666 15.884L9.6333 0L0.5 15.884H18.7666ZM27.9785 15.1609L35.6113 0.722004H32.3098L27.0446 11.208L21.7793 0.722004H18.4778L26.1106 15.1609H27.9785ZM79.9957 0.722004V15.1609H77.2625V0.722004H79.9957ZM64.7816 9.77172C64.7816 8.64646 65.0165 7.65673 65.486 6.8026C65.9558 5.94847 66.6107 5.2909 67.4507 4.82996C68.2905 4.36899 69.2728 4.13852 70.3975 4.13852C71.394 4.13852 72.2908 4.35542 73.088 4.78927C73.8853 5.22312 74.5185 5.86712 74.9883 6.72125C75.4581 7.57539 75.7 8.61933 75.7144 9.85309V10.4835H67.6643C67.7211 11.3783 67.9844 12.0833 68.4542 12.5985C68.9383 13.1001 69.5859 13.351 70.3975 13.351C70.9098 13.351 71.3796 13.2154 71.8066 12.9442C72.234 12.6731 72.5541 12.307 72.7676 11.846L75.565 12.0494C75.2232 13.0662 74.5827 13.8797 73.6431 14.4898C72.7035 15.0999 71.6218 15.4049 70.3975 15.4049C69.2728 15.4049 68.2905 15.1745 67.4507 14.7135C66.6107 14.2526 65.9558 13.595 65.486 12.7409C65.0165 11.8867 64.7816 10.897 64.7816 9.77172ZM72.8959 8.75489C72.796 7.87364 72.5187 7.22966 72.0629 6.82294C71.6075 6.40266 71.0521 6.1925 70.3975 6.1925C69.643 6.1925 69.0309 6.41619 68.5611 6.8636C68.0913 7.31101 67.7996 7.94145 67.6856 8.75489H72.8959ZM60.1704 6.82294C60.6258 7.18898 60.9105 7.69742 61.0244 8.34817L63.8432 8.20583C63.7437 7.37879 63.4516 6.66025 62.9678 6.05016C62.4836 5.44006 61.8574 4.9723 61.0886 4.64693C60.3341 4.30799 59.5014 4.13852 58.5902 4.13852C57.4655 4.13852 56.4835 4.36899 55.6434 4.82996C54.8034 5.2909 54.1488 5.94847 53.679 6.8026C53.2092 7.65673 52.9743 8.64646 52.9743 9.77172C52.9743 10.897 53.2092 11.8867 53.679 12.7409C54.1488 13.595 54.8034 14.2526 55.6434 14.7135C56.4835 15.1745 57.4655 15.4049 58.5902 15.4049C59.5298 15.4049 60.3839 15.2355 61.1527 14.8965C61.9213 14.544 62.5478 14.0492 63.0316 13.412C63.5158 12.7748 63.8075 12.0291 63.9071 11.1749L61.0672 11.0529C60.9676 11.7715 60.69 12.3274 60.2345 12.7205C59.7788 13.1001 59.2308 13.29 58.5902 13.29C57.7077 13.29 57.0244 12.9849 56.5403 12.3748C56.0564 11.7647 55.8142 10.897 55.8142 9.77172C55.8142 8.64646 56.0564 7.77876 56.5403 7.16866C57.0244 6.55857 57.7077 6.2535 58.5902 6.2535C59.2024 6.2535 59.729 6.44331 60.1704 6.82294ZM46.3049 4.38206H48.8484L48.9218 6.45654C49.1023 5.86932 49.3534 5.41333 49.675 5.08853C50.1412 4.61754 50.7912 4.38206 51.6248 4.38206H52.6634V6.60243H51.6037C51.0102 6.60243 50.5227 6.68316 50.1412 6.84463C49.7737 7.00613 49.4911 7.2618 49.2935 7.61167C49.1096 7.96155 49.018 8.40563 49.018 8.94388V15.1609H46.3049V4.38206ZM34.573 6.8026C34.1032 7.65673 33.8683 8.64646 33.8683 9.77172C33.8683 10.897 34.1032 11.8867 34.573 12.7409C35.0428 13.595 35.6977 14.2526 36.5374 14.7135C37.3774 15.1745 38.3595 15.4049 39.4842 15.4049C40.7085 15.4049 41.7905 15.0999 42.7301 14.4898C43.6693 13.8797 44.3102 13.0662 44.6517 12.0494L41.8546 11.846C41.6408 12.307 41.3207 12.6731 40.8936 12.9442C40.4666 13.2154 39.9968 13.351 39.4842 13.351C38.6729 13.351 38.025 13.1001 37.5412 12.5985C37.0714 12.0833 36.8081 11.3783 36.7509 10.4835H44.8011V9.85309C44.787 8.61933 44.5451 7.57539 44.0753 6.72125C43.6055 5.86712 42.972 5.22312 42.1747 4.78927C41.3775 4.35542 40.4806 4.13852 39.4842 4.13852C38.3595 4.13852 37.3774 4.36899 36.5374 4.82996C35.6977 5.2909 35.0428 5.94847 34.573 6.8026ZM41.1499 6.82294C41.6053 7.22966 41.883 7.87364 41.9826 8.75489H36.7723C36.8863 7.94145 37.178 7.31101 37.6478 6.8636C38.1176 6.41619 38.7297 6.1925 39.4842 6.1925C40.1391 6.1925 40.6941 6.40266 41.1499 6.82294Z" fill="black"/>
</g>
<defs>
<clipPath id="clip0_252_20792">
<rect width="80.0309" height="15.884" fill="white" transform="translate(0.5)"/>
</clipPath>
</defs>
</svg>
