<svg xmlns="http://www.w3.org/2000/svg" width="557" height="300" fill="none" viewBox="0 0 557 300"><path fill="#f4f3ec" d="M.88 9V7.846h2.155v-3.69H1.119V3.003h3.32v4.844h2.058V9zM3 2.11V.67h1.475v1.44zM8.224 9V3.002h1.38v.905c.405-.679 1.179-1.06 1.988-1.06 1.345 0 2.142.87 2.142 2.393V9h-1.392V5.406c0-.904-.488-1.404-1.25-1.404-.845 0-1.487.69-1.487 1.618V9zm9.486.155c-1.345 0-2.51-1.19-2.51-3.178 0-1.963 1.165-3.13 2.51-3.13.81 0 1.523.358 1.952 1.012V.67h1.38V9h-1.38v-.869c-.476.702-1.143 1.024-1.952 1.024m-1.095-3.178c0 1.167.56 2.035 1.535 2.035.988 0 1.56-.868 1.56-2.023 0-1.154-.572-1.999-1.56-1.999-.976 0-1.535.833-1.535 1.987m8.927 3.178c-1.785 0-2.916-1.345-2.916-3.154 0-1.797 1.13-3.153 2.916-3.153 1.57 0 2.856.904 2.76 3.498h-4.307c.107 1.024.583 1.726 1.558 1.726.679 0 1.131-.393 1.298-.869h1.356c-.155 1.012-1.095 1.952-2.665 1.952m-1.524-3.737h2.928c-.084-1.059-.595-1.5-1.404-1.5-.917 0-1.369.655-1.524 1.5M29.803 9l2.083-3.153-1.904-2.845h1.511l1.261 1.988 1.262-1.988h1.511l-1.963 2.904L35.658 9h-1.5l-1.427-2.213L31.314 9zm17.948.155c-.809 0-1.475-.322-1.951-1.024V9h-1.38V.67h1.38v3.19c.428-.655 1.142-1.012 1.951-1.012 1.345 0 2.511 1.166 2.511 3.13 0 1.987-1.166 3.177-2.51 3.177m-1.999-3.166c0 1.155.571 2.023 1.559 2.023.976 0 1.535-.868 1.535-2.035 0-1.154-.56-1.987-1.535-1.987-.988 0-1.559.845-1.559 2M51.477 9V7.798h2.333v-4.38H51.94V2.206h1.535a.32.32 0 0 0 .334-.333V.67h1.44v7.128h2.284V9zm10.295.178c-1.666 0-3.118-.904-3.118-2.522 0-1.166.87-1.892 1.666-2.107-.75-.285-1.32-.964-1.32-1.844.023-1.38 1.273-2.214 2.772-2.214 1.488 0 2.75.834 2.761 2.214.012.88-.56 1.559-1.285 1.844.785.215 1.642.94 1.642 2.107 0 1.618-1.464 2.523-3.118 2.523m-1.654-2.63c0 .905.785 1.44 1.654 1.44s1.654-.535 1.654-1.44c0-.892-.785-1.415-1.654-1.415s-1.654.523-1.654 1.416m.274-3.736c0 .75.642 1.226 1.38 1.226s1.38-.476 1.38-1.226c0-.726-.642-1.178-1.38-1.178s-1.38.452-1.38 1.178m8.724 6.367c-1.856 0-3.225-1.238-3.225-4.332 0-2.951 1.452-4.355 3.38-4.355 1.677 0 2.689 1.082 2.725 2.296h-1.44c-.12-.75-.655-1.118-1.345-1.118-1.07 0-1.844.94-1.844 2.867.464-.75 1.273-1.023 2.023-1.023 1.475 0 2.784 1 2.784 2.749 0 1.761-1.237 2.915-3.058 2.915m-1.583-2.857c0 1 .702 1.655 1.583 1.655.892 0 1.606-.655 1.606-1.655s-.714-1.654-1.606-1.654c-.88 0-1.583.655-1.583 1.654M75.163 9V4.133h-1.75v-1.13h1.476a.26.26 0 0 0 .273-.274v-.381c0-1.035.548-1.678 1.643-1.678h2.201v1.083h-1.868c-.417 0-.583.214-.583.643v.606h2.332v1.13h-2.332V9zm8.474.178c-1.857 0-3.225-1.237-3.225-4.331 0-2.951 1.451-4.355 3.38-4.355 1.677 0 2.689 1.082 2.724 2.296h-1.44c-.118-.75-.654-1.118-1.344-1.118-1.071 0-1.845.94-1.845 2.867.464-.75 1.274-1.023 2.023-1.023 1.476 0 2.785 1 2.785 2.749 0 1.761-1.238 2.915-3.058 2.915m-1.583-2.856c0 1 .702 1.655 1.583 1.655.892 0 1.606-.655 1.606-1.655s-.714-1.654-1.606-1.654c-.881 0-1.583.655-1.583 1.654M88.98 9l3.451-7.128h-4.677V.67h6.117v1.392L90.552 9zm8.284 0V7.334h1.618V9zm7.26 0V7.334h1.619V9zm5.035 0V7.798h2.333v-4.38h-1.868V2.206h1.535a.32.32 0 0 0 .333-.333V.67h1.44v7.128h2.285V9zm10.295.178c-1.666 0-3.117-.904-3.117-2.522 0-1.166.868-1.892 1.666-2.107-.75-.285-1.321-.964-1.321-1.844.023-1.38 1.273-2.214 2.772-2.214 1.488 0 2.749.834 2.761 2.214.012.88-.559 1.559-1.285 1.844.785.215 1.642.94 1.642 2.107 0 1.618-1.464 2.523-3.118 2.523m-1.654-2.63c0 .905.786 1.44 1.654 1.44.869 0 1.654-.535 1.654-1.44 0-.892-.785-1.415-1.654-1.415s-1.654.523-1.654 1.416m.274-3.736c0 .75.643 1.226 1.38 1.226.738 0 1.381-.476 1.381-1.226 0-.726-.643-1.178-1.381-1.178-.737 0-1.38.452-1.38 1.178m8.629 6.343c-2.035 0-3.249-1.666-3.249-4.32 0-2.666 1.214-4.308 3.249-4.308s3.26 1.642 3.26 4.308c0 2.654-1.225 4.32-3.26 4.32m-1.773-4.32c0 1.904.547 3.106 1.773 3.106 1.237 0 1.773-1.202 1.773-3.106 0-1.916-.536-3.094-1.773-3.094-1.226 0-1.773 1.178-1.773 3.094m8.545 4.32c-1.344 0-2.511-1.19-2.511-3.178 0-1.963 1.167-3.13 2.511-3.13.81 0 1.524.358 1.952 1.012V.67h1.38V9h-1.38v-.869c-.476.702-1.142 1.024-1.952 1.024m-1.094-3.178c0 1.167.559 2.035 1.535 2.035.987 0 1.559-.868 1.559-2.023 0-1.154-.572-1.999-1.559-1.999-.976 0-1.535.833-1.535 1.987M138.602 9V7.798h2.332v-4.38h-1.868V2.206h1.535a.32.32 0 0 0 .333-.333V.67h1.44v7.128h2.285V9zm10.069.178c-1.678 0-2.69-1.082-2.725-2.296h1.428c.119.75.666 1.118 1.356 1.118 1.071 0 1.833-.928 1.833-2.867-.452.75-1.262 1.023-2.011 1.023-1.488 0-2.797-1-2.797-2.749 0-1.761 1.238-2.915 3.07-2.915 1.845 0 3.213 1.237 3.213 4.331 0 2.951-1.439 4.355-3.367 4.355m-1.452-5.83c0 1 .714 1.654 1.595 1.654.892 0 1.594-.655 1.594-1.654 0-1-.702-1.655-1.594-1.655-.881 0-1.595.655-1.595 1.655m9.022 5.83c-1.857 0-3.225-1.237-3.225-4.331 0-2.951 1.451-4.355 3.379-4.355 1.678 0 2.69 1.082 2.725 2.296h-1.44c-.119-.75-.654-1.118-1.344-1.118-1.071 0-1.845.94-1.845 2.867.464-.75 1.274-1.023 2.023-1.023 1.476 0 2.785 1 2.785 2.749 0 1.761-1.238 2.915-3.058 2.915m-1.583-2.856c0 1 .702 1.655 1.583 1.655.892 0 1.606-.655 1.606-1.655s-.714-1.654-1.606-1.654c-.881 0-1.583.655-1.583 1.654M167.644 9V7.798h2.332v-4.38h-1.868V2.206h1.535a.32.32 0 0 0 .333-.333V.67h1.44v7.128h2.285V9zm10.283.155c-2.035 0-3.249-1.666-3.249-4.32 0-2.666 1.214-4.308 3.249-4.308 2.034 0 3.26 1.642 3.26 4.308 0 2.654-1.226 4.32-3.26 4.32m-1.774-4.32c0 1.904.548 3.106 1.774 3.106 1.237 0 1.773-1.202 1.773-3.106 0-1.916-.536-3.094-1.773-3.094-1.226 0-1.774 1.178-1.774 3.094m9.034 4.32c-2.035 0-3.249-1.666-3.249-4.32 0-2.666 1.214-4.308 3.249-4.308s3.261 1.642 3.261 4.308c0 2.654-1.226 4.32-3.261 4.32m-1.773-4.32c0 1.904.547 3.106 1.773 3.106 1.238 0 1.773-1.202 1.773-3.106 0-1.916-.535-3.094-1.773-3.094-1.226 0-1.773 1.178-1.773 3.094m9.129 4.344c-1.857 0-3.225-1.238-3.225-4.332 0-2.951 1.451-4.355 3.379-4.355 1.678 0 2.69 1.082 2.725 2.296h-1.44c-.119-.75-.654-1.118-1.344-1.118-1.071 0-1.845.94-1.845 2.867.464-.75 1.274-1.023 2.023-1.023 1.476 0 2.785 1 2.785 2.749 0 1.761-1.238 2.915-3.058 2.915m-1.583-2.857c0 1 .702 1.655 1.583 1.655.892 0 1.606-.655 1.606-1.655s-.714-1.654-1.606-1.654c-.881 0-1.583.655-1.583 1.654M200.291 9V6.846h-3.796v-1.38L200.124.67h1.607v4.974h1.214v1.202h-1.214V9zm-2.475-3.356h2.475V2.336zM207.551 9V6.846h-3.796v-1.38l3.63-4.796h1.606v4.974h1.214v1.202h-1.214V9zm-2.475-3.356h2.475V2.336zM1.987 25.073v-1.214h3.404v1.214zm7.26 0v-1.214h3.404v1.214zm7.261 0v-1.214h3.404v1.214zm15.223 3.082c-1.19 0-1.952-.69-1.952-1.738 0-1.404 1.214-1.749 2.226-1.904l1.154-.166c.44-.06.547-.298.547-.572v-.011c0-.488-.333-.87-1.059-.87s-1.19.334-1.273.989h-1.38c.166-1.333 1.225-2.035 2.665-2.035 1.619 0 2.416.773 2.416 2.225v2.57c0 .167.119.274.285.274h.322V28h-.88c-.608 0-.989-.297-.989-.762v-.13c-.523.761-1.309 1.047-2.082 1.047m-.547-1.88c0 .535.392.833.987.833.952 0 1.535-.786 1.535-1.774v-.32c-.166.094-.345.13-.547.178l-.892.154c-.75.131-1.083.417-1.083.928m6.26 2.891 3.713-9.496h1.369l-3.713 9.496zM44.526 28v-8.33h1.38v3.237c.405-.678 1.179-1.06 1.988-1.06 1.345 0 2.142.87 2.142 2.393V28h-1.392v-3.594c0-.904-.488-1.404-1.25-1.404-.845 0-1.487.69-1.487 1.618V28zm10.057.155c-1.785 0-2.915-1.345-2.915-3.154 0-1.797 1.13-3.153 2.915-3.153 1.571 0 2.856.904 2.761 3.498h-4.308c.107 1.024.583 1.726 1.56 1.726.677 0 1.13-.393 1.296-.869h1.357c-.155 1.012-1.095 1.952-2.666 1.952m-1.523-3.737h2.927c-.083-1.059-.595-1.5-1.404-1.5-.916 0-1.368.655-1.523 1.5M58.916 28v-1.13h2.202V20.8h-1.833v-1.13h3.225v7.2h2.118V28zm7.26 0v-1.13h2.202V20.8h-1.832v-1.13h3.224v7.2h2.119V28zm10.117.155c-1.868 0-2.94-1.345-2.94-3.154 0-1.797 1.072-3.153 2.94-3.153s2.951 1.356 2.951 3.153c0 1.809-1.083 3.154-2.951 3.154m-1.535-3.166c0 1.083.428 2.047 1.535 2.047s1.535-.964 1.535-2.047c0-1.07-.428-2.023-1.535-2.023s-1.535.952-1.535 2.023M82.744 28v-1.666h1.618V28zm8.486 0c-1.083 0-1.654-.512-1.654-1.559v-3.308h-1.761v-1.13h1.487a.27.27 0 0 0 .274-.274v-1.714h1.38v1.987h2.261v1.13h-2.26v3.095c0 .416.19.642.678.642h1.856V28zm6.915.155c-1.642 0-2.617-.786-2.713-2.035h1.393c.13.666.595.976 1.356.976.678 0 1.119-.298 1.119-.762 0-.369-.274-.607-.786-.714l-1.19-.238c-.892-.19-1.713-.63-1.713-1.702 0-1.094 1-1.832 2.44-1.832 1.415 0 2.415.595 2.546 1.904h-1.392c-.096-.56-.5-.857-1.167-.857-.63 0-1.059.297-1.059.714 0 .404.334.595.762.678l1.285.25c.797.155 1.666.619 1.666 1.714 0 1.202-1.07 1.904-2.546 1.904M3.094 46.036v-1.963H1.142v-1.178h1.952V40.93h1.178v1.964h1.964v1.178H4.272v1.963zm7.26 0v-1.963H8.403v-1.178h1.951V40.93h1.179v1.964h1.963v1.178h-1.963v1.963zm7.26 0v-1.963h-1.95v-1.178h1.95V40.93h1.179v1.964h1.963v1.178h-1.963v1.963zm15.616 1.119c-.809 0-1.475-.322-1.951-1.024V47h-1.38v-8.33h1.38v3.19c.428-.655 1.142-1.012 1.951-1.012 1.345 0 2.511 1.166 2.511 3.13 0 1.987-1.166 3.177-2.51 3.177m-1.999-3.166c0 1.155.571 2.023 1.56 2.023.975 0 1.534-.868 1.534-2.035 0-1.154-.56-1.987-1.535-1.987-.988 0-1.559.845-1.559 2m6.213 4.177 3.713-9.496h1.369l-3.713 9.496zM44.526 47v-8.33h1.38v3.237c.405-.678 1.179-1.06 1.988-1.06 1.345 0 2.142.87 2.142 2.393V47h-1.392v-3.594c0-.904-.488-1.404-1.25-1.404-.845 0-1.487.69-1.487 1.618V47zm10.057.155c-1.785 0-2.915-1.345-2.915-3.154 0-1.797 1.13-3.153 2.915-3.153 1.571 0 2.856.904 2.761 3.498h-4.308c.107 1.024.583 1.726 1.56 1.726.677 0 1.13-.393 1.296-.869h1.357c-.155 1.012-1.095 1.952-2.666 1.952m-1.523-3.737h2.927c-.083-1.059-.595-1.5-1.404-1.5-.916 0-1.368.655-1.523 1.5M58.916 47v-1.13h2.202V39.8h-1.833v-1.13h3.225v7.2h2.118V47zm7.26 0v-1.13h2.202V39.8h-1.832v-1.13h3.224v7.2h2.119V47zm10.117.155c-1.868 0-2.94-1.345-2.94-3.154 0-1.797 1.072-3.153 2.94-3.153s2.951 1.356 2.951 3.153c0 1.809-1.083 3.154-2.951 3.154m-1.535-3.166c0 1.083.428 2.047 1.535 2.047s1.535-.964 1.535-2.047c0-1.07-.428-2.023-1.535-2.023s-1.535.952-1.535 2.023M82.744 47v-1.666h1.618V47zm8.486 0c-1.083 0-1.654-.512-1.654-1.559v-3.308h-1.761v-1.13h1.487a.27.27 0 0 0 .274-.274v-1.714h1.38v1.987h2.261v1.13h-2.26v3.095c0 .416.19.643.678.643h1.856V47zm6.915.155c-1.642 0-2.617-.786-2.713-2.035h1.393c.13.666.595.976 1.356.976.678 0 1.119-.298 1.119-.762 0-.369-.274-.607-.786-.714l-1.19-.238c-.892-.19-1.713-.63-1.713-1.702 0-1.094 1-1.832 2.44-1.832 1.415 0 2.415.595 2.546 1.904h-1.392c-.096-.56-.5-.857-1.167-.857-.63 0-1.059.297-1.059.714 0 .404.334.595.762.678l1.285.25c.797.155 1.666.619 1.666 1.714 0 1.202-1.07 1.904-2.546 1.904"/><path fill="#32f2ef" d="M4.225 67.333c-2.31 0-3.82-1.868-3.82-5.034 0-2.94 1.416-4.807 3.665-4.807 1.678 0 2.856 1.047 2.856 2.725l.012 4.629H5.914v-.655a1.84 1.84 0 0 1-1.535.774c-1.095 0-2.177-.88-2.177-2.547 0-1.666 1.07-2.51 2.165-2.51.631 0 1.226.25 1.547.725v-.369c0-1.237-.761-1.916-1.88-1.916-1.547 0-2.69 1.38-2.69 3.94 0 2.7 1.131 4.2 3.059 4.2h2.535v.845zm-1-4.915c0 1.035.5 1.738 1.297 1.738.833 0 1.333-.703 1.333-1.738s-.5-1.702-1.333-1.702c-.797 0-1.297.667-1.297 1.702m8.26 4.915c-2.309 0-3.82-1.868-3.82-5.034 0-2.94 1.416-4.807 3.665-4.807 1.678 0 2.856 1.047 2.856 2.725l.012 4.629h-1.023v-.655a1.84 1.84 0 0 1-1.535.774c-1.095 0-2.178-.88-2.178-2.547 0-1.666 1.07-2.51 2.166-2.51.63 0 1.225.25 1.547.725v-.369c0-1.237-.762-1.916-1.88-1.916-1.548 0-2.69 1.38-2.69 3.94 0 2.7 1.13 4.2 3.058 4.2h2.535v.845zm-1-4.915c0 1.035.5 1.738 1.297 1.738.833 0 1.333-.703 1.333-1.738s-.5-1.702-1.333-1.702c-.797 0-1.297.667-1.297 1.702m13.379.56v-.965h3.213v.964zM29.779 66v-.904h2.428v-4.939h-1.928v-.916h1.63c.167 0 .298-.131.298-.286V57.67h1.071v7.426h2.416V66zm9.546 1.5v-.536h.166c.357 0 .512-.214.512-.512V66H39.3v-1.428h1.38v1.904c0 .666-.452 1.023-1.178 1.023zm8.01-1.322c-1.726 0-3.106-1.154-3.106-4.32 0-2.974 1.428-4.366 3.272-4.366 1.607 0 2.57 1.094 2.583 2.26h-1.095c-.143-.904-.774-1.32-1.56-1.32-1.296 0-2.082 1.166-2.082 3.32.5-.917 1.416-1.214 2.178-1.214 1.488 0 2.76 1.011 2.76 2.76 0 1.726-1.249 2.88-2.95 2.88m-1.81-2.832c0 1.155.798 1.916 1.822 1.916 1.011 0 1.82-.761 1.82-1.916 0-1.142-.809-1.916-1.82-1.916-1.024 0-1.821.774-1.821 1.916m15.783 1.69V62.99h-2.047v-.928h2.047v-2.047h.928v2.047h2.047v.928h-2.047v2.047zm4.773.964v-.904h2.428v-4.939h-1.928v-.916h1.63c.167 0 .298-.131.298-.286V57.67h1.071v7.426h2.416V66zm9.545 1.5v-.536h.167c.357 0 .512-.214.512-.512V66h-.702v-1.428h1.38v1.904c0 .666-.452 1.023-1.178 1.023zm7.69-1.322c-1.607 0-2.571-1.094-2.583-2.26h1.095c.143.904.773 1.32 1.559 1.32 1.297 0 2.082-1.166 2.082-3.32-.5.917-1.416 1.214-2.177 1.214-1.488 0-2.761-1.011-2.761-2.76 0-1.726 1.25-2.88 2.95-2.88 1.726 0 3.107 1.154 3.107 4.32 0 2.974-1.428 4.367-3.273 4.367m-1.667-5.854c0 1.142.81 1.916 1.821 1.916s1.82-.774 1.82-1.916c0-1.155-.809-1.916-1.82-1.916s-1.82.761-1.82 1.916m16.96 7.009c-2.308 0-3.82-1.868-3.82-5.034 0-2.94 1.417-4.807 3.666-4.807 1.678 0 2.856 1.047 2.856 2.725l.012 4.629h-1.024v-.655a1.84 1.84 0 0 1-1.535.774c-1.094 0-2.177-.88-2.177-2.547 0-1.666 1.07-2.51 2.165-2.51.631 0 1.226.25 1.547.725v-.369c0-1.237-.761-1.916-1.88-1.916-1.547 0-2.69 1.38-2.69 3.94 0 2.7 1.131 4.2 3.06 4.2h2.534v.845zm-.999-4.915c0 1.035.5 1.738 1.297 1.738.833 0 1.333-.703 1.333-1.738s-.5-1.702-1.333-1.702c-.797 0-1.297.667-1.297 1.702m8.26 4.915c-2.309 0-3.82-1.868-3.82-5.034 0-2.94 1.416-4.807 3.665-4.807 1.678 0 2.856 1.047 2.856 2.725l.012 4.629h-1.023v-.655a1.84 1.84 0 0 1-1.535.774c-1.095 0-2.178-.88-2.178-2.547 0-1.666 1.071-2.51 2.166-2.51.631 0 1.226.25 1.547.725v-.369c0-1.237-.762-1.916-1.88-1.916-1.547 0-2.69 1.38-2.69 3.94 0 2.7 1.131 4.2 3.059 4.2h2.534v.845zm-1-4.915c0 1.035.5 1.738 1.298 1.738.833 0 1.332-.703 1.332-1.738s-.499-1.702-1.332-1.702c-.798 0-1.298.667-1.298 1.702"/><path fill="#f4f3ec" fill-opacity=".8" d="M10.295 314.975H8.7v-.833h1.452c.643 0 1.119-.249 1.119-.904v-2.678c0-.714.178-1.189.964-1.32-.786-.143-.964-.607-.964-1.333v-2.69c0-.654-.476-.892-1.119-.892H8.7v-.845h1.595c1.166 0 2.023.512 2.023 1.797v2.606c0 .464.226.881 1.107.881v.94c-.881 0-1.107.416-1.107.88v2.606c0 1.274-.857 1.785-2.023 1.785"/><path fill="#c670ff" d="M2.083 81.977v-.964h3.212v.964zm8.962 3.178c-1.762 0-2.868-1.345-2.868-3.154 0-1.797 1.106-3.153 2.868-3.153 1.487 0 2.796.845 2.653 3.427H9.26c.083 1.107.595 2.011 1.785 2.011.797 0 1.32-.488 1.499-1.047h1.047c-.166 1-1.106 1.916-2.546 1.916m-1.762-3.677h3.392c-.083-1.202-.643-1.762-1.63-1.762-1.083 0-1.619.786-1.762 1.762M15.461 85l2.106-3.118-1.94-2.88h1.179l1.428 2.154 1.428-2.154h1.178l-1.976 2.904L20.96 85h-1.19l-1.56-2.368L16.652 85zm7.272 1.975v-7.973h1.047v.905c.488-.714 1.167-1.06 2.011-1.06 1.428 0 2.607 1.286 2.607 3.178 0 1.88-1.178 3.13-2.607 3.13-.844 0-1.582-.357-2.01-1.047v2.867zm1-4.962c0 1.297.666 2.261 1.797 2.261 1.118 0 1.773-.94 1.773-2.249 0-1.32-.655-2.297-1.773-2.297-1.13 0-1.797.976-1.797 2.285m8.998 3.142c-1.821 0-2.892-1.357-2.892-3.154 0-1.785 1.07-3.153 2.892-3.153 1.82 0 2.891 1.368 2.891 3.153 0 1.797-1.07 3.154-2.891 3.154m-1.81-3.166c0 1.166.5 2.285 1.81 2.285 1.309 0 1.808-1.118 1.808-2.285 0-1.154-.5-2.26-1.808-2.26-1.31 0-1.81 1.106-1.81 2.26M38.159 85v-5.998h1.083v1.012a1.96 1.96 0 0 1 1.714-1.012h1.44v1.012h-1.523c-.952 0-1.63.619-1.63 1.82V85zm9.486 0c-1.023 0-1.511-.416-1.511-1.416V79.87h-1.785v-.869h1.511c.167 0 .274-.107.274-.261v-1.726h1.047v1.987h2.368v.87H47.18v3.57c0 .428.178.677.714.677h1.916V85zm13.129 0v-5.129h-1.785v-.869h1.51c.168 0 .275-.107.275-.261v-.524c0-.988.452-1.547 1.487-1.547h2.13v.869h-1.928c-.464 0-.642.226-.642.726v.737h2.487v.87H61.82V85zm7.855.155c-1.297 0-2.201-.821-2.201-2.416v-3.737h1.059v3.678c0 1.047.583 1.594 1.463 1.594.928 0 1.702-.75 1.702-1.809v-3.463h1.047V85h-1.047v-.904c-.393.666-1.154 1.059-2.023 1.059M73.687 85v-5.998h1.059v.905c.38-.667 1.154-1.06 2.011-1.06 1.297 0 2.201.822 2.201 2.416V85h-1.047v-3.677c0-1.047-.595-1.595-1.463-1.595-.94 0-1.702.75-1.702 1.81V85zm10.021.155c-1.75 0-2.892-1.357-2.892-3.154 0-1.785 1.143-3.153 2.904-3.153 1.368 0 2.38.833 2.57 2.213h-1.07c-.167-.845-.75-1.333-1.512-1.333-1.25 0-1.797 1.071-1.797 2.261 0 1.202.547 2.285 1.797 2.285.773 0 1.297-.404 1.511-1.178h1.06c-.227 1.226-1.143 2.059-2.571 2.059M91.206 85c-1.023 0-1.51-.416-1.51-1.416V79.87H87.91v-.869h1.511c.167 0 .274-.107.274-.261v-1.726h1.047v1.987h2.368v.87h-2.368v3.57c0 .428.179.677.714.677h1.916V85zm4.095 0v-.892h2.238v-4.213h-2v-.893h3.082v5.106h2.226V85zm2.19-7.021V76.67h1.19v1.309zm7.844 7.176c-1.821 0-2.892-1.357-2.892-3.154 0-1.785 1.071-3.153 2.892-3.153s2.891 1.368 2.891 3.153c0 1.797-1.071 3.154-2.891 3.154m-1.809-3.166c0 1.166.5 2.285 1.809 2.285s1.808-1.118 1.808-2.285c0-1.154-.499-2.26-1.808-2.26s-1.809 1.106-1.809 2.26M109.989 85v-5.998h1.059v.905c.381-.667 1.154-1.06 2.011-1.06 1.297 0 2.202.822 2.202 2.416V85h-1.048v-3.677c0-1.047-.595-1.595-1.463-1.595-.94 0-1.702.75-1.702 1.81V85zm14.306 0v-8.33h1.083v3.57h3.475v-3.57h1.083V85h-1.083v-3.844h-3.475V85zm10.176.155c-1.761 0-2.868-1.345-2.868-3.154 0-1.797 1.107-3.153 2.868-3.153 1.488 0 2.797.845 2.654 3.427h-4.439c.084 1.107.595 2.011 1.785 2.011.798 0 1.321-.488 1.5-1.047h1.047c-.167 1-1.107 1.916-2.547 1.916m-1.761-3.677h3.392c-.084-1.202-.643-1.762-1.631-1.762-1.083 0-1.618.786-1.761 1.762M138.792 85v-.869h2.321V77.54h-1.892v-.869h2.951v7.461h2.309V85zm7.261 0v-.869h2.32V77.54h-1.892v-.869h2.951v7.461h2.309V85zm10.104.155c-1.82 0-2.891-1.357-2.891-3.154 0-1.785 1.071-3.153 2.891-3.153s2.892 1.368 2.892 3.153c0 1.797-1.071 3.154-2.892 3.154m-1.809-3.166c0 1.166.5 2.285 1.809 2.285s1.809-1.118 1.809-2.285c0-1.154-.5-2.26-1.809-2.26s-1.809 1.106-1.809 2.26M161.026 85l-.893-8.33h1.071l.607 6.474 1.107-4.201h1.023l1.107 4.189.583-6.462h1.071l-.881 8.33h-1.19l-1.201-4.617L162.204 85zm9.652.155c-1.821 0-2.892-1.357-2.892-3.154 0-1.785 1.071-3.153 2.892-3.153s2.892 1.368 2.892 3.153c0 1.797-1.071 3.154-2.892 3.154m-1.809-3.166c0 1.166.5 2.285 1.809 2.285s1.809-1.118 1.809-2.285c0-1.154-.5-2.26-1.809-2.26s-1.809 1.106-1.809 2.26M176.106 85v-5.998h1.083v1.012a1.95 1.95 0 0 1 1.713-1.012h1.44v1.012h-1.523c-.952 0-1.63.619-1.63 1.82V85zm6.249 0v-.869h2.32V77.54h-1.892v-.869h2.951v7.461h2.309V85zm9.783.155c-1.44 0-2.606-1.285-2.606-3.178 0-1.88 1.166-3.13 2.606-3.13.845 0 1.571.358 1.999 1.048V76.67h1.059V85h-1.059v-.904c-.476.714-1.154 1.059-1.999 1.059m-1.511-3.178c0 1.321.654 2.297 1.773 2.297 1.13 0 1.797-.976 1.797-2.285 0-1.297-.667-2.26-1.797-2.26-1.119 0-1.773.94-1.773 2.248m10.021 4.998c-1.452-1.82-2.106-3.63-2.106-5.724 0-2.142.654-3.962 2.106-5.771h.857c-1.297 2.082-1.821 3.737-1.821 5.771 0 2.012.512 3.654 1.821 5.724zm6.987 0c-1.167 0-2.023-.511-2.023-1.785v-2.606c0-.464-.227-.88-1.107-.88v-.94c.88 0 1.107-.417 1.107-.881v-2.606c0-1.285.856-1.797 2.023-1.797h1.594v.845h-1.452c-.642 0-1.118.238-1.118.892v2.69c0 .726-.179 1.19-.964 1.333.785.13.964.607.964 1.32v2.678c0 .654.476.904 1.118.904h1.452v.833zm6.558.12c-1.511 0-2.463-.643-2.618-1.786h1.071c.178.655.654.929 1.583.929.856 0 1.654-.44 1.654-1.654v-.774c-.453.75-1.167 1.06-1.952 1.06-1.44 0-2.618-1.274-2.618-3.023s1.178-3 2.618-3c.797 0 1.559.37 1.952 1.048v-.893h1.047v5.57c0 1.856-1.321 2.522-2.737 2.522m-1.809-5.26c0 1.25.702 2.177 1.773 2.177s1.785-.928 1.785-2.177c0-1.262-.714-2.107-1.785-2.107s-1.773.845-1.773 2.107M219.668 85v-5.998h1.083v1.012a1.96 1.96 0 0 1 1.714-1.012h1.44v1.012h-1.524c-.952 0-1.63.619-1.63 1.82V85zm9.188.155c-1.761 0-2.867-1.345-2.867-3.154 0-1.797 1.106-3.153 2.867-3.153 1.488 0 2.797.845 2.654 3.427h-4.439c.084 1.107.595 2.011 1.785 2.011.798 0 1.321-.488 1.5-1.047h1.047c-.167 1-1.107 1.916-2.547 1.916m-1.761-3.677h3.392c-.084-1.202-.643-1.762-1.631-1.762-1.082 0-1.618.786-1.761 1.762m9.022 3.677c-1.761 0-2.868-1.345-2.868-3.154 0-1.797 1.107-3.153 2.868-3.153 1.487 0 2.796.845 2.654 3.427h-4.439c.083 1.107.595 2.011 1.785 2.011.797 0 1.321-.488 1.499-1.047h1.047c-.166 1-1.106 1.916-2.546 1.916m-1.761-3.677h3.391c-.083-1.202-.642-1.762-1.63-1.762-1.083 0-1.619.786-1.761 1.762M243.675 85c-1.024 0-1.512-.416-1.512-1.416V79.87h-1.785v-.869h1.512c.166 0 .273-.107.273-.261v-1.726h1.048v1.987h2.368v.87h-2.368v3.57c0 .428.178.677.714.677h1.916V85zm4.095 0v-.892h2.237v-4.213h-1.999v-.893h3.082v5.106h2.225V85zm2.189-7.021V76.67h1.19v1.309zM255.197 85v-5.998h1.059v.905c.381-.667 1.154-1.06 2.011-1.06 1.297 0 2.201.822 2.201 2.416V85h-1.047v-3.677c0-1.047-.595-1.595-1.463-1.595-.941 0-1.702.75-1.702 1.81V85zm9.819 2.094c-1.512 0-2.464-.642-2.618-1.785h1.071c.178.655.654.929 1.582.929.857 0 1.654-.44 1.654-1.654v-.774c-.452.75-1.166 1.06-1.951 1.06-1.44 0-2.618-1.274-2.618-3.023s1.178-3 2.618-3c.797 0 1.559.37 1.951 1.048v-.893h1.048v5.57c0 1.856-1.321 2.522-2.737 2.522m-1.809-5.26c0 1.25.702 2.178 1.773 2.178s1.785-.928 1.785-2.177c0-1.262-.714-2.107-1.785-2.107s-1.773.845-1.773 2.107m13.866-.987v-.94h5.022v.94zm0 2.309v-.94h5.022v.94zm15.33-3.225V76.67h.952v3.26zm2.451 0V76.67h.952v3.26zM298.759 85v-8.33h1.059v3.237c.381-.667 1.154-1.06 2.011-1.06 1.297 0 2.202.822 2.202 2.416V85h-1.047v-3.677c0-1.047-.595-1.595-1.464-1.595-.94 0-1.702.75-1.702 1.81V85zm9.962.155c-1.761 0-2.868-1.345-2.868-3.154 0-1.797 1.107-3.153 2.868-3.153 1.487 0 2.796.845 2.653 3.427h-4.438c.083 1.107.595 2.011 1.785 2.011.797 0 1.321-.488 1.499-1.047h1.047c-.166 1-1.106 1.916-2.546 1.916m-1.761-3.677h3.391c-.083-1.202-.643-1.762-1.63-1.762-1.083 0-1.619.786-1.761 1.762M313.042 85v-.869h2.32V77.54h-1.892v-.869h2.951v7.461h2.309V85zm7.26 0v-.869h2.321V77.54h-1.892v-.869h2.951v7.461h2.308V85zm10.105.155c-1.821 0-2.892-1.357-2.892-3.154 0-1.785 1.071-3.153 2.892-3.153s2.891 1.368 2.891 3.153c0 1.797-1.071 3.154-2.891 3.154m-1.809-3.166c0 1.166.5 2.285 1.809 2.285s1.809-1.118 1.809-2.285c0-1.154-.5-2.26-1.809-2.26s-1.809 1.106-1.809 2.26m7.367-2.058V76.67h.952v3.26zm2.452 0V76.67h.952v3.26zm5.844 6.568v-.535h.167c.357 0 .511-.214.511-.512V85h-.702v-1.428h1.381v1.904c0 .666-.452 1.023-1.178 1.023zm14.533.476h-1.595v-.833h1.452c.643 0 1.119-.25 1.119-.904v-2.677c0-.715.178-1.19.964-1.321-.786-.143-.964-.607-.964-1.333v-2.69c0-.654-.476-.892-1.119-.892h-1.452v-.845h1.595c1.166 0 2.023.512 2.023 1.797v2.606c0 .464.226.88 1.107.88v.94c-.881 0-1.107.417-1.107.881v2.606c0 1.274-.857 1.785-2.023 1.785m6.13 0c1.309-2.07 1.82-3.712 1.82-5.724 0-2.034-.523-3.689-1.82-5.771h.857c1.451 1.809 2.106 3.63 2.106 5.771 0 2.095-.655 3.904-2.106 5.724zm16.96 0c-1.166 0-2.023-.511-2.023-1.785v-2.606c0-.464-.226-.88-1.107-.88v-.94c.881 0 1.107-.417 1.107-.881v-2.606c0-1.285.857-1.797 2.023-1.797h1.595v.845h-1.452c-.643 0-1.119.238-1.119.892v2.69c0 .726-.178 1.19-.964 1.333.786.13.964.607.964 1.32v2.678c0 .654.476.904 1.119.904h1.452v.833zM2.082 195.977v-.963h3.214v.963zM22.698 199v-.893h2.237v-4.212h-2v-.893h3.083v5.105h2.225V199zm2.19-7.021v-1.309h1.19v1.309zM31.73 199v-5.129h-1.785v-.869h1.511c.167 0 .274-.107.274-.261v-.524c0-.988.452-1.547 1.487-1.547h2.13v.869h-1.927c-.464 0-.643.226-.643.726v.737h2.487v.869h-2.487V199zm9.188 1.975c-1.452-1.82-2.106-3.629-2.106-5.724 0-2.142.654-3.962 2.106-5.771h.857c-1.297 2.083-1.82 3.737-1.82 5.771 0 2.012.511 3.654 1.82 5.724zm6.059-4.343-.262-3.13v-2.832h1.07v2.832l-.249 3.13zM46.56 199v-1.428h1.38V199zm7.903 2.094c-1.511 0-2.463-.642-2.618-1.785h1.071c.179.655.655.929 1.583.929.857 0 1.654-.441 1.654-1.654v-.774c-.452.75-1.166 1.059-1.952 1.059-1.44 0-2.618-1.273-2.618-3.023 0-1.749 1.178-2.998 2.618-2.998.798 0 1.56.369 1.952 1.047v-.893h1.047v5.57c0 1.856-1.32 2.522-2.737 2.522m-1.809-5.259c0 1.249.703 2.177 1.773 2.177 1.072 0 1.786-.928 1.786-2.177 0-1.262-.715-2.107-1.785-2.107-1.072 0-1.774.845-1.774 2.107M59.94 199v-5.998h1.083v1.012a1.95 1.95 0 0 1 1.713-1.012h1.44v1.012h-1.523c-.952 0-1.63.619-1.63 1.821V199zm9.188.155c-1.761 0-2.868-1.345-2.868-3.154 0-1.797 1.107-3.153 2.868-3.153 1.487 0 2.796.845 2.653 3.427h-4.438c.083 1.107.595 2.011 1.785 2.011.797 0 1.32-.488 1.5-1.047h1.046c-.166.999-1.106 1.916-2.546 1.916m-1.761-3.677h3.391c-.083-1.202-.642-1.762-1.63-1.762-1.083 0-1.619.786-1.761 1.762m9.021 3.677c-1.761 0-2.868-1.345-2.868-3.154 0-1.797 1.107-3.153 2.868-3.153 1.488 0 2.797.845 2.654 3.427h-4.439c.083 1.107.595 2.011 1.785 2.011.797 0 1.321-.488 1.5-1.047h1.047c-.167.999-1.107 1.916-2.547 1.916m-1.761-3.677h3.391c-.083-1.202-.642-1.762-1.63-1.762-1.083 0-1.618.786-1.761 1.762M83.946 199c-1.023 0-1.511-.416-1.511-1.416v-3.713H80.65v-.869h1.511c.167 0 .274-.107.274-.261v-1.726h1.047v1.987h2.368v.869h-2.368v3.57c0 .428.178.678.714.678h1.916V199zm4.095 0v-.893h2.237v-4.212H88.28v-.893h3.082v5.105h2.225V199zm2.19-7.021v-1.309h1.19v1.309zM95.468 199v-5.998h1.06v.905c.38-.667 1.153-1.059 2.01-1.059 1.297 0 2.202.821 2.202 2.415V199h-1.047v-3.677c0-1.047-.596-1.595-1.464-1.595-.94 0-1.702.75-1.702 1.809V199zm9.819 2.094c-1.511 0-2.463-.642-2.618-1.785h1.071c.178.655.654.929 1.583.929.856 0 1.654-.441 1.654-1.654v-.774c-.452.75-1.166 1.059-1.952 1.059-1.44 0-2.618-1.273-2.618-3.023 0-1.749 1.178-2.998 2.618-2.998.797 0 1.559.369 1.952 1.047v-.893h1.047v5.57c0 1.856-1.321 2.522-2.737 2.522m-1.809-5.259c0 1.249.702 2.177 1.773 2.177s1.785-.928 1.785-2.177c0-1.262-.714-2.107-1.785-2.107s-1.773.845-1.773 2.107m7.332 5.14c1.309-2.07 1.821-3.712 1.821-5.724 0-2.034-.524-3.688-1.821-5.771h.857c1.452 1.809 2.106 3.629 2.106 5.771 0 2.095-.654 3.904-2.106 5.724zm9.7 0c-1.166 0-2.023-.511-2.023-1.785v-2.606c0-.464-.226-.88-1.107-.88v-.94c.881 0 1.107-.417 1.107-.881v-2.606c0-1.285.857-1.797 2.023-1.797h1.594v.845h-1.451c-.643 0-1.119.238-1.119.892v2.69c0 .726-.178 1.19-.964 1.333.786.131.964.606.964 1.32v2.678c0 .655.476.904 1.119.904h1.451v.833zm4.773-1.975v-5.998h1.083v1.012a1.95 1.95 0 0 1 1.714-1.012h1.44v1.012h-1.524c-.952 0-1.63.619-1.63 1.821V199zm9.188.155c-1.761 0-2.868-1.345-2.868-3.154 0-1.797 1.107-3.153 2.868-3.153 1.488 0 2.797.845 2.654 3.427h-4.439c.084 1.107.595 2.011 1.785 2.011.798 0 1.321-.488 1.5-1.047h1.047c-.167.999-1.107 1.916-2.547 1.916m-1.761-3.677h3.392c-.084-1.202-.643-1.762-1.631-1.762-1.083 0-1.618.786-1.761 1.762m9.319 3.522c-1.023 0-1.511-.416-1.511-1.416v-3.713h-1.785v-.869h1.511c.167 0 .274-.107.274-.261v-1.726h1.047v1.987h2.368v.869h-2.368v3.57c0 .428.179.678.714.678h1.916V199zm6.463.155c-1.297 0-2.201-.821-2.201-2.416v-3.737h1.059v3.677c0 1.048.583 1.595 1.464 1.595.928 0 1.701-.75 1.701-1.809v-3.463h1.047V199h-1.047v-.904c-.392.666-1.154 1.059-2.023 1.059m5.833-.155v-5.998h1.083v1.012a1.95 1.95 0 0 1 1.713-1.012h1.44v1.012h-1.523c-.952 0-1.63.619-1.63 1.821V199zm6.487 0v-5.998h1.059v.905c.38-.667 1.154-1.059 2.011-1.059 1.297 0 2.201.821 2.201 2.415V199h-1.047v-3.677c0-1.047-.595-1.595-1.464-1.595-.94 0-1.701.75-1.701 1.809V199zm14.52 0v-5.998h1.059v.905c.381-.667 1.155-1.059 2.012-1.059 1.297 0 2.201.821 2.201 2.415V199h-1.047v-3.677c0-1.047-.595-1.595-1.464-1.595-.94 0-1.702.75-1.702 1.809V199zm9.462.155c-1.297 0-2.201-.821-2.201-2.416v-3.737h1.059v3.677c0 1.048.583 1.595 1.464 1.595.928 0 1.701-.75 1.701-1.809v-3.463h1.047V199h-1.047v-.904c-.392.666-1.154 1.059-2.023 1.059m4.821-.155v-.869h2.321v-6.592h-1.892v-.869h2.951v7.461h2.308V199zm7.261 0v-.869h2.32v-6.592h-1.892v-.869h2.951v7.461h2.309V199zm9.45 1.975h-1.595v-.833h1.452c.642 0 1.118-.249 1.118-.904v-2.678c0-.714.179-1.189.964-1.32-.785-.143-.964-.607-.964-1.333v-2.69c0-.654-.476-.892-1.118-.892h-1.452v-.845h1.595c1.166 0 2.023.512 2.023 1.797v2.606c0 .464.226.881 1.106.881v.94c-.88 0-1.106.416-1.106.88v2.606c0 1.274-.857 1.785-2.023 1.785m7.224-6.116v-1.428h1.381v1.428zm0 4.141v-1.428h1.381v1.904c0 .666-.453 1.023-1.178 1.023h-.179v-.535h.167c.357 0 .511-.214.511-.512V199zM2.083 214.977v-.963h3.212v.963zm0 19v-.963h3.212v.963zM23.638 237v-5.998h1.082v1.012a1.95 1.95 0 0 1 1.714-1.012h1.44v1.012h-1.523c-.952 0-1.63.619-1.63 1.821V237zm9.188.155c-1.761 0-2.868-1.345-2.868-3.154 0-1.797 1.107-3.153 2.868-3.153 1.487 0 2.796.845 2.654 3.427h-4.44c.084 1.107.596 2.011 1.786 2.011.797 0 1.32-.488 1.5-1.047h1.046c-.166.999-1.106 1.916-2.546 1.916m-1.761-3.677h3.391c-.083-1.202-.643-1.762-1.63-1.762-1.083 0-1.619.786-1.761 1.762M40.384 237c-1.024 0-1.512-.416-1.512-1.416v-3.713h-1.785v-.869H38.6c.166 0 .273-.107.273-.261v-1.726h1.048v1.987h2.368v.869H39.92v3.57c0 .428.178.678.714.678h1.916V237zm6.463.155c-1.297 0-2.202-.821-2.202-2.416v-3.737h1.06v3.677c0 1.048.583 1.595 1.463 1.595.928 0 1.702-.75 1.702-1.809v-3.463h1.047V237H48.87v-.904c-.393.666-1.154 1.059-2.023 1.059m5.832-.155v-5.998h1.083v1.012a1.95 1.95 0 0 1 1.714-1.012h1.44v1.012h-1.524c-.952 0-1.63.619-1.63 1.821V237zm6.487 0v-5.998h1.06v.905c.38-.667 1.154-1.059 2.01-1.059 1.297 0 2.202.821 2.202 2.415V237H63.39v-3.677c0-1.047-.595-1.595-1.464-1.595-.94 0-1.702.75-1.702 1.809V237zm14.247 0v-8.33h1.321l1.559 4.332 1.559-4.332h1.32V237h-1.046v-6.509l-1.357 3.605h-.952l-1.357-3.605V237zm9.284.155c-1.214 0-2.012-.714-2.012-1.773 0-1.393 1.214-1.726 2.19-1.845l1.285-.166c.488-.06.571-.346.571-.619v-.012c0-.583-.392-1.036-1.297-1.036-.868 0-1.38.405-1.475 1.143h-1.06c.132-1.214 1.095-1.999 2.523-1.999 1.595 0 2.357.797 2.357 2.142v2.903c0 .143.107.238.25.238h.368V237h-.714c-.583 0-.88-.297-.88-.738v-.143c-.524.774-1.357 1.036-2.106 1.036m-.917-1.821c0 .607.464.964 1.19.964 1.06 0 1.761-.785 1.761-1.952v-.416c-.19.095-.392.143-.606.178l-1.048.155c-.904.143-1.297.464-1.297 1.071M91.206 237c-1.023 0-1.51-.416-1.51-1.416v-3.713H87.91v-.869h1.511c.167 0 .274-.107.274-.261v-1.726h1.047v1.987h2.368v.869h-2.368v3.57c0 .428.179.678.714.678h1.916V237zm4.262 0v-8.33h1.06v3.237c.38-.667 1.153-1.059 2.01-1.059 1.297 0 2.202.821 2.202 2.415V237h-1.047v-3.677c0-1.047-.596-1.595-1.464-1.595-.94 0-1.702.75-1.702 1.809V237zm9.176 0v-1.428h1.381V237zm6.951 0v-5.129h-1.785v-.869h1.512c.166 0 .273-.107.273-.261v-.524c0-.988.453-1.547 1.488-1.547h2.13v.869h-1.928c-.464 0-.642.226-.642.726v.737h2.487v.869h-2.487V237zm5.416 0v-.869h2.321v-6.592h-1.892v-.869h2.951v7.461h2.308V237zm10.105.155c-1.821 0-2.892-1.357-2.892-3.154 0-1.785 1.071-3.153 2.892-3.153s2.891 1.368 2.891 3.153c0 1.797-1.071 3.154-2.891 3.154m-1.809-3.166c0 1.167.5 2.285 1.809 2.285s1.809-1.118 1.809-2.285c0-1.154-.5-2.261-1.809-2.261s-1.809 1.107-1.809 2.261m9.069 3.166c-1.821 0-2.892-1.357-2.892-3.154 0-1.785 1.071-3.153 2.892-3.153s2.892 1.368 2.892 3.153c0 1.797-1.071 3.154-2.892 3.154m-1.809-3.166c0 1.167.5 2.285 1.809 2.285s1.809-1.118 1.809-2.285c0-1.154-.5-2.261-1.809-2.261s-1.809 1.107-1.809 2.261m7.237 3.011v-5.998h1.083v1.012a1.95 1.95 0 0 1 1.713-1.012h1.44v1.012h-1.523c-.952 0-1.63.619-1.63 1.821V237zm17.281 1.975c-1.451-1.82-2.106-3.629-2.106-5.724 0-2.142.655-3.962 2.106-5.771h.857c-1.297 2.083-1.82 3.737-1.82 5.771 0 2.012.511 3.654 1.82 5.724zm3.453-1.975v-8.33h1.321l1.559 4.332 1.559-4.332h1.32V237h-1.047v-6.509l-1.356 3.605h-.952l-1.357-3.605V237zm9.283.155c-1.214 0-2.011-.714-2.011-1.773 0-1.393 1.214-1.726 2.19-1.845l1.285-.166c.488-.06.571-.346.571-.619v-.012c0-.583-.393-1.036-1.297-1.036-.869 0-1.38.405-1.476 1.143h-1.059c.131-1.214 1.095-1.999 2.523-1.999 1.595 0 2.356.797 2.356 2.142v2.903c0 .143.107.238.25.238h.369V237h-.714c-.583 0-.88-.297-.88-.738v-.143c-.524.774-1.357 1.036-2.107 1.036m-.916-1.821c0 .607.464.964 1.19.964 1.059 0 1.761-.785 1.761-1.952v-.416c-.19.095-.393.143-.607.178l-1.047.155c-.904.143-1.297.464-1.297 1.071m9.426 1.666c-1.023 0-1.511-.416-1.511-1.416v-3.713h-1.785v-.869h1.511c.167 0 .274-.107.274-.261v-1.726h1.047v1.987h2.368v.869h-2.368v3.57c0 .428.179.678.714.678h1.916V237zm4.262 0v-8.33h1.059v3.237c.381-.667 1.154-1.059 2.011-1.059 1.297 0 2.201.821 2.201 2.415V237h-1.047v-3.677c0-1.047-.595-1.595-1.463-1.595-.941 0-1.702.75-1.702 1.809V237zm9.176 0v-1.428h1.38V237zm6.118 0v-5.998h1.083v1.012a1.95 1.95 0 0 1 1.714-1.012h1.439v1.012H200.6c-.952 0-1.63.619-1.63 1.821V237zm8.236.155c-1.214 0-2.011-.714-2.011-1.773 0-1.393 1.214-1.726 2.19-1.845l1.285-.166c.488-.06.571-.346.571-.619v-.012c0-.583-.393-1.036-1.297-1.036-.869 0-1.38.405-1.476 1.143h-1.059c.131-1.214 1.095-1.999 2.523-1.999 1.595 0 2.356.797 2.356 2.142v2.903c0 .143.107.238.25.238h.369V237h-.714c-.583 0-.88-.297-.88-.738v-.143c-.524.774-1.357 1.036-2.107 1.036m-.916-1.821c0 .607.464.964 1.19.964 1.059 0 1.761-.785 1.761-1.952v-.416c-.19.095-.393.143-.607.178l-1.047.155c-.904.143-1.297.464-1.297 1.071m6.427 1.666v-5.998h1.059v.905c.381-.667 1.155-1.059 2.012-1.059 1.297 0 2.201.821 2.201 2.415V237h-1.047v-3.677c0-1.047-.595-1.595-1.464-1.595-.94 0-1.702.75-1.702 1.809V237zm9.546.155c-1.44 0-2.607-1.286-2.607-3.178 0-1.88 1.167-3.129 2.607-3.129.844 0 1.57.357 1.999 1.047v-3.225h1.059V237h-1.059v-.904c-.476.714-1.155 1.059-1.999 1.059m-1.512-3.178c0 1.321.655 2.297 1.773 2.297 1.131 0 1.797-.976 1.797-2.285 0-1.297-.666-2.261-1.797-2.261-1.118 0-1.773.94-1.773 2.249m9.093 3.178c-1.82 0-2.891-1.357-2.891-3.154 0-1.785 1.071-3.153 2.891-3.153s2.892 1.368 2.892 3.153c0 1.797-1.071 3.154-2.892 3.154m-1.809-3.166c0 1.167.5 2.285 1.809 2.285s1.809-1.118 1.809-2.285c0-1.154-.5-2.261-1.809-2.261s-1.809 1.107-1.809 2.261m6.142 3.011v-5.998h1.012v.512c.238-.428.69-.666 1.178-.666.607 0 .964.369 1.083.714.345-.571.857-.714 1.333-.714.773 0 1.297.583 1.297 1.57V237h-1.012v-4.391c0-.571-.202-.845-.571-.845-.464 0-.869.428-.869 1.154V237h-.999v-4.391c0-.571-.215-.845-.583-.845-.465 0-.857.428-.857 1.154V237zm11.116 1.975c-1.452-1.82-2.106-3.629-2.106-5.724 0-2.142.654-3.962 2.106-5.771h.857c-1.297 2.083-1.821 3.737-1.821 5.771 0 2.012.512 3.654 1.821 5.724zm4.547 0c1.309-2.07 1.821-3.712 1.821-5.724 0-2.034-.523-3.688-1.821-5.771h.857c1.452 1.809 2.107 3.629 2.107 5.771 0 2.095-.655 3.904-2.107 5.724zm15.616-6.985-.607-.345.678-1.19h-1.368v-.702h1.368l-.678-1.19.619-.357.678 1.178.679-1.178.606.357-.69 1.19h1.381v.702h-1.369l.678 1.19-.606.357-.691-1.19zm12.26 5.01v-.904h2.427v-4.939h-1.927v-.916h1.63a.29.29 0 0 0 .297-.286v-1.285h1.071v7.426h2.416V237zm7.57 0v-8.33h5.474v.916h-4.392v2.618h3.904v.881h-3.904v2.999h4.392V237zm9.438-.964v-2.047h-2.047v-.928h2.047v-2.047h.928v2.047h2.047v.928h-2.047v2.047zm6.118.964 3.546-7.414h-4.927v-.916h5.986v1.107L300.937 237zm7.082 1.975c1.309-2.07 1.82-3.712 1.82-5.724 0-2.034-.523-3.688-1.82-5.771h.856c1.452 1.809 2.107 3.629 2.107 5.771 0 2.095-.655 3.904-2.107 5.724zm8.355-1.975v-1.428h1.38V237zm8.343 0c-1.023 0-1.511-.416-1.511-1.416v-3.713h-1.785v-.869h1.511c.167 0 .274-.107.274-.261v-1.726h1.047v1.987h2.368v.869h-2.368v3.57c0 .428.178.678.714.678h1.916V237zm6.868.155c-1.821 0-2.892-1.357-2.892-3.154 0-1.785 1.071-3.153 2.892-3.153s2.891 1.368 2.891 3.153c0 1.797-1.071 3.154-2.891 3.154m-1.809-3.166c0 1.167.5 2.285 1.809 2.285s1.809-1.118 1.809-2.285c0-1.154-.5-2.261-1.809-2.261s-1.809 1.107-1.809 2.261m9.176 3.166c-2.035 0-3.248-1.238-3.308-2.737h1.119c.166 1.13 1.071 1.785 2.201 1.785 1.024 0 1.952-.464 1.952-1.464 0-.654-.429-1.023-1.321-1.273l-1.357-.369c-1.035-.274-2.273-.69-2.273-2.273 0-1.369 1.226-2.309 2.904-2.309 1.773 0 2.844 1.059 2.915 2.476h-1.118c-.167-.964-.797-1.548-1.821-1.548-.988 0-1.737.524-1.737 1.321 0 .679.44 1.012 1.392 1.274l1.404.38c1.404.381 2.154 1.048 2.154 2.238 0 1.547-1.273 2.499-3.106 2.499m7.546-.155c-1.023 0-1.511-.416-1.511-1.416v-3.713h-1.785v-.869h1.511c.167 0 .274-.107.274-.261v-1.726h1.047v1.987h2.368v.869h-2.368v3.57c0 .428.179.678.714.678h1.916V237zm5.035 0v-5.998h1.083v1.012a1.96 1.96 0 0 1 1.714-1.012h1.44v1.012h-1.523c-.952 0-1.631.619-1.631 1.821V237zm6.321 0v-.893h2.237v-4.212h-1.999v-.893h3.082v5.105h2.225V237zm2.189-7.021v-1.309h1.19v1.309zm5.238 7.021v-5.998h1.059v.905c.381-.667 1.154-1.059 2.011-1.059 1.297 0 2.201.821 2.201 2.415V237h-1.047v-3.677c0-1.047-.595-1.595-1.464-1.595-.94 0-1.701.75-1.701 1.809V237zm9.819 2.094c-1.512 0-2.464-.642-2.618-1.785h1.071c.178.655.654.929 1.582.929.857 0 1.654-.441 1.654-1.654v-.774c-.452.75-1.166 1.059-1.951 1.059-1.44 0-2.618-1.273-2.618-3.023 0-1.749 1.178-2.998 2.618-2.998.797 0 1.559.369 1.951 1.047v-.893h1.048v5.57c0 1.856-1.321 2.522-2.737 2.522m-1.809-5.259c0 1.249.702 2.177 1.773 2.177s1.785-.928 1.785-2.177c0-1.262-.714-2.107-1.785-2.107s-1.773.845-1.773 2.107m10.045 5.14c-1.452-1.82-2.107-3.629-2.107-5.724 0-2.142.655-3.962 2.107-5.771h.857c-1.298 2.083-1.821 3.737-1.821 5.771 0 2.012.512 3.654 1.821 5.724zm4.547 0c1.309-2.07 1.821-3.712 1.821-5.724 0-2.034-.524-3.688-1.821-5.771h.857c1.452 1.809 2.106 3.629 2.106 5.771 0 2.095-.654 3.904-2.106 5.724zM395.06 237v-1.428h1.381V237zm6.118 0v-5.998h1.083v1.012a1.95 1.95 0 0 1 1.714-1.012h1.439v1.012h-1.523c-.952 0-1.63.619-1.63 1.821V237zm9.188.155c-1.761 0-2.868-1.345-2.868-3.154 0-1.797 1.107-3.153 2.868-3.153 1.488 0 2.797.845 2.654 3.427h-4.439c.084 1.107.595 2.011 1.785 2.011.798 0 1.321-.488 1.5-1.047h1.047c-.167.999-1.107 1.916-2.547 1.916m-1.761-3.677h3.392c-.084-1.202-.643-1.762-1.631-1.762-1.083 0-1.618.786-1.761 1.762m6.189 5.497v-7.973h1.048v.905c.488-.714 1.166-1.059 2.011-1.059 1.428 0 2.606 1.285 2.606 3.177 0 1.88-1.178 3.13-2.606 3.13-.845 0-1.583-.357-2.011-1.048v2.868zm1-4.962c0 1.297.666 2.261 1.797 2.261 1.119 0 1.773-.94 1.773-2.249 0-1.321-.654-2.297-1.773-2.297-1.131 0-1.797.976-1.797 2.285m6.154 2.987v-.869h2.32v-6.592h-1.892v-.869h2.951v7.461h2.309V237zm9.247.155c-1.213 0-2.011-.714-2.011-1.773 0-1.393 1.214-1.726 2.19-1.845l1.285-.166c.488-.06.571-.346.571-.619v-.012c0-.583-.392-1.036-1.297-1.036-.868 0-1.38.405-1.475 1.143h-1.059c.13-1.214 1.094-1.999 2.522-1.999 1.595 0 2.357.797 2.357 2.142v2.903c0 .143.107.238.249.238h.369V237h-.714c-.583 0-.88-.297-.88-.738v-.143c-.524.774-1.357 1.036-2.107 1.036m-.916-1.821c0 .607.464.964 1.19.964 1.059 0 1.761-.785 1.761-1.952v-.416c-.19.095-.392.143-.607.178l-1.047.155c-.904.143-1.297.464-1.297 1.071m9.188 1.821c-1.749 0-2.891-1.357-2.891-3.154 0-1.785 1.142-3.153 2.903-3.153 1.369 0 2.38.833 2.571 2.213h-1.071c-.167-.845-.75-1.333-1.512-1.333-1.249 0-1.797 1.071-1.797 2.261 0 1.202.548 2.285 1.797 2.285.774 0 1.297-.405 1.512-1.178h1.059c-.226 1.226-1.143 2.059-2.571 2.059m7.201 0c-1.761 0-2.868-1.345-2.868-3.154 0-1.797 1.107-3.153 2.868-3.153 1.488 0 2.797.845 2.654 3.427h-4.439c.084 1.107.595 2.011 1.785 2.011.798 0 1.321-.488 1.5-1.047h1.047c-.167.999-1.107 1.916-2.547 1.916m-1.761-3.677h3.392c-.084-1.202-.643-1.762-1.631-1.762-1.083 0-1.618.786-1.761 1.762m9.855 5.497c-1.452-1.82-2.107-3.629-2.107-5.724 0-2.142.655-3.962 2.107-5.771h.856c-1.297 2.083-1.82 3.737-1.82 5.771 0 2.012.511 3.654 1.82 5.724zm3.976-.809 3.665-9.496h1.035l-3.665 9.496zm10.925 0-3.665-9.496h1.035l3.666 9.496zm5.261-1.166v-1.428h1.381V237zm9.26 1.166-3.665-9.496h1.035l3.665 9.496zm5.63-1.011c-1.44 0-2.606-1.286-2.606-3.178 0-1.88 1.166-3.129 2.606-3.129.845 0 1.571.357 1.999 1.047v-3.225h1.059V237h-1.059v-.904c-.476.714-1.154 1.059-1.999 1.059m-1.511-3.178c0 1.321.654 2.297 1.773 2.297 1.13 0 1.797-.976 1.797-2.285 0-1.297-.667-2.261-1.797-2.261-1.119 0-1.773.94-1.773 2.249m8.629 2.059v-2.047h-2.047v-.928h2.047v-2.047h.928v2.047h2.047v.928h-2.047v2.047zm5.368 2.13 3.665-9.496h1.036l-3.666 9.496zm6.844-1.166v-.893h2.237v-4.212h-1.999v-.893h3.082v5.105h2.225V237zm2.19-7.021v-1.309h1.19v1.309zm7.795 9.115c-1.511 0-2.463-.642-2.618-1.785h1.071c.179.655.655.929 1.583.929.857 0 1.654-.441 1.654-1.654v-.774c-.452.75-1.166 1.059-1.951 1.059-1.44 0-2.618-1.273-2.618-3.023 0-1.749 1.178-2.998 2.618-2.998.797 0 1.559.369 1.951 1.047v-.893h1.047v5.57c0 1.856-1.32 2.522-2.737 2.522m-1.808-5.259c0 1.249.702 2.177 1.773 2.177s1.785-.928 1.785-2.177c0-1.262-.714-2.107-1.785-2.107s-1.773.845-1.773 2.107m8.45 4.664v-.535h.167c.357 0 .511-.214.511-.512V237h-.702v-1.428h1.381v1.904c0 .666-.453 1.023-1.178 1.023zm13.486-6.568v-3.261h.952v3.261zm2.451 0v-3.261h.952v3.261zm4.809 0v-3.261h.952v3.261zm2.451 0v-3.261h.952v3.261zm4.726 7.044c1.309-2.07 1.821-3.712 1.821-5.724 0-2.034-.524-3.688-1.821-5.771h.857c1.452 1.809 2.106 3.629 2.106 5.771 0 2.095-.654 3.904-2.106 5.724z"/><path fill="#5de5bd" d="M3.225 103.036v-2.047H1.178v-.928h2.047v-2.047h.928v2.047H6.2v.928H4.153v2.047zm7.82 1.119c-1.762 0-2.868-1.345-2.868-3.154 0-1.797 1.106-3.153 2.868-3.153 1.487 0 2.796.845 2.653 3.427H9.26c.083 1.107.595 2.011 1.785 2.011.797 0 1.32-.488 1.499-1.047h1.047c-.166.999-1.106 1.916-2.546 1.916m-1.762-3.677h3.392c-.083-1.202-.643-1.762-1.63-1.762-1.083 0-1.619.786-1.762 1.762M15.461 104l2.106-3.118-1.94-2.88h1.179l1.428 2.154 1.428-2.154h1.178l-1.976 2.904L20.96 104h-1.19l-1.56-2.368L16.652 104zm7.272 1.975v-7.973h1.047v.905c.488-.714 1.167-1.06 2.011-1.06 1.428 0 2.607 1.286 2.607 3.178 0 1.88-1.178 3.13-2.607 3.13-.844 0-1.582-.357-2.01-1.048v2.868zm1-4.962c0 1.297.666 2.261 1.797 2.261 1.118 0 1.773-.94 1.773-2.249 0-1.32-.655-2.297-1.773-2.297-1.13 0-1.797.976-1.797 2.285m8.998 3.142c-1.821 0-2.892-1.357-2.892-3.154 0-1.785 1.07-3.153 2.892-3.153 1.82 0 2.891 1.368 2.891 3.153 0 1.797-1.07 3.154-2.891 3.154m-1.81-3.166c0 1.167.5 2.285 1.81 2.285 1.309 0 1.808-1.118 1.808-2.285 0-1.154-.5-2.26-1.808-2.26-1.31 0-1.81 1.106-1.81 2.26M38.159 104v-5.998h1.083v1.012a1.96 1.96 0 0 1 1.714-1.012h1.44v1.012h-1.523c-.952 0-1.63.619-1.63 1.821V104zm9.486 0c-1.023 0-1.511-.416-1.511-1.416v-3.713h-1.785v-.869h1.511c.167 0 .274-.107.274-.261v-1.726h1.047v1.987h2.368v.87H47.18v3.569c0 .428.178.678.714.678h1.916V104zm13.129 0v-5.129h-1.785v-.869h1.51c.168 0 .275-.107.275-.261v-.524c0-.988.452-1.547 1.487-1.547h2.13v.869h-1.928c-.464 0-.642.226-.642.726v.737h2.487v.87H61.82V104zm7.855.155c-1.297 0-2.201-.821-2.201-2.416v-3.737h1.059v3.677c0 1.048.583 1.595 1.463 1.595.928 0 1.702-.75 1.702-1.809v-3.463h1.047V104h-1.047v-.904c-.393.666-1.154 1.059-2.023 1.059m5.059-.155v-5.998h1.059v.905c.38-.667 1.154-1.06 2.011-1.06 1.297 0 2.201.822 2.201 2.416V104h-1.047v-3.677c0-1.047-.595-1.595-1.463-1.595-.94 0-1.702.75-1.702 1.809V104zm10.021.155c-1.75 0-2.892-1.357-2.892-3.154 0-1.785 1.143-3.153 2.904-3.153 1.368 0 2.38.833 2.57 2.213h-1.07c-.167-.845-.75-1.333-1.512-1.333-1.25 0-1.797 1.071-1.797 2.261 0 1.202.547 2.285 1.797 2.285.773 0 1.297-.405 1.511-1.178h1.06c-.227 1.226-1.143 2.059-2.571 2.059m7.498-.155c-1.023 0-1.51-.416-1.51-1.416v-3.713H87.91v-.869h1.511c.167 0 .274-.107.274-.261v-1.726h1.047v1.987h2.368v.87h-2.368v3.569c0 .428.179.678.714.678h1.916V104zm4.095 0v-.893h2.238v-4.212h-2v-.893h3.082v5.105h2.226V104zm2.19-7.021V95.67h1.19v1.309zm7.844 7.176c-1.821 0-2.892-1.357-2.892-3.154 0-1.785 1.071-3.153 2.892-3.153s2.891 1.368 2.891 3.153c0 1.797-1.071 3.154-2.891 3.154m-1.809-3.166c0 1.167.5 2.285 1.809 2.285s1.808-1.118 1.808-2.285c0-1.154-.499-2.26-1.808-2.26s-1.809 1.106-1.809 2.26m6.463 3.011v-5.998h1.059v.905c.381-.667 1.154-1.06 2.011-1.06 1.297 0 2.202.822 2.202 2.416V104h-1.048v-3.677c0-1.047-.595-1.595-1.463-1.595-.94 0-1.702.75-1.702 1.809V104zm14.306 0v-8.33h1.083v3.57h3.475v-3.57h1.083V104h-1.083v-3.844h-3.475V104zm10.176.155c-1.761 0-2.868-1.345-2.868-3.154 0-1.797 1.107-3.153 2.868-3.153 1.488 0 2.797.845 2.654 3.427h-4.439c.084 1.107.595 2.011 1.785 2.011.798 0 1.321-.488 1.5-1.047h1.047c-.167.999-1.107 1.916-2.547 1.916m-1.761-3.677h3.392c-.084-1.202-.643-1.762-1.631-1.762-1.083 0-1.618.786-1.761 1.762m6.082 3.522v-.869h2.321v-6.592h-1.892v-.869h2.951v7.461h2.309V104zm7.261 0v-.869h2.32v-6.592h-1.892v-.869h2.951v7.461h2.309V104zm10.104.155c-1.82 0-2.891-1.357-2.891-3.154 0-1.785 1.071-3.153 2.891-3.153s2.892 1.368 2.892 3.153c0 1.797-1.071 3.154-2.892 3.154m-1.809-3.166c0 1.167.5 2.285 1.809 2.285s1.809-1.118 1.809-2.285c0-1.154-.5-2.26-1.809-2.26s-1.809 1.106-1.809 2.26m6.678 3.011-.893-8.33h1.071l.607 6.474 1.107-4.201h1.023l1.107 4.189.583-6.462h1.071l-.881 8.33h-1.19l-1.201-4.617-1.226 4.617zm9.652.155c-1.821 0-2.892-1.357-2.892-3.154 0-1.785 1.071-3.153 2.892-3.153s2.892 1.368 2.892 3.153c0 1.797-1.071 3.154-2.892 3.154m-1.809-3.166c0 1.167.5 2.285 1.809 2.285s1.809-1.118 1.809-2.285c0-1.154-.5-2.26-1.809-2.26s-1.809 1.106-1.809 2.26m7.237 3.011v-5.998h1.083v1.012a1.95 1.95 0 0 1 1.713-1.012h1.44v1.012h-1.523c-.952 0-1.63.619-1.63 1.821V104zm6.249 0v-.869h2.32v-6.592h-1.892v-.869h2.951v7.461h2.309V104zm9.783.155c-1.44 0-2.606-1.286-2.606-3.178 0-1.88 1.166-3.13 2.606-3.13.845 0 1.571.358 1.999 1.048V95.67h1.059V104h-1.059v-.904c-.476.714-1.154 1.059-1.999 1.059m-1.511-3.178c0 1.321.654 2.297 1.773 2.297 1.13 0 1.797-.976 1.797-2.285 0-1.297-.667-2.26-1.797-2.26-1.119 0-1.773.94-1.773 2.248m10.021 4.998c-1.452-1.82-2.106-3.629-2.106-5.724 0-2.142.654-3.962 2.106-5.771h.857c-1.297 2.082-1.821 3.737-1.821 5.771 0 2.012.512 3.654 1.821 5.724zm6.987 0c-1.167 0-2.023-.511-2.023-1.785v-2.606c0-.464-.227-.88-1.107-.88v-.94c.88 0 1.107-.417 1.107-.881v-2.606c0-1.285.856-1.797 2.023-1.797h1.594v.845h-1.452c-.642 0-1.118.238-1.118.892v2.69c0 .726-.179 1.19-.964 1.333.785.131.964.606.964 1.32v2.678c0 .655.476.904 1.118.904h1.452v.833zm13.818.119c-1.511 0-2.463-.642-2.618-1.785h1.071c.179.655.655.929 1.583.929.857 0 1.654-.441 1.654-1.654v-.774c-.452.75-1.166 1.059-1.952 1.059-1.439 0-2.618-1.273-2.618-3.023 0-1.749 1.179-2.998 2.618-2.998.798 0 1.559.369 1.952 1.047v-.893h1.047v5.57c0 1.856-1.321 2.522-2.737 2.522m-1.809-5.259c0 1.249.703 2.177 1.774 2.177s1.785-.928 1.785-2.177c0-1.262-.714-2.107-1.785-2.107s-1.774.845-1.774 2.107m7.285 3.165v-5.998h1.083v1.012a1.95 1.95 0 0 1 1.713-1.012h1.44v1.012h-1.523c-.952 0-1.63.619-1.63 1.821V104zm9.188.155c-1.761 0-2.868-1.345-2.868-3.154 0-1.797 1.107-3.153 2.868-3.153 1.487 0 2.796.845 2.654 3.427h-4.439c.083 1.107.595 2.011 1.785 2.011.797 0 1.321-.488 1.499-1.047h1.047c-.166.999-1.106 1.916-2.546 1.916m-1.761-3.677h3.391c-.083-1.202-.642-1.762-1.63-1.762-1.083 0-1.619.786-1.761 1.762m9.021 3.677c-1.761 0-2.868-1.345-2.868-3.154 0-1.797 1.107-3.153 2.868-3.153 1.488 0 2.797.845 2.654 3.427h-4.439c.084 1.107.595 2.011 1.785 2.011.798 0 1.321-.488 1.5-1.047h1.047c-.167.999-1.107 1.916-2.547 1.916m-1.761-3.677h3.392c-.084-1.202-.643-1.762-1.631-1.762-1.083 0-1.618.786-1.761 1.762m9.319 3.522c-1.023 0-1.511-.416-1.511-1.416v-3.713h-1.785v-.869h1.511c.167 0 .274-.107.274-.261v-1.726h1.047v1.987h2.368v.87h-2.368v3.569c0 .428.179.678.714.678h1.916V104zm4.095 0v-.893h2.237v-4.212h-1.999v-.893h3.082v5.105h2.226V104zm2.19-7.021V95.67h1.19v1.309zm5.237 7.021v-5.998h1.059v.905c.381-.667 1.155-1.06 2.011-1.06 1.297 0 2.202.822 2.202 2.416V104h-1.047v-3.677c0-1.047-.595-1.595-1.464-1.595-.94 0-1.702.75-1.702 1.809V104zm9.819 2.094c-1.511 0-2.463-.642-2.618-1.785h1.071c.179.655.655.929 1.583.929.857 0 1.654-.441 1.654-1.654v-.774c-.452.75-1.166 1.059-1.952 1.059-1.44 0-2.618-1.273-2.618-3.023 0-1.749 1.178-2.998 2.618-2.998.798 0 1.559.369 1.952 1.047v-.893h1.047v5.57c0 1.856-1.321 2.522-2.737 2.522m-1.809-5.259c0 1.249.702 2.177 1.773 2.177s1.785-.928 1.785-2.177c0-1.262-.714-2.107-1.785-2.107s-1.773.845-1.773 2.107m13.866-.988v-.94h5.022v.94zm0 2.309v-.941h5.022v.941zm15.33-3.225V95.67h.952v3.26zm2.452 0V95.67h.952v3.26zm3.904 5.069v-8.33h1.06v3.237c.38-.667 1.154-1.06 2.011-1.06 1.297 0 2.201.822 2.201 2.416V104h-1.047v-3.677c0-1.047-.595-1.595-1.464-1.595-.94 0-1.701.75-1.701 1.809V104zm9.962.155c-1.761 0-2.868-1.345-2.868-3.154 0-1.797 1.107-3.153 2.868-3.153 1.488 0 2.797.845 2.654 3.427h-4.439c.083 1.107.595 2.011 1.785 2.011.797 0 1.321-.488 1.5-1.047h1.047c-.167.999-1.107 1.916-2.547 1.916m-1.761-3.677h3.391c-.083-1.202-.642-1.762-1.63-1.762-1.083 0-1.618.786-1.761 1.762m6.082 3.522v-.869h2.321v-6.592h-1.892v-.869h2.951v7.461h2.308V104zm7.261 0v-.869h2.32v-6.592h-1.892v-.869h2.951v7.461h2.309V104zm10.104.155c-1.821 0-2.892-1.357-2.892-3.154 0-1.785 1.071-3.153 2.892-3.153s2.892 1.368 2.892 3.153c0 1.797-1.071 3.154-2.892 3.154m-1.809-3.166c0 1.167.5 2.285 1.809 2.285s1.809-1.118 1.809-2.285c0-1.154-.5-2.26-1.809-2.26s-1.809 1.106-1.809 2.26m7.368-2.058V95.67h.952v3.26zm2.451 0V95.67h.952v3.26zm13.117 7.044h-1.595v-.833h1.452c.643 0 1.119-.249 1.119-.904v-2.678c0-.714.178-1.189.964-1.32-.786-.143-.964-.607-.964-1.333v-2.69c0-.654-.476-.892-1.119-.892h-1.452v-.845h1.595c1.166 0 2.023.512 2.023 1.797v2.606c0 .464.226.88 1.107.88v.941c-.881 0-1.107.416-1.107.88v2.606c0 1.274-.857 1.785-2.023 1.785m6.13 0c1.309-2.07 1.82-3.712 1.82-5.724 0-2.034-.523-3.689-1.82-5.771h.857c1.451 1.809 2.106 3.63 2.106 5.771 0 2.095-.655 3.904-2.106 5.724zm16.96 0c-1.166 0-2.023-.511-2.023-1.785v-2.606c0-.464-.226-.88-1.107-.88v-.94c.881 0 1.107-.417 1.107-.881v-2.606c0-1.285.857-1.797 2.023-1.797h1.595v.845h-1.452c-.643 0-1.119.238-1.119.892v2.69c0 .726-.178 1.19-.964 1.333.786.131.964.606.964 1.32v2.678c0 .655.476.904 1.119.904h1.452v.833zM3.224 122.036v-2.047H1.179v-.928h2.047v-2.047h.928v2.047H6.2v.928H4.153v2.047zm19.474.964v-.893h2.237v-4.212h-2v-.893h3.083v5.105h2.225V123zm2.19-7.021v-1.309h1.19v1.309zM31.73 123v-5.129h-1.785v-.869h1.511c.167 0 .274-.107.274-.261v-.524c0-.988.452-1.547 1.487-1.547h2.13v.869h-1.927c-.464 0-.643.226-.643.726v.737h2.487v.869h-2.487V123zm16.449 1.975c-1.452-1.82-2.107-3.629-2.107-5.724 0-2.142.655-3.962 2.107-5.771h.856c-1.297 2.083-1.82 3.737-1.82 5.771 0 2.012.511 3.654 1.82 5.724zm6.058-4.343-.262-3.13v-2.832h1.071v2.832l-.25 3.13zM53.822 123v-1.428h1.38V123zm7.903 2.094c-1.512 0-2.464-.642-2.618-1.785h1.07c.18.655.655.929 1.583.929.857 0 1.654-.441 1.654-1.654v-.774c-.452.75-1.166 1.059-1.951 1.059-1.44 0-2.618-1.273-2.618-3.023 0-1.749 1.178-2.998 2.618-2.998.797 0 1.559.369 1.951 1.047v-.893h1.048v5.57c0 1.856-1.321 2.522-2.737 2.522m-1.81-5.259c0 1.249.703 2.177 1.774 2.177 1.07 0 1.785-.928 1.785-2.177 0-1.262-.714-2.107-1.785-2.107s-1.773.845-1.773 2.107M67.2 123v-5.998h1.083v1.012a1.95 1.95 0 0 1 1.713-1.012h1.44v1.012h-1.523c-.952 0-1.63.619-1.63 1.821V123zm9.188.155c-1.761 0-2.868-1.345-2.868-3.154 0-1.797 1.107-3.153 2.868-3.153 1.488 0 2.797.845 2.654 3.427h-4.439c.083 1.107.595 2.011 1.785 2.011.797 0 1.321-.488 1.5-1.047h1.047c-.167.999-1.107 1.916-2.547 1.916m-1.761-3.677h3.391c-.083-1.202-.642-1.762-1.63-1.762-1.083 0-1.618.786-1.761 1.762m9.022 3.677c-1.762 0-2.868-1.345-2.868-3.154 0-1.797 1.106-3.153 2.867-3.153 1.488 0 2.797.845 2.654 3.427h-4.439c.084 1.107.596 2.011 1.785 2.011.798 0 1.321-.488 1.5-1.047h1.047c-.166.999-1.107 1.916-2.546 1.916m-1.762-3.677h3.392c-.084-1.202-.643-1.762-1.63-1.762-1.083 0-1.619.786-1.762 1.762m9.32 3.522c-1.024 0-1.512-.416-1.512-1.416v-3.713H87.91v-.869h1.511c.167 0 .274-.107.274-.261v-1.726h1.047v1.987h2.368v.869h-2.368v3.57c0 .428.179.678.714.678h1.916V123zm4.094 0v-.893h2.238v-4.212h-2v-.893h3.082v5.105h2.226V123zm2.19-7.021v-1.309h1.19v1.309zm5.237 7.021v-5.998h1.06v.905c.38-.667 1.154-1.059 2.011-1.059 1.297 0 2.201.821 2.201 2.415V123h-1.047v-3.677c0-1.047-.595-1.595-1.464-1.595-.94 0-1.701.75-1.701 1.809V123zm9.819 2.094c-1.511 0-2.463-.642-2.618-1.785H111c.179.655.655.929 1.583.929.857 0 1.654-.441 1.654-1.654v-.774c-.452.75-1.166 1.059-1.951 1.059-1.44 0-2.618-1.273-2.618-3.023 0-1.749 1.178-2.998 2.618-2.998.797 0 1.558.369 1.951 1.047v-.893h1.047v5.57c0 1.856-1.321 2.522-2.737 2.522m-1.808-5.259c0 1.249.702 2.177 1.773 2.177s1.785-.928 1.785-2.177c0-1.262-.714-2.107-1.785-2.107s-1.773.845-1.773 2.107m7.331 5.14c1.309-2.07 1.821-3.712 1.821-5.724 0-2.034-.524-3.688-1.821-5.771h.857c1.452 1.809 2.106 3.629 2.106 5.771 0 2.095-.654 3.904-2.106 5.724zm16.961 0c-1.167 0-2.023-.511-2.023-1.785v-2.606c0-.464-.226-.88-1.107-.88v-.94c.881 0 1.107-.417 1.107-.881v-2.606c0-1.285.856-1.797 2.023-1.797h1.594v.845h-1.452c-.642 0-1.118.238-1.118.892v2.69c0 .726-.179 1.19-.964 1.333.785.131.964.606.964 1.32v2.678c0 .655.476.904 1.118.904h1.452v.833zM3.225 141.036v-2.047H1.178v-.928h2.047v-2.047h.928v2.047H6.2v.928H4.153v2.047zm34.933.964v-5.998h1.083v1.012a1.95 1.95 0 0 1 1.714-1.012h1.44v1.012h-1.523c-.952 0-1.63.619-1.63 1.821V142zm9.189.155c-1.762 0-2.868-1.345-2.868-3.154 0-1.797 1.106-3.153 2.868-3.153 1.487 0 2.796.845 2.653 3.427h-4.438c.083 1.107.595 2.011 1.785 2.011.797 0 1.32-.488 1.499-1.047h1.047c-.166.999-1.107 1.916-2.546 1.916m-1.762-3.677h3.392c-.083-1.202-.643-1.762-1.63-1.762-1.083 0-1.619.786-1.762 1.762m9.32 3.522c-1.024 0-1.512-.416-1.512-1.416v-3.713h-1.785v-.869h1.512c.166 0 .273-.107.273-.261v-1.726h1.047v1.987h2.369v.869H54.44v3.57c0 .428.179.678.714.678h1.916V142zm6.463.155c-1.297 0-2.202-.821-2.202-2.416v-3.737h1.06v3.677c0 1.048.582 1.595 1.463 1.595.928 0 1.702-.75 1.702-1.809v-3.463h1.047V142H63.39v-.904c-.393.666-1.155 1.059-2.023 1.059M67.2 142v-5.998h1.083v1.012a1.95 1.95 0 0 1 1.713-1.012h1.44v1.012h-1.523c-.952 0-1.63.619-1.63 1.821V142zm6.487 0v-5.998h1.059v.905c.38-.667 1.154-1.059 2.011-1.059 1.297 0 2.201.821 2.201 2.415V142h-1.047v-3.677c0-1.047-.595-1.595-1.463-1.595-.94 0-1.702.75-1.702 1.809V142zm14.52 0v-5.998h1.06v.905c.38-.667 1.154-1.059 2.01-1.059 1.298 0 2.202.821 2.202 2.415V142h-1.047v-3.677c0-1.047-.595-1.595-1.464-1.595-.94 0-1.701.75-1.701 1.809V142zm9.463.155c-1.298 0-2.202-.821-2.202-2.416v-3.737h1.06v3.677c0 1.048.582 1.595 1.463 1.595.928 0 1.701-.75 1.701-1.809v-3.463h1.048V142h-1.047v-.904c-.393.666-1.155 1.059-2.023 1.059m4.82-.155v-.869h2.321v-6.592h-1.892v-.869h2.951v7.461h2.309V142zm7.261 0v-.869h2.32v-6.592h-1.892v-.869h2.951v7.461h2.309V142zm9.414-4.141v-1.428h1.381v1.428zm0 4.141v-1.428h1.381v1.904c0 .666-.453 1.023-1.179 1.023h-.178v-.535h.167c.357 0 .511-.214.511-.512V142zM3.225 160.036v-2.047H1.178v-.928h2.047v-2.047h.928v2.047H6.2v.928H4.153v2.047zm21.59 2.939h-1.594v-.833h1.452c.643 0 1.119-.249 1.119-.904v-2.678c0-.714.178-1.189.963-1.32-.785-.143-.963-.607-.963-1.333v-2.69c0-.654-.477-.892-1.12-.892h-1.45v-.845h1.594c1.166 0 2.023.512 2.023 1.797v2.606c0 .464.226.881 1.106.881v.94c-.88 0-1.106.416-1.106.88v2.606c0 1.274-.857 1.785-2.023 1.785m-21.59 92.061v-2.047H1.178v-.928h2.047v-2.047h.928v2.047H6.2v.928H4.153v2.047zm20.413.964v-5.998h1.082v1.012a1.95 1.95 0 0 1 1.714-1.012h1.44v1.012h-1.523c-.952 0-1.63.619-1.63 1.821V256zm9.188.155c-1.761 0-2.868-1.345-2.868-3.154 0-1.797 1.107-3.153 2.868-3.153 1.487 0 2.796.845 2.654 3.427h-4.44c.084 1.107.596 2.011 1.786 2.011.797 0 1.32-.488 1.5-1.047h1.046c-.166.999-1.106 1.916-2.546 1.916m-1.761-3.677h3.391c-.083-1.202-.643-1.762-1.63-1.762-1.083 0-1.619.786-1.761 1.762M40.384 256c-1.024 0-1.512-.416-1.512-1.416v-3.713h-1.785v-.869H38.6c.166 0 .273-.107.273-.261v-1.726h1.048v1.987h2.368v.869H39.92v3.57c0 .428.178.678.714.678h1.916V256zm6.463.155c-1.297 0-2.202-.821-2.202-2.416v-3.737h1.06v3.677c0 1.048.583 1.595 1.463 1.595.928 0 1.702-.75 1.702-1.809v-3.463h1.047V256H48.87v-.904c-.393.666-1.154 1.059-2.023 1.059m5.832-.155v-5.998h1.083v1.012a1.95 1.95 0 0 1 1.714-1.012h1.44v1.012h-1.524c-.952 0-1.63.619-1.63 1.821V256zm6.487 0v-5.998h1.06v.905c.38-.667 1.154-1.059 2.01-1.059 1.297 0 2.202.821 2.202 2.415V256H63.39v-3.677c0-1.047-.595-1.595-1.464-1.595-.94 0-1.702.75-1.702 1.809V256zm14.247 0v-8.33h1.321l1.559 4.332 1.559-4.332h1.32V256h-1.046v-6.509l-1.357 3.605h-.952l-1.357-3.605V256zm9.284.155c-1.214 0-2.012-.714-2.012-1.773 0-1.393 1.214-1.726 2.19-1.845l1.285-.166c.488-.06.571-.346.571-.619v-.012c0-.583-.392-1.036-1.297-1.036-.868 0-1.38.405-1.475 1.143h-1.06c.132-1.214 1.095-1.999 2.523-1.999 1.595 0 2.357.797 2.357 2.142v2.903c0 .143.107.238.25.238h.368V256h-.714c-.583 0-.88-.297-.88-.738v-.143c-.524.774-1.357 1.036-2.106 1.036m-.917-1.821c0 .607.464.964 1.19.964 1.06 0 1.761-.785 1.761-1.952v-.416c-.19.095-.392.143-.606.178l-1.048.155c-.904.143-1.297.464-1.297 1.071M91.206 256c-1.023 0-1.51-.416-1.51-1.416v-3.713H87.91v-.869h1.511c.167 0 .274-.107.274-.261v-1.726h1.047v1.987h2.368v.869h-2.368v3.57c0 .428.179.678.714.678h1.916V256zm4.262 0v-8.33h1.06v3.237c.38-.667 1.153-1.059 2.01-1.059 1.297 0 2.202.821 2.202 2.415V256h-1.047v-3.677c0-1.047-.596-1.595-1.464-1.595-.94 0-1.702.75-1.702 1.809V256zm9.176 0v-1.428h1.381V256zm6.951 0v-5.129h-1.785v-.869h1.512c.166 0 .273-.107.273-.261v-.524c0-.988.453-1.547 1.488-1.547h2.13v.869h-1.928c-.464 0-.642.226-.642.726v.737h2.487v.869h-2.487V256zm5.416 0v-.869h2.321v-6.592h-1.892v-.869h2.951v7.461h2.308V256zm10.105.155c-1.821 0-2.892-1.357-2.892-3.154 0-1.785 1.071-3.153 2.892-3.153s2.891 1.368 2.891 3.153c0 1.797-1.071 3.154-2.891 3.154m-1.809-3.166c0 1.167.5 2.285 1.809 2.285s1.809-1.118 1.809-2.285c0-1.154-.5-2.261-1.809-2.261s-1.809 1.107-1.809 2.261m9.069 3.166c-1.821 0-2.892-1.357-2.892-3.154 0-1.785 1.071-3.153 2.892-3.153s2.892 1.368 2.892 3.153c0 1.797-1.071 3.154-2.892 3.154m-1.809-3.166c0 1.167.5 2.285 1.809 2.285s1.809-1.118 1.809-2.285c0-1.154-.5-2.261-1.809-2.261s-1.809 1.107-1.809 2.261m7.237 3.011v-5.998h1.083v1.012a1.95 1.95 0 0 1 1.713-1.012h1.44v1.012h-1.523c-.952 0-1.63.619-1.63 1.821V256zm10.021 1.975c-1.452-1.82-2.106-3.629-2.106-5.724 0-2.142.654-3.962 2.106-5.771h.857c-1.297 2.083-1.821 3.737-1.821 5.771 0 2.012.512 3.654 1.821 5.724zm3.452-1.975v-8.33h1.321l1.559 4.332 1.559-4.332h1.321V256h-1.047v-6.509l-1.357 3.605h-.952l-1.356-3.605V256zm9.284.155c-1.214 0-2.011-.714-2.011-1.773 0-1.393 1.214-1.726 2.189-1.845l1.286-.166c.487-.06.571-.346.571-.619v-.012c0-.583-.393-1.036-1.297-1.036-.869 0-1.381.405-1.476 1.143h-1.059c.131-1.214 1.095-1.999 2.523-1.999 1.594 0 2.356.797 2.356 2.142v2.903c0 .143.107.238.25.238h.369V256h-.714c-.583 0-.881-.297-.881-.738v-.143c-.523.774-1.356 1.036-2.106 1.036m-.916-1.821c0 .607.464.964 1.19.964 1.059 0 1.761-.785 1.761-1.952v-.416a2.1 2.1 0 0 1-.607.178l-1.047.155c-.905.143-1.297.464-1.297 1.071m9.426 1.666c-1.024 0-1.512-.416-1.512-1.416v-3.713h-1.785v-.869h1.512c.166 0 .273-.107.273-.261v-1.726h1.048v1.987h2.368v.869h-2.368v3.57c0 .428.178.678.714.678h1.916V256zm4.261 0v-8.33h1.059v3.237c.381-.667 1.155-1.059 2.012-1.059 1.297 0 2.201.821 2.201 2.415V256h-1.047v-3.677c0-1.047-.595-1.595-1.464-1.595-.94 0-1.702.75-1.702 1.809V256zm9.177 0v-1.428h1.38V256zm6.118 0v-5.998h1.083v1.012a1.95 1.95 0 0 1 1.713-1.012h1.44v1.012h-1.523c-.952 0-1.63.619-1.63 1.821V256zm8.236.155c-1.214 0-2.011-.714-2.011-1.773 0-1.393 1.214-1.726 2.189-1.845l1.286-.166c.487-.06.571-.346.571-.619v-.012c0-.583-.393-1.036-1.297-1.036-.869 0-1.381.405-1.476 1.143h-1.059c.131-1.214 1.095-1.999 2.523-1.999 1.594 0 2.356.797 2.356 2.142v2.903c0 .143.107.238.25.238h.369V256h-.714c-.583 0-.881-.297-.881-.738v-.143c-.523.774-1.356 1.036-2.106 1.036m-.916-1.821c0 .607.464.964 1.19.964 1.059 0 1.761-.785 1.761-1.952v-.416a2.1 2.1 0 0 1-.607.178l-1.047.155c-.905.143-1.297.464-1.297 1.071m6.427 1.666v-5.998h1.059v.905c.381-.667 1.154-1.059 2.011-1.059 1.297 0 2.202.821 2.202 2.415V256h-1.048v-3.677c0-1.047-.595-1.595-1.463-1.595-.94 0-1.702.75-1.702 1.809V256zm9.545.155c-1.44 0-2.606-1.286-2.606-3.178 0-1.88 1.166-3.129 2.606-3.129.845 0 1.571.357 1.999 1.047v-3.225h1.059V256h-1.059v-.904c-.476.714-1.154 1.059-1.999 1.059m-1.511-3.178c0 1.321.654 2.297 1.773 2.297 1.13 0 1.797-.976 1.797-2.285 0-1.297-.667-2.261-1.797-2.261-1.119 0-1.773.94-1.773 2.249m9.093 3.178c-1.821 0-2.892-1.357-2.892-3.154 0-1.785 1.071-3.153 2.892-3.153s2.892 1.368 2.892 3.153c0 1.797-1.071 3.154-2.892 3.154m-1.809-3.166c0 1.167.5 2.285 1.809 2.285s1.809-1.118 1.809-2.285c0-1.154-.5-2.261-1.809-2.261s-1.809 1.107-1.809 2.261m6.142 3.011v-5.998h1.011v.512c.238-.428.691-.666 1.178-.666.607 0 .964.369 1.083.714.345-.571.857-.714 1.333-.714.774 0 1.297.583 1.297 1.57V256h-1.011v-4.391c0-.571-.203-.845-.571-.845-.465 0-.869.428-.869 1.154V256h-1v-4.391c0-.571-.214-.845-.583-.845-.464 0-.857.428-.857 1.154V256zm11.116 1.975c-1.452-1.82-2.106-3.629-2.106-5.724 0-2.142.654-3.962 2.106-5.771h.857c-1.297 2.083-1.821 3.737-1.821 5.771 0 2.012.512 3.654 1.821 5.724zm4.547 0c1.309-2.07 1.821-3.712 1.821-5.724 0-2.034-.524-3.688-1.821-5.771h.857c1.452 1.809 2.106 3.629 2.106 5.771 0 2.095-.654 3.904-2.106 5.724zm15.616-6.985-.607-.345.678-1.19h-1.368v-.702h1.368l-.678-1.19.619-.357.678 1.178.678-1.178.607.357-.69 1.19h1.38v.702h-1.368l.678 1.19-.607.357-.69-1.19zm12.259 5.01v-.904h2.428v-4.939h-1.928v-.916h1.631a.29.29 0 0 0 .297-.286v-1.285h1.071v7.426h2.416V256zm10.307.155c-1.761 0-2.868-1.345-2.868-3.154 0-1.797 1.107-3.153 2.868-3.153 1.488 0 2.797.845 2.654 3.427h-4.439c.083 1.107.595 2.011 1.785 2.011.797 0 1.321-.488 1.5-1.047h1.047c-.167.999-1.107 1.916-2.547 1.916m-1.761-3.677h3.391c-.083-1.202-.642-1.762-1.63-1.762-1.083 0-1.618.786-1.761 1.762m7.32 3.522 3.546-7.414h-4.927v-.916h5.986v1.107L286.416 256zm7.082 1.975c1.309-2.07 1.82-3.712 1.82-5.724 0-2.034-.523-3.688-1.82-5.771h.857c1.451 1.809 2.106 3.629 2.106 5.771 0 2.095-.655 3.904-2.106 5.724zM3.225 274.036v-2.047H1.178v-.928h2.047v-2.047h.928v2.047H6.2v.928H4.153v2.047zM39.3 275v-1.428h1.38V275zm8.343 0c-1.023 0-1.511-.416-1.511-1.416v-3.713h-1.785v-.869h1.511c.167 0 .274-.107.274-.261v-1.726h1.047v1.987h2.368v.869H47.18v3.57c0 .428.178.678.714.678h1.916V275zm6.868.155c-1.82 0-2.892-1.357-2.892-3.154 0-1.785 1.071-3.153 2.892-3.153s2.892 1.368 2.892 3.153c0 1.797-1.072 3.154-2.892 3.154m-1.809-3.166c0 1.167.5 2.285 1.809 2.285s1.809-1.118 1.809-2.285c0-1.154-.5-2.261-1.81-2.261-1.308 0-1.808 1.107-1.808 2.261m9.176 3.166c-2.035 0-3.248-1.238-3.308-2.737h1.119c.166 1.13 1.07 1.785 2.201 1.785 1.024 0 1.952-.464 1.952-1.464 0-.654-.429-1.023-1.321-1.273l-1.357-.369c-1.035-.274-2.273-.69-2.273-2.273 0-1.369 1.226-2.309 2.904-2.309 1.773 0 2.844 1.059 2.916 2.476h-1.12c-.166-.964-.796-1.548-1.82-1.548-.987 0-1.737.524-1.737 1.321 0 .679.44 1.012 1.392 1.274l1.404.38c1.404.381 2.154 1.048 2.154 2.238 0 1.547-1.273 2.499-3.106 2.499m7.546-.155c-1.023 0-1.511-.416-1.511-1.416v-3.713h-1.785v-.869h1.511c.167 0 .274-.107.274-.261v-1.726h1.047v1.987h2.368v.869h-2.368v3.57c0 .428.179.678.714.678h1.916V275zm5.035 0v-5.998h1.083v1.012a1.95 1.95 0 0 1 1.714-1.012h1.44v1.012h-1.523c-.953 0-1.63.619-1.63 1.821V275zm6.32 0v-.893h2.238v-4.212h-2v-.893h3.083v5.105h2.225V275zm2.19-7.021v-1.309h1.19v1.309zM88.208 275v-5.998h1.059v.905c.38-.667 1.154-1.059 2.01-1.059 1.298 0 2.202.821 2.202 2.415V275h-1.047v-3.677c0-1.047-.595-1.595-1.464-1.595-.94 0-1.701.75-1.701 1.809V275zm9.819 2.094c-1.512 0-2.464-.642-2.618-1.785h1.07c.179.655.655.929 1.583.929.857 0 1.654-.441 1.654-1.654v-.774c-.452.75-1.166 1.059-1.951 1.059-1.44 0-2.618-1.273-2.618-3.023 0-1.749 1.178-2.998 2.618-2.998.797 0 1.559.369 1.951 1.047v-.893h1.048v5.57c0 1.856-1.321 2.522-2.737 2.522m-1.81-5.259c0 1.249.703 2.177 1.774 2.177 1.07 0 1.785-.928 1.785-2.177 0-1.262-.714-2.107-1.785-2.107s-1.773.845-1.773 2.107m10.046 5.14c-1.452-1.82-2.107-3.629-2.107-5.724 0-2.142.655-3.962 2.107-5.771h.857c-1.298 2.083-1.821 3.737-1.821 5.771 0 2.012.512 3.654 1.821 5.724zm4.547 0c1.309-2.07 1.821-3.712 1.821-5.724 0-2.034-.524-3.688-1.821-5.771h.857c1.452 1.809 2.106 3.629 2.106 5.771 0 2.095-.654 3.904-2.106 5.724zM3.225 293.036v-2.047H1.178v-.928h2.047v-2.047h.928v2.047H6.2v.928H4.153v2.047zM39.3 294v-1.428h1.38V294zm6.118 0v-5.998h1.083v1.012a1.95 1.95 0 0 1 1.713-1.012h1.44v1.012h-1.523c-.952 0-1.63.619-1.63 1.821V294zm9.188.155c-1.761 0-2.868-1.345-2.868-3.154 0-1.797 1.107-3.153 2.868-3.153 1.487 0 2.797.845 2.654 3.427h-4.439c.083 1.107.595 2.011 1.785 2.011.797 0 1.32-.488 1.5-1.047h1.047c-.167.999-1.107 1.916-2.547 1.916m-1.761-3.677h3.391c-.083-1.202-.642-1.762-1.63-1.762-1.083 0-1.618.786-1.761 1.762m6.19 5.497v-7.973h1.046v.905c.488-.714 1.167-1.059 2.011-1.059 1.428 0 2.607 1.285 2.607 3.177 0 1.88-1.178 3.13-2.607 3.13-.844 0-1.582-.357-2.01-1.048v2.868zm.999-4.962c0 1.297.666 2.261 1.797 2.261 1.118 0 1.773-.94 1.773-2.249 0-1.321-.655-2.297-1.773-2.297-1.13 0-1.797.976-1.797 2.285M66.189 294v-.869h2.32v-6.592h-1.892v-.869h2.951v7.461h2.309V294zm9.247.155c-1.214 0-2.011-.714-2.011-1.773 0-1.393 1.214-1.726 2.19-1.845l1.285-.166c.488-.06.571-.346.571-.619v-.012c0-.583-.393-1.036-1.297-1.036-.869 0-1.38.405-1.476 1.143H73.64c.131-1.214 1.095-1.999 2.523-1.999 1.595 0 2.356.797 2.356 2.142v2.903c0 .143.107.238.25.238h.369V294h-.714c-.583 0-.88-.297-.88-.738v-.143c-.524.774-1.357 1.036-2.107 1.036m-.916-1.821c0 .607.464.964 1.19.964 1.059 0 1.761-.785 1.761-1.952v-.416c-.19.095-.393.143-.607.178l-1.047.155c-.904.143-1.297.464-1.297 1.071m9.188 1.821c-1.75 0-2.892-1.357-2.892-3.154 0-1.785 1.143-3.153 2.904-3.153 1.368 0 2.38.833 2.57 2.213h-1.07c-.167-.845-.75-1.333-1.512-1.333-1.25 0-1.797 1.071-1.797 2.261 0 1.202.547 2.285 1.797 2.285.773 0 1.297-.405 1.511-1.178h1.06c-.227 1.226-1.143 2.059-2.571 2.059m7.2 0c-1.76 0-2.867-1.345-2.867-3.154 0-1.797 1.107-3.153 2.868-3.153 1.487 0 2.796.845 2.654 3.427h-4.44c.084 1.107.596 2.011 1.786 2.011.797 0 1.32-.488 1.5-1.047h1.046c-.166.999-1.106 1.916-2.546 1.916m-1.76-3.677h3.391c-.083-1.202-.642-1.762-1.63-1.762-1.083 0-1.619.786-1.761 1.762m9.854 5.497c-1.451-1.82-2.106-3.629-2.106-5.724 0-2.142.654-3.962 2.106-5.771h.857c-1.297 2.083-1.82 3.737-1.82 5.771 0 2.012.511 3.654 1.82 5.724zm3.976-.809 3.666-9.496h1.035l-3.665 9.496zm10.926 0-3.665-9.496h1.035l3.665 9.496zm5.261-1.166v-1.428h1.381V294zm9.26 1.166-3.665-9.496h1.035l3.665 9.496zm5.63-1.011c-1.44 0-2.606-1.286-2.606-3.178 0-1.88 1.166-3.129 2.606-3.129.845 0 1.571.357 1.999 1.047v-3.225h1.059V294h-1.059v-.904c-.476.714-1.154 1.059-1.999 1.059m-1.511-3.178c0 1.321.654 2.297 1.773 2.297 1.13 0 1.797-.976 1.797-2.285 0-1.297-.667-2.261-1.797-2.261-1.119 0-1.773.94-1.773 2.249m8.628 2.059v-2.047h-2.046v-.928h2.046v-2.047h.929v2.047h2.046v.928h-2.046v2.047zm5.369 2.13 3.665-9.496h1.035l-3.665 9.496zm9.569.928c-1.512 0-2.464-.642-2.618-1.785h1.071c.178.655.654.929 1.582.929.857 0 1.654-.441 1.654-1.654v-.774c-.452.75-1.166 1.059-1.951 1.059-1.44 0-2.618-1.273-2.618-3.023 0-1.749 1.178-2.998 2.618-2.998.797 0 1.559.369 1.951 1.047v-.893h1.048v5.57c0 1.856-1.321 2.522-2.737 2.522m-1.809-5.259c0 1.249.702 2.177 1.773 2.177s1.785-.928 1.785-2.177c0-1.262-.714-2.107-1.785-2.107s-1.773.845-1.773 2.107m6.344 3.165v-.893h2.237v-4.212h-1.999v-.893h3.082v5.105h2.225V294zm2.19-7.021v-1.309h1.19v1.309zm7.177 8.52v-.535h.166c.357 0 .512-.214.512-.512V294h-.702v-1.428h1.38v1.904c0 .666-.452 1.023-1.178 1.023zm13.485-6.568v-3.261h.952v3.261zm2.452 0v-3.261h.952v3.261zm4.809 0v-3.261h.952v3.261zm2.451 0v-3.261h.952v3.261zm4.726 7.044c1.309-2.07 1.82-3.712 1.82-5.724 0-2.034-.523-3.688-1.82-5.771h.856c1.452 1.809 2.107 3.629 2.107 5.771 0 2.095-.655 3.904-2.107 5.724zm8.355-6.116v-1.428h1.38v1.428zm0 4.141v-1.428h1.38v1.904c0 .666-.452 1.023-1.178 1.023h-.178v-.535h.166c.357 0 .512-.214.512-.512V294z"/></svg>