<svg xmlns="http://www.w3.org/2000/svg" width="584" height="241" fill="none" viewBox="0 0 584 241"><path fill="#f7cdb6" d="M.293 15v-1.086l2.83-7.454h1.33l2.818 7.454V15zm.964-.878h5.05L3.794 7.229zm2.037-.33v-.988h.976v.988zm.061-2.989v-1.61h.866v1.61L4.1 12.34h-.622zm15.29 4.356c-1.806 0-2.94-1.379-2.94-3.233 0-1.843 1.134-3.233 2.94-3.233 1.524 0 2.867.866 2.72 3.513h-4.55c.085 1.135.61 2.062 1.83 2.062.817 0 1.354-.5 1.537-1.074h1.073c-.17 1.025-1.134 1.965-2.61 1.965m-1.806-3.77h3.477c-.085-1.232-.659-1.806-1.671-1.806-1.11 0-1.66.805-1.806 1.806m9.273 3.77c-1.61 0-2.61-.781-2.72-2.087h1.098c.146.818.695 1.208 1.647 1.208.83 0 1.342-.378 1.342-.964 0-.451-.33-.768-.964-.878l-1.208-.244c-.878-.17-1.744-.586-1.744-1.708 0-1.025.963-1.793 2.403-1.793 1.39 0 2.403.585 2.525 1.927h-1.098c-.11-.683-.622-1.049-1.44-1.049-.78 0-1.305.366-1.305.878 0 .488.427.72.915.818l1.281.244c.866.17 1.745.646 1.745 1.744 0 1.147-1.013 1.904-2.477 1.904M30.518 15v-.89h2.379V7.35h-1.94v-.89h3.026v7.65h2.367V15zm7.517 0v-.915h2.293V9.766h-2.05v-.915h3.16v5.234h2.282V15zm2.244-7.198V6.46h1.22v1.342zM45.65 15V8.851h1.086v.927c.39-.683 1.183-1.085 2.061-1.085 1.33 0 2.257.841 2.257 2.476V15H49.98v-3.77c0-1.073-.61-1.635-1.5-1.635-.965 0-1.745.769-1.745 1.855V15zm10.518 0c-1.05 0-1.55-.427-1.55-1.452V9.742h-1.83v-.89h1.55c.17 0 .28-.11.28-.27V6.815h1.074V8.85h2.428v.89H55.69v3.66c0 .44.183.696.732.696h1.964V15zm7.992 2.025c-1.488-1.866-2.16-3.72-2.16-5.868 0-2.196.672-4.063 2.16-5.917h.878c-1.33 2.135-1.866 3.83-1.866 5.917 0 2.062.524 3.745 1.866 5.868zM67.979 15V8.851h1.086v.927c.39-.683 1.183-1.085 2.062-1.085 1.33 0 2.257.841 2.257 2.476V15H72.31v-3.77c0-1.073-.61-1.635-1.5-1.635-.964 0-1.745.769-1.745 1.855V15zm10.115.159c-1.866 0-2.964-1.391-2.964-3.233 0-1.83 1.098-3.233 2.964-3.233 1.867 0 2.965 1.403 2.965 3.233 0 1.842-1.098 3.233-2.965 3.233m-1.854-3.246c0 1.196.512 2.343 1.854 2.343s1.855-1.147 1.855-2.343c0-1.183-.513-2.318-1.855-2.318s-1.854 1.135-1.854 2.318m7.65-.012v-.988h3.295v.988zm8.676 3.258c-1.33 0-2.257-.842-2.257-2.477v-3.83h1.086v3.769c0 1.074.598 1.635 1.5 1.635.952 0 1.745-.769 1.745-1.855v-3.55h1.074V15H94.64v-.927c-.402.683-1.183 1.086-2.074 1.086M97.753 15V8.851h1.086v.927c.39-.683 1.183-1.085 2.061-1.085 1.33 0 2.257.841 2.257 2.476V15h-1.073v-3.77c0-1.073-.61-1.635-1.501-1.635-.964 0-1.744.769-1.744 1.855V15zm10.237.159c-1.61 0-2.611-.781-2.721-2.087h1.098c.147.818.696 1.208 1.647 1.208.83 0 1.342-.378 1.342-.964 0-.451-.329-.768-.963-.878l-1.208-.244c-.879-.17-1.745-.586-1.745-1.708 0-1.025.964-1.793 2.404-1.793 1.39 0 2.403.585 2.525 1.927h-1.098c-.11-.683-.622-1.049-1.44-1.049-.78 0-1.305.366-1.305.878 0 .488.427.72.915.818l1.281.244c.866.17 1.745.646 1.745 1.744 0 1.147-1.013 1.904-2.477 1.904m6.443 0c-1.244 0-2.062-.732-2.062-1.818 0-1.428 1.245-1.77 2.245-1.891l1.318-.171c.5-.061.585-.354.585-.634v-.013c0-.597-.402-1.061-1.33-1.061-.89 0-1.415.415-1.512 1.171h-1.086c.134-1.244 1.122-2.05 2.586-2.05 1.635 0 2.416.818 2.416 2.197v2.976c0 .147.11.244.256.244h.378V15h-.732c-.598 0-.903-.305-.903-.756v-.147c-.536.793-1.39 1.062-2.159 1.062m-.939-1.867c0 .622.475.988 1.22.988 1.085 0 1.805-.805 1.805-2v-.428a2.2 2.2 0 0 1-.622.183l-1.074.159c-.927.146-1.329.476-1.329 1.098M121.73 15V9.742h-1.83v-.89h1.549c.171 0 .281-.11.281-.27v-.536c0-1.013.464-1.586 1.525-1.586h2.184v.89h-1.977c-.475 0-.658.232-.658.745v.756h2.549v.89h-2.549V15zm8.566.159c-1.806 0-2.94-1.379-2.94-3.233 0-1.843 1.134-3.233 2.94-3.233 1.525 0 2.867.866 2.721 3.513h-4.551c.085 1.135.61 2.062 1.83 2.062.817 0 1.354-.5 1.537-1.074h1.074c-.171 1.025-1.135 1.965-2.611 1.965m-1.806-3.77h3.477c-.085-1.232-.658-1.806-1.671-1.806-1.11 0-1.659.805-1.806 1.806m7.505.512v-.988h3.294v.988zm9.09 3.258c-1.866 0-2.964-1.391-2.964-3.233 0-1.83 1.098-3.233 2.964-3.233 1.867 0 2.965 1.403 2.965 3.233 0 1.842-1.098 3.233-2.965 3.233m-1.854-3.246c0 1.196.512 2.343 1.854 2.343s1.855-1.147 1.855-2.343c0-1.183-.513-2.318-1.855-2.318s-1.854 1.135-1.854 2.318m6.492 5.112V8.851h1.073v.927c.5-.732 1.196-1.085 2.062-1.085 1.464 0 2.672 1.317 2.672 3.257 0 1.928-1.208 3.209-2.672 3.209-.866 0-1.623-.366-2.062-1.074v2.94zm1.024-5.087c0 1.33.684 2.318 1.843 2.318 1.146 0 1.817-.964 1.817-2.306 0-1.354-.671-2.355-1.817-2.355-1.159 0-1.843 1-1.843 2.343M160.375 15c-1.05 0-1.55-.427-1.55-1.452V9.742h-1.83v-.89h1.55c.17 0 .28-.11.28-.27V6.815h1.074V8.85h2.428v.89h-2.428v3.66c0 .44.183.696.732.696h1.964V15zm4.198 0v-.915h2.293V9.766h-2.049v-.915h3.16v5.234h2.281V15zm2.245-7.198V6.46h1.22v1.342zm8.041 7.357c-1.867 0-2.965-1.391-2.965-3.233 0-1.83 1.098-3.233 2.965-3.233s2.964 1.403 2.964 3.233c0 1.842-1.098 3.233-2.964 3.233m-1.855-3.246c0 1.196.513 2.343 1.855 2.343s1.854-1.147 1.854-2.343c0-1.183-.512-2.318-1.854-2.318s-1.855 1.135-1.855 2.318M179.631 15V8.851h1.085v.927c.391-.683 1.184-1.085 2.062-1.085 1.33 0 2.257.841 2.257 2.476V15h-1.073v-3.77c0-1.073-.61-1.635-1.501-1.635-.964 0-1.745.769-1.745 1.855V15zm9.236.159c-1.244 0-2.061-.732-2.061-1.818 0-1.428 1.244-1.77 2.244-1.891l1.318-.171c.5-.061.586-.354.586-.634v-.013c0-.597-.403-1.061-1.33-1.061-.891 0-1.415.415-1.513 1.171h-1.086c.134-1.244 1.123-2.05 2.587-2.05 1.634 0 2.415.818 2.415 2.197v2.976c0 .147.11.244.256.244h.379V15h-.732c-.598 0-.903-.305-.903-.756v-.147c-.537.793-1.391 1.062-2.16 1.062m-.939-1.867c0 .622.476.988 1.22.988 1.086 0 1.806-.805 1.806-2v-.428a2.2 2.2 0 0 1-.623.183l-1.073.159c-.927.146-1.33.476-1.33 1.098M194.273 15v-.89h2.379V7.35h-1.939v-.89h3.025v7.65h2.367V15zm8.713-3.099v-.988h3.294v.988zm9.249 3.258c-1.794 0-2.965-1.391-2.965-3.233 0-1.83 1.171-3.233 2.977-3.233 1.403 0 2.44.854 2.635 2.269h-1.098c-.171-.866-.769-1.367-1.549-1.367-1.281 0-1.843 1.098-1.843 2.318 0 1.233.562 2.343 1.843 2.343.793 0 1.329-.415 1.549-1.208h1.086c-.232 1.257-1.171 2.11-2.635 2.11m4.613-.159V6.46h1.085v3.318c.391-.683 1.184-1.085 2.062-1.085 1.33 0 2.257.841 2.257 2.476V15h-1.073v-3.77c0-1.073-.61-1.635-1.501-1.635-.964 0-1.745.769-1.745 1.855V15zm9.236.159c-1.244 0-2.061-.732-2.061-1.818 0-1.428 1.244-1.77 2.244-1.891l1.318-.171c.5-.061.586-.354.586-.634v-.013c0-.597-.403-1.061-1.33-1.061-.891 0-1.415.415-1.513 1.171h-1.086c.134-1.244 1.123-2.05 2.587-2.05 1.634 0 2.415.818 2.415 2.197v2.976c0 .147.11.244.256.244h.379V15h-.732c-.598 0-.903-.305-.903-.756v-.147c-.537.793-1.391 1.062-2.16 1.062m-.939-1.867c0 .622.476.988 1.22.988 1.086 0 1.806-.805 1.806-2v-.428a2.2 2.2 0 0 1-.623.183l-1.073.159c-.927.146-1.33.476-1.33 1.098M231.564 15v-.915h2.293V9.766h-2.049v-.915h3.16v5.234h2.281V15zm2.245-7.198V6.46h1.22v1.342zM239.178 15V8.851h1.086v.927c.39-.683 1.183-1.085 2.062-1.085 1.329 0 2.257.841 2.257 2.476V15h-1.074v-3.77c0-1.073-.61-1.635-1.501-1.635-.963 0-1.744.769-1.744 1.855V15zm7.273 0v-.915h2.293V9.766h-2.049v-.915h3.159v5.234h2.282V15zm2.244-7.198V6.46h1.22v1.342zm5.37 7.198V8.851h1.086v.927c.39-.683 1.183-1.085 2.061-1.085 1.33 0 2.257.841 2.257 2.476V15h-1.073v-3.77c0-1.073-.61-1.635-1.501-1.635-.964 0-1.744.769-1.744 1.855V15zm10.066 2.147c-1.549 0-2.525-.659-2.684-1.83h1.098c.183.671.671.952 1.623.952.878 0 1.696-.452 1.696-1.696v-.793c-.464.769-1.196 1.086-2.001 1.086-1.476 0-2.684-1.306-2.684-3.099s1.208-3.074 2.684-3.074c.817 0 1.598.378 2.001 1.073v-.915h1.073v5.71c0 1.903-1.354 2.586-2.806 2.586m-1.854-5.392c0 1.28.72 2.232 1.818 2.232s1.83-.951 1.83-2.232c0-1.293-.732-2.16-1.83-2.16s-1.818.867-1.818 2.16m7.516 5.27c1.342-2.123 1.867-3.806 1.867-5.868 0-2.086-.537-3.782-1.867-5.917h.879c1.488 1.854 2.159 3.721 2.159 5.917 0 2.147-.671 4.002-2.159 5.868zM278.359 15v-1.464h1.416V15zm0-4.246V9.29h1.416v1.464zm15.595 4.405c-1.684 0-2.977-.952-2.977-3.063V6.46h1.11v5.514c0 1.623.854 2.22 1.867 2.22s1.866-.597 1.866-2.22V6.46h1.111v5.636c0 2.111-1.294 3.063-2.977 3.063m4.771-.159V8.851h1.086v.927c.391-.683 1.184-1.085 2.062-1.085 1.33 0 2.257.841 2.257 2.476V15h-1.074v-3.77c0-1.073-.61-1.635-1.5-1.635-.964 0-1.745.769-1.745 1.855V15zm10.238.159c-1.611 0-2.611-.781-2.721-2.087h1.098c.146.818.695 1.208 1.647 1.208.83 0 1.342-.378 1.342-.964 0-.451-.329-.768-.964-.878l-1.208-.244c-.878-.17-1.744-.586-1.744-1.708 0-1.025.964-1.793 2.403-1.793 1.391 0 2.404.585 2.526 1.927h-1.098c-.11-.683-.623-1.049-1.44-1.049-.781 0-1.305.366-1.305.878 0 .488.427.72.915.818l1.281.244c.866.17 1.744.646 1.744 1.744 0 1.147-1.012 1.904-2.476 1.904m6.443 0c-1.245 0-2.062-.732-2.062-1.818 0-1.428 1.244-1.77 2.245-1.891l1.317-.171c.5-.061.586-.354.586-.634v-.013c0-.597-.403-1.061-1.33-1.061-.891 0-1.415.415-1.513 1.171h-1.086c.135-1.244 1.123-2.05 2.587-2.05 1.635 0 2.415.818 2.415 2.197v2.976c0 .147.11.244.257.244h.378V15h-.732c-.598 0-.903-.305-.903-.756v-.147c-.537.793-1.391 1.062-2.159 1.062m-.94-1.867c0 .622.476.988 1.22.988 1.086 0 1.806-.805 1.806-2v-.428a2.2 2.2 0 0 1-.622.183l-1.074.159c-.927.146-1.33.476-1.33 1.098M322.703 15V9.742h-1.83v-.89h1.549c.171 0 .281-.11.281-.27v-.536c0-1.013.463-1.586 1.525-1.586h2.183v.89h-1.976c-.476 0-.659.232-.659.745v.756h2.55v.89h-2.55V15zm8.566.159c-1.806 0-2.941-1.379-2.941-3.233 0-1.843 1.135-3.233 2.941-3.233 1.525 0 2.867.866 2.72 3.513h-4.55c.085 1.135.61 2.062 1.83 2.062.817 0 1.354-.5 1.537-1.074h1.073c-.17 1.025-1.134 1.965-2.61 1.965m-1.806-3.77h3.477c-.085-1.232-.659-1.806-1.671-1.806-1.111 0-1.66.805-1.806 1.806m16.18 3.77c-1.33 0-2.257-.842-2.257-2.477v-3.83h1.086v3.769c0 1.074.598 1.635 1.5 1.635.952 0 1.745-.769 1.745-1.855v-3.55h1.074V15h-1.074v-.927c-.403.683-1.183 1.086-2.074 1.086m7.98 0c-1.61 0-2.611-.781-2.72-2.087h1.098c.146.818.695 1.208 1.647 1.208.829 0 1.342-.378 1.342-.964 0-.451-.33-.768-.964-.878l-1.208-.244c-.878-.17-1.745-.586-1.745-1.708 0-1.025.964-1.793 2.404-1.793 1.391 0 2.403.585 2.525 1.927h-1.098c-.11-.683-.622-1.049-1.439-1.049-.781 0-1.306.366-1.306.878 0 .488.427.72.915.818l1.281.244c.866.17 1.745.646 1.745 1.744 0 1.147-1.013 1.904-2.477 1.904m6.443 0c-1.244 0-2.062-.732-2.062-1.818 0-1.428 1.245-1.77 2.245-1.891l1.318-.171c.5-.061.585-.354.585-.634v-.013c0-.597-.402-1.061-1.329-1.061-.891 0-1.416.415-1.513 1.171h-1.086c.134-1.244 1.122-2.05 2.586-2.05 1.635 0 2.416.818 2.416 2.197v2.976c0 .147.11.244.256.244h.378V15h-.732c-.597 0-.902-.305-.902-.756v-.147c-.537.793-1.391 1.062-2.16 1.062m-.939-1.867c0 .622.476.988 1.22.988 1.086 0 1.805-.805 1.805-2v-.428a2.2 2.2 0 0 1-.622.183l-1.073.159c-.928.146-1.33.476-1.33 1.098m9.212 3.855c-1.549 0-2.525-.659-2.684-1.83h1.098c.183.671.671.952 1.623.952.878 0 1.696-.452 1.696-1.696v-.793c-.464.769-1.196 1.086-2.001 1.086-1.476 0-2.684-1.306-2.684-3.099s1.208-3.074 2.684-3.074c.817 0 1.598.378 2.001 1.073v-.915h1.073v5.71c0 1.903-1.354 2.586-2.806 2.586m-1.854-5.392c0 1.28.72 2.232 1.818 2.232s1.83-.951 1.83-2.232c0-1.293-.732-2.16-1.83-2.16s-1.818.867-1.818 2.16m9.444 3.404c-1.806 0-2.94-1.379-2.94-3.233 0-1.843 1.134-3.233 2.94-3.233 1.525 0 2.867.866 2.721 3.513h-4.551c.085 1.135.61 2.062 1.83 2.062.817 0 1.354-.5 1.537-1.074h1.074c-.171 1.025-1.135 1.965-2.611 1.965m-1.806-3.77h3.477c-.085-1.232-.658-1.806-1.671-1.806-1.11 0-1.659.805-1.806 1.806m16.595 3.77c-1.866 0-2.964-1.391-2.964-3.233 0-1.83 1.098-3.233 2.964-3.233 1.867 0 2.965 1.403 2.965 3.233 0 1.842-1.098 3.233-2.965 3.233m-1.854-3.246c0 1.196.512 2.343 1.854 2.343s1.855-1.147 1.855-2.343c0-1.183-.513-2.318-1.855-2.318s-1.854 1.135-1.854 2.318M397.137 15V9.742h-1.83v-.89h1.549c.171 0 .281-.11.281-.27v-.536c0-1.013.464-1.586 1.525-1.586h2.184v.89h-1.977c-.475 0-.658.232-.658.745v.756h2.549v.89h-2.549V15zm15.912.159c-1.867 0-2.965-1.391-2.965-3.233 0-1.83 1.098-3.233 2.965-3.233s2.964 1.403 2.964 3.233c0 1.842-1.098 3.233-2.964 3.233m-1.855-3.246c0 1.196.513 2.343 1.855 2.343s1.854-1.147 1.854-2.343c0-1.183-.512-2.318-1.854-2.318s-1.855 1.135-1.855 2.318m6.492 5.112V8.851h1.074v.927c.5-.732 1.195-1.085 2.061-1.085 1.464 0 2.672 1.317 2.672 3.257 0 1.928-1.208 3.209-2.672 3.209-.866 0-1.622-.366-2.061-1.074v2.94zm1.025-5.087c0 1.33.683 2.318 1.842 2.318 1.147 0 1.818-.964 1.818-2.306 0-1.354-.671-2.355-1.818-2.355-1.159 0-1.842 1-1.842 2.343M428.338 15c-1.049 0-1.549-.427-1.549-1.452V9.742h-1.83v-.89h1.549c.171 0 .281-.11.281-.27V6.815h1.073V8.85h2.428v.89h-2.428v3.66c0 .44.183.696.732.696h1.965V15zm4.198 0v-.915h2.294V9.766h-2.05v-.915h3.16v5.234h2.282V15zm2.245-7.198V6.46h1.22v1.342zm8.041 7.357c-1.866 0-2.964-1.391-2.964-3.233 0-1.83 1.098-3.233 2.964-3.233 1.867 0 2.965 1.403 2.965 3.233 0 1.842-1.098 3.233-2.965 3.233m-1.854-3.246c0 1.196.512 2.343 1.854 2.343s1.855-1.147 1.855-2.343c0-1.183-.513-2.318-1.855-2.318s-1.854 1.135-1.854 2.318M447.594 15V8.851h1.086v.927c.39-.683 1.183-1.085 2.062-1.085 1.329 0 2.257.841 2.257 2.476V15h-1.074v-3.77c0-1.073-.61-1.635-1.501-1.635-.963 0-1.744.769-1.744 1.855V15zm9.237.159c-1.245 0-2.062-.732-2.062-1.818 0-1.428 1.244-1.77 2.245-1.891l1.317-.171c.501-.061.586-.354.586-.634v-.013c0-.597-.403-1.061-1.33-1.061-.89 0-1.415.415-1.513 1.171h-1.085c.134-1.244 1.122-2.05 2.586-2.05 1.635 0 2.416.818 2.416 2.197v2.976c0 .147.109.244.256.244h.378V15h-.732c-.598 0-.903-.305-.903-.756v-.147c-.537.793-1.391 1.062-2.159 1.062m-.94-1.867c0 .622.476.988 1.22.988 1.086 0 1.806-.805 1.806-2v-.428a2.2 2.2 0 0 1-.622.183l-1.074.159c-.927.146-1.33.476-1.33 1.098M462.237 15v-.89h2.379V7.35h-1.94v-.89h3.026v7.65h2.366V15zm17.961.159c-1.793 0-2.964-1.391-2.964-3.233 0-1.83 1.171-3.233 2.976-3.233 1.403 0 2.44.854 2.636 2.269h-1.098c-.171-.866-.769-1.367-1.55-1.367-1.281 0-1.842 1.098-1.842 2.318 0 1.233.561 2.343 1.842 2.343.793 0 1.33-.415 1.55-1.208h1.085c-.231 1.257-1.171 2.11-2.635 2.11m4.613-.159V6.46h1.086v3.318c.39-.683 1.183-1.085 2.062-1.085 1.33 0 2.257.841 2.257 2.476V15h-1.074v-3.77c0-1.073-.61-1.635-1.5-1.635-.964 0-1.745.769-1.745 1.855V15zm9.237.159c-1.244 0-2.062-.732-2.062-1.818 0-1.428 1.245-1.77 2.245-1.891l1.318-.171c.5-.061.585-.354.585-.634v-.013c0-.597-.402-1.061-1.33-1.061-.89 0-1.415.415-1.512 1.171h-1.086c.134-1.244 1.122-2.05 2.586-2.05 1.635 0 2.416.818 2.416 2.197v2.976c0 .147.11.244.256.244h.378V15h-.732c-.598 0-.903-.305-.903-.756v-.147c-.536.793-1.39 1.062-2.159 1.062m-.939-1.867c0 .622.475.988 1.22.988 1.085 0 1.805-.805 1.805-2v-.428a2.2 2.2 0 0 1-.622.183l-1.074.159c-.927.146-1.329.476-1.329 1.098M499.527 15v-.915h2.294V9.766h-2.05v-.915h3.16v5.234h2.281V15zm2.245-7.198V6.46h1.22v1.342zM507.141 15V8.851h1.086v.927c.391-.683 1.184-1.085 2.062-1.085 1.33 0 2.257.841 2.257 2.476V15h-1.074v-3.77c0-1.073-.61-1.635-1.5-1.635-.964 0-1.745.769-1.745 1.855V15zm7.273 0v-.915h2.294V9.766h-2.05v-.915h3.16v5.234h2.281V15zm2.245-7.198V6.46h1.22v1.342zM522.028 15V8.851h1.086v.927c.39-.683 1.183-1.085 2.062-1.085 1.33 0 2.257.841 2.257 2.476V15h-1.074v-3.77c0-1.073-.61-1.635-1.5-1.635-.964 0-1.745.769-1.745 1.855V15zm10.067 2.147c-1.55 0-2.526-.659-2.684-1.83h1.098c.183.671.671.952 1.622.952.879 0 1.696-.452 1.696-1.696v-.793c-.463.769-1.195 1.086-2.001 1.086-1.476 0-2.684-1.306-2.684-3.099s1.208-3.074 2.684-3.074c.818 0 1.599.378 2.001 1.073v-.915h1.074v5.71c0 1.903-1.354 2.586-2.806 2.586m-1.855-5.392c0 1.28.72 2.232 1.818 2.232s1.83-.951 1.83-2.232c0-1.293-.732-2.16-1.83-2.16s-1.818.867-1.818 2.16"/><path fill="#f4f3ec" fill-opacity=".9" d="M76.472 38.025V26.24h4.038v.878h-3.014v10.029h3.014v.878zM427.35 36v-1.464h1.415V36zm0-4.246V30.29h1.415v1.464zm5.235 3.929c0-1.5 1.062-2.391 2.16-3.184 1.183-.842 2.427-1.562 2.427-2.733 0-.964-.683-1.513-1.647-1.513-1.11 0-1.72.683-1.708 1.696h-1.134c-.073-1.61 1.159-2.672 2.891-2.672 1.623 0 2.757 1 2.757 2.428 0 1.025-.622 1.781-1.39 2.428-1.281 1.037-2.916 1.793-3.099 2.94h4.587V36h-5.844zm10.323.5c-1.842 0-2.953-1.061-2.977-2.623h1.135c.061.708.463 1.66 1.83 1.66 1.134 0 1.903-.745 1.903-1.99 0-1.122-.732-1.988-1.891-1.988-1.098 0-1.55.622-1.72.927h-1.074l.683-4.709h4.709v.94h-3.769l-.366 2.525c.488-.403 1.098-.574 1.769-.574 1.598 0 2.818 1.16 2.818 2.855 0 1.708-1.11 2.977-3.05 2.977m4.564-.5c0-1.5 1.061-2.391 2.159-3.184 1.184-.842 2.428-1.562 2.428-2.733 0-.964-.683-1.513-1.647-1.513-1.11 0-1.72.683-1.708 1.696h-1.134c-.074-1.61 1.159-2.672 2.891-2.672 1.623 0 2.757 1 2.757 2.428 0 1.025-.622 1.781-1.391 2.428-1.281 1.037-2.915 1.793-3.098 2.94h4.587V36h-5.844zm10.347.476c-1.989 0-3.245-1.66-3.245-4.429 0-2.782 1.256-4.416 3.245-4.416 2.001 0 3.257 1.634 3.257 4.416 0 2.77-1.256 4.429-3.257 4.429m-2.098-4.429c0 2.196.695 3.477 2.098 3.477 1.415 0 2.098-1.281 2.098-3.477 0-2.208-.683-3.465-2.098-3.465-1.403 0-2.098 1.257-2.098 3.465m8.846 4.27v-1.464h1.415V36zm0-4.246V30.29h1.415v1.464zM469.692 36v-.927h2.489V30.01h-1.976v-.94h1.671a.3.3 0 0 0 .305-.292V27.46h1.098v7.613h2.477V36zm10.433.183c-1.842 0-2.953-1.061-2.977-2.623h1.135c.061.708.463 1.66 1.83 1.66 1.134 0 1.903-.745 1.903-1.99 0-1.122-.732-1.988-1.891-1.988-1.098 0-1.55.622-1.72.927h-1.074l.683-4.709h4.709v.94h-3.769l-.366 2.525c.488-.403 1.098-.574 1.769-.574 1.598 0 2.818 1.16 2.818 2.855 0 1.708-1.11 2.977-3.05 2.977m9.225 1.842h-4.039v-.878h3.014V27.118h-3.014v-.878h4.039zM108.088 57.16c-1.806 0-2.941-1.379-2.941-3.233 0-1.843 1.135-3.233 2.941-3.233 1.525 0 2.867.866 2.72 3.513h-4.55c.085 1.135.61 2.062 1.83 2.062.817 0 1.354-.5 1.537-1.074h1.073c-.17 1.025-1.134 1.965-2.61 1.965m-1.806-3.77h3.477c-.085-1.232-.659-1.806-1.671-1.806-1.111 0-1.66.805-1.806 1.806M112.615 57l2.16-3.196-1.989-2.953h1.208l1.464 2.208 1.464-2.208h1.208l-2.026 2.977L118.252 57h-1.22l-1.599-2.428L113.835 57zm7.456 2.025v-8.174h1.073v.927c.501-.732 1.196-1.085 2.062-1.085 1.464 0 2.672 1.317 2.672 3.257 0 1.928-1.208 3.209-2.672 3.209-.866 0-1.622-.366-2.062-1.074v2.94zm1.025-5.087c0 1.33.683 2.318 1.842 2.318 1.147 0 1.818-.964 1.818-2.306 0-1.354-.671-2.355-1.818-2.355-1.159 0-1.842 1-1.842 2.343m9.322 3.22c-1.806 0-2.94-1.378-2.94-3.232 0-1.843 1.134-3.233 2.94-3.233 1.525 0 2.867.866 2.721 3.513h-4.551c.085 1.135.61 2.062 1.83 2.062.817 0 1.354-.5 1.537-1.074h1.074c-.171 1.025-1.135 1.965-2.611 1.965m-1.806-3.77h3.477c-.085-1.231-.658-1.805-1.671-1.805-1.11 0-1.659.805-1.806 1.806m9.31 3.77c-1.793 0-2.964-1.39-2.964-3.232 0-1.83 1.171-3.233 2.977-3.233 1.403 0 2.44.854 2.635 2.269h-1.098c-.171-.866-.769-1.367-1.55-1.367-1.281 0-1.842 1.098-1.842 2.318 0 1.233.561 2.343 1.842 2.343.793 0 1.33-.415 1.55-1.208h1.086c-.232 1.257-1.172 2.11-2.636 2.11M145.61 57c-1.049 0-1.55-.427-1.55-1.452v-3.806h-1.83v-.89h1.55c.171 0 .28-.11.28-.27v-1.768h1.074v2.037h2.428v.89h-2.428v3.66c0 .44.183.696.732.696h1.964V57zm7.992 2.025c-1.488-1.866-2.159-3.72-2.159-5.868 0-2.196.671-4.063 2.159-5.917h.879c-1.33 2.135-1.867 3.83-1.867 5.917 0 2.062.525 3.745 1.867 5.868zm6.163-1.866c-1.477 0-2.672-1.318-2.672-3.258 0-1.927 1.195-3.208 2.672-3.208.866 0 1.61.366 2.049 1.073V48.46h1.086V57h-1.086v-.927c-.488.732-1.183 1.086-2.049 1.086m-1.55-3.258c0 1.354.671 2.355 1.818 2.355 1.159 0 1.842-1 1.842-2.343 0-1.33-.683-2.318-1.842-2.318-1.147 0-1.818.964-1.818 2.306m6.48 3.099v-.915h2.293v-4.319h-2.049v-.915h3.16v5.234h2.281V57zm2.245-7.198V48.46h1.22v1.342zM173.102 57v-6.149h1.11v1.037a2 2 0 0 1 1.757-1.037h1.476v1.037h-1.561c-.976 0-1.672.635-1.672 1.867V57zm8.615 0v-1.464h1.415V57zm8.248.159c-1.805 0-2.94-1.379-2.94-3.233 0-1.843 1.135-3.233 2.94-3.233 1.525 0 2.867.866 2.721 3.513h-4.551c.086 1.135.61 2.062 1.83 2.062.818 0 1.355-.5 1.538-1.074h1.073c-.171 1.025-1.134 1.965-2.611 1.965m-1.805-3.77h3.477c-.086-1.232-.659-1.806-1.672-1.806-1.11 0-1.659.805-1.805 1.806M194.493 57l2.159-3.196-1.988-2.953h1.208l1.464 2.208 1.464-2.208h1.207l-2.025 2.977L200.129 57h-1.22l-1.598-2.428L195.713 57zm7.456 2.025v-8.174h1.073v.927c.5-.732 1.196-1.085 2.062-1.085 1.464 0 2.672 1.317 2.672 3.257 0 1.928-1.208 3.209-2.672 3.209-.866 0-1.623-.366-2.062-1.074v2.94zm1.024-5.087c0 1.33.684 2.318 1.843 2.318 1.146 0 1.817-.964 1.817-2.306 0-1.354-.671-2.355-1.817-2.355-1.159 0-1.843 1-1.843 2.343m8.347.317c0-.72.256-1.22 1.183-1.891.598-.415 1.488-.842 1.488-1.781 0-.842-.683-1.33-1.671-1.33-1.196 0-1.867.683-1.952 1.781h-1.159c.049-1.598 1.183-2.757 3.172-2.757 1.598 0 2.794.805 2.794 2.233 0 1.537-1.184 2.086-1.684 2.415-.695.452-1.025.866-1.025 1.513v.134h-1.146zM211.198 57v-1.464h1.403V57zm7.736 0v-1.464h1.415V57zm7.272.159c-1.244 0-2.061-.732-2.061-1.818 0-1.428 1.244-1.77 2.244-1.891l1.318-.171c.5-.061.586-.354.586-.634v-.013c0-.597-.403-1.061-1.33-1.061-.891 0-1.415.415-1.513 1.171h-1.086c.134-1.244 1.123-2.05 2.587-2.05 1.634 0 2.415.818 2.415 2.197v2.976c0 .147.11.244.256.244h.379V57h-.732c-.598 0-.903-.305-.903-.756v-.147c-.537.793-1.391 1.062-2.16 1.062m-.939-1.867c0 .622.476.988 1.22.988 1.086 0 1.806-.805 1.806-2v-.428a2.2 2.2 0 0 1-.623.183l-1.073.159c-.927.146-1.33.476-1.33 1.098m9.383 1.867c-1.61 0-2.61-.781-2.72-2.087h1.098c.146.818.695 1.208 1.647 1.208.829 0 1.342-.378 1.342-.964 0-.451-.33-.768-.964-.878l-1.208-.244c-.878-.17-1.744-.586-1.744-1.708 0-1.025.963-1.793 2.403-1.793 1.391 0 2.403.585 2.525 1.927h-1.098c-.109-.683-.622-1.049-1.439-1.049-.781 0-1.306.366-1.306.878 0 .488.427.72.915.818l1.281.244c.867.17 1.745.646 1.745 1.744 0 1.147-1.013 1.904-2.477 1.904m7.724-.159c-1.049 0-1.549-.427-1.549-1.452v-3.806h-1.83v-.89h1.549c.171 0 .281-.11.281-.27v-1.768h1.074v2.037h2.427v.89h-2.427v3.66c0 .44.183.696.732.696h1.964V57zm6.163-2.745c0-.72.256-1.22 1.183-1.891.598-.415 1.489-.842 1.489-1.781 0-.842-.684-1.33-1.672-1.33-1.195 0-1.866.683-1.952 1.781h-1.159c.049-1.598 1.184-2.757 3.172-2.757 1.598 0 2.794.805 2.794 2.233 0 1.537-1.183 2.086-1.684 2.415-.695.452-1.024.866-1.024 1.513v.134h-1.147zM248.415 57v-1.464h1.403V57zm7.736 0v-1.464h1.415V57zm8.554 0c-1.05 0-1.55-.427-1.55-1.452v-3.806h-1.83v-.89h1.55c.17 0 .28-.11.28-.27v-1.768h1.074v2.037h2.428v.89h-2.428v3.66c0 .44.183.696.732.696h1.964V57zm4.515 2.025v-.878h1.049c.391 0 .586-.086.72-.44l.293-.817-2.465-6.039h1.159l1.843 4.648 1.72-4.648h1.134l-2.769 7.223c-.305.793-.756.951-1.476.951zm7.163 0v-8.174h1.073v.927c.501-.732 1.196-1.085 2.062-1.085 1.464 0 2.672 1.317 2.672 3.257 0 1.928-1.208 3.209-2.672 3.209-.866 0-1.622-.366-2.062-1.074v2.94zm1.025-5.087c0 1.33.683 2.318 1.842 2.318 1.147 0 1.818-.964 1.818-2.306 0-1.354-.671-2.355-1.818-2.355-1.159 0-1.842 1-1.842 2.343m9.322 3.22c-1.806 0-2.94-1.378-2.94-3.232 0-1.843 1.134-3.233 2.94-3.233 1.525 0 2.867.866 2.721 3.513H284.9c.085 1.135.61 2.062 1.83 2.062.817 0 1.354-.5 1.537-1.074h1.074c-.171 1.025-1.135 1.965-2.611 1.965m-1.806-3.77h3.477c-.085-1.231-.658-1.805-1.671-1.805-1.11 0-1.659.805-1.806 1.806m7.322 5.637c1.342-2.123 1.866-3.806 1.866-5.868 0-2.086-.536-3.782-1.866-5.917h.878c1.489 1.854 2.16 3.721 2.16 5.917 0 2.147-.671 4.002-2.16 5.868zM300.812 57v-1.464h1.415V57zm8.553 0c-1.049 0-1.549-.427-1.549-1.452v-3.806h-1.83v-.89h1.549c.171 0 .281-.11.281-.27v-1.768h1.073v2.037h2.428v.89h-2.428v3.66c0 .44.183.696.732.696h1.965V57zm7.041.159c-1.867 0-2.965-1.391-2.965-3.233 0-1.83 1.098-3.233 2.965-3.233s2.965 1.403 2.965 3.233c0 1.842-1.098 3.233-2.965 3.233m-1.854-3.246c0 1.196.512 2.343 1.854 2.343s1.854-1.147 1.854-2.343c0-1.183-.512-2.318-1.854-2.318s-1.854 1.135-1.854 2.318M320.958 57v-8.54h3.221c1.317 0 2.354.708 2.367 2.037.012.964-.635 1.745-1.538 2.013 1.208.208 1.977 1.025 1.977 2.123 0 1.306-1.074 2.367-2.794 2.367zm1.11-.927h1.977c.976 0 1.781-.525 1.781-1.562 0-.878-.72-1.488-1.733-1.488h-2.025zm0-3.94h1.842c.928 0 1.501-.684 1.501-1.465 0-.768-.464-1.28-1.44-1.28h-1.903zm9.322 5.026c-1.805 0-2.94-1.379-2.94-3.233 0-1.843 1.135-3.233 2.94-3.233 1.525 0 2.867.866 2.721 3.513h-4.551c.086 1.135.61 2.062 1.83 2.062.818 0 1.355-.5 1.538-1.074h1.073c-.171 1.025-1.134 1.965-2.611 1.965m-1.805-3.77h3.477c-.086-1.232-.659-1.806-1.672-1.806-1.11 0-1.659.805-1.805 1.806m10.103 5.636c-1.488-1.866-2.159-3.72-2.159-5.868 0-2.196.671-4.063 2.159-5.917h.878c-1.329 2.135-1.866 3.83-1.866 5.917 0 2.062.524 3.745 1.866 5.868zm6.016-7.222V48.46h.964v3.343zM350.732 57v-8.54h3.416c1.452 0 2.55 1.037 2.55 2.586 0 1.55-1.098 2.575-2.55 2.575h-2.306V57zm1.11-4.294h2.098c.989 0 1.599-.671 1.599-1.66 0-1-.61-1.659-1.599-1.659h-2.098zM359.188 57v-6.149h1.11v1.037a2 2 0 0 1 1.757-1.037h1.476v1.037h-1.562c-.976 0-1.671.635-1.671 1.867V57zm9.322.159c-1.867 0-2.965-1.391-2.965-3.233 0-1.83 1.098-3.233 2.965-3.233s2.965 1.403 2.965 3.233c0 1.842-1.098 3.233-2.965 3.233m-1.854-3.246c0 1.196.512 2.343 1.854 2.343s1.854-1.147 1.854-2.343c0-1.183-.512-2.318-1.854-2.318s-1.854 1.135-1.854 2.318m9.249 5.234c-1.55 0-2.526-.659-2.684-1.83h1.098c.183.671.671.952 1.622.952.879 0 1.696-.452 1.696-1.696v-.793c-.464.769-1.196 1.086-2.001 1.086-1.476 0-2.684-1.306-2.684-3.099s1.208-3.074 2.684-3.074c.818 0 1.598.378 2.001 1.073v-.915h1.074v5.71c0 1.903-1.355 2.586-2.806 2.586m-1.855-5.392c0 1.28.72 2.232 1.818 2.232s1.83-.951 1.83-2.232c0-1.293-.732-2.16-1.83-2.16s-1.818.867-1.818 2.16M381.518 57v-6.149h1.11v1.037a2 2 0 0 1 1.757-1.037h1.476v1.037H384.3c-.976 0-1.672.635-1.672 1.867V57zm8.444.159c-1.244 0-2.062-.732-2.062-1.818 0-1.428 1.245-1.77 2.245-1.891l1.318-.171c.5-.061.585-.354.585-.634v-.013c0-.597-.402-1.061-1.33-1.061-.89 0-1.415.415-1.512 1.171h-1.086c.134-1.244 1.122-2.05 2.586-2.05 1.635 0 2.416.818 2.416 2.197v2.976c0 .147.11.244.256.244h.378V57h-.732c-.598 0-.903-.305-.903-.756v-.147c-.536.793-1.39 1.062-2.159 1.062m-.939-1.867c0 .622.475.988 1.22.988 1.085 0 1.805-.805 1.805-2v-.428a2.2 2.2 0 0 1-.622.183l-1.074.159c-.927.146-1.329.476-1.329 1.098m6.26 1.708v-6.149h1.037v.525c.244-.44.707-.683 1.207-.683.623 0 .989.378 1.111.732.353-.586.878-.732 1.366-.732.793 0 1.33.597 1.33 1.61V57h-1.037v-4.502c0-.585-.208-.866-.586-.866-.476 0-.89.44-.89 1.183V57h-1.025v-4.502c0-.585-.22-.866-.598-.866-.476 0-.878.44-.878 1.183V57zm9.968-5.197V48.46h.964v3.343zm6.09 7.222c1.342-2.123 1.866-3.806 1.866-5.868 0-2.086-.537-3.782-1.866-5.917h.878c1.488 1.854 2.159 3.721 2.159 5.917 0 2.147-.671 4.002-2.159 5.868zM108.088 78.16c-1.806 0-2.941-1.379-2.941-3.233 0-1.843 1.135-3.233 2.941-3.233 1.525 0 2.867.866 2.72 3.513h-4.55c.085 1.135.61 2.062 1.83 2.062.817 0 1.354-.5 1.537-1.074h1.073c-.17 1.025-1.134 1.965-2.61 1.965m-1.806-3.77h3.477c-.085-1.232-.659-1.806-1.671-1.806-1.111 0-1.66.805-1.806 1.806M112.615 78l2.16-3.196-1.989-2.953h1.208l1.464 2.208 1.464-2.208h1.208l-2.026 2.977L118.252 78h-1.22l-1.599-2.428L113.835 78zm7.456 2.025v-8.174h1.073v.927c.501-.732 1.196-1.085 2.062-1.085 1.464 0 2.672 1.317 2.672 3.257 0 1.928-1.208 3.209-2.672 3.209-.866 0-1.622-.366-2.062-1.074v2.94zm1.025-5.087c0 1.33.683 2.318 1.842 2.318 1.147 0 1.818-.964 1.818-2.306 0-1.354-.671-2.355-1.818-2.355-1.159 0-1.842 1-1.842 2.343m9.322 3.22c-1.806 0-2.94-1.378-2.94-3.232 0-1.843 1.134-3.233 2.94-3.233 1.525 0 2.867.866 2.721 3.513h-4.551c.085 1.135.61 2.062 1.83 2.062.817 0 1.354-.5 1.537-1.074h1.074c-.171 1.025-1.135 1.965-2.611 1.965m-1.806-3.77h3.477c-.085-1.231-.658-1.805-1.671-1.805-1.11 0-1.659.805-1.806 1.806m9.31 3.77c-1.793 0-2.964-1.39-2.964-3.232 0-1.83 1.171-3.233 2.977-3.233 1.403 0 2.44.854 2.635 2.269h-1.098c-.171-.866-.769-1.367-1.55-1.367-1.281 0-1.842 1.098-1.842 2.318 0 1.233.561 2.343 1.842 2.343.793 0 1.33-.415 1.55-1.208h1.086c-.232 1.257-1.172 2.11-2.636 2.11M145.61 78c-1.049 0-1.55-.427-1.55-1.452v-3.806h-1.83v-.89h1.55c.171 0 .28-.11.28-.27v-1.768h1.074v2.037h2.428v.89h-2.428v3.66c0 .44.183.696.732.696h1.964V78zm7.992 2.025c-1.488-1.866-2.159-3.72-2.159-5.868 0-2.196.671-4.063 2.159-5.917h.879c-1.33 2.135-1.867 3.83-1.867 5.917 0 2.062.525 3.745 1.867 5.868zm7.444 0c-1.489-1.866-2.16-3.72-2.16-5.868 0-2.196.671-4.063 2.16-5.917h.878c-1.33 2.135-1.867 3.83-1.867 5.917 0 2.062.525 3.745 1.867 5.868zm6.162-1.866c-1.476 0-2.672-1.318-2.672-3.258 0-1.927 1.196-3.208 2.672-3.208.866 0 1.61.366 2.05 1.073V69.46h1.085V78h-1.085v-.927c-.488.732-1.184 1.086-2.05 1.086m-1.549-3.258c0 1.354.671 2.355 1.817 2.355 1.159 0 1.843-1 1.843-2.343 0-1.33-.684-2.318-1.843-2.318-1.146 0-1.817.964-1.817 2.306M172.138 78v-.915h2.294v-4.319h-2.05v-.915h3.16v5.234h2.281V78zm2.245-7.198V69.46h1.22v1.342zM180.546 78v-6.149h1.11v1.037a2 2 0 0 1 1.757-1.037h1.476v1.037h-1.562c-.976 0-1.671.635-1.671 1.867V78zm8.614 0v-1.464h1.415V78zm8.249.159c-1.806 0-2.94-1.379-2.94-3.233 0-1.843 1.134-3.233 2.94-3.233 1.525 0 2.867.866 2.72 3.513h-4.55c.085 1.135.61 2.062 1.83 2.062.817 0 1.354-.5 1.537-1.074h1.074c-.171 1.025-1.135 1.965-2.611 1.965m-1.806-3.77h3.477c-.085-1.232-.659-1.806-1.671-1.806-1.11 0-1.659.805-1.806 1.806M201.936 78l2.16-3.196-1.989-2.953h1.208l1.464 2.208 1.464-2.208h1.208l-2.025 2.977L207.573 78h-1.22l-1.598-2.428L203.156 78zm7.456 2.025v-8.174h1.074v.927c.5-.732 1.195-1.085 2.061-1.085 1.464 0 2.672 1.317 2.672 3.257 0 1.928-1.208 3.209-2.672 3.209-.866 0-1.622-.366-2.061-1.074v2.94zm1.025-5.087c0 1.33.683 2.318 1.842 2.318 1.147 0 1.818-.964 1.818-2.306 0-1.354-.671-2.355-1.818-2.355-1.159 0-1.842 1-1.842 2.343m8.346.317c0-.72.256-1.22 1.183-1.891.598-.415 1.489-.842 1.489-1.781 0-.842-.683-1.33-1.672-1.33-1.195 0-1.866.683-1.952 1.781h-1.159c.049-1.598 1.184-2.757 3.172-2.757 1.599 0 2.794.805 2.794 2.233 0 1.537-1.183 2.086-1.683 2.415-.696.452-1.025.866-1.025 1.513v.134h-1.147zM218.641 78v-1.464h1.403V78zm7.736 0v-1.464h1.415V78zm7.273.159c-1.244 0-2.062-.732-2.062-1.818 0-1.428 1.245-1.77 2.245-1.891l1.318-.171c.5-.061.585-.354.585-.634v-.013c0-.597-.402-1.061-1.33-1.061-.89 0-1.415.415-1.512 1.171h-1.086c.134-1.244 1.122-2.05 2.586-2.05 1.635 0 2.416.818 2.416 2.197v2.976c0 .147.11.244.256.244h.378V78h-.732c-.598 0-.903-.305-.903-.756v-.147c-.536.793-1.39 1.062-2.159 1.062m-.939-1.867c0 .622.475.988 1.22.988 1.085 0 1.805-.805 1.805-2v-.428a2.2 2.2 0 0 1-.622.183l-1.074.159c-.927.146-1.329.476-1.329 1.098m9.383 1.867c-1.611 0-2.611-.781-2.721-2.087h1.098c.147.818.696 1.208 1.647 1.208.83 0 1.342-.378 1.342-.964 0-.451-.329-.768-.964-.878l-1.207-.244c-.879-.17-1.745-.586-1.745-1.708 0-1.025.964-1.793 2.403-1.793 1.391 0 2.404.585 2.526 1.927h-1.098c-.11-.683-.622-1.049-1.44-1.049-.781 0-1.305.366-1.305.878 0 .488.427.72.915.818l1.281.244c.866.17 1.744.646 1.744 1.744 0 1.147-1.012 1.904-2.476 1.904m7.724-.159c-1.049 0-1.55-.427-1.55-1.452v-3.806h-1.83v-.89h1.55c.171 0 .28-.11.28-.27v-1.768h1.074v2.037h2.428v.89h-2.428v3.66c0 .44.183.696.732.696h1.964V78zm13.606.159c-1.245 0-2.062-.732-2.062-1.818 0-1.428 1.244-1.77 2.245-1.891l1.317-.171c.5-.061.586-.354.586-.634v-.013c0-.597-.403-1.061-1.33-1.061-.891 0-1.415.415-1.513 1.171h-1.086c.135-1.244 1.123-2.05 2.587-2.05 1.635 0 2.415.818 2.415 2.197v2.976c0 .147.11.244.257.244h.378V78h-.732c-.598 0-.903-.305-.903-.756v-.147c-.537.793-1.391 1.062-2.159 1.062m-.94-1.867c0 .622.476.988 1.22.988 1.086 0 1.806-.805 1.806-2v-.428a2.2 2.2 0 0 1-.622.183l-1.074.159c-.927.146-1.33.476-1.33 1.098m9.383 1.867c-1.61 0-2.61-.781-2.72-2.087h1.098c.146.818.695 1.208 1.647 1.208.829 0 1.342-.378 1.342-.964 0-.451-.33-.768-.964-.878l-1.208-.244c-.878-.17-1.744-.586-1.744-1.708 0-1.025.963-1.793 2.403-1.793 1.391 0 2.403.585 2.525 1.927h-1.098c-.109-.683-.622-1.049-1.439-1.049-.781 0-1.306.366-1.306.878 0 .488.427.72.915.818l1.281.244c.867.17 1.745.646 1.745 1.744 0 1.147-1.013 1.904-2.477 1.904M283.741 78v-8.54h3.416c1.452 0 2.55 1.037 2.55 2.586 0 1.55-1.098 2.575-2.55 2.575h-2.306V78zm1.11-4.294h2.099c.988 0 1.598-.671 1.598-1.66 0-1-.61-1.659-1.598-1.659h-2.099zM292.197 78v-6.149h1.11v1.037a2 2 0 0 1 1.757-1.037h1.476v1.037h-1.561c-.976 0-1.672.635-1.672 1.867V78zm9.322.159c-1.866 0-2.964-1.391-2.964-3.233 0-1.83 1.098-3.233 2.964-3.233 1.867 0 2.965 1.403 2.965 3.233 0 1.842-1.098 3.233-2.965 3.233m-1.854-3.246c0 1.196.512 2.343 1.854 2.343s1.855-1.147 1.855-2.343c0-1.183-.513-2.318-1.855-2.318s-1.854 1.135-1.854 2.318m9.249 5.234c-1.55 0-2.526-.659-2.684-1.83h1.098c.183.671.671.952 1.622.952.879 0 1.696-.452 1.696-1.696v-.793c-.463.769-1.195 1.086-2.001 1.086-1.476 0-2.684-1.306-2.684-3.099s1.208-3.074 2.684-3.074c.818 0 1.599.378 2.001 1.073v-.915h1.074v5.71c0 1.903-1.354 2.586-2.806 2.586m-1.855-5.392c0 1.28.72 2.232 1.818 2.232s1.83-.951 1.83-2.232c0-1.293-.732-2.16-1.83-2.16s-1.818.867-1.818 2.16M314.527 78v-6.149h1.11v1.037a2 2 0 0 1 1.757-1.037h1.476v1.037h-1.561c-.976 0-1.672.635-1.672 1.867V78zm8.444.159c-1.244 0-2.062-.732-2.062-1.818 0-1.428 1.245-1.77 2.245-1.891l1.318-.171c.5-.061.585-.354.585-.634v-.013c0-.597-.402-1.061-1.33-1.061-.89 0-1.415.415-1.512 1.171h-1.086c.134-1.244 1.122-2.05 2.586-2.05 1.635 0 2.416.818 2.416 2.197v2.976c0 .147.11.244.256.244h.378V78h-.732c-.598 0-.903-.305-.903-.756v-.147c-.536.793-1.39 1.062-2.159 1.062m-.939-1.867c0 .622.475.988 1.22.988 1.085 0 1.805-.805 1.805-2v-.428a2.2 2.2 0 0 1-.622.183l-1.074.159c-.927.146-1.329.476-1.329 1.098m6.26 1.708v-6.149h1.037v.525c.244-.44.707-.683 1.207-.683.623 0 .989.378 1.111.732.353-.586.878-.732 1.366-.732.793 0 1.33.597 1.33 1.61V78h-1.037v-4.502c0-.585-.208-.866-.586-.866-.476 0-.89.44-.89 1.183V78h-1.025v-4.502c0-.585-.22-.866-.598-.866-.476 0-.878.44-.878 1.183V78zm8.614 2.025c1.342-2.123 1.867-3.806 1.867-5.868 0-2.086-.537-3.782-1.867-5.917h.879c1.488 1.854 2.159 3.721 2.159 5.917 0 2.147-.671 4.002-2.159 5.868zM345.472 78v-1.464h1.415V78zm8.481.159c-.867 0-1.562-.354-2.05-1.086V78h-1.086v-8.54h1.086v3.306c.439-.707 1.183-1.073 2.05-1.073 1.476 0 2.671 1.28 2.671 3.208 0 1.94-1.195 3.258-2.671 3.258m-2.111-3.246c0 1.342.683 2.343 1.842 2.343 1.147 0 1.818-1 1.818-2.355 0-1.342-.671-2.306-1.818-2.306-1.159 0-1.842.989-1.842 2.318m9.225 3.246c-1.867 0-2.965-1.391-2.965-3.233 0-1.83 1.098-3.233 2.965-3.233s2.964 1.403 2.964 3.233c0 1.842-1.098 3.233-2.964 3.233m-1.855-3.246c0 1.196.513 2.343 1.855 2.343s1.854-1.147 1.854-2.343c0-1.183-.512-2.318-1.854-2.318s-1.855 1.135-1.855 2.318m8.969 3.246c-1.477 0-2.672-1.318-2.672-3.258 0-1.927 1.195-3.208 2.672-3.208.866 0 1.61.366 2.049 1.073V69.46h1.086V78h-1.086v-.927c-.488.732-1.183 1.086-2.049 1.086m-1.55-3.258c0 1.354.671 2.355 1.818 2.355 1.159 0 1.842-1 1.842-2.343 0-1.33-.683-2.318-1.842-2.318-1.147 0-1.818.964-1.818 2.306m6.797 5.124v-.878h1.049c.391 0 .586-.086.72-.44l.293-.817-2.465-6.039h1.159l1.843 4.648 1.72-4.648h1.134l-2.769 7.223c-.305.793-.756.951-1.476.951zm8.139 0c1.342-2.123 1.867-3.806 1.867-5.868 0-2.086-.537-3.782-1.867-5.917h.878c1.489 1.854 2.16 3.721 2.16 5.917 0 2.147-.671 4.002-2.16 5.868zM390.133 78v-1.464h1.415V78zm8.553 0c-1.049 0-1.549-.427-1.549-1.452v-3.806h-1.83v-.89h1.549c.171 0 .281-.11.281-.27v-1.768h1.074v2.037h2.427v.89h-2.427v3.66c0 .44.183.696.732.696h1.964V78zm7.041.159c-1.866 0-2.964-1.391-2.964-3.233 0-1.83 1.098-3.233 2.964-3.233 1.867 0 2.965 1.403 2.965 3.233 0 1.842-1.098 3.233-2.965 3.233m-1.854-3.246c0 1.196.512 2.343 1.854 2.343s1.855-1.147 1.855-2.343c0-1.183-.513-2.318-1.855-2.318s-1.854 1.135-1.854 2.318M410.218 78v-8.54h1.354l1.599 4.44 1.598-4.44h1.354V78h-1.074v-6.673l-1.39 3.696h-.976l-1.391-3.696V78zm9.518.159c-1.245 0-2.062-.732-2.062-1.818 0-1.428 1.244-1.77 2.245-1.891l1.317-.171c.5-.061.586-.354.586-.634v-.013c0-.597-.403-1.061-1.33-1.061-.891 0-1.415.415-1.513 1.171h-1.086c.135-1.244 1.123-2.05 2.587-2.05 1.635 0 2.415.818 2.415 2.197v2.976c0 .147.11.244.257.244h.378V78h-.732c-.598 0-.903-.305-.903-.756v-.147c-.537.793-1.391 1.062-2.159 1.062m-.94-1.867c0 .622.476.988 1.22.988 1.086 0 1.806-.805 1.806-2v-.428a2.2 2.2 0 0 1-.622.183l-1.074.159c-.927.146-1.33.476-1.33 1.098M428.46 78c-1.049 0-1.549-.427-1.549-1.452v-3.806h-1.83v-.89h1.549c.171 0 .281-.11.281-.27v-1.768h1.073v2.037h2.428v.89h-2.428v3.66c0 .44.183.696.732.696h1.964V78zm7.2.159c-1.794 0-2.965-1.391-2.965-3.233 0-1.83 1.171-3.233 2.977-3.233 1.403 0 2.44.854 2.635 2.269h-1.098c-.171-.866-.769-1.367-1.549-1.367-1.281 0-1.843 1.098-1.843 2.318 0 1.233.562 2.343 1.843 2.343.793 0 1.329-.415 1.549-1.208h1.086c-.232 1.257-1.171 2.11-2.635 2.11m4.613-.159v-8.54h1.085v3.318c.391-.683 1.184-1.085 2.062-1.085 1.33 0 2.257.841 2.257 2.476V78h-1.073v-3.77c0-1.073-.61-1.635-1.501-1.635-.964 0-1.745.769-1.745 1.855V78zm10.115.159c-2.013 0-3.209-1.513-3.209-4.429s1.196-4.429 3.209-4.429 3.208 1.513 3.208 4.429-1.195 4.429-3.208 4.429m-2.05-4.429c0 2.245.61 3.465 2.05 3.465s2.049-1.22 2.049-3.465-.61-3.465-2.049-3.465-2.05 1.22-2.05 3.465m9.823 4.429c-.867 0-1.562-.354-2.05-1.086V78h-1.086v-8.54h1.086v3.306c.439-.707 1.183-1.073 2.05-1.073 1.476 0 2.671 1.28 2.671 3.208 0 1.94-1.195 3.258-2.671 3.258m-2.111-3.246c0 1.342.683 2.343 1.842 2.343 1.147 0 1.818-1 1.818-2.355 0-1.342-.671-2.306-1.818-2.306-1.159 0-1.842.989-1.842 2.318m6.894 5.112v-.866h2.184c.366 0 .537-.11.537-.512v-5.88h-2.062v-.916h3.16v6.759c0 1.05-.512 1.415-1.476 1.415zm2.66-9.223V69.46h1.22v1.342zm7.212 7.357c-1.806 0-2.941-1.379-2.941-3.233 0-1.843 1.135-3.233 2.941-3.233 1.525 0 2.867.866 2.72 3.513h-4.55c.085 1.135.61 2.062 1.83 2.062.817 0 1.354-.5 1.537-1.074h1.073c-.17 1.025-1.134 1.965-2.61 1.965m-1.806-3.77h3.477c-.085-1.232-.659-1.806-1.671-1.806-1.111 0-1.66.805-1.806 1.806m9.31 3.77c-1.793 0-2.965-1.391-2.965-3.233 0-1.83 1.172-3.233 2.977-3.233 1.403 0 2.44.854 2.635 2.269h-1.098c-.17-.866-.768-1.367-1.549-1.367-1.281 0-1.842 1.098-1.842 2.318 0 1.233.561 2.343 1.842 2.343.793 0 1.33-.415 1.549-1.208h1.086c-.232 1.257-1.171 2.11-2.635 2.11m7.688-.159c-1.05 0-1.55-.427-1.55-1.452v-3.806h-1.83v-.89h1.55c.17 0 .28-.11.28-.27v-1.768h1.074v2.037h2.428v.89h-2.428v3.66c0 .44.183.696.732.696h1.964V78zM496 80.025c-1.488-1.866-2.159-3.72-2.159-5.868 0-2.196.671-4.063 2.159-5.917h.878c-1.329 2.135-1.866 3.83-1.866 5.917 0 2.062.524 3.745 1.866 5.868zm4.747 0V68.24h4.038v.878h-3.013v10.029h3.013v.878zm-377.199 42c-1.196 0-2.074-.524-2.074-1.83v-2.672c0-.475-.232-.902-1.135-.902v-.964c.903 0 1.135-.427 1.135-.903v-2.672c0-1.317.878-1.842 2.074-1.842h1.635v.866h-1.489c-.659 0-1.147.244-1.147.915v2.757c0 .745-.183 1.22-.988 1.367.805.134.988.622.988 1.354v2.745c0 .671.488.927 1.147.927h1.489v.854zM138.166 120c-1.049 0-1.549-.427-1.549-1.452v-3.806h-1.83v-.891h1.549c.171 0 .281-.11.281-.268v-1.769h1.074v2.037h2.427v.891h-2.427v3.66c0 .439.183.695.732.695h1.964V120zm4.516 2.025v-.878h1.049c.39 0 .586-.086.72-.439l.293-.818-2.465-6.039h1.159l1.842 4.648 1.721-4.648h1.134l-2.769 7.223c-.305.793-.757.951-1.476.951zm7.163 0v-8.174h1.073v.927c.5-.732 1.196-1.085 2.062-1.085 1.464 0 2.672 1.317 2.672 3.257 0 1.928-1.208 3.209-2.672 3.209-.866 0-1.623-.366-2.062-1.074v2.94zm1.024-5.087c0 1.33.684 2.318 1.843 2.318 1.146 0 1.817-.964 1.817-2.306 0-1.354-.671-2.355-1.817-2.355-1.159 0-1.843 1.001-1.843 2.343m9.323 3.221c-1.806 0-2.941-1.379-2.941-3.233 0-1.843 1.135-3.233 2.941-3.233 1.525 0 2.867.866 2.72 3.513h-4.55c.085 1.135.61 2.062 1.83 2.062.817 0 1.354-.5 1.537-1.074h1.073c-.17 1.025-1.134 1.965-2.61 1.965m-1.806-3.77h3.477c-.085-1.232-.659-1.806-1.671-1.806-1.111 0-1.66.805-1.806 1.806M166.83 120v-1.464h1.415V120zm0-4.246v-1.464h1.415v1.464zm15.119-.951v-3.343h.963v3.343zm5.21 5.197v-8.54h5.612v.939h-4.501v2.684h4.001v.903h-4.001v3.075h4.501V120zm7.334 0 2.159-3.196-1.988-2.953h1.208l1.464 2.208 1.464-2.208h1.207l-2.025 2.977 2.147 3.172h-1.22l-1.598-2.428-1.598 2.428zm7.456 2.025v-8.174h1.073v.927c.5-.732 1.196-1.085 2.062-1.085 1.464 0 2.672 1.317 2.672 3.257 0 1.928-1.208 3.209-2.672 3.209-.866 0-1.623-.366-2.062-1.074v2.94zm1.024-5.087c0 1.33.684 2.318 1.843 2.318 1.146 0 1.817-.964 1.817-2.306 0-1.354-.671-2.355-1.817-2.355-1.159 0-1.843 1.001-1.843 2.343m7.346 3.062v-6.149h1.11v1.037a2 2 0 0 1 1.757-1.037h1.476v1.037h-1.561c-.976 0-1.672.635-1.672 1.867V120zm9.42.159c-1.806 0-2.94-1.379-2.94-3.233 0-1.843 1.134-3.233 2.94-3.233 1.525 0 2.867.866 2.721 3.513h-4.551c.085 1.135.61 2.062 1.83 2.062.817 0 1.354-.5 1.537-1.074h1.074c-.171 1.025-1.135 1.965-2.611 1.965m-1.806-3.77h3.477c-.085-1.232-.658-1.806-1.671-1.806-1.11 0-1.659.805-1.806 1.806m9.274 3.77c-1.611 0-2.611-.781-2.721-2.087h1.098c.147.818.696 1.208 1.647 1.208.83 0 1.342-.378 1.342-.964 0-.451-.329-.768-.964-.878l-1.207-.244c-.879-.171-1.745-.586-1.745-1.708 0-1.025.964-1.793 2.403-1.793 1.391 0 2.404.585 2.526 1.927h-1.098c-.11-.683-.622-1.049-1.44-1.049-.781 0-1.305.366-1.305.878 0 .488.427.72.915.818l1.281.244c.866.171 1.744.646 1.744 1.744 0 1.147-1.012 1.904-2.476 1.904m7.443 0c-1.61 0-2.61-.781-2.72-2.087h1.098c.146.818.695 1.208 1.647 1.208.829 0 1.342-.378 1.342-.964 0-.451-.33-.768-.964-.878l-1.208-.244c-.878-.171-1.744-.586-1.744-1.708 0-1.025.963-1.793 2.403-1.793 1.391 0 2.403.585 2.525 1.927h-1.098c-.109-.683-.622-1.049-1.439-1.049-.781 0-1.306.366-1.306.878 0 .488.427.72.915.818l1.281.244c.867.171 1.745.646 1.745 1.744 0 1.147-1.013 1.904-2.477 1.904m4.479-.159v-.915h2.294v-4.319h-2.05v-.915h3.16v5.234h2.281V120zm2.245-7.198v-1.342h1.22v1.342zm8.041 7.357c-1.866 0-2.964-1.391-2.964-3.233 0-1.83 1.098-3.233 2.964-3.233 1.867 0 2.965 1.403 2.965 3.233 0 1.842-1.098 3.233-2.965 3.233m-1.854-3.246c0 1.196.512 2.343 1.854 2.343s1.855-1.147 1.855-2.343c0-1.183-.513-2.318-1.855-2.318s-1.854 1.135-1.854 2.318m6.626 3.087v-6.149h1.086v.927c.39-.683 1.183-1.085 2.061-1.085 1.33 0 2.257.841 2.257 2.476V120h-1.073v-3.77c0-1.073-.61-1.635-1.501-1.635-.964 0-1.744.769-1.744 1.855V120zm10.225.159c-2.086 0-3.331-1.269-3.392-2.806h1.147c.171 1.159 1.098 1.83 2.257 1.83 1.049 0 2.001-.476 2.001-1.501 0-.671-.439-1.049-1.354-1.305l-1.391-.379c-1.062-.28-2.33-.707-2.33-2.33 0-1.403 1.256-2.367 2.976-2.367 1.818 0 2.916 1.086 2.989 2.538h-1.146c-.171-.988-.818-1.586-1.867-1.586-1.013 0-1.781.537-1.781 1.354 0 .696.451 1.037 1.427 1.306l1.44.39c1.439.39 2.208 1.074 2.208 2.294 0 1.586-1.305 2.562-3.184 2.562m7.736-.159c-1.049 0-1.549-.427-1.549-1.452v-3.806h-1.83v-.891h1.549c.171 0 .281-.11.281-.268v-1.769h1.073v2.037h2.428v.891h-2.428v3.66c0 .439.183.695.732.695h1.964V120zm6.162.159c-1.244 0-2.061-.732-2.061-1.818 0-1.428 1.244-1.769 2.244-1.891l1.318-.171c.5-.061.586-.354.586-.634v-.013c0-.597-.403-1.061-1.33-1.061-.891 0-1.415.415-1.513 1.171h-1.086c.134-1.244 1.123-2.049 2.587-2.049 1.634 0 2.415.817 2.415 2.196v2.976c0 .147.11.244.256.244h.379V120h-.732c-.598 0-.903-.305-.903-.756v-.147c-.537.793-1.391 1.062-2.16 1.062m-.939-1.867c0 .622.476.988 1.22.988 1.086 0 1.806-.805 1.806-2.001v-.427a2.1 2.1 0 0 1-.623.183l-1.073.159c-.927.146-1.33.476-1.33 1.098m9.664 1.708c-1.049 0-1.549-.427-1.549-1.452v-3.806h-1.83v-.891h1.549c.171 0 .281-.11.281-.268v-1.769h1.073v2.037h2.428v.891h-2.428v3.66c0 .439.183.695.732.695h1.964V120zm7.138.159c-1.805 0-2.94-1.379-2.94-3.233 0-1.843 1.135-3.233 2.94-3.233 1.525 0 2.867.866 2.721 3.513h-4.551c.086 1.135.61 2.062 1.83 2.062.818 0 1.355-.5 1.538-1.074h1.073c-.171 1.025-1.134 1.965-2.611 1.965m-1.805-3.77h3.477c-.086-1.232-.659-1.806-1.672-1.806-1.11 0-1.659.805-1.805 1.806m6.15 3.611v-6.149h1.037v.525c.244-.439.708-.683 1.208-.683.622 0 .988.378 1.11.732.354-.586.878-.732 1.366-.732.793 0 1.33.597 1.33 1.61V120h-1.037v-4.502c0-.585-.207-.866-.585-.866-.476 0-.891.439-.891 1.183V120h-1.025v-4.502c0-.585-.219-.866-.598-.866-.475 0-.878.439-.878 1.183V120zm10.542.159c-1.805 0-2.94-1.379-2.94-3.233 0-1.843 1.135-3.233 2.94-3.233 1.525 0 2.867.866 2.721 3.513h-4.551c.086 1.135.61 2.062 1.83 2.062.818 0 1.354-.5 1.537-1.074h1.074c-.171 1.025-1.135 1.965-2.611 1.965m-1.805-3.77h3.477c-.086-1.232-.659-1.806-1.672-1.806-1.11 0-1.659.805-1.805 1.806m6.479 3.611v-6.149h1.086v.927c.39-.683 1.183-1.085 2.062-1.085 1.33 0 2.257.841 2.257 2.476V120h-1.074v-3.77c0-1.073-.61-1.635-1.5-1.635-.964 0-1.745.769-1.745 1.855V120zm10.518 0c-1.049 0-1.549-.427-1.549-1.452v-3.806h-1.83v-.891h1.549c.171 0 .281-.11.281-.268v-1.769h1.073v2.037h2.428v.891h-2.428v3.66c0 .439.183.695.732.695h1.964V120zm6.565-5.197v-3.343h.964v3.343zm14.692 7.222h-1.635v-.854h1.488c.659 0 1.147-.256 1.147-.927v-2.745c0-.732.183-1.22.988-1.354-.805-.147-.988-.622-.988-1.367v-2.757c0-.671-.488-.915-1.147-.915h-1.488v-.866h1.635c1.195 0 2.074.525 2.074 1.842v2.672c0 .476.232.903 1.134.903v.964c-.902 0-1.134.427-1.134.902v2.672c0 1.306-.879 1.83-2.074 1.83m7.431-.488v-.549h.171c.366 0 .524-.219.524-.524V120h-.719v-1.464h1.415v1.952c0 .683-.464 1.049-1.208 1.049zM60.45 162v-.939h2.33v-6.662h-2.33v-.939h5.759v.939h-2.33v6.662h2.33V162zm9.298 0v-5.258h-1.83v-.891h1.55c.17 0 .28-.11.28-.268v-.537c0-1.013.464-1.586 1.525-1.586h2.184v.891H71.48c-.476 0-.66.231-.66.744v.756h2.55v.891h-2.55V162zm16.314 0c-1.049 0-1.55-.427-1.55-1.452v-3.806h-1.83v-.891h1.55c.171 0 .28-.11.28-.268v-1.769h1.075v2.037h2.427v.891h-2.427v3.66c0 .439.182.695.731.695h1.965V162zm4.37 0v-8.54h1.085v3.318c.39-.683 1.184-1.085 2.062-1.085 1.33 0 2.257.841 2.257 2.476V162h-1.074v-3.77c0-1.073-.61-1.635-1.5-1.635-.964 0-1.745.769-1.745 1.855V162zm7.272 0v-.915h2.294v-4.319h-2.05v-.915h3.16v5.234h2.281V162zm2.245-7.198v-1.342h1.22v1.342zm8.163 7.357c-1.61 0-2.611-.781-2.721-2.087h1.098c.147.818.696 1.208 1.647 1.208.83 0 1.342-.378 1.342-.964 0-.451-.329-.768-.963-.878l-1.208-.244c-.879-.171-1.745-.586-1.745-1.708 0-1.025.964-1.793 2.404-1.793 1.39 0 2.403.585 2.525 1.927h-1.098c-.11-.683-.622-1.049-1.44-1.049-.78 0-1.305.366-1.305.878 0 .488.427.72.915.818l1.281.244c.866.171 1.745.646 1.745 1.744 0 1.147-1.013 1.904-2.477 1.904m14.887 0c-1.611 0-2.611-.781-2.721-2.087h1.098c.147.818.696 1.208 1.647 1.208.83 0 1.342-.378 1.342-.964 0-.451-.329-.768-.964-.878l-1.207-.244c-.879-.171-1.745-.586-1.745-1.708 0-1.025.964-1.793 2.403-1.793 1.391 0 2.404.585 2.526 1.927h-1.098c-.11-.683-.622-1.049-1.44-1.049-.781 0-1.305.366-1.305.878 0 .488.427.72.915.818l1.281.244c.866.171 1.744.646 1.744 1.744 0 1.147-1.012 1.904-2.476 1.904m4.65-.159v-8.54h1.085v3.318c.391-.683 1.184-1.085 2.062-1.085 1.33 0 2.257.841 2.257 2.476V162h-1.073v-3.77c0-1.073-.61-1.635-1.501-1.635-.964 0-1.745.769-1.745 1.855V162zm10.115.159c-1.867 0-2.965-1.391-2.965-3.233 0-1.83 1.098-3.233 2.965-3.233s2.964 1.403 2.964 3.233c0 1.842-1.098 3.233-2.964 3.233m-1.855-3.246c0 1.196.513 2.343 1.855 2.343s1.854-1.147 1.854-2.343c0-1.183-.512-2.318-1.854-2.318s-1.855 1.135-1.855 2.318m7.419 3.087v-6.149h1.111v1.037a2 2 0 0 1 1.756-1.037h1.477v1.037h-1.562c-.976 0-1.671.635-1.671 1.867V162zm9.725 0c-1.049 0-1.549-.427-1.549-1.452v-3.806h-1.83v-.891h1.549c.171 0 .281-.11.281-.268v-1.769h1.073v2.037h2.428v.891h-2.428v3.66c0 .439.183.695.732.695h1.965V162zm5.394-3.099v-.988h3.294v.988zm9.249 3.258c-1.793 0-2.965-1.391-2.965-3.233 0-1.83 1.172-3.233 2.977-3.233 1.403 0 2.44.854 2.635 2.269h-1.098c-.17-.866-.768-1.367-1.549-1.367-1.281 0-1.842 1.098-1.842 2.318 0 1.233.561 2.343 1.842 2.343.793 0 1.33-.415 1.549-1.208h1.086c-.232 1.257-1.171 2.111-2.635 2.111m4.442-.159v-.915h2.294v-4.319h-2.05v-.915h3.16v5.234h2.281V162zm2.245-7.198v-1.342h1.22v1.342zm6.163 7.198v-6.149h1.11v1.037a2 2 0 0 1 1.757-1.037h1.476v1.037h-1.562c-.976 0-1.671.635-1.671 1.867V162zm9.48.159c-1.793 0-2.964-1.391-2.964-3.233 0-1.83 1.171-3.233 2.977-3.233 1.403 0 2.44.854 2.635 2.269h-1.098c-.171-.866-.769-1.367-1.55-1.367-1.281 0-1.842 1.098-1.842 2.318 0 1.233.561 2.343 1.842 2.343.793 0 1.33-.415 1.55-1.208h1.086c-.232 1.257-1.172 2.111-2.636 2.111m6.87 0c-1.329 0-2.257-.842-2.257-2.477v-3.831h1.086v3.77c0 1.074.598 1.635 1.501 1.635.951 0 1.744-.769 1.744-1.855v-3.55h1.074V162h-1.074v-.927c-.402.683-1.183 1.086-2.074 1.086m5.016-.159v-.915h2.294v-4.319h-2.05v-.915h3.16v5.234h2.281V162zm2.245-7.198v-1.342h1.22v1.342zm8.444 7.198c-1.05 0-1.55-.427-1.55-1.452v-3.806h-1.83v-.891h1.55c.17 0 .28-.11.28-.268v-1.769h1.074v2.037h2.428v.891h-2.428v3.66c0 .439.183.695.732.695h1.964V162zm7.162.159c-1.61 0-2.61-.781-2.72-2.087h1.098c.146.818.695 1.208 1.647 1.208.829 0 1.342-.378 1.342-.964 0-.451-.33-.768-.964-.878l-1.208-.244c-.878-.171-1.744-.586-1.744-1.708 0-1.025.963-1.793 2.403-1.793 1.391 0 2.403.585 2.525 1.927h-1.098c-.109-.683-.622-1.049-1.439-1.049-.781 0-1.306.366-1.306.878 0 .488.427.72.915.818l1.281.244c.867.171 1.745.646 1.745 1.744 0 1.147-1.013 1.904-2.477 1.904m12.508-.159-1.134-6.149h1.025l.805 5.075 1.061-3.342h1.013l1.049 3.306.817-5.039h1.025L236.798 162h-1.22l-1.037-3.196-1.05 3.196zm6.858 0v-.915h2.294v-4.319h-2.05v-.915h3.16v5.234h2.281V162zm2.245-7.198v-1.342h1.22v1.342zm8.444 7.198c-1.049 0-1.55-.427-1.55-1.452v-3.806h-1.83v-.891h1.55c.171 0 .28-.11.28-.268v-1.769h1.074v2.037h2.428v.891h-2.428v3.66c0 .439.183.695.732.695h1.964V162zm4.369 0v-8.54h1.086v3.318c.39-.683 1.183-1.085 2.061-1.085 1.33 0 2.257.841 2.257 2.476V162h-1.073v-3.77c0-1.073-.61-1.635-1.501-1.635-.964 0-1.744.769-1.744 1.855V162zm17.083-5.197v-3.343h.963v3.343zm7.504 5.356c-1.33 0-2.257-.842-2.257-2.477v-3.831h1.086v3.77c0 1.074.598 1.635 1.5 1.635.952 0 1.745-.769 1.745-1.855v-3.55h1.074V162h-1.074v-.927c-.403.683-1.183 1.086-2.074 1.086m5.187-.159v-6.149h1.085v.927c.391-.683 1.184-1.085 2.062-1.085 1.33 0 2.257.841 2.257 2.476V162h-1.073v-3.77c0-1.073-.61-1.635-1.501-1.635-.964 0-1.745.769-1.745 1.855V162zm9.785.159c-1.476 0-2.671-1.318-2.671-3.258 0-1.927 1.195-3.208 2.671-3.208.867 0 1.611.366 2.05 1.073v-3.306h1.086V162h-1.086v-.927c-.488.732-1.183 1.086-2.05 1.086m-1.549-3.258c0 1.354.671 2.355 1.818 2.355 1.159 0 1.842-1.001 1.842-2.343 0-1.329-.683-2.318-1.842-2.318-1.147 0-1.818.964-1.818 2.306m9.42 3.258c-1.806 0-2.94-1.379-2.94-3.233 0-1.843 1.134-3.233 2.94-3.233 1.525 0 2.867.866 2.72 3.513h-4.55c.085 1.135.61 2.062 1.83 2.062.817 0 1.354-.5 1.537-1.074h1.074c-.171 1.025-1.135 1.965-2.611 1.965m-1.806-3.77h3.477c-.085-1.232-.659-1.806-1.671-1.806-1.11 0-1.659.805-1.806 1.806m8.127 3.611v-5.258h-1.83v-.891h1.549c.171 0 .281-.11.281-.268v-.537c0-1.013.463-1.586 1.525-1.586h2.184v.891h-1.977c-.476 0-.659.231-.659.744v.756h2.55v.891h-2.55V162zm5.625 0v-.915h2.294v-4.319h-2.05v-.915h3.16v5.234h2.282V162zm2.245-7.198v-1.342h1.22v1.342zm5.37 7.198v-6.149h1.085v.927c.391-.683 1.184-1.085 2.062-1.085 1.33 0 2.257.841 2.257 2.476V162h-1.073v-3.77c0-1.073-.61-1.635-1.501-1.635-.964 0-1.745.769-1.745 1.855V162zm10.212.159c-1.805 0-2.94-1.379-2.94-3.233 0-1.843 1.135-3.233 2.94-3.233 1.525 0 2.867.866 2.721 3.513h-4.551c.086 1.135.61 2.062 1.83 2.062.818 0 1.355-.5 1.538-1.074h1.073c-.171 1.025-1.134 1.965-2.611 1.965m-1.805-3.77h3.477c-.086-1.232-.659-1.806-1.672-1.806-1.11 0-1.659.805-1.805 1.806m8.822 3.77c-1.476 0-2.672-1.318-2.672-3.258 0-1.927 1.196-3.208 2.672-3.208.866 0 1.61.366 2.05 1.073v-3.306h1.085V162h-1.085v-.927c-.488.732-1.184 1.086-2.05 1.086m-1.549-3.258c0 1.354.671 2.355 1.817 2.355 1.159 0 1.843-1.001 1.843-2.343 0-1.329-.684-2.318-1.843-2.318-1.146 0-1.817.964-1.817 2.306m8.846-2.098v-3.343h.964v3.343zM361.469 162c-1.049 0-1.549-.427-1.549-1.452v-3.806h-1.83v-.891h1.549c.171 0 .281-.11.281-.268v-1.769h1.073v2.037h2.428v.891h-2.428v3.66c0 .439.183.695.732.695h1.965V162zm4.369 0v-8.54h1.086v3.318c.39-.683 1.183-1.085 2.062-1.085 1.33 0 2.257.841 2.257 2.476V162h-1.074v-3.77c0-1.073-.61-1.635-1.5-1.635-.964 0-1.745.769-1.745 1.855V162zm10.213.159c-1.806 0-2.94-1.379-2.94-3.233 0-1.843 1.134-3.233 2.94-3.233 1.525 0 2.867.866 2.721 3.513h-4.551c.085 1.135.61 2.062 1.83 2.062.817 0 1.354-.5 1.537-1.074h1.074c-.171 1.025-1.135 1.965-2.611 1.965m-1.806-3.77h3.477c-.085-1.232-.658-1.806-1.671-1.806-1.11 0-1.659.805-1.806 1.806m16.693 3.77c-1.806 0-2.94-1.379-2.94-3.233 0-1.843 1.134-3.233 2.94-3.233 1.525 0 2.867.866 2.721 3.513h-4.551c.085 1.135.61 2.062 1.83 2.062.817 0 1.354-.5 1.537-1.074h1.074c-.171 1.025-1.135 1.965-2.611 1.965m-1.806-3.77h3.477c-.085-1.232-.658-1.806-1.671-1.806-1.11 0-1.659.805-1.806 1.806m8.383 3.611-2.476-6.149h1.159l2.013 5.234 2.013-5.234h1.146L398.894 162zm7.334.159c-1.245 0-2.062-.732-2.062-1.818 0-1.428 1.244-1.769 2.245-1.891l1.317-.171c.501-.061.586-.354.586-.634v-.013c0-.597-.403-1.061-1.33-1.061-.89 0-1.415.415-1.513 1.171h-1.085c.134-1.244 1.122-2.049 2.586-2.049 1.635 0 2.416.817 2.416 2.196v2.976c0 .147.109.244.256.244h.378V162h-.732c-.598 0-.903-.305-.903-.756v-.147c-.537.793-1.391 1.062-2.159 1.062m-.94-1.867c0 .622.476.988 1.22.988 1.086 0 1.806-.805 1.806-2.001v-.427a2.1 2.1 0 0 1-.622.183l-1.074.159c-.927.146-1.33.476-1.33 1.098m6.346 1.708v-.891h2.379v-6.758h-1.94v-.891h3.026v7.649h2.366V162zm9.944.159c-1.33 0-2.257-.842-2.257-2.477v-3.831h1.086v3.77c0 1.074.598 1.635 1.501 1.635.951 0 1.744-.769 1.744-1.855v-3.55h1.074V162h-1.074v-.927c-.402.683-1.183 1.086-2.074 1.086m6.98 0c-1.244 0-2.062-.732-2.062-1.818 0-1.428 1.245-1.769 2.245-1.891l1.318-.171c.5-.061.585-.354.585-.634v-.013c0-.597-.402-1.061-1.33-1.061-.89 0-1.415.415-1.512 1.171h-1.086c.134-1.244 1.122-2.049 2.586-2.049 1.635 0 2.416.817 2.416 2.196v2.976c0 .147.11.244.256.244h.378V162h-.732c-.598 0-.903-.305-.903-.756v-.147c-.536.793-1.39 1.062-2.159 1.062m-.939-1.867c0 .622.475.988 1.22.988 1.085 0 1.805-.805 1.805-2.001v-.427a2.1 2.1 0 0 1-.622.183l-1.074.159c-.927.146-1.329.476-1.329 1.098m9.664 1.708c-1.05 0-1.55-.427-1.55-1.452v-3.806h-1.83v-.891h1.55c.17 0 .28-.11.28-.268v-1.769h1.074v2.037h2.428v.891h-2.428v3.66c0 .439.183.695.732.695h1.964V162zm4.198 0v-.915h2.293v-4.319h-2.049v-.915h3.16v5.234h2.281V162zm2.245-7.198v-1.342h1.22v1.342zm8.041 7.357c-1.867 0-2.965-1.391-2.965-3.233 0-1.83 1.098-3.233 2.965-3.233s2.964 1.403 2.964 3.233c0 1.842-1.098 3.233-2.964 3.233m-1.855-3.246c0 1.196.513 2.343 1.855 2.343s1.854-1.147 1.854-2.343c0-1.183-.512-2.318-1.854-2.318s-1.855 1.135-1.855 2.318m6.626 3.087v-6.149h1.086v.927c.391-.683 1.184-1.085 2.062-1.085 1.33 0 2.257.841 2.257 2.476V162h-1.074v-3.77c0-1.073-.61-1.635-1.5-1.635-.964 0-1.745.769-1.745 1.855V162zm15.302 0-1.135-6.149h1.025l.805 5.075 1.062-3.342h1.012l1.05 3.306.817-5.039h1.025L474.987 162h-1.22l-1.037-3.196-1.049 3.196zm6.858 0v-.915h2.293v-4.319h-2.049v-.915h3.16v5.234h2.281V162zm2.245-7.198v-1.342h1.22v1.342zm5.125 7.198v-.891h2.379v-6.758h-1.94v-.891h3.026v7.649h2.367V162zm7.444 0v-.891h2.379v-6.758h-1.94v-.891h3.025v7.649h2.367V162zm18.205 0c-1.049 0-1.55-.427-1.55-1.452v-3.806h-1.83v-.891h1.55c.171 0 .28-.11.28-.268v-1.769h1.074v2.037h2.428v.891h-2.428v3.66c0 .439.183.695.732.695h1.964V162zm4.369 0v-8.54h1.086v3.318c.39-.683 1.183-1.085 2.061-1.085 1.33 0 2.257.841 2.257 2.476V162h-1.073v-3.77c0-1.073-.61-1.635-1.501-1.635-.964 0-1.744.769-1.744 1.855V162zm8.236 0v-6.149h1.111v1.037a2 2 0 0 1 1.756-1.037h1.477v1.037h-1.562c-.976 0-1.671.635-1.671 1.867V162zm9.323.159c-1.867 0-2.965-1.391-2.965-3.233 0-1.83 1.098-3.233 2.965-3.233s2.964 1.403 2.964 3.233c0 1.842-1.098 3.233-2.964 3.233m-1.855-3.246c0 1.196.513 2.343 1.855 2.343s1.854-1.147 1.854-2.343c0-1.183-.512-2.318-1.854-2.318s-1.855 1.135-1.855 2.318m7.041 3.087-1.135-6.149h1.025l.805 5.075 1.062-3.342h1.012l1.05 3.306.817-5.039h1.025L541.978 162h-1.22l-1.037-3.196-1.049 3.196zm16.595 0v-7.601h-2.733v-.939h6.564v.939h-2.733V162zm5.467 2.025v-.878h1.049c.39 0 .586-.086.72-.439l.293-.818-2.465-6.039h1.159l1.842 4.648 1.721-4.648h1.134l-2.769 7.223c-.305.793-.757.951-1.476.951zm7.163 0v-8.174h1.073v.927c.5-.732 1.196-1.085 2.062-1.085 1.464 0 2.672 1.317 2.672 3.257 0 1.928-1.208 3.209-2.672 3.209-.866 0-1.623-.366-2.062-1.074v2.94zm1.024-5.087c0 1.33.684 2.318 1.843 2.318 1.146 0 1.817-.964 1.817-2.306 0-1.354-.671-2.355-1.817-2.355-1.159 0-1.843 1.001-1.843 2.343m9.323 3.221c-1.806 0-2.94-1.379-2.94-3.233 0-1.843 1.134-3.233 2.94-3.233 1.525 0 2.867.866 2.72 3.513h-4.55c.085 1.135.61 2.062 1.83 2.062.817 0 1.354-.5 1.537-1.074h1.074c-.171 1.025-1.135 1.965-2.611 1.965m-1.806-3.77h3.477c-.085-1.232-.659-1.806-1.671-1.806-1.11 0-1.659.805-1.806 1.806m6.443 3.611v-8.54h5.612v.939h-4.502v2.684h4.002v.903h-4.002v3.075h4.502V162zm8.273 0v-6.149h1.11v1.037a2 2 0 0 1 1.757-1.037h1.476v1.037h-1.561c-.976 0-1.672.635-1.672 1.867V162zm7.444 0v-6.149h1.11v1.037a2 2 0 0 1 1.757-1.037h1.476v1.037h-1.562c-.976 0-1.671.635-1.671 1.867V162zm9.322.159c-1.867 0-2.965-1.391-2.965-3.233 0-1.83 1.098-3.233 2.965-3.233s2.964 1.403 2.964 3.233c0 1.842-1.098 3.233-2.964 3.233m-1.855-3.246c0 1.196.513 2.343 1.855 2.343s1.854-1.147 1.854-2.343c0-1.183-.512-2.318-1.854-2.318s-1.855 1.135-1.855 2.318m7.419 3.087v-6.149h1.111v1.037a2 2 0 0 1 1.756-1.037h1.477v1.037h-1.562c-.976 0-1.671.635-1.671 1.867V162zM1.086 204v-8.54h5.673v.939H2.196v2.697h4.246v.915H2.196V204zm10.14.159c-1.867 0-2.965-1.391-2.965-3.233 0-1.83 1.098-3.233 2.964-3.233 1.867 0 2.965 1.403 2.965 3.233 0 1.842-1.098 3.233-2.965 3.233m-1.855-3.246c0 1.196.512 2.343 1.854 2.343s1.855-1.147 1.855-2.343c0-1.183-.513-2.318-1.855-2.318s-1.854 1.135-1.854 2.318m8.883 3.246c-1.33 0-2.257-.842-2.257-2.477v-3.831h1.086v3.77c0 1.074.598 1.635 1.5 1.635.952 0 1.745-.769 1.745-1.855v-3.55h1.074V204h-1.074v-.927c-.402.683-1.183 1.086-2.074 1.086M23.44 204v-6.149h1.086v.927c.39-.683 1.184-1.085 2.062-1.085 1.33 0 2.257.841 2.257 2.476V204h-1.073v-3.77c0-1.073-.61-1.635-1.501-1.635-.964 0-1.745.769-1.745 1.855V204zm9.786.159c-1.476 0-2.671-1.318-2.671-3.258 0-1.927 1.195-3.208 2.671-3.208.867 0 1.61.366 2.05 1.073v-3.306h1.086V204h-1.086v-.927c-.488.732-1.184 1.086-2.05 1.086m-1.55-3.258c0 1.354.672 2.355 1.819 2.355 1.159 0 1.842-1.001 1.842-2.343 0-1.329-.683-2.318-1.842-2.318-1.147 0-1.818.964-1.818 2.306M45.418 204v-.927h2.489v-5.063h-1.977v-.94h1.672a.3.3 0 0 0 .305-.292v-1.318h1.098v7.613h2.476V204zm10.225.183c-1.647 0-2.635-1.122-2.647-2.318h1.122c.146.927.793 1.354 1.598 1.354 1.33 0 2.135-1.195 2.135-3.404-.512.94-1.452 1.245-2.232 1.245-1.525 0-2.83-1.037-2.83-2.831 0-1.769 1.28-2.952 3.025-2.952 1.769 0 3.184 1.183 3.184 4.429 0 3.05-1.464 4.477-3.355 4.477m-1.708-6.002c0 1.171.83 1.964 1.867 1.964s1.866-.793 1.866-1.964c0-1.184-.83-1.965-1.866-1.965s-1.867.781-1.867 1.965m9.359 6.002c-1.842 0-2.953-1.061-2.977-2.623h1.135c.06.708.463 1.659 1.83 1.659 1.134 0 1.903-.744 1.903-1.988 0-1.123-.732-1.989-1.891-1.989-1.098 0-1.55.622-1.72.927h-1.074l.683-4.709h4.71v.939h-3.77l-.366 2.526c.488-.403 1.098-.574 1.769-.574 1.598 0 2.818 1.159 2.818 2.855 0 1.708-1.11 2.977-3.05 2.977M75.959 204l-1.134-6.149h1.025l.805 5.075 1.061-3.342h1.013l1.049 3.306.817-5.039h1.025L80.485 204h-1.22l-1.037-3.196L77.18 204zm8.822.159c-1.244 0-2.062-.732-2.062-1.818 0-1.428 1.245-1.769 2.245-1.891l1.318-.171c.5-.061.586-.354.586-.634v-.013c0-.597-.403-1.061-1.33-1.061-.89 0-1.415.415-1.513 1.171h-1.086c.134-1.244 1.123-2.049 2.587-2.049 1.634 0 2.415.817 2.415 2.196v2.976c0 .147.11.244.256.244h.379V204h-.732c-.598 0-.903-.305-.903-.756v-.147c-.537.793-1.391 1.062-2.16 1.062m-.94-1.867c0 .622.477.988 1.22.988 1.087 0 1.806-.805 1.806-2.001v-.427a2.1 2.1 0 0 1-.622.183l-1.073.159c-.927.146-1.33.476-1.33 1.098M91.225 204v-6.149h1.11v1.037a2 2 0 0 1 1.757-1.037h1.477v1.037h-1.562c-.976 0-1.671.635-1.671 1.867V204zm6.65 0v-6.149h1.087v.927c.39-.683 1.183-1.085 2.061-1.085 1.33 0 2.257.841 2.257 2.476V204h-1.073v-3.77c0-1.073-.61-1.635-1.501-1.635-.964 0-1.744.769-1.744 1.855V204zm7.273 0v-.915h2.294v-4.319h-2.05v-.915h3.16v5.234h2.282V204zm2.245-7.198v-1.342h1.22v1.342zm5.37 7.198v-6.149h1.085v.927c.391-.683 1.184-1.085 2.062-1.085 1.33 0 2.257.841 2.257 2.476V204h-1.073v-3.77c0-1.073-.61-1.635-1.501-1.635-.964 0-1.745.769-1.745 1.855V204zm10.066 2.147c-1.549 0-2.525-.659-2.684-1.83h1.098c.183.671.671.952 1.623.952.878 0 1.695-.452 1.695-1.696v-.793c-.463.769-1.195 1.086-2 1.086-1.477 0-2.684-1.306-2.684-3.099s1.207-3.074 2.684-3.074c.817 0 1.598.378 2 1.073v-.915h1.074v5.71c0 1.903-1.354 2.586-2.806 2.586m-1.854-5.392c0 1.281.719 2.232 1.817 2.232s1.83-.951 1.83-2.232c0-1.293-.732-2.16-1.83-2.16s-1.817.867-1.817 2.16m9.468 3.404c-1.61 0-2.61-.781-2.72-2.087h1.098c.146.818.695 1.208 1.647 1.208.829 0 1.342-.378 1.342-.964 0-.451-.33-.768-.964-.878l-1.208-.244c-.878-.171-1.744-.586-1.744-1.708 0-1.025.963-1.793 2.403-1.793 1.391 0 2.403.585 2.525 1.927h-1.098c-.109-.683-.622-1.049-1.439-1.049-.781 0-1.306.366-1.306.878 0 .488.427.72.915.818l1.281.244c.867.171 1.745.646 1.745 1.744 0 1.147-1.013 1.904-2.477 1.904m13.887 0c-1.245 0-2.062-.732-2.062-1.818 0-1.428 1.244-1.769 2.245-1.891l1.317-.171c.501-.061.586-.354.586-.634v-.013c0-.597-.403-1.061-1.33-1.061-.89 0-1.415.415-1.513 1.171h-1.085c.134-1.244 1.122-2.049 2.586-2.049 1.635 0 2.416.817 2.416 2.196v2.976c0 .147.109.244.256.244h.378V204h-.732c-.598 0-.903-.305-.903-.756v-.147c-.537.793-1.391 1.062-2.159 1.062m-.94-1.867c0 .622.476.988 1.22.988 1.086 0 1.806-.805 1.806-2.001v-.427a2.1 2.1 0 0 1-.622.183l-1.074.159c-.927.146-1.33.476-1.33 1.098m6.59 1.708v-6.149h1.086v.927c.39-.683 1.183-1.085 2.061-1.085 1.33 0 2.257.841 2.257 2.476V204h-1.073v-3.77c0-1.073-.61-1.635-1.501-1.635-.964 0-1.744.769-1.744 1.855V204zm9.786.159c-1.477 0-2.672-1.318-2.672-3.258 0-1.927 1.195-3.208 2.672-3.208.866 0 1.61.366 2.049 1.073v-3.306h1.086V204h-1.086v-.927c-.488.732-1.183 1.086-2.049 1.086m-1.55-3.258c0 1.354.671 2.355 1.818 2.355 1.159 0 1.842-1.001 1.842-2.343 0-1.329-.683-2.318-1.842-2.318-1.147 0-1.818.964-1.818 2.306m16.754 3.258c-1.989 0-3.246-1.66-3.246-4.429 0-2.782 1.257-4.416 3.246-4.416 2 0 3.257 1.634 3.257 4.416 0 2.769-1.257 4.429-3.257 4.429m-2.099-4.429c0 2.196.696 3.477 2.099 3.477 1.415 0 2.098-1.281 2.098-3.477 0-2.208-.683-3.465-2.098-3.465-1.403 0-2.099 1.257-2.099 3.465m17.095 4.429c-1.805 0-2.94-1.379-2.94-3.233 0-1.843 1.135-3.233 2.94-3.233 1.525 0 2.867.866 2.721 3.513h-4.551c.086 1.135.61 2.062 1.83 2.062.818 0 1.355-.5 1.538-1.074h1.073c-.171 1.025-1.134 1.965-2.611 1.965m-1.805-3.77h3.477c-.086-1.232-.659-1.806-1.672-1.806-1.11 0-1.659.805-1.805 1.806m7.272 3.611v-6.149h1.111v1.037a2 2 0 0 1 1.756-1.037h1.477v1.037h-1.562c-.976 0-1.671.635-1.671 1.867V204zm7.444 0v-6.149h1.11v1.037a2 2 0 0 1 1.757-1.037h1.476v1.037h-1.562c-.976 0-1.671.635-1.671 1.867V204zm9.322.159c-1.867 0-2.965-1.391-2.965-3.233 0-1.83 1.098-3.233 2.965-3.233s2.965 1.403 2.965 3.233c0 1.842-1.098 3.233-2.965 3.233m-1.854-3.246c0 1.196.512 2.343 1.854 2.343s1.854-1.147 1.854-2.343c0-1.183-.512-2.318-1.854-2.318s-1.854 1.135-1.854 2.318m7.419 3.087v-6.149h1.11v1.037a2 2 0 0 1 1.757-1.037h1.476v1.037h-1.562c-.976 0-1.671.635-1.671 1.867V204zm9.444.159c-1.611 0-2.611-.781-2.721-2.087h1.098c.147.818.696 1.208 1.647 1.208.83 0 1.342-.378 1.342-.964 0-.451-.329-.768-.964-.878l-1.207-.244c-.879-.171-1.745-.586-1.745-1.708 0-1.025.964-1.793 2.403-1.793 1.391 0 2.404.585 2.526 1.927h-1.098c-.11-.683-.622-1.049-1.44-1.049-.781 0-1.305.366-1.305.878 0 .488.427.72.915.818l1.281.244c.866.171 1.744.646 1.744 1.744 0 1.147-1.012 1.904-2.476 1.904m6.614-.159v-1.464h1.415V204zM1.086 225v-8.54h5.673v.939H2.196v2.697h4.246v.915H2.196V225zm7.297 0v-.915h2.293v-4.319h-2.05v-.915h3.16v5.234h2.282V225zm2.245-7.198v-1.342h1.22v1.342zm5.37 7.198v-6.149h1.085v.927c.39-.683 1.183-1.085 2.062-1.085 1.33 0 2.257.841 2.257 2.476V225h-1.074v-3.77c0-1.073-.61-1.635-1.5-1.635-.964 0-1.745.769-1.745 1.855V225zm7.272 0v-.915h2.293v-4.319h-2.05v-.915h3.16v5.234h2.282V225zm2.245-7.198v-1.342h1.22v1.342zm8.163 7.357c-1.61 0-2.611-.781-2.72-2.087h1.097c.147.818.696 1.208 1.647 1.208.83 0 1.342-.378 1.342-.964 0-.451-.33-.768-.964-.878l-1.207-.244c-.879-.171-1.745-.586-1.745-1.708 0-1.025.964-1.793 2.403-1.793 1.391 0 2.404.585 2.526 1.927h-1.098c-.11-.683-.623-1.049-1.44-1.049-.78 0-1.305.366-1.305.878 0 .488.427.72.915.818l1.28.244c.867.171 1.745.646 1.745 1.744 0 1.147-1.012 1.904-2.476 1.904m4.65-.159v-8.54h1.085v3.318c.39-.683 1.184-1.085 2.062-1.085 1.33 0 2.257.841 2.257 2.476V225h-1.074v-3.77c0-1.073-.61-1.635-1.5-1.635-.964 0-1.745.769-1.745 1.855V225zm10.212.159c-1.805 0-2.94-1.379-2.94-3.233 0-1.843 1.135-3.233 2.94-3.233 1.525 0 2.867.866 2.72 3.513h-4.55c.086 1.135.61 2.062 1.83 2.062.818 0 1.354-.5 1.537-1.074h1.074c-.17 1.025-1.135 1.965-2.61 1.965m-1.805-3.77h3.477c-.086-1.232-.66-1.806-1.672-1.806-1.11 0-1.659.805-1.805 1.806m8.822 3.77c-1.477 0-2.672-1.318-2.672-3.258 0-1.927 1.195-3.208 2.672-3.208.866 0 1.61.366 2.05 1.073v-3.306h1.085V225h-1.086v-.927c-.488.732-1.183 1.086-2.05 1.086m-1.55-3.258c0 1.354.671 2.355 1.818 2.355 1.159 0 1.842-1.001 1.842-2.343 0-1.329-.683-2.318-1.842-2.318-1.147 0-1.818.964-1.818 2.306M67.93 225v-.915h2.294v-4.319h-2.05v-.915h3.16v5.234h2.281V225zm2.245-7.198v-1.342h1.22v1.342zm5.37 7.198v-6.149h1.085v.927c.39-.683 1.184-1.085 2.062-1.085 1.33 0 2.257.841 2.257 2.476V225h-1.073v-3.77c0-1.073-.61-1.635-1.501-1.635-.964 0-1.745.769-1.745 1.855V225zm18.339 0v-2.342h-3.977v-1.098l3.745-5.1h1.354v5.283H96.3v.915h-1.294V225zm-2.904-3.257h2.904v-3.965zm9.53 3.44c-1.842 0-2.952-1.061-2.977-2.623h1.135c.06.708.463 1.659 1.83 1.659 1.134 0 1.903-.744 1.903-1.988 0-1.123-.732-1.989-1.891-1.989-1.098 0-1.55.622-1.72.927h-1.074l.683-4.709h4.71v.939h-3.77l-.366 2.526c.488-.403 1.098-.574 1.769-.574 1.598 0 2.818 1.159 2.818 2.855 0 1.708-1.11 2.977-3.05 2.977m4.479-.183v-6.149h1.037v.525c.244-.439.707-.683 1.208-.683.622 0 .988.378 1.11.732.354-.586.878-.732 1.366-.732.793 0 1.33.597 1.33 1.61V225h-1.037v-4.502c0-.585-.207-.866-.586-.866-.475 0-.89.439-.89 1.183V225h-1.025v-4.502c0-.585-.22-.866-.598-.866-.476 0-.878.439-.878 1.183V225zm10.566.159c-1.61 0-2.61-.781-2.72-2.087h1.098c.146.818.695 1.208 1.647 1.208.829 0 1.342-.378 1.342-.964 0-.451-.33-.768-.964-.878l-1.208-.244c-.878-.171-1.744-.586-1.744-1.708 0-1.025.963-1.793 2.403-1.793 1.391 0 2.403.585 2.525 1.927h-1.098c-.109-.683-.622-1.049-1.439-1.049-.781 0-1.306.366-1.306.878 0 .488.427.72.915.818l1.281.244c.867.171 1.745.646 1.745 1.744 0 1.147-1.013 1.904-2.477 1.904m14.765 0c-1.866 0-2.964-1.391-2.964-3.233 0-1.83 1.098-3.233 2.964-3.233 1.867 0 2.965 1.403 2.965 3.233 0 1.842-1.098 3.233-2.965 3.233m-1.854-3.246c0 1.196.512 2.343 1.854 2.343s1.855-1.147 1.855-2.343c0-1.183-.513-2.318-1.855-2.318s-1.854 1.135-1.854 2.318m6.626 3.087v-6.149h1.086v.927c.39-.683 1.183-1.085 2.062-1.085 1.329 0 2.257.841 2.257 2.476V225h-1.074v-3.77c0-1.073-.61-1.635-1.501-1.635-.963 0-1.744.769-1.744 1.855V225zm17.644.183c-1.769 0-3.184-1.183-3.184-4.429 0-3.05 1.464-4.477 3.355-4.477 1.647 0 2.635 1.122 2.647 2.318h-1.122c-.147-.927-.793-1.354-1.598-1.354-1.33 0-2.135 1.195-2.135 3.404.512-.94 1.451-1.245 2.232-1.245 1.525 0 2.831 1.037 2.831 2.831 0 1.769-1.281 2.952-3.026 2.952m-1.854-2.904c0 1.184.817 1.965 1.866 1.965 1.037 0 1.867-.781 1.867-1.965 0-1.171-.83-1.964-1.867-1.964-1.049 0-1.866.793-1.866 1.964m9.212 2.904c-1.61 0-3.087-.939-3.087-2.586 0-1.184.879-1.965 1.733-2.184-.769-.269-1.403-1.001-1.391-1.891.024-1.391 1.305-2.245 2.745-2.245 1.427 0 2.708.854 2.733 2.245.012.89-.647 1.622-1.391 1.891.842.219 1.732 1 1.732 2.184 0 1.647-1.476 2.586-3.074 2.586m-1.94-2.611c0 1.062.927 1.684 1.94 1.684 1 0 1.928-.622 1.928-1.684 0-1.086-.928-1.671-1.928-1.671-1.013 0-1.94.585-1.94 1.671m.317-4.001c0 .878.757 1.451 1.623 1.451.854 0 1.61-.573 1.61-1.451 0-.867-.756-1.379-1.61-1.379-.866 0-1.623.512-1.623 1.379m9.054 6.588c-1.988 0-3.245-1.66-3.245-4.429 0-2.782 1.257-4.416 3.245-4.416 2.001 0 3.258 1.634 3.258 4.416 0 2.769-1.257 4.429-3.258 4.429m-2.098-4.429c0 2.196.695 3.477 2.098 3.477 1.415 0 2.099-1.281 2.099-3.477 0-2.208-.684-3.465-2.099-3.465-1.403 0-2.098 1.257-2.098 3.465M181.4 225v-5.258h-1.83v-.891h1.549c.171 0 .281-.11.281-.268v-.537c0-1.013.463-1.586 1.525-1.586h2.183v.891h-1.976c-.476 0-.659.231-.659.744v.756h2.55v.891h-2.55V225zm5.625 0v-.915h2.294v-4.319h-2.05v-.915h3.16v5.234h2.281V225zm2.245-7.198v-1.342h1.22v1.342zm5.125 7.198v-.891h2.379v-6.758h-1.939v-.891h3.025v7.649h2.367V225zm10.457.159c-1.805 0-2.94-1.379-2.94-3.233 0-1.843 1.135-3.233 2.94-3.233 1.525 0 2.867.866 2.721 3.513h-4.551c.086 1.135.61 2.062 1.83 2.062.818 0 1.354-.5 1.537-1.074h1.074c-.171 1.025-1.135 1.965-2.611 1.965m-1.805-3.77h3.477c-.086-1.232-.659-1.806-1.672-1.806-1.11 0-1.659.805-1.805 1.806m9.273 3.77c-1.61 0-2.611-.781-2.721-2.087h1.098c.147.818.696 1.208 1.647 1.208.83 0 1.342-.378 1.342-.964 0-.451-.329-.768-.963-.878l-1.208-.244c-.879-.171-1.745-.586-1.745-1.708 0-1.025.964-1.793 2.404-1.793 1.39 0 2.403.585 2.525 1.927h-1.098c-.11-.683-.622-1.049-1.44-1.049-.78 0-1.305.366-1.305.878 0 .488.427.72.915.818l1.281.244c.866.171 1.745.646 1.745 1.744 0 1.147-1.013 1.904-2.477 1.904m12.508-.159-1.135-6.149h1.025l.805 5.075 1.062-3.342h1.012l1.049 3.306.818-5.039h1.025L229.354 225h-1.22l-1.037-3.196-1.049 3.196zm6.858 0v-.915h2.293v-4.319h-2.049v-.915h3.16v5.234h2.281V225zm2.245-7.198v-1.342h1.22v1.342zm8.443 7.198c-1.049 0-1.549-.427-1.549-1.452v-3.806h-1.83v-.891h1.549c.171 0 .281-.11.281-.268v-1.769h1.074v2.037h2.427v.891h-2.427v3.66c0 .439.183.695.732.695h1.964V225zm4.369 0v-8.54h1.086v3.318c.391-.683 1.184-1.085 2.062-1.085 1.33 0 2.257.841 2.257 2.476V225h-1.074v-3.77c0-1.073-.61-1.635-1.5-1.635-.964 0-1.745.769-1.745 1.855V225zm17.559.183c-1.61 0-3.087-.939-3.087-2.586 0-1.184.879-1.965 1.733-2.184-.769-.269-1.403-1.001-1.391-1.891.024-1.391 1.305-2.245 2.745-2.245 1.427 0 2.708.854 2.733 2.245.012.89-.647 1.622-1.391 1.891.842.219 1.732 1 1.732 2.184 0 1.647-1.476 2.586-3.074 2.586m-1.94-2.611c0 1.062.927 1.684 1.94 1.684 1 0 1.928-.622 1.928-1.684 0-1.086-.928-1.671-1.928-1.671-1.013 0-1.94.585-1.94 1.671m.317-4.001c0 .878.757 1.451 1.623 1.451.854 0 1.61-.573 1.61-1.451 0-.867-.756-1.379-1.61-1.379-.866 0-1.623.512-1.623 1.379m9.066 6.612c-1.61 0-3.086-.939-3.086-2.586 0-1.184.878-1.965 1.732-2.184-.768-.269-1.403-1.001-1.391-1.891.025-1.391 1.306-2.245 2.745-2.245 1.428 0 2.709.854 2.733 2.245.012.89-.646 1.622-1.391 1.891.842.219 1.733 1 1.733 2.184 0 1.647-1.476 2.586-3.075 2.586m-1.939-2.611c0 1.062.927 1.684 1.939 1.684 1.001 0 1.928-.622 1.928-1.684 0-1.086-.927-1.671-1.928-1.671-1.012 0-1.939.585-1.939 1.671m.317-4.001c0 .878.756 1.451 1.622 1.451.854 0 1.611-.573 1.611-1.451 0-.867-.757-1.379-1.611-1.379-.866 0-1.622.512-1.622 1.379M284.754 225v-6.149h1.11v1.037a2 2 0 0 1 1.757-1.037h1.476v1.037h-1.562c-.976 0-1.671.635-1.671 1.867V225zm8.907.159c-1.33 0-2.257-.842-2.257-2.477v-3.831h1.086v3.77c0 1.074.598 1.635 1.5 1.635.952 0 1.745-.769 1.745-1.855v-3.55h1.074V225h-1.074v-.927c-.403.683-1.183 1.086-2.074 1.086m4.942-.159v-.891h2.379v-6.758h-1.939v-.891h3.025v7.649h2.367V225zm10.457.159c-1.805 0-2.94-1.379-2.94-3.233 0-1.843 1.135-3.233 2.94-3.233 1.525 0 2.867.866 2.721 3.513h-4.551c.086 1.135.61 2.062 1.83 2.062.818 0 1.354-.5 1.537-1.074h1.074c-.171 1.025-1.135 1.965-2.611 1.965m-1.805-3.77h3.477c-.086-1.232-.659-1.806-1.672-1.806-1.11 0-1.659.805-1.805 1.806m9.273 3.77c-1.61 0-2.611-.781-2.721-2.087h1.098c.147.818.696 1.208 1.647 1.208.83 0 1.342-.378 1.342-.964 0-.451-.329-.768-.963-.878l-1.208-.244c-.879-.171-1.745-.586-1.745-1.708 0-1.025.964-1.793 2.404-1.793 1.39 0 2.403.585 2.525 1.927h-1.098c-.11-.683-.622-1.049-1.44-1.049-.78 0-1.305.366-1.305.878 0 .488.427.72.915.818l1.281.244c.866.171 1.745.646 1.745 1.744 0 1.147-1.013 1.904-2.477 1.904m14.35 0c-1.33 0-2.257-.842-2.257-2.477v-3.831h1.086v3.77c0 1.074.598 1.635 1.5 1.635.952 0 1.745-.769 1.745-1.855v-3.55h1.074V225h-1.074v-.927c-.403.683-1.183 1.086-2.074 1.086m7.98 0c-1.61 0-2.61-.781-2.72-2.087h1.098c.146.818.695 1.208 1.647 1.208.829 0 1.342-.378 1.342-.964 0-.451-.33-.768-.964-.878l-1.208-.244c-.878-.171-1.744-.586-1.744-1.708 0-1.025.963-1.793 2.403-1.793 1.391 0 2.403.585 2.525 1.927h-1.098c-.109-.683-.622-1.049-1.439-1.049-.781 0-1.306.366-1.306.878 0 .488.427.72.915.818l1.281.244c.867.171 1.745.646 1.745 1.744 0 1.147-1.013 1.904-2.477 1.904m4.479-.159v-.915h2.294v-4.319h-2.05v-.915h3.16v5.234h2.281V225zm2.245-7.198v-1.342h1.22v1.342zm5.369 7.198v-6.149h1.086v.927c.391-.683 1.184-1.085 2.062-1.085 1.33 0 2.257.841 2.257 2.476V225h-1.074v-3.77c0-1.073-.61-1.635-1.5-1.635-.964 0-1.745.769-1.745 1.855V225zm10.067 2.147c-1.55 0-2.526-.659-2.684-1.83h1.098c.183.671.671.952 1.622.952.879 0 1.696-.452 1.696-1.696v-.793c-.463.769-1.195 1.086-2.001 1.086-1.476 0-2.684-1.306-2.684-3.099s1.208-3.074 2.684-3.074c.818 0 1.599.378 2.001 1.073v-.915h1.074v5.71c0 1.903-1.354 2.586-2.806 2.586m-1.855-5.392c0 1.281.72 2.232 1.818 2.232s1.83-.951 1.83-2.232c0-1.293-.732-2.16-1.83-2.16s-1.818.867-1.818 2.16M372.928 225v-.927h2.489v-5.063h-1.977v-.94h1.672a.3.3 0 0 0 .305-.292v-1.318h1.098v7.613h2.476V225zm10.457.159c-1.989 0-3.245-1.66-3.245-4.429 0-2.782 1.256-4.416 3.245-4.416 2.001 0 3.257 1.634 3.257 4.416 0 2.769-1.256 4.429-3.257 4.429m-2.099-4.429c0 2.196.696 3.477 2.099 3.477 1.415 0 2.098-1.281 2.098-3.477 0-2.208-.683-3.465-2.098-3.465-1.403 0-2.099 1.257-2.099 3.465m17.4 4.27c-1.049 0-1.549-.427-1.549-1.452v-3.806h-1.83v-.891h1.549c.171 0 .281-.11.281-.268v-1.769h1.074v2.037h2.427v.891h-2.427v3.66c0 .439.183.695.732.695h1.964V225zm4.369 0v-8.54h1.086v3.318c.391-.683 1.184-1.085 2.062-1.085 1.33 0 2.257.841 2.257 2.476V225h-1.074v-3.77c0-1.073-.61-1.635-1.5-1.635-.964 0-1.745.769-1.745 1.855V225zm8.237 0v-6.149h1.11v1.037a2 2 0 0 1 1.757-1.037h1.476v1.037h-1.562c-.976 0-1.671.635-1.671 1.867V225zm9.42.159c-1.806 0-2.941-1.379-2.941-3.233 0-1.843 1.135-3.233 2.941-3.233 1.525 0 2.867.866 2.72 3.513h-4.55c.085 1.135.61 2.062 1.83 2.062.817 0 1.354-.5 1.537-1.074h1.073c-.17 1.025-1.134 1.965-2.61 1.965m-1.806-3.77h3.477c-.085-1.232-.659-1.806-1.671-1.806-1.111 0-1.66.805-1.806 1.806m8.273 3.77c-1.244 0-2.062-.732-2.062-1.818 0-1.428 1.245-1.769 2.245-1.891l1.318-.171c.5-.061.585-.354.585-.634v-.013c0-.597-.402-1.061-1.33-1.061-.89 0-1.415.415-1.512 1.171h-1.086c.134-1.244 1.122-2.049 2.586-2.049 1.635 0 2.416.817 2.416 2.196v2.976c0 .147.11.244.256.244h.378V225h-.732c-.598 0-.903-.305-.903-.756v-.147c-.536.793-1.39 1.062-2.159 1.062m-.939-1.867c0 .622.475.988 1.22.988 1.085 0 1.805-.805 1.805-2.001v-.427a2.1 2.1 0 0 1-.622.183l-1.074.159c-.927.146-1.329.476-1.329 1.098m8.932 1.867c-1.477 0-2.672-1.318-2.672-3.258 0-1.927 1.195-3.208 2.672-3.208.866 0 1.61.366 2.049 1.073v-3.306h1.086V225h-1.086v-.927c-.488.732-1.183 1.086-2.049 1.086m-1.55-3.258c0 1.354.671 2.355 1.818 2.355 1.159 0 1.842-1.001 1.842-2.343 0-1.329-.683-2.318-1.842-2.318-1.147 0-1.818.964-1.818 2.306m9.444 3.258c-1.61 0-2.61-.781-2.72-2.087h1.098c.146.818.695 1.208 1.647 1.208.829 0 1.342-.378 1.342-.964 0-.451-.33-.768-.964-.878l-1.208-.244c-.878-.171-1.744-.586-1.744-1.708 0-1.025.963-1.793 2.403-1.793 1.391 0 2.403.585 2.525 1.927h-1.098c-.109-.683-.622-1.049-1.439-1.049-.781 0-1.306.366-1.306.878 0 .488.427.72.915.818l1.281.244c.867.171 1.745.646 1.745 1.744 0 1.147-1.013 1.904-2.477 1.904m6.614-.159v-1.464h1.415V225z"/><path fill="#32f3ef" d="M82.854 38.025v-8.174h1.073v.927c.5-.732 1.196-1.085 2.062-1.085 1.464 0 2.672 1.317 2.672 3.257 0 1.928-1.208 3.209-2.672 3.209-.866 0-1.623-.366-2.062-1.074v2.94zm1.025-5.087c0 1.33.683 2.318 1.842 2.318 1.147 0 1.817-.964 1.817-2.306 0-1.354-.67-2.355-1.817-2.355-1.16 0-1.843 1-1.843 2.343m8.346 3.22c-1.245 0-2.062-.731-2.062-1.817 0-1.428 1.244-1.77 2.245-1.891l1.317-.171c.5-.061.586-.354.586-.634v-.013c0-.597-.403-1.061-1.33-1.061-.89 0-1.415.415-1.513 1.171h-1.085c.134-1.244 1.122-2.05 2.586-2.05 1.635 0 2.416.818 2.416 2.197v2.976c0 .147.11.244.256.244h.378V36h-.732c-.598 0-.903-.305-.903-.756v-.147c-.537.793-1.39 1.062-2.16 1.062m-.94-1.866c0 .622.476.988 1.22.988 1.086 0 1.806-.805 1.806-2v-.428a2.2 2.2 0 0 1-.622.183l-1.074.159c-.927.146-1.33.476-1.33 1.098m9.42 1.867c-1.793 0-2.964-1.391-2.964-3.233 0-1.83 1.17-3.233 2.976-3.233 1.403 0 2.44.854 2.636 2.269h-1.098c-.171-.866-.769-1.367-1.55-1.367-1.28 0-1.842 1.098-1.842 2.318 0 1.233.561 2.343 1.842 2.343.793 0 1.33-.415 1.55-1.208h1.085c-.231 1.257-1.171 2.11-2.635 2.11m4.833-.159v-8.54h1.073v5.38l2.806-2.989h1.342l-2.232 2.343L111.174 36h-1.305l-2.086-3.001-1.172 1.208V36zm9.017.159c-1.244 0-2.062-.732-2.062-1.818 0-1.428 1.245-1.77 2.245-1.891l1.318-.171c.5-.061.585-.354.585-.634v-.013c0-.597-.402-1.061-1.33-1.061-.89 0-1.415.415-1.512 1.171h-1.086c.134-1.244 1.122-2.05 2.586-2.05 1.635 0 2.416.818 2.416 2.197v2.976c0 .147.11.244.256.244h.378V36h-.732c-.598 0-.903-.305-.903-.756v-.147c-.536.793-1.39 1.062-2.159 1.062m-.939-1.867c0 .622.475.988 1.22.988 1.085 0 1.805-.805 1.805-2v-.428a2.2 2.2 0 0 1-.622.183l-1.074.159c-.927.146-1.329.476-1.329 1.098m9.212 3.855c-1.549 0-2.525-.659-2.684-1.83h1.098c.183.671.671.952 1.623.952.878 0 1.695-.452 1.695-1.696v-.793c-.463.769-1.195 1.086-2 1.086-1.477 0-2.684-1.306-2.684-3.099s1.207-3.074 2.684-3.074c.817 0 1.598.378 2 1.073v-.915h1.074v5.71c0 1.903-1.354 2.586-2.806 2.586m-1.854-5.392c0 1.28.719 2.232 1.817 2.232s1.83-.951 1.83-2.232c0-1.293-.732-2.16-1.83-2.16s-1.817.867-1.817 2.16m9.444 3.404c-1.806 0-2.94-1.379-2.94-3.233 0-1.843 1.134-3.233 2.94-3.233 1.525 0 2.867.866 2.721 3.513h-4.551c.085 1.135.61 2.062 1.83 2.062.817 0 1.354-.5 1.537-1.074h1.074c-.171 1.025-1.135 1.965-2.611 1.965m-1.806-3.77h3.477c-.085-1.232-.658-1.806-1.671-1.806-1.11 0-1.659.805-1.806 1.806m9.274 3.77c-1.611 0-2.611-.781-2.721-2.087h1.098c.147.818.696 1.208 1.647 1.208.83 0 1.342-.378 1.342-.964 0-.451-.329-.768-.964-.878l-1.207-.244c-.879-.17-1.745-.586-1.745-1.708 0-1.025.964-1.793 2.403-1.793 1.391 0 2.404.585 2.526 1.927h-1.098c-.11-.683-.622-1.049-1.44-1.049-.781 0-1.305.366-1.305.878 0 .488.427.72.915.818l1.281.244c.866.17 1.744.646 1.744 1.744 0 1.147-1.012 1.904-2.476 1.904m4.906 1.037 3.757-9.736h1.062l-3.758 9.736zm10.017-1.037c-1.793 0-2.964-1.391-2.964-3.233 0-1.83 1.171-3.233 2.976-3.233 1.403 0 2.44.854 2.636 2.269h-1.098c-.171-.866-.769-1.367-1.55-1.367-1.281 0-1.842 1.098-1.842 2.318 0 1.233.561 2.343 1.842 2.343.793 0 1.33-.415 1.55-1.208h1.085c-.231 1.257-1.171 2.11-2.635 2.11m7.285 0c-1.867 0-2.965-1.391-2.965-3.233 0-1.83 1.098-3.233 2.965-3.233s2.965 1.403 2.965 3.233c0 1.842-1.098 3.233-2.965 3.233m-1.854-3.246c0 1.196.512 2.343 1.854 2.343s1.854-1.147 1.854-2.343c0-1.183-.512-2.318-1.854-2.318s-1.854 1.135-1.854 2.318M164.536 36v-6.149h1.037v.525c.244-.44.708-.683 1.208-.683.622 0 .988.378 1.11.732.354-.586.879-.732 1.367-.732.793 0 1.329.597 1.329 1.61V36h-1.037v-4.502c0-.585-.207-.866-.585-.866-.476 0-.891.44-.891 1.183V36h-1.025v-4.502c0-.585-.219-.866-.597-.866-.476 0-.879.44-.879 1.183V36zm7.639 2.025v-8.174h1.073v.927c.501-.732 1.196-1.085 2.062-1.085 1.464 0 2.672 1.317 2.672 3.257 0 1.928-1.208 3.209-2.672 3.209-.866 0-1.622-.366-2.062-1.074v2.94zm1.025-5.087c0 1.33.683 2.318 1.842 2.318 1.147 0 1.818-.964 1.818-2.306 0-1.354-.671-2.355-1.818-2.355-1.159 0-1.842 1-1.842 2.343M179.582 36v-.915h2.293v-4.319h-2.049v-.915h3.16v5.234h2.281V36zm2.245-7.198V27.46h1.22v1.342zM186.952 36v-.89h2.379v-6.76h-1.94v-.89h3.026v7.65h2.367V36zm10.457.159c-1.806 0-2.94-1.379-2.94-3.233 0-1.843 1.134-3.233 2.94-3.233 1.525 0 2.867.866 2.72 3.513h-4.55c.085 1.135.61 2.062 1.83 2.062.817 0 1.354-.5 1.537-1.074h1.074c-.171 1.025-1.135 1.965-2.611 1.965m-1.806-3.77h3.477c-.085-1.232-.659-1.806-1.671-1.806-1.11 0-1.659.805-1.806 1.806M202.876 36v-6.149h1.11v1.037a2 2 0 0 1 1.757-1.037h1.476v1.037h-1.562c-.976 0-1.671.635-1.671 1.867V36zm7.675-3.099v-.988h3.294v.988zm9.249 3.258c-1.793 0-2.965-1.391-2.965-3.233 0-1.83 1.172-3.233 2.977-3.233 1.403 0 2.44.854 2.635 2.269h-1.098c-.17-.866-.768-1.367-1.549-1.367-1.281 0-1.842 1.098-1.842 2.318 0 1.233.561 2.343 1.842 2.343.793 0 1.33-.415 1.549-1.208h1.086c-.232 1.257-1.171 2.11-2.635 2.11m7.285 0c-1.867 0-2.965-1.391-2.965-3.233 0-1.83 1.098-3.233 2.965-3.233s2.964 1.403 2.964 3.233c0 1.842-1.098 3.233-2.964 3.233m-1.855-3.246c0 1.196.513 2.343 1.855 2.343s1.854-1.147 1.854-2.343c0-1.183-.512-2.318-1.854-2.318s-1.855 1.135-1.855 2.318M232.65 36v-6.149h1.11v1.037a2 2 0 0 1 1.757-1.037h1.476v1.037h-1.562c-.976 0-1.671.635-1.671 1.867V36zm9.419.159c-1.805 0-2.94-1.379-2.94-3.233 0-1.843 1.135-3.233 2.94-3.233 1.525 0 2.867.866 2.721 3.513h-4.551c.086 1.135.61 2.062 1.83 2.062.818 0 1.355-.5 1.538-1.074h1.073c-.171 1.025-1.134 1.965-2.611 1.965m-1.805-3.77h3.477c-.086-1.232-.659-1.806-1.672-1.806-1.11 0-1.659.805-1.805 1.806M247 37.196l3.757-9.736h1.062l-3.758 9.736zm7.284-.232V36h5.149v.964zm7.444 0V36h5.148v.964zm10.42-.964c-1.049 0-1.549-.427-1.549-1.452v-3.806h-1.83v-.89h1.549c.171 0 .281-.11.281-.27v-1.768h1.073v2.037h2.428v.89h-2.428v3.66c0 .44.183.696.732.696h1.964V36zm7.138.159c-1.805 0-2.94-1.379-2.94-3.233 0-1.843 1.135-3.233 2.94-3.233 1.525 0 2.867.866 2.721 3.513h-4.551c.086 1.135.61 2.062 1.83 2.062.818 0 1.355-.5 1.538-1.074h1.073c-.171 1.025-1.134 1.965-2.611 1.965m-1.805-3.77h3.477c-.086-1.232-.659-1.806-1.672-1.806-1.11 0-1.659.805-1.805 1.806m9.273 3.77c-1.61 0-2.61-.781-2.72-2.087h1.098c.146.818.695 1.208 1.647 1.208.829 0 1.342-.378 1.342-.964 0-.451-.33-.768-.964-.878l-1.208-.244c-.878-.17-1.744-.586-1.744-1.708 0-1.025.963-1.793 2.403-1.793 1.391 0 2.403.585 2.525 1.927h-1.098c-.109-.683-.622-1.049-1.439-1.049-.781 0-1.306.366-1.306.878 0 .488.427.72.915.818l1.281.244c.867.17 1.745.646 1.745 1.744 0 1.147-1.013 1.904-2.477 1.904m7.724-.159c-1.049 0-1.549-.427-1.549-1.452v-3.806h-1.83v-.89h1.549c.171 0 .281-.11.281-.27v-1.768h1.074v2.037h2.427v.89h-2.427v3.66c0 .44.183.696.732.696h1.964V36zm7.163.159c-1.61 0-2.611-.781-2.72-2.087h1.098c.146.818.695 1.208 1.647 1.208.829 0 1.342-.378 1.342-.964 0-.451-.33-.768-.964-.878l-1.208-.244c-.878-.17-1.745-.586-1.745-1.708 0-1.025.964-1.793 2.404-1.793 1.391 0 2.403.585 2.525 1.927h-1.098c-.11-.683-.622-1.049-1.439-1.049-.781 0-1.306.366-1.306.878 0 .488.427.72.915.818l1.281.244c.866.17 1.745.646 1.745 1.744 0 1.147-1.013 1.904-2.477 1.904m4.747.805V36h5.149v.964zm7.444 0V36h5.148v.964zm7.602.232 3.757-9.736h1.062l-3.758 9.736zm7.053.83V29.85h1.073v.927c.501-.732 1.196-1.085 2.062-1.085 1.464 0 2.672 1.317 2.672 3.257 0 1.928-1.208 3.209-2.672 3.209-.866 0-1.622-.366-2.062-1.074v2.94zm1.025-5.088c0 1.33.683 2.318 1.842 2.318 1.147 0 1.818-.964 1.818-2.306 0-1.354-.671-2.355-1.818-2.355-1.159 0-1.842 1-1.842 2.343m8.346 3.22c-1.244 0-2.062-.731-2.062-1.817 0-1.428 1.245-1.77 2.245-1.891l1.318-.171c.5-.061.585-.354.585-.634v-.013c0-.597-.402-1.061-1.33-1.061-.89 0-1.415.415-1.512 1.171h-1.086c.134-1.244 1.122-2.05 2.586-2.05 1.635 0 2.416.818 2.416 2.197v2.976c0 .147.11.244.256.244h.378V36h-.732c-.598 0-.903-.305-.903-.756v-.147c-.536.793-1.39 1.062-2.159 1.062m-.939-1.866c0 .622.475.988 1.22.988 1.085 0 1.805-.805 1.805-2v-.428a2.2 2.2 0 0 1-.622.183l-1.074.159c-.927.146-1.329.476-1.329 1.098M344.301 36v-6.149h1.11v1.037a2 2 0 0 1 1.757-1.037h1.476v1.037h-1.561c-.976 0-1.672.635-1.672 1.867V36zm9.444.159c-1.61 0-2.611-.781-2.72-2.087h1.098c.146.818.695 1.208 1.647 1.208.829 0 1.342-.378 1.342-.964 0-.451-.33-.768-.964-.878l-1.208-.244c-.878-.17-1.745-.586-1.745-1.708 0-1.025.964-1.793 2.404-1.793 1.391 0 2.403.585 2.525 1.927h-1.098c-.11-.683-.622-1.049-1.439-1.049-.781 0-1.306.366-1.306.878 0 .488.427.72.915.818l1.281.244c.866.17 1.745.646 1.745 1.744 0 1.147-1.013 1.904-2.477 1.904m7.419 0c-1.805 0-2.94-1.379-2.94-3.233 0-1.843 1.135-3.233 2.94-3.233 1.525 0 2.867.866 2.721 3.513h-4.551c.086 1.135.61 2.062 1.83 2.062.818 0 1.354-.5 1.537-1.074h1.074c-.171 1.025-1.135 1.965-2.611 1.965m-1.805-3.77h3.477c-.086-1.232-.659-1.806-1.672-1.806-1.11 0-1.659.805-1.805 1.806M367.802 36v-1.464h1.416V36zm8.273.159c-1.61 0-2.61-.781-2.72-2.087h1.098c.146.818.695 1.208 1.647 1.208.829 0 1.342-.378 1.342-.964 0-.451-.33-.768-.964-.878l-1.208-.244c-.878-.17-1.744-.586-1.744-1.708 0-1.025.963-1.793 2.403-1.793 1.391 0 2.403.585 2.525 1.927h-1.098c-.109-.683-.622-1.049-1.439-1.049-.781 0-1.306.366-1.306.878 0 .488.427.72.915.818l1.281.244c.867.17 1.745.646 1.745 1.744 0 1.147-1.013 1.904-2.477 1.904m4.516 1.866v-8.174h1.074v.927c.5-.732 1.195-1.085 2.061-1.085 1.464 0 2.672 1.317 2.672 3.257 0 1.928-1.208 3.209-2.672 3.209-.866 0-1.622-.366-2.061-1.074v2.94zm1.025-5.087c0 1.33.683 2.318 1.842 2.318 1.147 0 1.818-.964 1.818-2.306 0-1.354-.671-2.355-1.818-2.355-1.159 0-1.842 1-1.842 2.343m9.322 3.22c-1.806 0-2.94-1.378-2.94-3.232 0-1.843 1.134-3.233 2.94-3.233 1.525 0 2.867.866 2.721 3.513h-4.551c.085 1.135.61 2.062 1.83 2.062.817 0 1.354-.5 1.537-1.074h1.074c-.171 1.025-1.135 1.965-2.611 1.965m-1.806-3.77h3.477c-.085-1.231-.658-1.805-1.671-1.805-1.11 0-1.659.805-1.806 1.806m9.31 3.77c-1.793 0-2.964-1.39-2.964-3.232 0-1.83 1.171-3.233 2.977-3.233 1.403 0 2.44.854 2.635 2.269h-1.098c-.171-.866-.769-1.367-1.55-1.367-1.281 0-1.842 1.098-1.842 2.318 0 1.233.561 2.343 1.842 2.343.793 0 1.33-.415 1.55-1.208h1.086c-.232 1.257-1.172 2.11-2.636 2.11M405.02 36v-1.464h1.415V36zm8.553 0c-1.049 0-1.549-.427-1.549-1.452v-3.806h-1.83v-.89h1.549c.171 0 .281-.11.281-.27v-1.768h1.073v2.037h2.428v.89h-2.428v3.66c0 .44.183.696.732.696h1.965V36zm7.163.159c-1.61 0-2.611-.781-2.721-2.087h1.098c.147.818.696 1.208 1.647 1.208.83 0 1.342-.378 1.342-.964 0-.451-.329-.768-.963-.878l-1.208-.244c-.879-.17-1.745-.586-1.745-1.708 0-1.025.964-1.793 2.404-1.793 1.39 0 2.403.585 2.525 1.927h-1.098c-.11-.683-.622-1.049-1.44-1.049-.78 0-1.305.366-1.305.878 0 .488.427.72.915.818l1.281.244c.866.17 1.745.646 1.745 1.744 0 1.147-1.013 1.904-2.477 1.904"/><path fill="#f4f3ec" fill-opacity=".5" d="M15.753 56.683c0-1.5 1.061-2.391 2.16-3.184 1.183-.842 2.427-1.562 2.427-2.733 0-.964-.683-1.513-1.647-1.513-1.11 0-1.72.683-1.708 1.696h-1.134c-.074-1.61 1.159-2.672 2.891-2.672 1.623 0 2.757 1 2.757 2.428 0 1.025-.622 1.781-1.39 2.428-1.282 1.037-2.916 1.793-3.1 2.94h4.588V57h-5.844zm10.323.5c-1.843 0-2.953-1.061-2.977-2.623h1.134c.061.708.464 1.66 1.83 1.66 1.135 0 1.904-.745 1.904-1.99 0-1.122-.732-1.988-1.891-1.988-1.098 0-1.55.622-1.72.927h-1.074l.683-4.709h4.71v.94h-3.77l-.367 2.525c.488-.403 1.099-.574 1.77-.574 1.598 0 2.818 1.16 2.818 2.855 0 1.708-1.11 2.977-3.05 2.977M30.53 57v-.927h2.489V51.01h-1.976v-.94h1.67a.3.3 0 0 0 .306-.292V48.46h1.098v7.613h2.477V57zm10.225.183c-1.647 0-2.635-1.122-2.647-2.318h1.122c.147.927.793 1.354 1.598 1.354 1.33 0 2.135-1.195 2.135-3.404-.512.94-1.452 1.245-2.232 1.245-1.525 0-2.83-1.037-2.83-2.83 0-1.77 1.28-2.953 3.025-2.953 1.769 0 3.184 1.183 3.184 4.429 0 3.05-1.464 4.477-3.355 4.477m-1.708-6.002c0 1.17.83 1.964 1.867 1.964s1.866-.793 1.866-1.964c0-1.184-.83-1.965-1.866-1.965s-1.867.781-1.867 1.965M15.753 77.683c0-1.5 1.061-2.391 2.16-3.184 1.183-.842 2.427-1.562 2.427-2.733 0-.964-.683-1.513-1.647-1.513-1.11 0-1.72.683-1.708 1.696h-1.134c-.074-1.61 1.159-2.672 2.891-2.672 1.623 0 2.757 1 2.757 2.428 0 1.025-.622 1.781-1.39 2.428-1.282 1.037-2.916 1.793-3.1 2.94h4.588V78h-5.844zm10.323.5c-1.843 0-2.953-1.061-2.977-2.623h1.134c.061.708.464 1.66 1.83 1.66 1.135 0 1.904-.745 1.904-1.99 0-1.122-.732-1.988-1.891-1.988-1.098 0-1.55.622-1.72.927h-1.074l.683-4.709h4.71v.94h-3.77l-.367 2.525c.488-.403 1.099-.574 1.77-.574 1.598 0 2.818 1.16 2.818 2.855 0 1.708-1.11 2.977-3.05 2.977m4.564-.5c0-1.5 1.061-2.391 2.16-3.184 1.183-.842 2.427-1.562 2.427-2.733 0-.964-.683-1.513-1.647-1.513-1.11 0-1.72.683-1.708 1.696h-1.134c-.074-1.61 1.159-2.672 2.89-2.672 1.624 0 2.758 1 2.758 2.428 0 1.025-.622 1.781-1.39 2.428-1.282 1.037-2.916 1.793-3.1 2.94h4.588V78H30.64zm10.347.476c-1.989 0-3.245-1.66-3.245-4.429 0-2.782 1.256-4.416 3.245-4.416 2 0 3.257 1.634 3.257 4.416 0 2.77-1.256 4.429-3.257 4.429m-2.099-4.429c0 2.196.696 3.477 2.099 3.477 1.415 0 2.098-1.281 2.098-3.477 0-2.208-.683-3.465-2.098-3.465-1.403 0-2.099 1.257-2.099 3.465"/><path fill="#ff5bff" d="M161.254 95.901v-.988h3.294v.988zm2.808 0v-.988h3.294v.988zm2.807 0v-.988h3.294v.988zm2.808 0v-.988h3.294v.988zm2.807 0v-.988h3.294v.988zm2.808 0v-.988h3.294v.988zm2.807 0v-.988h3.294v.988zm2.807 0v-.988h3.294v.988zm2.808 0v-.988h3.294v.988zm2.807 0v-.988h3.294v.988zm2.808 0v-.988h3.294v.988zm2.807 0v-.988h3.294v.988zm2.808 0v-.988h3.294v.988zm2.807 0v-.988h3.294v.988zm2.807 0v-.988h3.294v.988zm2.808 0v-.988h3.294v.988zm2.807 0v-.988h3.294v.988zm2.808 0v-.988h3.294v.988zm2.807 0v-.988h3.294v.988zm2.808 0v-.988h3.294v.988zm2.807 0v-.988h3.294v.988zm2.807 0v-.988h3.294v.988zm2.808 0v-.988h3.294v.988zm2.807 0v-.988h3.294v.988zm2.808 0v-.988h3.294v.988zm2.807 0v-.988h3.294v.988zm2.808 0v-.988h3.294v.988zm2.807 0v-.988h3.294v.988zm2.807 0v-.988h3.294v.988zm2.808 0v-.988h3.294v.988zm2.807 0v-.988h3.294v.988zm2.808 0v-.988h3.294v.988zm2.807 0v-.988h3.294v.988zM15.753 119.683c0-1.501 1.061-2.391 2.16-3.184 1.183-.842 2.427-1.562 2.427-2.733 0-.964-.683-1.513-1.647-1.513-1.11 0-1.72.683-1.708 1.696h-1.134c-.074-1.611 1.159-2.672 2.891-2.672 1.623 0 2.757 1 2.757 2.428 0 1.025-.622 1.781-1.39 2.428-1.282 1.037-2.916 1.793-3.1 2.94h4.588V120h-5.844zm10.323.5c-1.843 0-2.953-1.061-2.977-2.623h1.134c.061.708.464 1.659 1.83 1.659 1.135 0 1.904-.744 1.904-1.988 0-1.123-.732-1.989-1.891-1.989-1.098 0-1.55.622-1.72.927h-1.074l.683-4.709h4.71v.939h-3.77l-.367 2.526c.488-.403 1.099-.574 1.77-.574 1.598 0 2.818 1.159 2.818 2.855 0 1.708-1.11 2.977-3.05 2.977m4.564-.5c0-1.501 1.061-2.391 2.16-3.184 1.183-.842 2.427-1.562 2.427-2.733 0-.964-.683-1.513-1.647-1.513-1.11 0-1.72.683-1.708 1.696h-1.134c-.074-1.611 1.159-2.672 2.89-2.672 1.624 0 2.758 1 2.758 2.428 0 1.025-.622 1.781-1.39 2.428-1.282 1.037-2.916 1.793-3.1 2.94h4.588V120H30.64zm7.334.317v-.927h2.488v-5.063h-1.976v-.94h1.671a.3.3 0 0 0 .305-.292v-1.318h1.098v7.613h2.477V120z"/><path fill="#08a5b0" d="M15.997 162v-8.54h1.086v3.318c.39-.683 1.183-1.085 2.062-1.085 1.33 0 2.257.841 2.257 2.476V162h-1.074v-3.77c0-1.073-.61-1.635-1.5-1.635-.964 0-1.745.769-1.745 1.855V162zm10.213.159c-1.806 0-2.94-1.379-2.94-3.233 0-1.843 1.134-3.233 2.94-3.233 1.525 0 2.867.866 2.72 3.513h-4.55c.085 1.135.61 2.062 1.83 2.062.817 0 1.354-.5 1.537-1.074h1.074c-.171 1.025-1.135 1.965-2.611 1.965m-1.806-3.77h3.477c-.085-1.232-.659-1.806-1.671-1.806-1.11 0-1.66.805-1.806 1.806M30.64 162v-.891h2.379v-6.758h-1.94v-.891h3.026v7.649h2.367V162zm7.553 2.025v-8.174h1.074v.927c.5-.732 1.195-1.085 2.061-1.085 1.464 0 2.672 1.317 2.672 3.257 0 1.928-1.208 3.209-2.672 3.209-.866 0-1.622-.366-2.061-1.074v2.94zm1.025-5.087c0 1.33.683 2.318 1.842 2.318 1.147 0 1.818-.964 1.818-2.306 0-1.354-.671-2.355-1.818-2.355-1.159 0-1.842 1.001-1.842 2.343M47.735 162v-1.464h1.415V162zm0-4.246v-1.464h1.415v1.464z"/><path stroke="#f4f3ec" d="M74.375 32.15h-7.883a4 4 0 0 0-4 4v98.392a4 4 0 0 0 4 4h7.883"/><g clip-path="url(#a)"><path fill="#14121a" d="M55.492 86.82h14v14h-14z"/><path fill="#fff" d="M61.897 94.482v-1.464h1.415v1.464z"/></g><defs><clipPath id="a"><path fill="#fff" d="M55.492 86.82h14v14h-14z"/></clipPath></defs></svg>