<svg xmlns="http://www.w3.org/2000/svg" width="560" height="171" fill="none" viewBox="0 0 560 171"><rect width="560" height="251" fill="#08060d" rx="4"/><path fill="#f87add" d="M18.501 31v-.975h2.444v-4.602h-2.184v-.975h3.367v5.577h2.431V31zm2.392-7.67V21.9h1.3v1.43zm5.37 7.67v-6.552h1.105v.559c.26-.468.755-.728 1.288-.728.663 0 1.053.403 1.183.78.377-.624.936-.78 1.456-.78.844 0 1.416.637 1.416 1.716V31h-1.104v-4.797c0-.624-.221-.923-.624-.923-.508 0-.95.468-.95 1.261V31h-1.091v-4.797c0-.624-.235-.923-.637-.923-.508 0-.936.468-.936 1.261V31zm8.14 2.158v-8.71h1.144v.988c.533-.78 1.274-1.157 2.197-1.157 1.56 0 2.847 1.404 2.847 3.471 0 2.054-1.287 3.419-2.847 3.419-.923 0-1.729-.39-2.197-1.144v3.133zm1.092-5.421c0 1.417.728 2.47 1.963 2.47 1.222 0 1.937-1.027 1.937-2.457 0-1.443-.715-2.509-1.937-2.509-1.235 0-1.963 1.066-1.963 2.496m9.83 3.432c-1.99 0-3.16-1.482-3.16-3.445 0-1.95 1.17-3.445 3.16-3.445 1.989 0 3.159 1.495 3.159 3.445 0 1.963-1.17 3.445-3.16 3.445m-1.976-3.458c0 1.274.546 2.496 1.976 2.496s1.976-1.222 1.976-2.496c0-1.261-.546-2.47-1.976-2.47s-1.976 1.209-1.976 2.47M51.254 31v-6.552h1.183v1.105a2.13 2.13 0 0 1 1.872-1.105h1.573v1.105h-1.664c-1.04 0-1.78.676-1.78 1.989V31zm10.363 0c-1.118 0-1.651-.455-1.651-1.547v-4.056h-1.95v-.949h1.65c.183 0 .3-.117.3-.286v-1.885h1.144v2.171h2.587v.949H61.11v3.9c0 .468.195.741.78.741h2.093V31zm149.178 0v-5.603h-1.95v-.949h1.651c.182 0 .299-.117.299-.286v-.572c0-1.079.494-1.69 1.625-1.69h2.327v.949h-2.106c-.507 0-.702.247-.702.793v.806h2.717v.949h-2.717V31zm7.021 0v-6.552h1.183v1.105a2.13 2.13 0 0 1 1.872-1.105h1.573v1.105h-1.664c-1.04 0-1.781.676-1.781 1.989V31zm9.934.169c-1.989 0-3.159-1.482-3.159-3.445 0-1.95 1.17-3.445 3.159-3.445s3.159 1.495 3.159 3.445c0 1.963-1.17 3.445-3.159 3.445m-1.976-3.458c0 1.274.546 2.496 1.976 2.496s1.976-1.222 1.976-2.496c0-1.261-.546-2.47-1.976-2.47s-1.976 1.209-1.976 2.47M232.483 31v-6.552h1.105v.559c.26-.468.754-.728 1.287-.728.663 0 1.053.403 1.183.78.377-.624.936-.78 1.456-.78.845 0 1.417.637 1.417 1.716V31h-1.105v-4.797c0-.624-.221-.923-.624-.923-.507 0-.949.468-.949 1.261V31h-1.092v-4.797c0-.624-.234-.923-.637-.923-.507 0-.936.468-.936 1.261V31zM18.501 51v-.975h2.444v-4.602h-2.184v-.975h3.367v5.577h2.431V51zm2.392-7.67V41.9h1.3v1.43zm5.37 7.67v-6.552h1.105v.559c.26-.468.755-.728 1.288-.728.663 0 1.053.403 1.183.78.377-.624.936-.78 1.456-.78.844 0 1.416.637 1.416 1.716V51h-1.104v-4.797c0-.624-.221-.923-.624-.923-.508 0-.95.468-.95 1.261V51h-1.091v-4.797c0-.624-.235-.923-.637-.923-.508 0-.936.468-.936 1.261V51zm8.14 2.158v-8.71h1.144v.988c.533-.78 1.274-1.157 2.197-1.157 1.56 0 2.847 1.404 2.847 3.471 0 2.054-1.287 3.419-2.847 3.419-.923 0-1.729-.39-2.197-1.144v3.133zm1.092-5.421c0 1.417.728 2.47 1.963 2.47 1.222 0 1.937-1.027 1.937-2.457 0-1.443-.715-2.509-1.937-2.509-1.235 0-1.963 1.066-1.963 2.496m9.83 3.432c-1.99 0-3.16-1.482-3.16-3.445 0-1.95 1.17-3.445 3.16-3.445 1.989 0 3.159 1.495 3.159 3.445 0 1.963-1.17 3.445-3.16 3.445m-1.976-3.458c0 1.274.546 2.496 1.976 2.496s1.976-1.222 1.976-2.496c0-1.261-.546-2.47-1.976-2.47s-1.976 1.209-1.976 2.47M51.254 51v-6.552h1.183v1.105a2.13 2.13 0 0 1 1.872-1.105h1.573v1.105h-1.664c-1.04 0-1.78.676-1.78 1.989V51zm10.363 0c-1.118 0-1.651-.455-1.651-1.547v-4.056h-1.95v-.949h1.65c.183 0 .3-.117.3-.286v-1.885h1.144v2.171h2.587v.949H61.11v3.9c0 .468.195.741.78.741h2.093V51zm93.657 0v-5.603h-1.95v-.949h1.651c.182 0 .299-.117.299-.286v-.572c0-1.079.494-1.69 1.625-1.69h2.327v.949h-2.106c-.507 0-.702.247-.702.793v.806h2.717v.949h-2.717V51zm7.021 0v-6.552h1.183v1.105a2.13 2.13 0 0 1 1.872-1.105h1.573v1.105h-1.664c-1.04 0-1.781.676-1.781 1.989V51zm9.934.169c-1.989 0-3.159-1.482-3.159-3.445 0-1.95 1.17-3.445 3.159-3.445s3.159 1.495 3.159 3.445c0 1.963-1.17 3.445-3.159 3.445m-1.976-3.458c0 1.274.546 2.496 1.976 2.496s1.976-1.222 1.976-2.496c0-1.261-.546-2.47-1.976-2.47s-1.976 1.209-1.976 2.47M176.962 51v-6.552h1.105v.559c.26-.468.754-.728 1.287-.728.663 0 1.053.403 1.183.78.377-.624.936-.78 1.456-.78.845 0 1.417.637 1.417 1.716V51h-1.105v-4.797c0-.624-.221-.923-.624-.923-.507 0-.949.468-.949 1.261V51h-1.092v-4.797c0-.624-.234-.923-.637-.923-.507 0-.936.468-.936 1.261V51zM21.634 91.169c-1.924 0-3.133-1.469-3.133-3.445 0-1.963 1.209-3.445 3.133-3.445 1.625 0 3.055.923 2.899 3.744h-4.849c.091 1.209.65 2.197 1.95 2.197.871 0 1.443-.533 1.638-1.144h1.144c-.182 1.092-1.209 2.093-2.782 2.093m-1.924-4.017h3.705c-.091-1.313-.702-1.924-1.781-1.924-1.183 0-1.768.858-1.924 1.924M26.459 91l2.3-3.406-2.119-3.146h1.287l1.56 2.353 1.56-2.353h1.287l-2.158 3.172L32.466 91h-1.3l-1.703-2.587L27.759 91zm7.944 2.158v-8.71h1.144v.988c.533-.78 1.274-1.157 2.197-1.157 1.56 0 2.847 1.404 2.847 3.471 0 2.054-1.287 3.419-2.847 3.419-.923 0-1.729-.39-2.197-1.144v3.133zm1.092-5.421c0 1.417.728 2.47 1.963 2.47 1.222 0 1.937-1.027 1.937-2.457 0-1.443-.715-2.509-1.937-2.509-1.235 0-1.963 1.066-1.963 2.496m9.83 3.432c-1.99 0-3.16-1.482-3.16-3.445 0-1.95 1.17-3.445 3.16-3.445 1.989 0 3.159 1.495 3.159 3.445 0 1.963-1.17 3.445-3.16 3.445m-1.976-3.458c0 1.274.546 2.496 1.976 2.496s1.976-1.222 1.976-2.496c0-1.261-.546-2.47-1.976-2.47s-1.976 1.209-1.976 2.47M51.254 91v-6.552h1.183v1.105a2.13 2.13 0 0 1 1.872-1.105h1.573v1.105h-1.664c-1.04 0-1.78.676-1.78 1.989V91zm10.363 0c-1.118 0-1.651-.455-1.651-1.547v-4.056h-1.95v-.949h1.65c.183 0 .3-.117.3-.286v-1.885h1.144v2.171h2.587v.949H61.11v3.9c0 .468.195.741.78.741h2.093V91zm15.083.169c-1.573 0-2.847-1.404-2.847-3.471 0-2.054 1.274-3.419 2.847-3.419.923 0 1.716.39 2.184 1.144V81.9h1.157V91h-1.157v-.988c-.52.78-1.261 1.157-2.184 1.157m-1.651-3.471c0 1.443.715 2.509 1.937 2.509 1.235 0 1.963-1.066 1.963-2.496 0-1.417-.728-2.47-1.963-2.47-1.222 0-1.937 1.027-1.937 2.457m10.037 3.471c-1.924 0-3.133-1.469-3.133-3.445 0-1.963 1.21-3.445 3.133-3.445 1.625 0 3.055.923 2.9 3.744h-4.85c.091 1.209.65 2.197 1.95 2.197.871 0 1.443-.533 1.638-1.144h1.144c-.182 1.092-1.209 2.093-2.782 2.093m-1.924-4.017h3.705c-.09-1.313-.702-1.924-1.78-1.924-1.184 0-1.769.858-1.925 1.924M91.822 91v-5.603h-1.95v-.949h1.65c.183 0 .3-.117.3-.286v-.572c0-1.079.494-1.69 1.625-1.69h2.327v.949h-2.106c-.507 0-.702.247-.702.793v.806h2.717v.949h-2.717V91zm8.087.169c-1.326 0-2.197-.78-2.197-1.937 0-1.521 1.326-1.885 2.392-2.015l1.404-.182c.533-.065.624-.377.624-.676v-.013c0-.637-.429-1.131-1.417-1.131-.949 0-1.508.442-1.612 1.248h-1.157c.143-1.326 1.196-2.184 2.756-2.184 1.742 0 2.574.871 2.574 2.34v3.172c0 .156.117.26.273.26h.403V91h-.78c-.637 0-.962-.325-.962-.806v-.156c-.572.845-1.482 1.131-2.3 1.131m-1-1.989c0 .663.506 1.053 1.299 1.053 1.157 0 1.924-.858 1.924-2.132v-.455a2.3 2.3 0 0 1-.663.195l-1.144.169c-.988.156-1.417.507-1.417 1.17m9.426 1.989c-1.417 0-2.405-.897-2.405-2.639v-4.082h1.157v4.017c0 1.144.637 1.742 1.599 1.742 1.014 0 1.859-.819 1.859-1.976v-3.783h1.144V91h-1.144v-.988c-.429.728-1.261 1.157-2.21 1.157m5.266-.169v-.949h2.535v-7.202h-2.067V81.9h3.224v8.151h2.522V91zm11.468 0c-1.118 0-1.651-.455-1.651-1.547v-4.056h-1.95v-.949h1.651c.182 0 .299-.117.299-.286v-1.885h1.144v2.171h2.587v.949h-2.587v3.9c0 .468.195.741.78.741h2.093V91z"/><path fill="#f4f3ec" d="M77.766 33.158c-1.274 0-2.21-.559-2.21-1.95v-2.847c0-.507-.247-.962-1.21-.962v-1.027c.963 0 1.21-.455 1.21-.962v-2.847c0-1.404.936-1.963 2.21-1.963h1.742v.923h-1.586c-.702 0-1.222.26-1.222.975v2.938c0 .793-.195 1.3-1.053 1.456.858.143 1.053.663 1.053 1.443v2.925c0 .715.52.988 1.222.988h1.586v.91zm14.797-1.989c-1.573 0-2.847-1.404-2.847-3.471 0-2.054 1.274-3.419 2.847-3.419.923 0 1.716.39 2.184 1.144V21.9h1.157V31h-1.157v-.988c-.52.78-1.261 1.157-2.184 1.157m-1.651-3.471c0 1.443.715 2.509 1.937 2.509 1.235 0 1.963-1.066 1.963-2.496 0-1.417-.728-2.47-1.963-2.47-1.222 0-1.937 1.027-1.937 2.457m10.037 3.471c-1.924 0-3.133-1.469-3.133-3.445 0-1.963 1.21-3.445 3.133-3.445 1.625 0 3.055.923 2.899 3.744h-4.849c.091 1.209.65 2.197 1.95 2.197.871 0 1.443-.533 1.638-1.144h1.144c-.182 1.092-1.209 2.093-2.782 2.093m-1.924-4.017h3.705c-.091-1.313-.702-1.924-1.781-1.924-1.183 0-1.768.858-1.924 1.924m8.66 3.848v-5.603h-1.95v-.949h1.651c.182 0 .299-.117.299-.286v-.572c0-1.079.494-1.69 1.625-1.69h2.327v.949h-2.106c-.507 0-.702.247-.702.793v.806h2.717v.949h-2.717V31zm5.994 0v-.975h2.444v-4.602h-2.184v-.975h3.367v5.577h2.431V31zm2.392-7.67V21.9h1.3v1.43zm5.722 7.67v-6.552h1.157v.988c.416-.728 1.261-1.157 2.197-1.157 1.417 0 2.405.897 2.405 2.639V31h-1.144v-4.017c0-1.144-.65-1.742-1.599-1.742-1.027 0-1.859.819-1.859 1.976V31zm10.882.169c-1.924 0-3.133-1.469-3.133-3.445 0-1.963 1.209-3.445 3.133-3.445 1.625 0 3.055.923 2.899 3.744h-4.849c.091 1.209.65 2.197 1.95 2.197.871 0 1.443-.533 1.638-1.144h1.144c-.182 1.092-1.209 2.093-2.782 2.093m-1.924-4.017h3.705c-.091-1.313-.702-1.924-1.781-1.924-1.183 0-1.768.858-1.924 1.924m9.752 4.017c-2.158 0-3.419-1.612-3.419-4.719s1.274-4.719 3.419-4.719c1.846 0 3.016 1.183 3.224 3.276h-1.235c-.169-1.3-.754-2.249-1.989-2.249-1.521 0-2.184 1.3-2.184 3.692s.663 3.692 2.184 3.692c1.313 0 1.846-1.066 1.989-2.288h1.235c-.26 2.275-1.482 3.315-3.224 3.315m7.931 0c-1.989 0-3.159-1.482-3.159-3.445 0-1.95 1.17-3.445 3.159-3.445s3.159 1.495 3.159 3.445c0 1.963-1.17 3.445-3.159 3.445m-1.976-3.458c0 1.274.546 2.496 1.976 2.496s1.976-1.222 1.976-2.496c0-1.261-.546-2.47-1.976-2.47s-1.976 1.209-1.976 2.47M153.519 31v-6.552h1.157v.988c.416-.728 1.261-1.157 2.197-1.157 1.417 0 2.405.897 2.405 2.639V31h-1.144v-4.017c0-1.144-.65-1.742-1.599-1.742-1.027 0-1.859.819-1.859 1.976V31zm9.686 0v-5.603h-1.95v-.949h1.651c.182 0 .299-.117.299-.286v-.572c0-1.079.494-1.69 1.625-1.69h2.327v.949h-2.106c-.507 0-.702.247-.702.793v.806h2.717v.949h-2.717V31zm5.995 0v-.975h2.444v-4.602h-2.184v-.975h3.367v5.577h2.431V31zm2.392-7.67V21.9h1.3v1.43zm8.516 9.958c-1.651 0-2.691-.702-2.86-1.95h1.17c.195.715.715 1.014 1.729 1.014.936 0 1.807-.481 1.807-1.807V29.7c-.494.819-1.274 1.157-2.132 1.157-1.573 0-2.86-1.391-2.86-3.302s1.287-3.276 2.86-3.276c.871 0 1.703.403 2.132 1.144v-.975h1.144v6.084c0 2.028-1.443 2.756-2.99 2.756m-1.976-5.746c0 1.365.767 2.379 1.937 2.379s1.95-1.014 1.95-2.379c0-1.378-.78-2.301-1.95-2.301s-1.937.923-1.937 2.301m17.177 5.616h-1.742v-.91h1.586c.702 0 1.222-.273 1.222-.988v-2.925c0-.78.195-1.3 1.053-1.443-.858-.156-1.053-.663-1.053-1.456v-2.938c0-.715-.52-.975-1.222-.975h-1.586V20.6h1.742c1.274 0 2.21.559 2.21 1.963v2.847c0 .507.247.962 1.209.962v1.027c-.962 0-1.209.455-1.209.962v2.847c0 1.391-.936 1.95-2.21 1.95m111.002-6.682v-1.56h1.508v1.56zm0 4.524v-1.56h1.508v2.08c0 .728-.494 1.118-1.287 1.118h-.195v-.585h.182c.39 0 .559-.234.559-.559V31zM77.766 53.158c-1.274 0-2.21-.559-2.21-1.95v-2.847c0-.507-.247-.962-1.21-.962v-1.027c.963 0 1.21-.455 1.21-.962v-2.847c0-1.404.936-1.963 2.21-1.963h1.742v.923h-1.586c-.702 0-1.222.26-1.222.975v2.938c0 .793-.195 1.3-1.053 1.456.858.143 1.053.663 1.053 1.443v2.925c0 .715.52.988 1.222.988h1.586v.91zM90.066 51v-6.552h1.158v.988c.416-.728 1.26-1.157 2.197-1.157 1.417 0 2.405.897 2.405 2.639V51h-1.144v-4.017c0-1.144-.65-1.742-1.6-1.742-1.026 0-1.858.819-1.858 1.976V51zm7.75 0v-.975h2.444v-4.602h-2.184v-.975h3.367v5.577h2.431V51zm2.392-7.67V41.9h1.3v1.43zm8.998 7.67c-1.118 0-1.651-.455-1.651-1.547v-4.056h-1.95v-.949h1.651c.182 0 .299-.117.299-.286v-1.885h1.144v2.171h2.587v.949h-2.587v3.9c0 .468.195.741.78.741h2.093V51zm5.5 0v-6.552h1.183v1.105a2.13 2.13 0 0 1 1.872-1.105h1.573v1.105h-1.664c-1.04 0-1.781.676-1.781 1.989V51zm9.934.169c-1.989 0-3.159-1.482-3.159-3.445 0-1.95 1.17-3.445 3.159-3.445s3.159 1.495 3.159 3.445c0 1.963-1.17 3.445-3.159 3.445m-1.976-3.458c0 1.274.546 2.496 1.976 2.496s1.976-1.222 1.976-2.496c0-1.261-.546-2.47-1.976-2.47s-1.976 1.209-1.976 2.47m17.124 5.447h-1.742v-.91h1.586c.702 0 1.222-.273 1.222-.988v-2.925c0-.78.195-1.3 1.053-1.443-.858-.156-1.053-.663-1.053-1.456v-2.938c0-.715-.52-.975-1.222-.975h-1.586V40.6h1.742c1.274 0 2.21.559 2.21 1.963v2.847c0 .507.247.962 1.209.962v1.027c-.962 0-1.209.455-1.209.962v2.847c0 1.391-.936 1.95-2.21 1.95m158.591-6.682v-1.56h1.508v1.56zm0 4.524v-1.56h1.508v2.08c0 .728-.494 1.118-1.287 1.118h-.195v-.585h.182c.39 0 .559-.234.559-.559V51zm-61.684 42.158c-1.586-1.989-2.301-3.965-2.301-6.253 0-2.34.715-4.329 2.301-6.305h.936c-1.417 2.275-1.989 4.082-1.989 6.305 0 2.197.559 3.991 1.989 6.253zm7.633 0c-1.274 0-2.21-.559-2.21-1.95v-2.847c0-.507-.247-.962-1.209-.962v-1.027c.962 0 1.209-.455 1.209-.962v-2.847c0-1.404.936-1.963 2.21-1.963h1.742v.923h-1.586c-.702 0-1.222.26-1.222.975v2.938c0 .793-.195 1.3-1.053 1.456.858.143 1.053.663 1.053 1.443v2.925c0 .715.52.988 1.222.988h1.586v.91zm-209.925 20v-8.71h1.144v.988c.533-.78 1.274-1.157 2.197-1.157 1.56 0 2.847 1.404 2.847 3.471 0 2.054-1.287 3.419-2.847 3.419-.923 0-1.729-.39-2.197-1.144v3.133zm1.092-5.421c0 1.417.728 2.47 1.963 2.47 1.222 0 1.937-1.027 1.937-2.457 0-1.443-.715-2.509-1.937-2.509-1.235 0-1.963 1.066-1.963 2.496M42.218 111v-.949h2.535v-7.202h-2.067v-.949h3.224v8.151h2.522V111zm10.596.169c-1.417 0-2.405-.897-2.405-2.639v-4.082h1.157v4.017c0 1.144.637 1.742 1.6 1.742 1.013 0 1.858-.819 1.858-1.976v-3.783h1.144V111h-1.144v-.988c-.429.728-1.26 1.157-2.21 1.157m8.322 2.119c-1.651 0-2.691-.702-2.86-1.95h1.17c.195.715.715 1.014 1.729 1.014.936 0 1.807-.481 1.807-1.807v-.845c-.494.819-1.274 1.157-2.132 1.157-1.573 0-2.86-1.391-2.86-3.302s1.287-3.276 2.86-3.276c.87 0 1.703.403 2.132 1.144v-.975h1.144v6.084c0 2.028-1.443 2.756-2.99 2.756m-1.976-5.746c0 1.365.767 2.379 1.937 2.379s1.95-1.014 1.95-2.379c0-1.378-.78-2.301-1.95-2.301s-1.937.923-1.937 2.301M66.09 111v-.975h2.444v-4.602H66.35v-.975h3.367v5.577h2.431V111zm2.392-7.67v-1.43h1.3v1.43zm5.722 7.67v-6.552h1.157v.988c.416-.728 1.26-1.157 2.197-1.157 1.417 0 2.405.897 2.405 2.639V111h-1.144v-4.017c0-1.144-.65-1.742-1.6-1.742-1.026 0-1.858.819-1.858 1.976V111zm10.908.169c-1.716 0-2.782-.832-2.899-2.223h1.17c.156.871.741 1.287 1.755 1.287.884 0 1.43-.403 1.43-1.027 0-.481-.35-.819-1.027-.936l-1.287-.26c-.936-.182-1.859-.624-1.859-1.82 0-1.092 1.027-1.911 2.561-1.911 1.482 0 2.561.624 2.691 2.054h-1.17c-.117-.728-.663-1.118-1.534-1.118-.832 0-1.39.39-1.39.936 0 .52.454.767.974.871l1.365.26c.923.182 1.86.689 1.86 1.859 0 1.222-1.08 2.028-2.64 2.028M92.16 111v-1.56h1.508V111zm0-4.524v-1.56h1.508v1.56zm14.758 6.682V100.6h4.303v.936h-3.211v10.686h3.211v.936zm-12.99 20c-1.586-1.989-2.301-3.965-2.301-6.253 0-2.34.715-4.329 2.3-6.305h.937c-1.417 2.275-1.99 4.082-1.99 6.305 0 2.197.56 3.991 1.99 6.253zm4.967 0c1.43-2.262 1.989-4.056 1.989-6.253 0-2.223-.572-4.03-1.989-6.305h.936c1.586 1.976 2.301 3.965 2.301 6.305 0 2.288-.715 4.264-2.3 6.253zm-59.643 20h-4.303v-.936h3.211v-10.686h-3.211v-.936h4.303zm5.345-.52v-.585h.182c.39 0 .559-.234.559-.559V151h-.767v-1.56h1.508v2.08c0 .728-.494 1.118-1.287 1.118zm-23.782 20.52h-1.742v-.91h1.586c.702 0 1.222-.273 1.222-.988v-2.925c0-.78.195-1.3 1.053-1.443-.858-.156-1.053-.663-1.053-1.456v-2.938c0-.715-.52-.975-1.222-.975h-1.586v-.923h1.742c1.274 0 2.21.559 2.21 1.963v2.847c0 .507.247.962 1.209.962v1.027c-.962 0-1.209.455-1.209.962v2.847c0 1.391-.936 1.95-2.21 1.95m6.697 0c1.43-2.262 1.988-4.056 1.988-6.253 0-2.223-.572-4.03-1.988-6.305h.936c1.585 1.976 2.3 3.965 2.3 6.305 0 2.288-.715 4.264-2.3 6.253zm9.127-6.682v-1.56h1.508v1.56zm0 4.524v-1.56h1.508v2.08c0 .728-.494 1.118-1.287 1.118h-.195v-.585h.182c.39 0 .559-.234.559-.559V171z"/><path fill="#3db2fb" d="M249.685 25.462V21.9h1.04v3.562zm2.678 0V21.9h1.04v3.562zM258.657 31l-2.639-6.552h1.235l2.145 5.577 2.145-5.577h1.222L260.126 31zm5.721 0v-.975h2.444v-4.602h-2.184v-.975h3.367v5.577h2.431V31zm2.392-7.67V21.9h1.3v1.43zm8.998 7.67c-1.118 0-1.651-.455-1.651-1.547v-4.056h-1.95v-.949h1.651c.182 0 .299-.117.299-.286v-1.885h1.144v2.171h2.587v.949h-2.587v3.9c0 .468.195.741.78.741h2.093V31zm7.606.169c-1.924 0-3.133-1.469-3.133-3.445 0-1.963 1.209-3.445 3.133-3.445 1.625 0 3.055.923 2.899 3.744h-4.849c.091 1.209.65 2.197 1.95 2.197.871 0 1.443-.533 1.638-1.144h1.144c-.182 1.092-1.209 2.093-2.782 2.093m-1.924-4.017h3.705c-.091-1.313-.702-1.924-1.781-1.924-1.183 0-1.768.858-1.924 1.924m9.245 2.795v-2.236h-2.236v-1.014h2.236v-2.236h1.014v2.236h2.236v1.014h-2.236v2.236zm6.579-4.485V21.9h1.04v3.562zm2.678 0V21.9h1.04v3.562zm-105.787 20V41.9h1.04v3.562zm2.678 0V41.9h1.04v3.562zM201.108 51v-6.552h1.157v.988c.416-.728 1.261-1.157 2.197-1.157 1.417 0 2.405.897 2.405 2.639V51h-1.144v-4.017c0-1.144-.65-1.742-1.599-1.742-1.027 0-1.859.819-1.859 1.976V51zm7.75 0v-.975h2.444v-4.602h-2.184v-.975h3.367v5.577h2.431V51zm2.392-7.67V41.9h1.3v1.43zm8.997 7.67c-1.118 0-1.651-.455-1.651-1.547v-4.056h-1.95v-.949h1.651c.182 0 .299-.117.299-.286v-1.885h1.144v2.171h2.587v.949h-2.587v3.9c0 .468.195.741.78.741h2.093V51zm5.501 0v-6.552h1.183v1.105a2.13 2.13 0 0 1 1.872-1.105h1.573v1.105h-1.664c-1.04 0-1.781.676-1.781 1.989V51zm9.933.169c-1.989 0-3.159-1.482-3.159-3.445 0-1.95 1.17-3.445 3.159-3.445s3.159 1.495 3.159 3.445c0 1.963-1.17 3.445-3.159 3.445m-1.976-3.458c0 1.274.546 2.496 1.976 2.496s1.976-1.222 1.976-2.496c0-1.261-.546-2.47-1.976-2.47s-1.976 1.209-1.976 2.47m7.334 4.563 4.004-10.374h1.131l-4.004 10.374zM250.725 51l-2.639-6.552h1.235l2.145 5.577 2.145-5.577h1.222L252.194 51zm5.722 0v-.975h2.444v-4.602h-2.184v-.975h3.367v5.577h2.431V51zm2.392-7.67V41.9h1.3v1.43zm8.997 7.67c-1.118 0-1.651-.455-1.651-1.547v-4.056h-1.95v-.949h1.651c.182 0 .299-.117.299-.286v-1.885h1.144v2.171h2.587v.949h-2.587v3.9c0 .468.195.741.78.741h2.093V51zm7.607.169c-1.924 0-3.133-1.469-3.133-3.445 0-1.963 1.209-3.445 3.133-3.445 1.625 0 3.055.923 2.899 3.744h-4.849c.091 1.209.65 2.197 1.95 2.197.871 0 1.443-.533 1.638-1.144h1.144c-.182 1.092-1.209 2.093-2.782 2.093m-1.924-4.017h3.705c-.091-1.313-.702-1.924-1.781-1.924-1.183 0-1.768.858-1.924 1.924m9.244 2.795v-2.236h-2.236v-1.014h2.236v-2.236h1.014v2.236h2.236v1.014h-2.236v2.236zm6.58-4.485V41.9h1.04v3.562zm2.678 0V41.9h1.04v3.562z"/><path fill="#b988fe" d="M140.152 91.169c-1.573 0-2.847-1.404-2.847-3.471 0-2.054 1.274-3.419 2.847-3.419.923 0 1.716.39 2.184 1.144V81.9h1.157V91h-1.157v-.988c-.52.78-1.261 1.157-2.184 1.157m-1.651-3.471c0 1.443.715 2.509 1.937 2.509 1.235 0 1.963-1.066 1.963-2.496 0-1.417-.728-2.47-1.963-2.47-1.222 0-1.937 1.027-1.937 2.457m10.037 3.471c-1.924 0-3.133-1.469-3.133-3.445 0-1.963 1.209-3.445 3.133-3.445 1.625 0 3.055.923 2.899 3.744h-4.849c.091 1.209.65 2.197 1.95 2.197.871 0 1.443-.533 1.638-1.144h1.144c-.182 1.092-1.209 2.093-2.782 2.093m-1.924-4.017h3.705c-.091-1.313-.702-1.924-1.781-1.924-1.183 0-1.768.858-1.924 1.924m8.66 3.848v-5.603h-1.95v-.949h1.651c.182 0 .299-.117.299-.286v-.572c0-1.079.494-1.69 1.625-1.69h2.327v.949h-2.106c-.507 0-.702.247-.702.793v.806h2.717v.949h-2.717V91zm5.994 0v-.975h2.444v-4.602h-2.184v-.975h3.367v5.577h2.431V91zm2.392-7.67V81.9h1.3v1.43zm5.722 7.67v-6.552h1.157v.988c.416-.728 1.261-1.157 2.197-1.157 1.417 0 2.405.897 2.405 2.639V91h-1.144v-4.017c0-1.144-.65-1.742-1.599-1.742-1.027 0-1.859.819-1.859 1.976V91zm10.882.169c-1.924 0-3.133-1.469-3.133-3.445 0-1.963 1.209-3.445 3.133-3.445 1.625 0 3.055.923 2.899 3.744h-4.849c.091 1.209.65 2.197 1.95 2.197.871 0 1.443-.533 1.638-1.144h1.144c-.182 1.092-1.209 2.093-2.782 2.093m-1.924-4.017h3.705c-.091-1.313-.702-1.924-1.781-1.924-1.183 0-1.768.858-1.924 1.924m9.752 4.017c-2.158 0-3.419-1.612-3.419-4.719s1.274-4.719 3.419-4.719c1.846 0 3.016 1.183 3.224 3.276h-1.235c-.169-1.3-.754-2.249-1.989-2.249-1.521 0-2.184 1.3-2.184 3.692s.663 3.692 2.184 3.692c1.313 0 1.846-1.066 1.989-2.288h1.235c-.26 2.275-1.482 3.315-3.224 3.315m7.932 0c-1.989 0-3.159-1.482-3.159-3.445 0-1.95 1.17-3.445 3.159-3.445s3.159 1.495 3.159 3.445c0 1.963-1.17 3.445-3.159 3.445m-1.976-3.458c0 1.274.546 2.496 1.976 2.496S198 88.985 198 87.711c0-1.261-.546-2.47-1.976-2.47s-1.976 1.209-1.976 2.47m7.06 3.289v-6.552h1.157v.988c.416-.728 1.261-1.157 2.197-1.157 1.417 0 2.405.897 2.405 2.639V91h-1.144v-4.017c0-1.144-.65-1.742-1.599-1.742-1.027 0-1.859.819-1.859 1.976V91zm9.687 0v-5.603h-1.95v-.949h1.651c.182 0 .299-.117.299-.286v-.572c0-1.079.494-1.69 1.625-1.69h2.327v.949h-2.106c-.507 0-.702.247-.702.793v.806h2.717v.949h-2.717V91zm5.994 0v-.975h2.444v-4.602h-2.184v-.975h3.367v5.577h2.431V91zm2.392-7.67V81.9h1.3v1.43zm8.517 9.958c-1.651 0-2.691-.702-2.86-1.95h1.17c.195.715.715 1.014 1.729 1.014.936 0 1.807-.481 1.807-1.807V89.7c-.494.819-1.274 1.157-2.132 1.157-1.573 0-2.86-1.391-2.86-3.302s1.287-3.276 2.86-3.276c.871 0 1.703.403 2.132 1.144v-.975h1.144v6.084c0 2.028-1.443 2.756-2.99 2.756m-1.976-5.746c0 1.365.767 2.379 1.937 2.379s1.95-1.014 1.95-2.379c0-1.378-.78-2.301-1.95-2.301s-1.937.923-1.937 2.301M50.409 131v-6.552h1.157v.988c.416-.728 1.261-1.157 2.197-1.157 1.417 0 2.405.897 2.405 2.639V131h-1.144v-4.017c0-1.144-.65-1.742-1.599-1.742-1.027 0-1.859.819-1.859 1.976V131zm7.75 0v-.975h2.444v-4.602h-2.184v-.975h3.367v5.577h2.43V131zm2.392-7.67v-1.43h1.3v1.43zm8.997 7.67c-1.118 0-1.65-.455-1.65-1.547v-4.056h-1.95v-.949h1.65c.182 0 .3-.117.3-.286v-1.885h1.143v2.171h2.587v.949h-2.587v3.9c0 .468.195.741.78.741h2.093V131zm5.5 0v-6.552h1.184v1.105a2.13 2.13 0 0 1 1.872-1.105h1.573v1.105h-1.664c-1.04 0-1.781.676-1.781 1.989V131zm9.934.169c-1.989 0-3.159-1.482-3.159-3.445 0-1.95 1.17-3.445 3.16-3.445 1.988 0 3.158 1.495 3.158 3.445 0 1.963-1.17 3.445-3.159 3.445m-1.976-3.458c0 1.274.546 2.496 1.976 2.496s1.976-1.222 1.976-2.496c0-1.261-.546-2.47-1.976-2.47s-1.976 1.209-1.976 2.47"/></svg>