<svg xmlns="http://www.w3.org/2000/svg" width="608" height="272" fill="none" viewBox="0 0 608 272"><rect width="674" height="271" y=".5" fill="#08060d" fill-opacity=".3" rx="6"/><rect width="673" height="270" x=".5" y="1" stroke="#fff" stroke-opacity=".2" rx="5.5"/><rect width="666" height="263" x="4" y="4.5" fill="#14121a" rx="4"/><rect width="560" height="40" x="25.5" y="25" fill="#0c0912" rx="3.5"/><rect width="560" height="40" x="25.5" y="25" stroke="#3b3440" rx="3.5"/><path stroke="#f4f3ec" stroke-linecap="round" d="M40.875 40.938h6.25M37.375 48.058c.667.446 1 .67 1 1.005s-.333.558-1 1.004c-.667.447-1 .67-1.25.502-.25-.167-.25-.614-.25-1.507s0-1.339.25-1.506.583.055 1.25.502ZM37.375 39.933c.667.446 1 .67 1 1.005s-.333.558-1 1.004c-.667.447-1 .67-1.25.502-.25-.167-.25-.614-.25-1.507s0-1.339.25-1.506.583.055 1.25.502ZM40.875 45h6.25M40.875 49.063h6.25"/><path fill="#f4f3ec" d="M59.904 49.659c-1.245 0-2.062-.732-2.062-1.818 0-1.428 1.244-1.77 2.245-1.891l1.317-.171c.5-.061.586-.354.586-.634v-.013c0-.597-.403-1.061-1.33-1.061-.89 0-1.415.415-1.513 1.171h-1.086c.135-1.244 1.123-2.05 2.587-2.05 1.635 0 2.415.818 2.415 2.197v2.976c0 .147.11.244.257.244h.378v.891h-.732c-.598 0-.903-.305-.903-.756v-.147c-.537.793-1.39 1.062-2.16 1.062m-.94-1.867c0 .622.476.988 1.22.988 1.086 0 1.806-.805 1.806-2v-.428a2.2 2.2 0 0 1-.622.183l-1.074.159c-.927.146-1.33.476-1.33 1.098m9.42 1.867c-1.793 0-2.965-1.391-2.965-3.233 0-1.83 1.172-3.233 2.977-3.233 1.403 0 2.44.854 2.635 2.269h-1.098c-.17-.866-.768-1.367-1.549-1.367-1.281 0-1.842 1.098-1.842 2.318 0 1.233.561 2.343 1.842 2.343.793 0 1.33-.415 1.55-1.208h1.085c-.232 1.257-1.171 2.11-2.635 2.11m4.284-.159v-6.149h1.037v.525c.244-.44.707-.683 1.207-.683.623 0 .989.378 1.11.732.354-.586.88-.732 1.367-.732.793 0 1.33.597 1.33 1.61V49.5h-1.037v-4.502c0-.585-.207-.866-.586-.866-.475 0-.89.44-.89 1.183V49.5H75.18v-4.502c0-.585-.22-.866-.598-.866-.476 0-.878.44-.878 1.183V49.5zm10.542.159c-1.806 0-2.94-1.379-2.94-3.233 0-1.843 1.134-3.233 2.94-3.233 1.525 0 2.867.866 2.72 3.513h-4.55c.085 1.135.61 2.062 1.83 2.062.817 0 1.354-.5 1.537-1.074h1.074c-.171 1.025-1.135 1.965-2.611 1.965m-1.806-3.77h3.477c-.085-1.232-.659-1.806-1.671-1.806-1.11 0-1.66.805-1.806 1.806M95.742 49.5l-1.135-6.149h1.025l.805 5.075 1.062-3.342h1.013l1.049 3.306.817-5.039h1.025l-1.135 6.149h-1.22l-1.037-3.196-1.049 3.196zm9.798.159c-1.805 0-2.94-1.379-2.94-3.233 0-1.843 1.135-3.233 2.94-3.233 1.525 0 2.867.866 2.721 3.513h-4.551c.086 1.135.61 2.062 1.83 2.062.818 0 1.354-.5 1.537-1.074h1.074c-.171 1.025-1.135 1.965-2.611 1.965m-1.805-3.77h3.477c-.086-1.232-.659-1.806-1.672-1.806-1.11 0-1.659.805-1.805 1.806m9.48 3.77c-.866 0-1.561-.354-2.049-1.086v.927h-1.086v-8.54h1.086v3.306c.439-.707 1.183-1.073 2.049-1.073 1.477 0 2.672 1.28 2.672 3.208 0 1.94-1.195 3.258-2.672 3.258m-2.11-3.246c0 1.342.683 2.343 1.842 2.343 1.147 0 1.818-1 1.818-2.355 0-1.342-.671-2.306-1.818-2.306-1.159 0-1.842.989-1.842 2.318m7.577-.012v-.988h3.294v.988zm6.09 3.099v-6.149h1.037v.525c.244-.44.707-.683 1.207-.683.623 0 .989.378 1.111.732.353-.586.878-.732 1.366-.732.793 0 1.33.597 1.33 1.61V49.5h-1.037v-4.502c0-.585-.208-.866-.586-.866-.476 0-.89.44-.89 1.183V49.5h-1.025v-4.502c0-.585-.22-.866-.598-.866-.476 0-.878.44-.878 1.183V49.5zm10.444.159c-1.866 0-2.964-1.391-2.964-3.233 0-1.83 1.098-3.233 2.964-3.233 1.867 0 2.965 1.403 2.965 3.233 0 1.842-1.098 3.233-2.965 3.233m-1.854-3.246c0 1.196.512 2.343 1.854 2.343s1.855-1.147 1.855-2.343c0-1.183-.513-2.318-1.855-2.318s-1.854 1.135-1.854 2.318m6.626 3.087v-6.149h1.086v.927c.39-.683 1.183-1.085 2.062-1.085 1.329 0 2.257.841 2.257 2.476V49.5h-1.074v-3.77c0-1.073-.61-1.635-1.501-1.635-.963 0-1.744.769-1.744 1.855v3.55zm10.115.159c-1.866 0-2.964-1.391-2.964-3.233 0-1.83 1.098-3.233 2.964-3.233 1.867 0 2.965 1.403 2.965 3.233 0 1.842-1.098 3.233-2.965 3.233m-1.854-3.246c0 1.196.512 2.343 1.854 2.343s1.855-1.147 1.855-2.343c0-1.183-.513-2.318-1.855-2.318s-1.854 1.135-1.854 2.318m7.419 3.087v-6.149h1.11v1.037a2 2 0 0 1 1.757-1.037h1.476v1.037h-1.562c-.976 0-1.671.635-1.671 1.867V49.5zm9.42.159c-1.806 0-2.941-1.379-2.941-3.233 0-1.843 1.135-3.233 2.941-3.233 1.525 0 2.867.866 2.72 3.513h-4.55c.085 1.135.61 2.062 1.83 2.062.817 0 1.354-.5 1.537-1.074h1.073c-.17 1.025-1.134 1.965-2.61 1.965m-1.806-3.77h3.477c-.085-1.232-.659-1.806-1.671-1.806-1.111 0-1.66.805-1.806 1.806m6.345 5.636v-8.174h1.074v.927c.5-.732 1.196-1.085 2.062-1.085 1.464 0 2.672 1.317 2.672 3.257 0 1.928-1.208 3.209-2.672 3.209-.866 0-1.623-.366-2.062-1.074v2.94zm1.025-5.087c0 1.33.683 2.318 1.842 2.318 1.147 0 1.818-.964 1.818-2.306 0-1.354-.671-2.355-1.818-2.355-1.159 0-1.842 1-1.842 2.343m9.225 3.22c-1.867 0-2.965-1.39-2.965-3.232 0-1.83 1.098-3.233 2.965-3.233s2.964 1.403 2.964 3.233c0 1.842-1.098 3.233-2.964 3.233m-1.855-3.245c0 1.196.513 2.343 1.855 2.343s1.854-1.147 1.854-2.343c0-1.183-.512-2.318-1.854-2.318s-1.855 1.135-1.855 2.318"/><path fill="#f4f3ec" fill-opacity=".5" d="m88.14 50.696 3.758-9.736h1.061l-3.758 9.736z"/><path stroke="#3b3440" d="M41.489 121.5v110M41.489 121.5v38.125"/><path stroke="url(#a)" d="M41.489 121.5v38.125"/><path stroke="#3b3440" d="M71.875 182.25v28.736M71.875 182.25V210"/><path stroke="url(#b)" d="M71.875 182.25V210"/><rect width="124" height="32" x="25.5" y="89" fill="#0c0912" rx="5.5"/><rect width="124" height="32" x="25.5" y="89" stroke="#3b3440" rx="5.5"/><rect width="124" height="32" x="25.5" y="89" stroke="#000" stroke-opacity=".2" rx="5.5"/><rect width="124" height="32" x="25.5" y="89" stroke="url(#c)" rx="5.5"/><path stroke="#f4f3ec" stroke-linecap="round" stroke-linejoin="round" d="m40.402 99.466-1.066.493c-1.64.758-2.461 1.137-2.461 1.76 0 .622.82 1.002 2.461 1.76l1.066.492c1.032.478 1.549.717 2.098.717.55 0 1.066-.239 2.098-.717l1.066-.492c1.64-.758 2.461-1.138 2.461-1.76s-.82-1.002-2.461-1.76l-1.066-.493c-1.032-.477-1.549-.716-2.098-.716-.55 0-1.065.239-2.098.716"/><path stroke="#f4f3ec" stroke-linecap="round" stroke-linejoin="round" d="M47.993 104.436a.66.66 0 0 1 .132.396c0 .613-.82.987-2.461 1.735l-1.066.485c-1.032.471-1.549.706-2.098.706-.55 0-1.065-.235-2.098-.706l-1.066-.485c-1.64-.748-2.461-1.122-2.461-1.735 0-.143.044-.272.133-.396"/><path stroke="#f4f3ec" stroke-linecap="round" stroke-linejoin="round" d="M47.735 107.667c.26.206.39.413.39.657 0 .613-.82.987-2.461 1.735l-1.066.485c-1.032.471-1.549.706-2.098.706-.55 0-1.065-.235-2.098-.706l-1.066-.485c-1.64-.748-2.461-1.122-2.461-1.735 0-.244.13-.451.39-.657"/><path fill="#f4f3ec" d="M58.976 111.525v-8.174h1.074v.927c.5-.732 1.195-1.085 2.061-1.085 1.464 0 2.672 1.317 2.672 3.257 0 1.928-1.208 3.209-2.672 3.209-.866 0-1.622-.366-2.061-1.074v2.94zm1.025-5.087c0 1.33.683 2.318 1.842 2.318 1.147 0 1.818-.964 1.818-2.306 0-1.354-.671-2.355-1.818-2.355-1.159 0-1.842 1.001-1.842 2.343m8.346 3.221c-1.244 0-2.062-.732-2.062-1.818 0-1.428 1.245-1.769 2.245-1.891l1.318-.171c.5-.061.585-.354.585-.634v-.013c0-.597-.402-1.061-1.33-1.061-.89 0-1.415.415-1.512 1.171h-1.086c.134-1.244 1.122-2.049 2.586-2.049 1.635 0 2.416.817 2.416 2.196v2.976c0 .147.11.244.256.244h.378v.891h-.732c-.598 0-.903-.305-.903-.756v-.147c-.536.793-1.39 1.062-2.159 1.062m-.94-1.867c0 .622.476.988 1.22.988 1.086 0 1.806-.805 1.806-2.001v-.427a2.1 2.1 0 0 1-.622.183l-1.074.159c-.927.146-1.33.476-1.33 1.098m9.42 1.867c-1.793 0-2.964-1.391-2.964-3.233 0-1.83 1.171-3.233 2.977-3.233 1.403 0 2.44.854 2.635 2.269h-1.098c-.17-.866-.769-1.367-1.55-1.367-1.28 0-1.842 1.098-1.842 2.318 0 1.233.561 2.343 1.843 2.343.793 0 1.33-.415 1.549-1.208h1.086c-.232 1.257-1.171 2.111-2.635 2.111m4.833-.159v-8.54h1.074v5.38l2.806-2.989h1.342l-2.233 2.343 2.647 3.806h-1.305l-2.086-3.001-1.171 1.208v1.793zm9.017.159c-1.244 0-2.062-.732-2.062-1.818 0-1.428 1.245-1.769 2.245-1.891l1.318-.171c.5-.061.585-.354.585-.634v-.013c0-.597-.402-1.061-1.33-1.061-.89 0-1.415.415-1.512 1.171h-1.086c.134-1.244 1.123-2.049 2.587-2.049 1.634 0 2.415.817 2.415 2.196v2.976c0 .147.11.244.256.244h.379v.891h-.732c-.598 0-.903-.305-.903-.756v-.147c-.537.793-1.391 1.062-2.16 1.062m-.94-1.867c0 .622.477.988 1.22.988 1.087 0 1.806-.805 1.806-2.001v-.427a2.1 2.1 0 0 1-.622.183l-1.073.159c-.927.146-1.33.476-1.33 1.098m9.213 3.855c-1.55 0-2.525-.659-2.684-1.83h1.098c.183.671.671.952 1.623.952.878 0 1.696-.452 1.696-1.696v-.793c-.464.769-1.196 1.086-2.001 1.086-1.476 0-2.684-1.306-2.684-3.099s1.208-3.074 2.684-3.074c.817 0 1.598.378 2.001 1.073v-.915h1.073v5.71c0 1.903-1.354 2.586-2.806 2.586m-1.854-5.392c0 1.281.72 2.232 1.818 2.232s1.83-.951 1.83-2.232c0-1.293-.732-2.16-1.83-2.16s-1.818.867-1.818 2.16m9.444 3.404c-1.805 0-2.94-1.379-2.94-3.233 0-1.843 1.135-3.233 2.94-3.233 1.525 0 2.867.866 2.721 3.513h-4.551c.086 1.135.61 2.062 1.83 2.062.818 0 1.354-.5 1.537-1.074h1.074c-.171 1.025-1.135 1.965-2.611 1.965m-1.805-3.77h3.477c-.086-1.232-.659-1.806-1.672-1.806-1.11 0-1.659.805-1.805 1.806m9.273 3.77c-1.61 0-2.611-.781-2.721-2.087h1.098c.147.818.696 1.208 1.647 1.208.83 0 1.342-.378 1.342-.964 0-.451-.329-.768-.963-.878l-1.208-.244c-.879-.171-1.745-.586-1.745-1.708 0-1.025.964-1.793 2.404-1.793 1.39 0 2.403.585 2.525 1.927h-1.098c-.11-.683-.622-1.049-1.44-1.049-.78 0-1.305.366-1.305.878 0 .488.427.72.915.818l1.281.244c.866.171 1.745.646 1.745 1.744 0 1.147-1.013 1.904-2.477 1.904m14.35 0c-1.33 0-2.257-.842-2.257-2.477v-3.831h1.086v3.77c0 1.074.598 1.635 1.5 1.635.952 0 1.745-.769 1.745-1.855v-3.55h1.074v6.149h-1.074v-.927c-.403.683-1.183 1.086-2.074 1.086m5.016-.159v-.915h2.293v-4.319h-2.049v-.915h3.159v5.234h2.282v.915zm2.244-7.198v-1.342h1.22v1.342z"/><path fill="#f4f3ec" fill-opacity=".5" d="m118.914 110.696 3.757-9.736h1.062l-3.758 9.736z"/><path stroke="#3b3440" stroke-dasharray="2 2" d="m150 104.138 137.989 1.724M361.021 92.5v.5h1.856v-.499q.94 0 1.772.008l-.004.5q.946.009 1.756.04l.02-.5c.644.026 1.23.068 1.767.127l-.053.494c.632.07 1.181.166 1.665.299l.131-.483c.619.17 1.151.4 1.616.71l-.276.416a4 4 0 0 1 1.106 1.107l.415-.278c.31.466.54.997.71 1.617l-.481.131c.132.484.229 1.034.298 1.666l.493-.055a25 25 0 0 1 .126 1.767l-.498.021q.032.81.04 1.757l.499-.006q.01.833.008 1.773h-.498v1.138h.5v.5h-.5v1.138h.498q0 .94-.008 1.772l-.499-.005a57 57 0 0 1-.04 1.757l.498.02q-.038.963-.126 1.767l-.493-.053a11 11 0 0 1-.298 1.665l.481.13c-.17.62-.4 1.151-.71 1.617l-.415-.277a4 4 0 0 1-1.106 1.107l.276.415c-.465.31-.997.54-1.616.71l-.131-.482c-.484.133-1.033.23-1.665.299l.053.493a25 25 0 0 1-1.767.126l-.02-.498q-.81.031-1.756.04l.004.499q-.832.008-1.772.008V117h-1.856v.5h-1.938v-.5h-1.937v.5h-1.938v-.5h-1.937v.5h-1.938v-.5h-1.937v.5h-1.938v-.5h-1.937v.5h-1.938v-.5h-1.937v.5h-1.938v-.5h-1.937v.5h-1.938v-.5h-1.937v.5h-1.938v-.5h-1.937v.5h-1.938v-.5h-1.937v.5h-1.938v-.5h-1.937v.5h-1.938v-.5h-1.937v.5h-1.938v-.5h-1.937v.5h-1.938v-.5h-1.937v.5h-1.938v-.5h-1.937v.5h-1.938v-.5h-1.937v.5h-1.938v-.5h-1.856v.498q-.941 0-1.774-.008l.006-.499a60 60 0 0 1-1.757-.04l-.02.498a25 25 0 0 1-1.768-.126l.055-.493a10.7 10.7 0 0 1-1.665-.299l-.132.482c-.62-.17-1.151-.4-1.616-.71l.277-.415a4 4 0 0 1-.607-.499l-.138-.144a4 4 0 0 1-.361-.464l-.416.277c-.31-.466-.54-.997-.71-1.617l.482-.13a11 11 0 0 1-.299-1.665l-.494.053q-.088-.804-.126-1.767l.499-.02a64 64 0 0 1-.04-1.757l-.5.005q-.007-.832-.007-1.772h.498v-1.138h-.5v-.5h.5v-1.138h-.498q0-.94.007-1.773l.5.006q.01-.947.04-1.757l-.499-.021q.038-.963.126-1.767l.494.055c.069-.632.166-1.182.299-1.666l-.482-.131c.17-.62.4-1.151.71-1.617l.416.278q.162-.245.361-.464l.138-.144q.281-.281.607-.499l-.277-.416c.465-.31.997-.54 1.616-.71l.132.483c.483-.133 1.033-.23 1.665-.3l-.055-.493q.804-.088 1.768-.126l.02.499a62 62 0 0 1 1.757-.04l-.006-.5q.833-.008 1.774-.008V93h1.856v-.5h1.938v.5h1.937v-.5h1.938v.5h1.937v-.5h1.938v.5h1.937v-.5h1.938v.5h1.937v-.5h1.938v.5h1.937v-.5h1.938v.5h1.937v-.5h1.938v.5h1.937v-.5h1.938v.5h1.937v-.5h1.938v.5h1.937v-.5h1.938v.5h1.937v-.5h1.938v.5h1.937v-.5h1.938v.5h1.937v-.5h1.938v.5h1.937v-.5h1.938v.5h1.937v-.5h1.938v.5h1.937v-.5z"/><g clip-path="url(#d)"><path fill="#14121a" d="M310.989 97.5v15h-15v-15z"/><path stroke="#59f7d2" d="M297.948 105c0-2.612 0-3.918.811-4.73.812-.811 2.118-.811 4.73-.811s3.919 0 4.73.811c.812.812.812 2.118.812 4.73s0 3.919-.812 4.73c-.811.812-2.117.812-4.73.812-2.612 0-3.918 0-4.73-.812-.811-.811-.811-2.117-.811-4.73Z"/><path stroke="#59f7d2" stroke-linecap="round" stroke-linejoin="round" d="m301.156 105.292 1.458 1.458 3.209-3.5"/></g><path fill="#f4f3ec" d="M320.356 109.659c-1.793 0-2.952-1.391-2.952-3.233 0-1.83 1.159-3.233 2.965-3.233 1.415 0 2.44.854 2.635 2.257h-1.086c-.171-.854-.769-1.367-1.562-1.367-1.281 0-1.842 1.11-1.842 2.33 0 1.233.561 2.355 1.842 2.355.806 0 1.342-.415 1.562-1.22h1.074c-.232 1.257-1.172 2.111-2.636 2.111m5.592 0c-1.256 0-2.062-.732-2.062-1.818 0-1.44 1.233-1.757 2.233-1.891l1.33-.171c.488-.073.585-.354.585-.634 0-.598-.402-1.086-1.329-1.086-.915 0-1.44.427-1.538 1.183h-1.073c.134-1.232 1.122-2.049 2.586-2.049 1.635 0 2.416.817 2.416 2.196v2.989c0 .134.11.231.256.231h.378v.891h-.732c-.585 0-.903-.305-.903-.756v-.147c-.536.793-1.39 1.062-2.147 1.062m-.951-1.867c0 .634.475 1 1.22 1 1.098 0 1.817-.805 1.817-2.013v-.439c-.207.11-.414.147-.622.183l-1.086.171c-.927.146-1.329.476-1.329 1.098m8.322 1.867c-1.793 0-2.952-1.391-2.952-3.233 0-1.83 1.159-3.233 2.964-3.233 1.415 0 2.44.854 2.635 2.257h-1.085c-.171-.854-.769-1.367-1.562-1.367-1.281 0-1.842 1.11-1.842 2.33 0 1.233.561 2.355 1.842 2.355.805 0 1.342-.415 1.562-1.22h1.073c-.232 1.257-1.171 2.111-2.635 2.111m3.884-.159v-8.54h1.073v3.318c.391-.671 1.111-1.085 2.013-1.085 1.257 0 2.184.829 2.184 2.476v3.831H341.4v-3.77c0-1.073-.598-1.635-1.44-1.635-.915 0-1.684.769-1.684 1.867v3.538zm9.352.159c-1.805 0-2.94-1.379-2.94-3.233 0-1.843 1.135-3.233 2.94-3.233 1.525 0 2.867.866 2.721 3.513h-4.551c.073 1.123.598 2.062 1.83 2.062.818 0 1.354-.415 1.574-1.196h1.074c-.232 1.22-1.172 2.087-2.648 2.087m-1.805-3.77h3.477c-.074-1.232-.647-1.818-1.672-1.818-1.122 0-1.671.805-1.805 1.818m8.406 3.611v-8.54h1.073v3.318c.391-.671 1.11-1.085 2.013-1.085 1.257 0 2.184.829 2.184 2.476v3.831h-1.074v-3.77c0-1.073-.597-1.635-1.439-1.635-.915 0-1.684.769-1.684 1.867v3.538zm6.815 0v-6.149h1.073v6.149zm-.061-7.198v-1.342h1.207v1.342zm4.534 7.198c-.939 0-1.378-.403-1.378-1.44v-3.83h-.976v-.879h.695c.171 0 .281-.11.281-.268v-1.769h1.061v2.037h1.354v.879h-1.354v3.672c0 .524.147.707.635.707h.866v.891z"/><rect width="147" height="32" x="55.5" y="150" fill="#0c0912" rx="5.5"/><rect width="147" height="32" x="55.5" y="150" stroke="#3b3440" rx="5.5"/><rect width="147" height="32" x="55.5" y="150" stroke="#000" stroke-opacity=".2" rx="5.5"/><rect width="147" height="32" x="55.5" y="150" stroke="url(#e)" rx="5.5"/><path stroke="#f4f3ec" stroke-linecap="round" stroke-linejoin="round" d="m70.402 160.466-1.066.493c-1.64.758-2.461 1.137-2.461 1.76 0 .622.82 1.002 2.461 1.76l1.066.492c1.032.478 1.549.717 2.098.717.55 0 1.066-.239 2.098-.717l1.066-.492c1.64-.758 2.461-1.138 2.461-1.76s-.82-1.002-2.461-1.76l-1.066-.493c-1.032-.477-1.549-.716-2.098-.716-.55 0-1.065.239-2.098.716"/><path stroke="#f4f3ec" stroke-linecap="round" stroke-linejoin="round" d="M77.993 165.436a.66.66 0 0 1 .132.396c0 .613-.82.987-2.461 1.735l-1.066.485c-1.032.471-1.549.706-2.098.706-.55 0-1.065-.235-2.098-.706l-1.066-.485c-1.64-.748-2.461-1.122-2.461-1.735 0-.143.044-.272.132-.396"/><path stroke="#f4f3ec" stroke-linecap="round" stroke-linejoin="round" d="M77.735 168.667c.26.206.39.413.39.657 0 .613-.82.987-2.461 1.735l-1.066.485c-1.032.471-1.549.706-2.098.706-.55 0-1.065-.235-2.098-.706l-1.066-.485c-1.64-.748-2.461-1.122-2.461-1.735 0-.244.13-.451.39-.657"/><path fill="#f4f3ec" d="M88.976 172.525v-8.174h1.074v.927c.5-.732 1.195-1.085 2.061-1.085 1.464 0 2.672 1.317 2.672 3.257 0 1.928-1.208 3.209-2.672 3.209-.866 0-1.622-.366-2.061-1.074v2.94zm1.025-5.087c0 1.33.683 2.318 1.842 2.318 1.147 0 1.818-.964 1.818-2.306 0-1.354-.671-2.355-1.818-2.355-1.159 0-1.842 1.001-1.842 2.343m8.346 3.221c-1.244 0-2.062-.732-2.062-1.818 0-1.428 1.245-1.769 2.245-1.891l1.318-.171c.5-.061.585-.354.585-.634v-.013c0-.597-.402-1.061-1.33-1.061-.89 0-1.415.415-1.512 1.171h-1.086c.134-1.244 1.122-2.049 2.586-2.049 1.635 0 2.416.817 2.416 2.196v2.976c0 .147.11.244.256.244h.378v.891h-.732c-.598 0-.903-.305-.903-.756v-.147c-.536.793-1.39 1.062-2.159 1.062m-.94-1.867c0 .622.476.988 1.22.988 1.086 0 1.806-.805 1.806-2.001v-.427a2.1 2.1 0 0 1-.622.183l-1.074.159c-.927.146-1.33.476-1.33 1.098m9.42 1.867c-1.793 0-2.964-1.391-2.964-3.233 0-1.83 1.171-3.233 2.977-3.233 1.403 0 2.44.854 2.635 2.269h-1.098c-.171-.866-.769-1.367-1.55-1.367-1.281 0-1.842 1.098-1.842 2.318 0 1.233.561 2.343 1.842 2.343.793 0 1.33-.415 1.55-1.208h1.086c-.232 1.257-1.172 2.111-2.636 2.111m4.833-.159v-8.54h1.074v5.38l2.806-2.989h1.342l-2.233 2.343 2.647 3.806h-1.305l-2.086-3.001-1.171 1.208v1.793zm9.017.159c-1.244 0-2.061-.732-2.061-1.818 0-1.428 1.244-1.769 2.244-1.891l1.318-.171c.5-.061.586-.354.586-.634v-.013c0-.597-.403-1.061-1.33-1.061-.891 0-1.415.415-1.513 1.171h-1.086c.134-1.244 1.123-2.049 2.587-2.049 1.634 0 2.415.817 2.415 2.196v2.976c0 .147.11.244.256.244h.379v.891h-.732c-.598 0-.903-.305-.903-.756v-.147c-.537.793-1.391 1.062-2.16 1.062m-.939-1.867c0 .622.476.988 1.22.988 1.086 0 1.806-.805 1.806-2.001v-.427a2.1 2.1 0 0 1-.623.183l-1.073.159c-.927.146-1.33.476-1.33 1.098m9.212 3.855c-1.549 0-2.525-.659-2.684-1.83h1.098c.183.671.671.952 1.623.952.878 0 1.696-.452 1.696-1.696v-.793c-.464.769-1.196 1.086-2.001 1.086-1.476 0-2.684-1.306-2.684-3.099s1.208-3.074 2.684-3.074c.817 0 1.598.378 2.001 1.073v-.915h1.073v5.71c0 1.903-1.354 2.586-2.806 2.586m-1.854-5.392c0 1.281.72 2.232 1.818 2.232s1.83-.951 1.83-2.232c0-1.293-.732-2.16-1.83-2.16s-1.818.867-1.818 2.16m9.444 3.404c-1.805 0-2.94-1.379-2.94-3.233 0-1.843 1.135-3.233 2.94-3.233 1.525 0 2.867.866 2.721 3.513h-4.551c.086 1.135.61 2.062 1.83 2.062.818 0 1.354-.5 1.537-1.074h1.074c-.171 1.025-1.135 1.965-2.611 1.965m-1.805-3.77h3.477c-.086-1.232-.659-1.806-1.672-1.806-1.11 0-1.659.805-1.805 1.806m9.273 3.77c-1.61 0-2.611-.781-2.721-2.087h1.098c.147.818.696 1.208 1.647 1.208.83 0 1.342-.378 1.342-.964 0-.451-.329-.768-.963-.878l-1.208-.244c-.879-.171-1.745-.586-1.745-1.708 0-1.025.964-1.793 2.404-1.793 1.39 0 2.403.585 2.525 1.927h-1.098c-.11-.683-.622-1.049-1.44-1.049-.78 0-1.305.366-1.305.878 0 .488.427.72.915.818l1.281.244c.866.171 1.745.646 1.745 1.744 0 1.147-1.013 1.904-2.477 1.904m14.35 0c-1.33 0-2.257-.842-2.257-2.477v-3.831h1.086v3.77c0 1.074.598 1.635 1.5 1.635.952 0 1.745-.769 1.745-1.855v-3.55h1.074v6.149h-1.074v-.927c-.403.683-1.183 1.086-2.074 1.086m8.261-.159c-1.049 0-1.55-.427-1.55-1.452v-3.806h-1.83v-.891h1.55c.171 0 .28-.11.28-.268v-1.769h1.074v2.037h2.428v.891h-2.428v3.66c0 .439.183.695.732.695h1.964v.903zm4.198 0v-.915h2.294v-4.319h-2.05v-.915h3.16v5.234h2.281v.915zm2.245-7.198v-1.342h1.22v1.342zm5.125 7.198v-.891h2.379v-6.758h-1.939v-.891h3.025v7.649h2.367v.891zm10.482.159c-1.611 0-2.611-.781-2.721-2.087h1.098c.146.818.695 1.208 1.647 1.208.83 0 1.342-.378 1.342-.964 0-.451-.329-.768-.964-.878l-1.208-.244c-.878-.171-1.744-.586-1.744-1.708 0-1.025.964-1.793 2.403-1.793 1.391 0 2.404.585 2.526 1.927h-1.098c-.11-.683-.623-1.049-1.44-1.049-.781 0-1.305.366-1.305.878 0 .488.427.72.915.818l1.281.244c.866.171 1.744.646 1.744 1.744 0 1.147-1.012 1.904-2.476 1.904"/><path fill="#f4f3ec" fill-opacity=".5" d="m148.914 171.696 3.757-9.736h1.062l-3.758 9.736z"/><path stroke="#3b3440" stroke-dasharray="2 2" d="m203 165.469 84.993 1.062M361.025 153.5v.5h1.856v-.499q.94 0 1.773.008l-.005.5a60 60 0 0 1 1.757.04l.019-.499c.644.025 1.23.067 1.768.126l-.054.494c.632.069 1.182.166 1.665.299l.131-.483c.619.17 1.151.4 1.616.71l-.276.416a4 4 0 0 1 1.106 1.107l.415-.278c.31.466.54.997.71 1.617l-.481.131c.132.484.229 1.034.298 1.665l.494-.054q.088.804.126 1.767l-.498.021q.03.81.04 1.757l.499-.006q.008.832.007 1.773h-.498v1.138h.5v.5h-.5v1.138h.498q.001.94-.007 1.772l-.499-.005a64 64 0 0 1-.04 1.757l.498.02q-.038.963-.126 1.767l-.494-.053a11 11 0 0 1-.298 1.665l.481.13c-.17.62-.4 1.151-.71 1.617l-.415-.277a4 4 0 0 1-1.106 1.107l.276.415c-.465.31-.997.54-1.616.71l-.131-.482c-.483.133-1.033.23-1.665.299l.054.493c-.538.059-1.124.101-1.768.126l-.019-.498a60 60 0 0 1-1.757.04l.005.499q-.833.008-1.773.008V178h-1.856v.5h-1.938v-.5h-1.937v.5h-1.938v-.5h-1.937v.5h-1.938v-.5H349.4v.5h-1.938v-.5h-1.937v.5h-1.938v-.5h-1.937v.5h-1.938v-.5h-1.937v.5h-1.938v-.5H333.9v.5h-1.938v-.5h-1.937v.5h-1.938v-.5h-1.937v.5h-1.938v-.5h-1.937v.5h-1.938v-.5H318.4v.5h-1.938v-.5h-1.937v.5h-1.938v-.5h-1.937v.5h-1.938v-.5h-1.937v.5h-1.938v-.5H302.9v.5h-1.938v-.5h-1.856v.498q-.941 0-1.774-.008l.006-.499a60 60 0 0 1-1.757-.04l-.02.498a25 25 0 0 1-1.768-.126l.055-.493a10.7 10.7 0 0 1-1.665-.299l-.132.482c-.619-.17-1.151-.4-1.616-.71l.277-.415a4 4 0 0 1-.607-.499l-.138-.144a4 4 0 0 1-.361-.464l-.416.277c-.31-.466-.54-.997-.71-1.617l.482-.13a11 11 0 0 1-.299-1.665l-.494.053q-.088-.804-.126-1.767l.499-.02a64 64 0 0 1-.04-1.757l-.5.005q-.007-.832-.007-1.772h.498v-1.138h-.5v-.5h.5v-1.138h-.498q0-.94.007-1.773l.5.006q.01-.947.04-1.757l-.499-.021q.038-.963.126-1.767l.494.054c.07-.631.166-1.181.299-1.665l-.482-.131c.17-.62.4-1.151.71-1.617l.416.278q.163-.245.361-.464l.138-.144q.281-.281.607-.499l-.277-.416c.465-.31.997-.54 1.616-.71l.132.483c.483-.133 1.033-.23 1.665-.299l-.055-.494a25 25 0 0 1 1.768-.126l.02.499a60 60 0 0 1 1.757-.04l-.006-.5q.833-.008 1.774-.008V154h1.856v-.5h1.938v.5h1.937v-.5h1.938v.5h1.937v-.5h1.938v.5h1.937v-.5h1.938v.5h1.937v-.5h1.938v.5h1.937v-.5h1.938v.5h1.937v-.5h1.938v.5h1.937v-.5h1.938v.5h1.937v-.5h1.938v.5h1.937v-.5h1.938v.5h1.937v-.5h1.938v.5h1.937v-.5h1.938v.5h1.937v-.5h1.938v.5h1.937v-.5h1.938v.5h1.937v-.5h1.938v.5h1.937v-.5z"/><g clip-path="url(#f)"><path fill="#14121a" d="M310.993 158.5v15h-15v-15z"/><path stroke="#59f7d2" d="M297.952 166c0-2.612 0-3.918.811-4.73.812-.812 2.118-.812 4.73-.812s3.919 0 4.73.812.812 2.118.812 4.73 0 3.919-.812 4.73c-.811.812-2.117.812-4.73.812-2.612 0-3.918 0-4.73-.812-.811-.811-.811-2.117-.811-4.73Z"/><path stroke="#59f7d2" stroke-linecap="round" stroke-linejoin="round" d="m301.16 166.292 1.458 1.458 3.209-3.5"/></g><path fill="#f4f3ec" d="M320.361 170.659c-1.794 0-2.953-1.391-2.953-3.233 0-1.83 1.159-3.233 2.965-3.233 1.415 0 2.44.854 2.635 2.257h-1.086c-.171-.854-.768-1.367-1.561-1.367-1.281 0-1.843 1.11-1.843 2.33 0 1.233.562 2.355 1.843 2.355.805 0 1.342-.415 1.561-1.22h1.074c-.232 1.257-1.171 2.111-2.635 2.111m5.591 0c-1.256 0-2.061-.732-2.061-1.818 0-1.44 1.232-1.757 2.232-1.891l1.33-.171c.488-.073.586-.354.586-.634 0-.598-.403-1.086-1.33-1.086-.915 0-1.44.427-1.537 1.183h-1.074c.134-1.232 1.122-2.049 2.586-2.049 1.635 0 2.416.817 2.416 2.196v2.989c0 .134.11.231.256.231h.378v.891h-.732c-.585 0-.902-.305-.902-.756v-.147c-.537.793-1.391 1.062-2.148 1.062m-.951-1.867c0 .634.476 1 1.22 1 1.098 0 1.818-.805 1.818-2.013v-.439c-.208.11-.415.147-.623.183l-1.085.171c-.928.146-1.33.476-1.33 1.098m8.322 1.867c-1.793 0-2.952-1.391-2.952-3.233 0-1.83 1.159-3.233 2.964-3.233 1.416 0 2.44.854 2.636 2.257h-1.086c-.171-.854-.769-1.367-1.562-1.367-1.281 0-1.842 1.11-1.842 2.33 0 1.233.561 2.355 1.842 2.355.805 0 1.342-.415 1.562-1.22h1.073c-.231 1.257-1.171 2.111-2.635 2.111m3.884-.159v-8.54h1.074v3.318c.39-.671 1.11-1.085 2.013-1.085 1.256 0 2.183.829 2.183 2.476v3.831h-1.073v-3.77c0-1.073-.598-1.635-1.44-1.635-.915 0-1.683.769-1.683 1.867v3.538zm9.352.159c-1.805 0-2.94-1.379-2.94-3.233 0-1.843 1.135-3.233 2.94-3.233 1.525 0 2.867.866 2.721 3.513h-4.551c.074 1.123.598 2.062 1.83 2.062.818 0 1.355-.415 1.574-1.196h1.074c-.232 1.22-1.171 2.087-2.648 2.087m-1.805-3.77h3.477c-.073-1.232-.647-1.818-1.672-1.818-1.122 0-1.671.805-1.805 1.818m8.406 3.611v-8.54h1.073v3.318c.391-.671 1.111-1.085 2.013-1.085 1.257 0 2.184.829 2.184 2.476v3.831h-1.073v-3.77c0-1.073-.598-1.635-1.44-1.635-.915 0-1.684.769-1.684 1.867v3.538zm6.815 0v-6.149h1.073v6.149zm-.061-7.198v-1.342h1.207v1.342zm4.534 7.198c-.939 0-1.378-.403-1.378-1.44v-3.83h-.976v-.879h.695c.171 0 .281-.11.281-.268v-1.769h1.061v2.037h1.354v.879h-1.354v3.672c0 .524.147.707.635.707h.866v.891z"/><rect width="147" height="32" x="24.5" y="210.5" fill="#0c0912" rx="5.5"/><rect width="147" height="32" x="24.5" y="210.5" stroke="#3b3440" rx="5.5"/><rect width="147" height="32" x="24.5" y="210.5" stroke="#000" stroke-opacity=".2" rx="5.5"/><rect width="147" height="32" x="24.5" y="210.5" stroke="url(#g)" rx="5.5"/><path stroke="#f4f3ec" stroke-width=".75" d="m42.125 225.875 3.125-3.125"/><path stroke="#f4f3ec" stroke-linejoin="round" stroke-width=".75" d="m45.875 223.375-1.25-1.25 1.563-.937.624.624zM36.516 224.609a2.19 2.19 0 0 1-.494-2.337l.889.889h1.25v-1.25l-.889-.889a2.188 2.188 0 0 1 2.83 2.832l4.044 4.043a2.189 2.189 0 0 1 2.832 2.831l-.889-.889h-1.25v1.25l.889.889a2.188 2.188 0 0 1-2.831-2.83l-4.045-4.045a2.19 2.19 0 0 1-2.336-.494Z"/><path stroke="#f4f3ec" stroke-linejoin="round" stroke-width=".75" d="m41.627 228.062-3.503 3.503a.845.845 0 0 1-1.194 0l-.495-.495a.844.844 0 0 1 0-1.194l3.502-3.503"/><path fill="#f4f3ec" d="M59.904 231.159c-1.245 0-2.062-.732-2.062-1.818 0-1.428 1.244-1.769 2.245-1.891l1.317-.171c.5-.061.586-.354.586-.634v-.013c0-.597-.403-1.061-1.33-1.061-.89 0-1.415.415-1.513 1.171h-1.086c.135-1.244 1.123-2.049 2.587-2.049 1.635 0 2.415.817 2.415 2.196v2.976c0 .147.11.244.257.244h.378V231h-.732c-.598 0-.903-.305-.903-.756v-.147c-.537.793-1.39 1.062-2.16 1.062m-.94-1.867c0 .622.476.988 1.22.988 1.086 0 1.806-.805 1.806-2.001v-.427a2.1 2.1 0 0 1-.622.183l-1.074.159c-.927.146-1.33.476-1.33 1.098m6.455 3.733v-8.174h1.074v.927c.5-.732 1.196-1.085 2.062-1.085 1.464 0 2.672 1.317 2.672 3.257 0 1.928-1.208 3.209-2.672 3.209-.866 0-1.623-.366-2.062-1.074v2.94zm1.025-5.087c0 1.33.683 2.318 1.842 2.318 1.147 0 1.818-.964 1.818-2.306 0-1.354-.67-2.355-1.818-2.355-1.159 0-1.842 1.001-1.842 2.343m6.419 5.087v-8.174h1.073v.927c.5-.732 1.196-1.085 2.062-1.085 1.464 0 2.672 1.317 2.672 3.257 0 1.928-1.208 3.209-2.672 3.209-.866 0-1.622-.366-2.062-1.074v2.94zm1.025-5.087c0 1.33.683 2.318 1.842 2.318 1.147 0 1.818-.964 1.818-2.306 0-1.354-.671-2.355-1.818-2.355-1.16 0-1.842 1.001-1.842 2.343m9.346 3.221c-1.61 0-2.61-.781-2.72-2.087h1.098c.146.818.695 1.208 1.647 1.208.83 0 1.342-.378 1.342-.964 0-.451-.33-.768-.964-.878l-1.208-.244c-.878-.171-1.745-.586-1.745-1.708 0-1.025.964-1.793 2.404-1.793 1.39 0 2.403.585 2.525 1.927h-1.098c-.11-.683-.622-1.049-1.44-1.049-.78 0-1.305.366-1.305.878 0 .488.427.72.915.818l1.281.244c.867.171 1.745.646 1.745 1.744 0 1.147-1.013 1.904-2.477 1.904"/><path fill="#f4f3ec" fill-opacity=".5" d="m88.14 232.196 3.758-9.736h1.061l-3.758 9.736zm9.53-1.037c-1.477 0-2.672-1.318-2.672-3.258 0-1.927 1.195-3.208 2.672-3.208.866 0 1.61.366 2.05 1.073v-3.306h1.085V231h-1.086v-.927c-.488.732-1.183 1.086-2.05 1.086m-1.55-3.258c0 1.354.671 2.355 1.818 2.355 1.16 0 1.842-1.001 1.842-2.343 0-1.329-.683-2.318-1.842-2.318-1.147 0-1.818.964-1.818 2.306m8.444 3.258c-1.244 0-2.062-.732-2.062-1.818 0-1.428 1.245-1.769 2.245-1.891l1.318-.171c.5-.061.585-.354.585-.634v-.013c0-.597-.402-1.061-1.329-1.061-.891 0-1.416.415-1.513 1.171h-1.086c.134-1.244 1.122-2.049 2.586-2.049 1.635 0 2.416.817 2.416 2.196v2.976c0 .147.11.244.256.244h.378V231h-.732c-.597 0-.902-.305-.902-.756v-.147c-.537.793-1.391 1.062-2.16 1.062m-.939-1.867c0 .622.476.988 1.22.988 1.086 0 1.805-.805 1.805-2.001v-.427a2.1 2.1 0 0 1-.622.183l-1.073.159c-.928.146-1.33.476-1.33 1.098m9.383 1.867c-1.61 0-2.611-.781-2.721-2.087h1.098c.147.818.696 1.208 1.647 1.208.83 0 1.342-.378 1.342-.964 0-.451-.329-.768-.963-.878l-1.208-.244c-.879-.171-1.745-.586-1.745-1.708 0-1.025.964-1.793 2.404-1.793 1.39 0 2.403.585 2.525 1.927h-1.098c-.11-.683-.622-1.049-1.44-1.049-.78 0-1.305.366-1.305.878 0 .488.427.72.915.818l1.281.244c.866.171 1.745.646 1.745 1.744 0 1.147-1.013 1.904-2.477 1.904m4.65-.159v-8.54h1.085v3.318c.391-.683 1.184-1.085 2.062-1.085 1.33 0 2.257.841 2.257 2.476V231h-1.073v-3.77c0-1.073-.61-1.635-1.501-1.635-.964 0-1.745.769-1.745 1.855V231zm10.444.159c-.866 0-1.561-.354-2.049-1.086V231h-1.086v-8.54h1.086v3.306c.439-.707 1.183-1.073 2.049-1.073 1.476 0 2.672 1.281 2.672 3.208 0 1.94-1.196 3.258-2.672 3.258m-2.11-3.246c0 1.342.683 2.343 1.842 2.343 1.147 0 1.818-1.001 1.818-2.355 0-1.342-.671-2.306-1.818-2.306-1.159 0-1.842.989-1.842 2.318m9.224 3.246c-1.866 0-2.964-1.391-2.964-3.233 0-1.83 1.098-3.233 2.964-3.233 1.867 0 2.965 1.403 2.965 3.233 0 1.842-1.098 3.233-2.965 3.233m-1.854-3.246c0 1.196.512 2.343 1.854 2.343s1.855-1.147 1.855-2.343c0-1.183-.513-2.318-1.855-2.318s-1.854 1.135-1.854 2.318m8.419 3.246c-1.244 0-2.061-.732-2.061-1.818 0-1.428 1.244-1.769 2.244-1.891l1.318-.171c.5-.061.586-.354.586-.634v-.013c0-.597-.403-1.061-1.33-1.061-.891 0-1.415.415-1.513 1.171h-1.086c.134-1.244 1.123-2.049 2.587-2.049 1.634 0 2.415.817 2.415 2.196v2.976c0 .147.11.244.256.244h.379V231h-.732c-.598 0-.903-.305-.903-.756v-.147c-.537.793-1.391 1.062-2.16 1.062m-.939-1.867c0 .622.476.988 1.22.988 1.086 0 1.806-.805 1.806-2.001v-.427a2.1 2.1 0 0 1-.623.183l-1.073.159c-.927.146-1.33.476-1.33 1.098m7.382 1.708v-6.149h1.111v1.037a2 2 0 0 1 1.756-1.037h1.477v1.037h-1.562c-.976 0-1.671.635-1.671 1.867V231zm8.993.159c-1.476 0-2.672-1.318-2.672-3.258 0-1.927 1.196-3.208 2.672-3.208.866 0 1.611.366 2.05 1.073v-3.306h1.086V231h-1.086v-.927c-.488.732-1.184 1.086-2.05 1.086m-1.549-3.258c0 1.354.671 2.355 1.818 2.355 1.159 0 1.842-1.001 1.842-2.343 0-1.329-.683-2.318-1.842-2.318-1.147 0-1.818.964-1.818 2.306"/><path stroke="#3b3440" stroke-dasharray="2 2" d="M172 226.5h117M356 214v.5h1.888v-.499q.94 0 1.772.008l-.005.5q.947.009 1.757.04l.02-.499q.963.038 1.767.126l-.053.494a11 11 0 0 1 1.665.299l.13-.483c.62.17 1.151.4 1.617.71l-.277.416a4.1 4.1 0 0 1 1.107 1.107l.415-.278c.31.466.54.997.71 1.617l-.482.131a11 11 0 0 1 .299 1.665l.493-.054q.089.804.126 1.767l-.498.021q.031.81.04 1.757l.499-.006q.008.832.008 1.773h-.498v1.138h.5v.5h-.5v1.138h.498q0 .94-.008 1.772l-.499-.005a60 60 0 0 1-.04 1.757l.498.02q-.038.963-.126 1.767l-.493-.053a11 11 0 0 1-.299 1.665l.482.13c-.17.62-.4 1.151-.71 1.617l-.415-.277a4.1 4.1 0 0 1-1.107 1.107l.277.415c-.466.31-.997.54-1.617.71l-.13-.482a11 11 0 0 1-1.665.299l.053.493q-.804.088-1.767.126l-.02-.498q-.81.031-1.757.04l.005.499q-.832.008-1.772.008v-.498H356v.5h-2v-.5h-2v.5h-2v-.5h-2v.5h-2v-.5h-2v.5h-2v-.5h-2v.5h-2v-.5h-2v.5h-2v-.5h-2v.5h-2v-.5h-2v.5h-2v-.5h-2v.5h-2v-.5h-2v.5h-2v-.5h-2v.5h-2v-.5h-2v.5h-2v-.5h-2v.5h-2v-.5h-2v.5h-2v-.5h-1.888v.498q-.94 0-1.773-.008l.006-.499a60 60 0 0 1-1.757-.04l-.021.498a25 25 0 0 1-1.767-.126l.054-.493a11 11 0 0 1-1.665-.299l-.131.482c-.62-.17-1.151-.4-1.617-.71l.278-.415a4 4 0 0 1-.608-.499l-.137-.144a4 4 0 0 1-.362-.464l-.416.277c-.31-.466-.54-.997-.71-1.617l.483-.13a11 11 0 0 1-.299-1.665l-.494.053a25 25 0 0 1-.126-1.767l.499-.02a60 60 0 0 1-.04-1.757l-.5.005q-.007-.832-.007-1.772h.498v-1.138h-.5v-.5h.5v-1.138h-.498q0-.94.007-1.773l.5.006q.009-.947.04-1.757l-.499-.021q.038-.963.126-1.767l.494.054a11 11 0 0 1 .299-1.665l-.483-.131c.17-.62.4-1.151.71-1.617l.416.278q.163-.245.362-.464l.137-.144q.282-.281.608-.499l-.278-.416c.466-.31.997-.54 1.617-.71l.131.483a11 11 0 0 1 1.665-.299l-.054-.494a25 25 0 0 1 1.767-.126l.021.499a60 60 0 0 1 1.757-.04l-.006-.5q.833-.008 1.773-.008v.499H302v-.5h2v.5h2v-.5h2v.5h2v-.5h2v.5h2v-.5h2v.5h2v-.5h2v.5h2v-.5h2v.5h2v-.5h2v.5h2v-.5h2v.5h2v-.5h2v.5h2v-.5h2v.5h2v-.5h2v.5h2v-.5h2v.5h2v-.5h2v.5h2v-.5z"/><path stroke="#827a89" d="M307.751 232.75h-6.502c-.911 0-1.71-.615-1.747-1.502-.046-1.116.739-1.857 1.563-2.552 1.14-.963 1.71-1.444 1.77-2.053q.015-.143 0-.286c-.06-.609-.63-1.09-1.77-2.053-.847-.714-1.611-1.379-1.563-2.552.037-.887.836-1.502 1.747-1.502h6.502c.911 0 1.71.615 1.747 1.502.029.706-.233 1.409-.789 1.898-.253.223-.516.437-.774.654-1.14.963-1.71 1.444-1.77 2.053q-.015.143 0 .286c.06.609.63 1.09 1.77 2.053.838.707 1.61 1.393 1.563 2.552-.037.887-.836 1.502-1.747 1.502Z"/><path stroke="#827a89" stroke-linecap="round" d="M302.625 220.476c0 .276 0 .414.055.535a.4.4 0 0 0 .029.056c.067.115.18.196.406.357.629.45.943.674 1.301.698q.084.006.168 0c.358-.024.672-.248 1.301-.698.226-.161.339-.242.406-.357a.4.4 0 0 0 .029-.056c.055-.121.055-.259.055-.535v-.226h-3.75z"/><path fill="#f4f3ec" d="M321.941 231.159c-.854 0-1.55-.354-2.05-1.086V231h-1.074v-8.54h1.074v3.306c.439-.707 1.196-1.073 2.05-1.073 1.488 0 2.684 1.281 2.684 3.208 0 1.94-1.196 3.258-2.684 3.258m-2.111-3.246c0 1.342.695 2.343 1.854 2.343s1.83-1.001 1.83-2.355c0-1.342-.671-2.318-1.83-2.318s-1.854 1.001-1.854 2.33m8.115 3.246c-1.281 0-2.184-.854-2.184-2.453v-3.855h1.074v3.782c0 1.074.61 1.623 1.488 1.623s1.659-.757 1.659-1.855v-3.55h1.074V231h-1.074v-.952c-.402.732-1.171 1.111-2.037 1.111m4.693-.159v-6.149h1.073V231zm-.061-7.198v-1.342h1.208v1.342zM335.33 231v-8.54h1.074V231zm4.962.159c-1.476 0-2.672-1.318-2.672-3.258 0-1.927 1.196-3.208 2.672-3.208.878 0 1.635.366 2.062 1.073v-3.306h1.073V231h-1.073v-.927c-.488.732-1.184 1.086-2.062 1.086m-1.562-3.258c0 1.354.671 2.355 1.843 2.355 1.159 0 1.842-1.001 1.842-2.343 0-1.329-.683-2.33-1.842-2.33-1.172 0-1.843.976-1.843 2.318m6.334 3.099v-6.149h1.074V231zm-.061-7.198v-1.342h1.208v1.342zm2.705 7.198v-6.149h1.073v.927c.403-.683 1.184-1.085 2.074-1.085 1.33 0 2.27.841 2.27 2.476V231h-1.074v-3.77c0-1.073-.61-1.635-1.513-1.635-.964 0-1.757.769-1.757 1.855V231zm9.509 2.159c-1.538 0-2.562-.732-2.733-1.939h1.098c.195.707.72 1.061 1.671 1.061.891 0 1.708-.451 1.708-1.708v-.805c-.476.781-1.195 1.11-2.013 1.11-1.464 0-2.684-1.305-2.684-3.111 0-1.793 1.22-3.074 2.684-3.074.818 0 1.611.378 2.013 1.073v-.915h1.074v5.698c0 1.915-1.367 2.61-2.818 2.61m-1.867-5.392c0 1.281.732 2.233 1.83 2.233 1.11 0 1.842-.952 1.842-2.233 0-1.305-.732-2.184-1.842-2.184-1.098 0-1.83.879-1.83 2.184"/><defs><linearGradient id="a" x1="41.678" x2="41.678" y1="145.413" y2="126.699" gradientUnits="userSpaceOnUse"><stop stop-color="#6c3bff"/><stop offset="1" stop-color="#32f3e9" stop-opacity="0"/></linearGradient><linearGradient id="b" x1="72.065" x2="72.065" y1="199.656" y2="186.034" gradientUnits="userSpaceOnUse"><stop stop-color="#6c3bff"/><stop offset="1" stop-color="#32f3e9" stop-opacity="0"/></linearGradient><linearGradient id="c" x1="45.504" x2="56.913" y1="121.5" y2="96.784" gradientUnits="userSpaceOnUse"><stop stop-color="#6c3bff"/><stop offset="1" stop-color="#32f3e9" stop-opacity="0"/></linearGradient><linearGradient id="e" x1="79.277" x2="89.424" y1="182.5" y2="156.474" gradientUnits="userSpaceOnUse"><stop stop-color="#6c3bff"/><stop offset="1" stop-color="#32f3e9" stop-opacity="0"/></linearGradient><linearGradient id="g" x1="67.785" x2="47.896" y1="210" y2="232.132" gradientUnits="userSpaceOnUse"><stop stop-color="#6c3bff"/><stop offset="1" stop-color="#32f3e9" stop-opacity="0"/></linearGradient><clipPath id="d"><path fill="#fff" d="M310.989 97.5v15h-15v-15z"/></clipPath><clipPath id="f"><path fill="#fff" d="M310.993 158.5v15h-15v-15z"/></clipPath></defs></svg>