<svg xmlns="http://www.w3.org/2000/svg" width="560" height="108" fill="none" viewBox="0 0 560 108"><path fill="#38cc6e" d="M2.61 13.902.452 11.535l.732-.707 1.452 1.586 3.648-3.587.708.707z"/><rect width="42" height="18" x="16" y="1.5" fill="#38cc6e" rx="2"/><path fill="#14121a" d="M25.367 14.659c-1.33 0-2.257-.842-2.257-2.477v-3.83h1.086v3.769c0 1.074.598 1.635 1.5 1.635.952 0 1.745-.769 1.745-1.855v-3.55h1.074V14.5H27.44v-.927c-.402.683-1.183 1.086-2.074 1.086m5.187-.159V8.351h1.085v.927c.39-.683 1.184-1.085 2.062-1.085 1.33 0 2.257.841 2.257 2.476V14.5h-1.073v-3.77c0-1.073-.61-1.635-1.501-1.635-.964 0-1.745.769-1.745 1.855v3.55zm7.272 0v-.915h2.294V9.266h-2.05v-.915h3.16v5.234h2.282v.915zm2.245-7.198V5.96h1.22v1.342zm8.444 7.198c-1.05 0-1.55-.427-1.55-1.452V9.242h-1.83v-.89h1.55c.17 0 .28-.11.28-.27V6.315h1.074V8.35h2.428v.89h-2.428v3.66c0 .44.183.696.732.696h1.964v.903z"/><path fill="#f4f3ec" d="M66.976 17.025V8.851h1.074v.927c.5-.732 1.195-1.085 2.061-1.085 1.464 0 2.672 1.317 2.672 3.257 0 1.928-1.208 3.209-2.672 3.209-.866 0-1.622-.366-2.061-1.074v2.94zm1.025-5.087c0 1.33.683 2.318 1.842 2.318 1.147 0 1.818-.964 1.818-2.306 0-1.354-.671-2.355-1.818-2.355-1.159 0-1.842 1-1.842 2.343m8.346 3.22c-1.244 0-2.062-.731-2.062-1.817 0-1.428 1.245-1.77 2.245-1.891l1.318-.171c.5-.061.585-.354.585-.634v-.013c0-.597-.402-1.061-1.33-1.061-.89 0-1.415.415-1.512 1.171h-1.086c.134-1.244 1.122-2.05 2.586-2.05 1.635 0 2.416.818 2.416 2.197v2.976c0 .147.11.244.256.244h.378V15h-.732c-.598 0-.903-.305-.903-.756v-.147c-.536.793-1.39 1.062-2.159 1.062m-.94-1.866c0 .622.476.988 1.22.988 1.086 0 1.806-.805 1.806-2v-.428a2.2 2.2 0 0 1-.622.183l-1.074.159c-.927.146-1.33.476-1.33 1.098m9.42 1.867c-1.793 0-2.964-1.391-2.964-3.233 0-1.83 1.171-3.233 2.977-3.233 1.403 0 2.44.854 2.635 2.269h-1.098c-.17-.866-.769-1.367-1.55-1.367-1.28 0-1.842 1.098-1.842 2.318 0 1.233.561 2.343 1.843 2.343.793 0 1.33-.415 1.549-1.208h1.086c-.232 1.257-1.171 2.11-2.635 2.11M89.66 15V6.46h1.074v5.38l2.806-2.989h1.342l-2.233 2.343L95.296 15h-1.305l-2.086-3.001-1.171 1.208V15zm9.017.159c-1.244 0-2.062-.732-2.062-1.818 0-1.428 1.245-1.77 2.245-1.891l1.318-.171c.5-.061.586-.354.586-.634v-.013c0-.597-.403-1.061-1.33-1.061-.89 0-1.415.415-1.513 1.171h-1.086c.134-1.244 1.123-2.05 2.587-2.05 1.634 0 2.415.818 2.415 2.197v2.976c0 .147.11.244.256.244h.379V15h-.732c-.598 0-.903-.305-.903-.756v-.147c-.537.793-1.391 1.062-2.16 1.062m-.94-1.867c0 .622.477.988 1.22.988 1.087 0 1.807-.805 1.807-2v-.428a2.2 2.2 0 0 1-.623.183l-1.073.159c-.927.146-1.33.476-1.33 1.098m9.213 3.855c-1.549 0-2.525-.659-2.684-1.83h1.098c.183.671.671.952 1.623.952.878 0 1.696-.452 1.696-1.696v-.793c-.464.769-1.196 1.086-2.001 1.086-1.476 0-2.684-1.306-2.684-3.099s1.208-3.074 2.684-3.074c.817 0 1.598.378 2.001 1.073v-.915h1.073v5.71c0 1.903-1.354 2.586-2.806 2.586m-1.854-5.392c0 1.28.72 2.232 1.818 2.232s1.83-.951 1.83-2.232c0-1.293-.732-2.16-1.83-2.16s-1.818.867-1.818 2.16m9.444 3.404c-1.805 0-2.94-1.379-2.94-3.233 0-1.843 1.135-3.233 2.94-3.233 1.525 0 2.867.866 2.721 3.513h-4.551c.086 1.135.61 2.062 1.83 2.062.818 0 1.354-.5 1.537-1.074h1.074c-.171 1.025-1.135 1.965-2.611 1.965m-1.805-3.77h3.477c-.086-1.232-.659-1.806-1.672-1.806-1.11 0-1.659.805-1.805 1.806m9.273 3.77c-1.61 0-2.611-.781-2.721-2.087h1.098c.147.818.696 1.208 1.647 1.208.83 0 1.342-.378 1.342-.964 0-.451-.329-.768-.963-.878l-1.208-.244c-.879-.17-1.745-.586-1.745-1.708 0-1.025.964-1.793 2.404-1.793 1.39 0 2.403.585 2.525 1.927h-1.098c-.11-.683-.622-1.049-1.44-1.049-.78 0-1.305.366-1.305.878 0 .488.427.72.915.818l1.281.244c.866.17 1.745.646 1.745 1.744 0 1.147-1.013 1.904-2.477 1.904m4.906 1.037 3.757-9.736h1.062l-3.758 9.736zm10.017-1.037c-1.793 0-2.964-1.391-2.964-3.233 0-1.83 1.171-3.233 2.977-3.233 1.403 0 2.44.854 2.635 2.269h-1.098c-.171-.866-.769-1.367-1.55-1.367-1.281 0-1.842 1.098-1.842 2.318 0 1.233.561 2.343 1.842 2.343.793 0 1.33-.415 1.55-1.208h1.086c-.232 1.257-1.172 2.11-2.636 2.11m7.285 0c-1.866 0-2.964-1.391-2.964-3.233 0-1.83 1.098-3.233 2.964-3.233 1.867 0 2.965 1.403 2.965 3.233 0 1.842-1.098 3.233-2.965 3.233m-1.854-3.246c0 1.196.512 2.343 1.854 2.343s1.855-1.147 1.855-2.343c0-1.183-.513-2.318-1.855-2.318s-1.854 1.135-1.854 2.318M148.659 15V8.851h1.037v.525c.244-.44.707-.683 1.207-.683.623 0 .989.378 1.111.732.353-.586.878-.732 1.366-.732.793 0 1.33.597 1.33 1.61V15h-1.037v-4.502c0-.585-.208-.866-.586-.866-.476 0-.89.44-.89 1.183V15h-1.025v-4.502c0-.585-.22-.866-.598-.866-.476 0-.878.44-.878 1.183V15zm7.638 2.025V8.851h1.074v.927c.5-.732 1.195-1.085 2.062-1.085 1.464 0 2.671 1.317 2.671 3.257 0 1.928-1.207 3.209-2.671 3.209-.867 0-1.623-.366-2.062-1.074v2.94zm1.025-5.087c0 1.33.683 2.318 1.842 2.318 1.147 0 1.818-.964 1.818-2.306 0-1.354-.671-2.355-1.818-2.355-1.159 0-1.842 1-1.842 2.343M163.704 15v-.915h2.294V9.766h-2.05v-.915h3.16v5.234h2.281V15zm2.245-7.198V6.46h1.22v1.342zM171.074 15v-.89h2.379V7.35h-1.94v-.89h3.026v7.65h2.367V15zm10.457.159c-1.806 0-2.94-1.379-2.94-3.233 0-1.843 1.134-3.233 2.94-3.233 1.525 0 2.867.866 2.721 3.513h-4.551c.085 1.135.61 2.062 1.83 2.062.817 0 1.354-.5 1.537-1.074h1.074c-.171 1.025-1.135 1.965-2.611 1.965m-1.806-3.77h3.477c-.085-1.232-.658-1.806-1.671-1.806-1.11 0-1.659.805-1.806 1.806M186.998 15V8.851h1.11v1.037a2 2 0 0 1 1.757-1.037h1.476v1.037h-1.561c-.976 0-1.672.635-1.672 1.867V15zm7.675-3.099v-.988h3.294v.988zm9.249 3.258c-1.793 0-2.964-1.391-2.964-3.233 0-1.83 1.171-3.233 2.977-3.233 1.403 0 2.44.854 2.635 2.269h-1.098c-.171-.866-.769-1.367-1.55-1.367-1.281 0-1.842 1.098-1.842 2.318 0 1.233.561 2.343 1.842 2.343.793 0 1.33-.415 1.55-1.208h1.086c-.232 1.257-1.172 2.11-2.636 2.11m7.285 0c-1.866 0-2.964-1.391-2.964-3.233 0-1.83 1.098-3.233 2.964-3.233 1.867 0 2.965 1.403 2.965 3.233 0 1.842-1.098 3.233-2.965 3.233m-1.854-3.246c0 1.196.512 2.343 1.854 2.343s1.855-1.147 1.855-2.343c0-1.183-.513-2.318-1.855-2.318s-1.854 1.135-1.854 2.318M216.772 15V8.851h1.11v1.037a2 2 0 0 1 1.757-1.037h1.476v1.037h-1.562c-.976 0-1.671.635-1.671 1.867V15zm9.42.159c-1.806 0-2.941-1.379-2.941-3.233 0-1.843 1.135-3.233 2.941-3.233 1.525 0 2.867.866 2.72 3.513h-4.55c.085 1.135.61 2.062 1.83 2.062.817 0 1.354-.5 1.537-1.074h1.073c-.17 1.025-1.134 1.965-2.61 1.965m-1.806-3.77h3.477c-.085-1.232-.659-1.806-1.671-1.806-1.111 0-1.66.805-1.806 1.806m6.736 4.807 3.757-9.736h1.062l-3.758 9.736zm7.285-.232V15h5.148v.964zm7.443 0V15h5.149v.964zM256.27 15c-1.049 0-1.549-.427-1.549-1.452V9.742h-1.83v-.89h1.549c.171 0 .281-.11.281-.27V6.815h1.074V8.85h2.427v.89h-2.427v3.66c0 .44.183.696.732.696h1.964V15zm7.139.159c-1.806 0-2.94-1.379-2.94-3.233 0-1.843 1.134-3.233 2.94-3.233 1.525 0 2.867.866 2.72 3.513h-4.55c.085 1.135.61 2.062 1.83 2.062.817 0 1.354-.5 1.537-1.074h1.074c-.171 1.025-1.135 1.965-2.611 1.965m-1.806-3.77h3.477c-.085-1.232-.659-1.806-1.671-1.806-1.11 0-1.659.805-1.806 1.806m9.274 3.77c-1.611 0-2.611-.781-2.721-2.087h1.098c.146.818.695 1.208 1.647 1.208.83 0 1.342-.378 1.342-.964 0-.451-.329-.768-.964-.878l-1.208-.244c-.878-.17-1.744-.586-1.744-1.708 0-1.025.964-1.793 2.403-1.793 1.391 0 2.404.585 2.526 1.927h-1.098c-.11-.683-.623-1.049-1.44-1.049-.781 0-1.305.366-1.305.878 0 .488.427.72.915.818l1.281.244c.866.17 1.744.646 1.744 1.744 0 1.147-1.012 1.904-2.476 1.904m7.724-.159c-1.05 0-1.55-.427-1.55-1.452V9.742h-1.83v-.89h1.55c.17 0 .28-.11.28-.27V6.815h1.074V8.85h2.428v.89h-2.428v3.66c0 .44.183.696.732.696h1.964V15zm7.162.159c-1.61 0-2.61-.781-2.72-2.087h1.098c.146.818.695 1.208 1.647 1.208.829 0 1.342-.378 1.342-.964 0-.451-.33-.768-.964-.878l-1.208-.244c-.878-.17-1.744-.586-1.744-1.708 0-1.025.963-1.793 2.403-1.793 1.391 0 2.403.585 2.525 1.927h-1.098c-.109-.683-.622-1.049-1.439-1.049-.781 0-1.306.366-1.306.878 0 .488.427.72.915.818l1.281.244c.867.17 1.745.646 1.745 1.744 0 1.147-1.013 1.904-2.477 1.904m4.748.805V15h5.148v.964zm7.443 0V15h5.149v.964zm7.602.232 3.758-9.736h1.061l-3.757 9.736zM315 15.159c-1.329 0-2.257-.842-2.257-2.477v-3.83h1.086v3.769c0 1.074.598 1.635 1.501 1.635.951 0 1.744-.769 1.744-1.855v-3.55h1.074V15h-1.074v-.927c-.402.683-1.183 1.086-2.074 1.086m8.261-.159c-1.049 0-1.549-.427-1.549-1.452V9.742h-1.83v-.89h1.549c.171 0 .281-.11.281-.27V6.815h1.073V8.85h2.428v.89h-2.428v3.66c0 .44.183.696.732.696h1.965V15zm4.198 0v-.915h2.294V9.766h-2.05v-.915h3.16v5.234h2.282V15zm2.245-7.198V6.46h1.22v1.342zM334.83 15v-.89h2.379V7.35h-1.94v-.89h3.025v7.65h2.367V15zm10.481.159c-1.611 0-2.611-.781-2.721-2.087h1.098c.147.818.696 1.208 1.647 1.208.83 0 1.342-.378 1.342-.964 0-.451-.329-.768-.964-.878l-1.207-.244c-.879-.17-1.745-.586-1.745-1.708 0-1.025.964-1.793 2.403-1.793 1.391 0 2.404.585 2.526 1.927h-1.098c-.11-.683-.622-1.049-1.44-1.049-.781 0-1.305.366-1.305.878 0 .488.427.72.915.818l1.281.244c.866.17 1.744.646 1.744 1.744 0 1.147-1.012 1.904-2.476 1.904m6.614-.159v-1.464h1.415V15zm8.273.159c-1.611 0-2.611-.781-2.721-2.087h1.098c.147.818.696 1.208 1.647 1.208.83 0 1.342-.378 1.342-.964 0-.451-.329-.768-.964-.878l-1.207-.244c-.879-.17-1.745-.586-1.745-1.708 0-1.025.964-1.793 2.403-1.793 1.391 0 2.404.585 2.526 1.927h-1.098c-.11-.683-.622-1.049-1.44-1.049-.781 0-1.305.366-1.305.878 0 .488.427.72.915.818l1.281.244c.866.17 1.744.646 1.744 1.744 0 1.147-1.012 1.904-2.476 1.904m4.515 1.866V8.851h1.074v.927c.5-.732 1.195-1.085 2.062-1.085 1.464 0 2.671 1.317 2.671 3.257 0 1.928-1.207 3.209-2.671 3.209-.867 0-1.623-.366-2.062-1.074v2.94zm1.025-5.087c0 1.33.683 2.318 1.842 2.318 1.147 0 1.818-.964 1.818-2.306 0-1.354-.671-2.355-1.818-2.355-1.159 0-1.842 1-1.842 2.343m9.322 3.22c-1.805 0-2.94-1.378-2.94-3.232 0-1.843 1.135-3.233 2.94-3.233 1.525 0 2.867.866 2.721 3.513h-4.551c.086 1.135.61 2.062 1.83 2.062.818 0 1.354-.5 1.537-1.074h1.074c-.171 1.025-1.135 1.965-2.611 1.965m-1.805-3.77h3.477c-.086-1.231-.659-1.805-1.672-1.805-1.11 0-1.659.805-1.805 1.806m9.31 3.77c-1.794 0-2.965-1.39-2.965-3.232 0-1.83 1.171-3.233 2.977-3.233 1.403 0 2.44.854 2.635 2.269h-1.098c-.171-.866-.769-1.367-1.549-1.367-1.281 0-1.843 1.098-1.843 2.318 0 1.233.562 2.343 1.843 2.343.793 0 1.329-.415 1.549-1.208h1.086c-.232 1.257-1.171 2.11-2.635 2.11m6.577-.158v-1.464h1.415V15zm8.553 0c-1.049 0-1.549-.427-1.549-1.452V9.742h-1.83v-.89h1.549c.171 0 .281-.11.281-.27V6.815h1.074V8.85h2.427v.89h-2.427v3.66c0 .44.183.696.732.696h1.964V15zm7.163.159c-1.61 0-2.61-.781-2.72-2.087h1.098c.146.818.695 1.208 1.647 1.208.829 0 1.342-.378 1.342-.964 0-.451-.33-.768-.964-.878l-1.208-.244c-.878-.17-1.744-.586-1.744-1.708 0-1.025.963-1.793 2.403-1.793 1.391 0 2.403.585 2.525 1.927h-1.098c-.109-.683-.622-1.049-1.439-1.049-.781 0-1.306.366-1.306.878 0 .488.427.72.915.818l1.281.244c.867.17 1.745.646 1.745 1.744 0 1.147-1.013 1.904-2.477 1.904"/><path fill="#f4f3ec" fill-opacity=".7" d="M420.575 17.025c-1.489-1.866-2.16-3.72-2.16-5.868 0-2.196.671-4.063 2.16-5.917h.878c-1.33 2.135-1.866 3.83-1.866 5.917 0 2.062.524 3.745 1.866 5.868zM425.42 15l3.635-7.6h-5.051v-.94h6.137v1.135L426.627 15zm16.936 0c-1.049 0-1.549-.427-1.549-1.452V9.742h-1.83v-.89h1.549c.171 0 .281-.11.281-.27V6.815h1.073V8.85h2.428v.89h-2.428v3.66c0 .44.183.696.732.696h1.964V15zm7.139.159c-1.806 0-2.941-1.379-2.941-3.233 0-1.843 1.135-3.233 2.941-3.233 1.525 0 2.867.866 2.72 3.513h-4.55c.085 1.135.61 2.062 1.83 2.062.817 0 1.354-.5 1.537-1.074h1.073c-.17 1.025-1.134 1.965-2.61 1.965m-1.806-3.77h3.477c-.085-1.232-.659-1.806-1.671-1.806-1.111 0-1.66.805-1.806 1.806m9.273 3.77c-1.61 0-2.61-.781-2.72-2.087h1.098c.146.818.695 1.208 1.647 1.208.829 0 1.342-.378 1.342-.964 0-.451-.33-.768-.964-.878l-1.208-.244c-.878-.17-1.744-.586-1.744-1.708 0-1.025.963-1.793 2.403-1.793 1.391 0 2.403.585 2.525 1.927h-1.098c-.109-.683-.622-1.049-1.439-1.049-.781 0-1.306.366-1.306.878 0 .488.427.72.915.818l1.281.244c.867.17 1.745.646 1.745 1.744 0 1.147-1.013 1.904-2.477 1.904m7.724-.159c-1.049 0-1.549-.427-1.549-1.452V9.742h-1.83v-.89h1.549c.171 0 .281-.11.281-.27V6.815h1.074V8.85h2.427v.89h-2.427v3.66c0 .44.183.696.732.696h1.964V15zm7.163.159c-1.61 0-2.611-.781-2.72-2.087h1.098c.146.818.695 1.208 1.647 1.208.829 0 1.342-.378 1.342-.964 0-.451-.33-.768-.964-.878l-1.208-.244c-.878-.17-1.745-.586-1.745-1.708 0-1.025.964-1.793 2.404-1.793 1.391 0 2.403.585 2.525 1.927h-1.098c-.11-.683-.622-1.049-1.439-1.049-.781 0-1.306.366-1.306.878 0 .488.427.72.915.818l1.281.244c.866.17 1.745.646 1.745 1.744 0 1.147-1.013 1.904-2.477 1.904m5.492 1.866c1.342-2.123 1.866-3.806 1.866-5.868 0-2.086-.537-3.782-1.866-5.917h.878c1.488 1.854 2.159 3.721 2.159 5.917 0 2.147-.671 4.002-2.159 5.868z"/><path fill="#38cc6e" d="M501.257 15.183c-1.647 0-2.635-1.122-2.647-2.318h1.122c.146.927.793 1.354 1.598 1.354 1.33 0 2.135-1.195 2.135-3.404-.512.94-1.452 1.245-2.232 1.245-1.525 0-2.831-1.037-2.831-2.83 0-1.77 1.281-2.953 3.026-2.953 1.769 0 3.184 1.183 3.184 4.429 0 3.05-1.464 4.477-3.355 4.477m-1.708-6.002c0 1.17.83 1.964 1.867 1.964s1.866-.793 1.866-1.964c0-1.184-.829-1.965-1.866-1.965s-1.867.781-1.867 1.965"/><path fill="#59f793" fill-opacity=".5" d="M505.943 15V8.851h1.037v.525c.244-.44.708-.683 1.208-.683.622 0 .988.378 1.11.732.354-.586.879-.732 1.367-.732.793 0 1.329.597 1.329 1.61V15h-1.037v-4.502c0-.585-.207-.866-.585-.866-.476 0-.891.44-.891 1.183V15h-1.025v-4.502c0-.585-.219-.866-.597-.866-.476 0-.879.44-.879 1.183V15zm10.567.159c-1.611 0-2.611-.781-2.721-2.087h1.098c.147.818.696 1.208 1.647 1.208.83 0 1.342-.378 1.342-.964 0-.451-.329-.768-.964-.878l-1.207-.244c-.879-.17-1.745-.586-1.745-1.708 0-1.025.964-1.793 2.403-1.793 1.391 0 2.404.585 2.526 1.927h-1.098c-.11-.683-.622-1.049-1.44-1.049-.781 0-1.305.366-1.305.878 0 .488.427.72.915.818l1.281.244c.866.17 1.744.646 1.744 1.744 0 1.147-1.012 1.904-2.476 1.904"/><path fill="#f4f3ec" fill-opacity=".7" d="M3.233 39v-7.6H.5v-.94h6.564v.94H4.33V39zm8.09.159c-1.806 0-2.94-1.379-2.94-3.233 0-1.843 1.134-3.233 2.94-3.233 1.525 0 2.867.866 2.72 3.513h-4.55c.085 1.135.61 2.062 1.83 2.062.817 0 1.354-.5 1.537-1.074h1.074c-.171 1.025-1.135 1.965-2.611 1.965m-1.806-3.77h3.477c-.085-1.232-.658-1.806-1.671-1.806-1.11 0-1.66.805-1.806 1.806m9.274 3.77c-1.61 0-2.61-.781-2.72-2.087h1.097c.147.818.696 1.208 1.647 1.208.83 0 1.342-.378 1.342-.964 0-.451-.33-.768-.963-.878l-1.208-.244c-.879-.17-1.745-.586-1.745-1.708 0-1.025.964-1.793 2.404-1.793 1.39 0 2.403.585 2.525 1.927h-1.098c-.11-.683-.622-1.049-1.44-1.049-.78 0-1.305.366-1.305.878 0 .488.427.72.915.818l1.28.244c.867.17 1.745.646 1.745 1.744 0 1.147-1.012 1.904-2.476 1.904M26.515 39c-1.05 0-1.55-.427-1.55-1.452v-3.806h-1.83v-.89h1.55c.17 0 .28-.11.28-.27v-1.768h1.074v2.037h2.428v.89h-2.428v3.66c0 .44.183.696.732.696h1.964V39zm11.788 0v-8.54h5.673v.94h-4.563v2.696h4.246v.915h-4.246V39zm7.297 0v-.915h2.294v-4.319h-2.05v-.915h3.16v5.234h2.281V39zm2.245-7.198V30.46h1.22v1.342zM52.97 39v-.89h2.38v-6.76h-1.94v-.89h3.025v7.65h2.367V39zm10.457.159c-1.806 0-2.94-1.379-2.94-3.233 0-1.843 1.134-3.233 2.94-3.233 1.525 0 2.867.866 2.72 3.513h-4.55c.085 1.135.61 2.062 1.83 2.062.817 0 1.354-.5 1.537-1.074h1.074c-.171 1.025-1.135 1.965-2.611 1.965m-1.806-3.77h3.477c-.085-1.232-.658-1.806-1.671-1.806-1.11 0-1.66.805-1.806 1.806m9.274 3.77c-1.61 0-2.61-.781-2.72-2.087h1.097c.147.818.696 1.208 1.647 1.208.83 0 1.342-.378 1.342-.964 0-.451-.33-.768-.963-.878l-1.208-.244c-.879-.17-1.745-.586-1.745-1.708 0-1.025.964-1.793 2.404-1.793 1.39 0 2.403.585 2.525 1.927h-1.098c-.11-.683-.622-1.049-1.44-1.049-.78 0-1.305.366-1.305.878 0 .488.427.72.915.818l1.28.244c.867.17 1.745.646 1.745 1.744 0 1.147-1.012 1.904-2.476 1.904M40.45 60v-7.6h-2.733v-.94h6.564v.94h-2.733V60zm8.09.159c-1.805 0-2.94-1.379-2.94-3.233 0-1.843 1.135-3.233 2.94-3.233 1.525 0 2.867.866 2.72 3.513h-4.55c.086 1.135.61 2.062 1.83 2.062.818 0 1.354-.5 1.537-1.074h1.074c-.17 1.025-1.135 1.965-2.61 1.965m-1.805-3.77h3.477c-.086-1.232-.66-1.806-1.672-1.806-1.11 0-1.659.805-1.805 1.806m9.273 3.77c-1.61 0-2.61-.781-2.72-2.087h1.097c.147.818.696 1.208 1.647 1.208.83 0 1.342-.378 1.342-.964 0-.451-.329-.768-.963-.878l-1.208-.244c-.879-.17-1.745-.586-1.745-1.708 0-1.025.964-1.793 2.404-1.793 1.39 0 2.403.585 2.525 1.927h-1.098c-.11-.683-.622-1.049-1.44-1.049-.78 0-1.305.366-1.305.878 0 .488.427.72.915.818l1.281.244c.866.17 1.745.646 1.745 1.744 0 1.147-1.013 1.904-2.477 1.904M63.732 60c-1.05 0-1.55-.427-1.55-1.452v-3.806h-1.83v-.89h1.55c.17 0 .28-.11.28-.27v-1.768h1.074v2.037h2.428v.89h-2.428v3.66c0 .44.183.696.732.696h1.964V60zm7.163.159c-1.61 0-2.61-.781-2.72-2.087h1.097c.147.818.696 1.208 1.647 1.208.83 0 1.342-.378 1.342-.964 0-.451-.33-.768-.963-.878l-1.208-.244c-.879-.17-1.745-.586-1.745-1.708 0-1.025.964-1.793 2.404-1.793 1.39 0 2.403.585 2.525 1.927h-1.098c-.11-.683-.622-1.049-1.44-1.049-.78 0-1.305.366-1.305.878 0 .488.427.72.915.818l1.28.244c.867.17 1.745.646 1.745 1.744 0 1.147-1.012 1.904-2.476 1.904m-52.116 21c-2.087 0-3.33-1.27-3.392-2.806h1.147c.17 1.159 1.098 1.83 2.257 1.83 1.05 0 2-.476 2-1.501 0-.671-.439-1.05-1.354-1.305l-1.39-.379c-1.062-.28-2.33-.707-2.33-2.33 0-1.403 1.256-2.367 2.976-2.367 1.818 0 2.916 1.086 2.99 2.538h-1.148c-.17-.988-.817-1.586-1.866-1.586-1.013 0-1.781.537-1.781 1.354 0 .696.451 1.037 1.427 1.306l1.44.39c1.44.39 2.208 1.074 2.208 2.294 0 1.586-1.306 2.562-3.184 2.562M26.515 81c-1.05 0-1.55-.427-1.55-1.452v-3.806h-1.83v-.89h1.55c.17 0 .28-.11.28-.27v-1.768h1.074v2.037h2.428v.89h-2.428v3.66c0 .44.183.696.732.696h1.964V81zm6.162.159c-1.244 0-2.061-.732-2.061-1.818 0-1.428 1.244-1.77 2.244-1.891l1.318-.171c.5-.061.586-.354.586-.634v-.013c0-.597-.403-1.061-1.33-1.061-.89 0-1.415.415-1.513 1.171h-1.086c.134-1.244 1.122-2.05 2.587-2.05 1.634 0 2.415.818 2.415 2.197v2.976c0 .147.11.244.256.244h.378V81h-.731c-.598 0-.903-.305-.903-.756v-.147c-.537.793-1.391 1.062-2.16 1.062m-.94-1.867c0 .622.477.988 1.22.988 1.087 0 1.806-.805 1.806-2v-.428a2.2 2.2 0 0 1-.622.183l-1.073.159c-.927.146-1.33.476-1.33 1.098M39.12 81v-6.149h1.11v1.037a2 2 0 0 1 1.757-1.037h1.477v1.037h-1.562c-.976 0-1.672.635-1.672 1.867V81zm9.725 0c-1.049 0-1.55-.427-1.55-1.452v-3.806h-1.83v-.89h1.55c.171 0 .28-.11.28-.27v-1.768h1.074v2.037h2.428v.89H48.37v3.66c0 .44.183.696.732.696h1.965V81zm13.606.159c-1.244 0-2.062-.732-2.062-1.818 0-1.428 1.245-1.77 2.245-1.891l1.318-.171c.5-.061.585-.354.585-.634v-.013c0-.597-.402-1.061-1.33-1.061-.89 0-1.415.415-1.512 1.171h-1.086c.134-1.244 1.122-2.05 2.586-2.05 1.635 0 2.416.818 2.416 2.197v2.976c0 .147.11.244.256.244h.378V81h-.732c-.598 0-.903-.305-.903-.756v-.147c-.536.793-1.39 1.062-2.159 1.062m-.94-1.867c0 .622.476.988 1.22.988 1.086 0 1.806-.805 1.806-2v-.428a2.2 2.2 0 0 1-.622.183l-1.074.159c-.927.146-1.33.476-1.33 1.098M71.176 81c-1.049 0-1.549-.427-1.549-1.452v-3.806h-1.83v-.89h1.55c.17 0 .28-.11.28-.27v-1.768H70.7v2.037h2.427v.89H70.7v3.66c0 .44.183.696.732.696h1.964V81zm-55.397 21v-8.54h2.342c2.33 0 3.77 1.793 3.77 4.27S20.45 102 18.12 102zm1.11-.939h1.17c1.685 0 2.66-1.33 2.66-3.331s-.976-3.33-2.66-3.33h-1.17zm8.81 1.098c-1.33 0-2.258-.842-2.258-2.477v-3.83h1.086v3.769c0 1.074.598 1.635 1.5 1.635.953 0 1.745-.769 1.745-1.855v-3.55h1.074V102h-1.073v-.927c-.403.683-1.184 1.086-2.074 1.086m5.979-.159v-6.149h1.11v1.037a2 2 0 0 1 1.757-1.037h1.476v1.037h-1.562c-.975 0-1.67.635-1.67 1.867V102zm8.444.159c-1.245 0-2.062-.732-2.062-1.818 0-1.428 1.244-1.77 2.245-1.891l1.317-.171c.5-.061.586-.354.586-.634v-.013c0-.597-.403-1.061-1.33-1.061-.89 0-1.415.415-1.513 1.171H38.28c.134-1.244 1.122-2.05 2.586-2.05 1.635 0 2.416.818 2.416 2.197v2.976c0 .147.11.244.256.244h.378V102h-.732c-.598 0-.903-.305-.903-.756v-.147c-.537.793-1.39 1.062-2.16 1.062m-.94-1.867c0 .622.476.988 1.22.988 1.086 0 1.806-.805 1.806-2v-.428a2.2 2.2 0 0 1-.622.183l-1.074.159c-.927.146-1.33.476-1.33 1.098M48.845 102c-1.049 0-1.55-.427-1.55-1.452v-3.806h-1.83v-.89h1.55c.171 0 .28-.11.28-.27v-1.768h1.074v2.037h2.428v.89H48.37v3.661c0 .439.183.695.732.695h1.965V102zm4.198 0v-.915h2.294v-4.319h-2.05v-.915h3.16v5.234h2.282V102zm2.245-7.198V93.46h1.22v1.342zm8.041 7.357c-1.866 0-2.964-1.391-2.964-3.233 0-1.83 1.098-3.233 2.964-3.233 1.867 0 2.965 1.403 2.965 3.233 0 1.842-1.098 3.233-2.965 3.233m-1.854-3.246c0 1.196.512 2.343 1.854 2.343s1.855-1.147 1.855-2.343c0-1.183-.513-2.318-1.855-2.318s-1.854 1.135-1.854 2.318M68.101 102v-6.149h1.086v.927c.39-.683 1.183-1.085 2.062-1.085 1.33 0 2.257.841 2.257 2.476V102h-1.074v-3.77c0-1.073-.61-1.635-1.5-1.635-.964 0-1.745.769-1.745 1.855V102zm70.614 2.025c-1.488-1.866-2.159-3.721-2.159-5.868 0-2.196.671-4.063 2.159-5.917h.879c-1.33 2.135-1.867 3.83-1.867 5.917 0 2.062.525 3.745 1.867 5.868zM145.61 102c-1.049 0-1.55-.427-1.55-1.452v-3.806h-1.83v-.89h1.55c.171 0 .28-.11.28-.27v-1.768h1.074v2.037h2.428v.89h-2.428v3.661c0 .439.183.695.732.695h1.964V102zm5.162 0v-6.149h1.11v1.037a2 2 0 0 1 1.757-1.037h1.476v1.037h-1.562c-.976 0-1.671.635-1.671 1.867V102zm8.444.159c-1.245 0-2.062-.732-2.062-1.818 0-1.428 1.244-1.77 2.245-1.891l1.317-.171c.5-.061.586-.354.586-.634v-.013c0-.597-.403-1.061-1.33-1.061-.891 0-1.415.415-1.513 1.171h-1.086c.135-1.244 1.123-2.05 2.587-2.05 1.635 0 2.415.818 2.415 2.197v2.976c0 .147.11.244.257.244h.378V102h-.732c-.598 0-.903-.305-.903-.756v-.147c-.537.793-1.391 1.062-2.159 1.062m-.94-1.867c0 .622.476.988 1.22.988 1.086 0 1.806-.805 1.806-2v-.428a2.2 2.2 0 0 1-.622.183l-1.074.159c-.927.146-1.33.476-1.33 1.098m6.59 1.708v-6.149h1.085v.927c.391-.683 1.184-1.085 2.062-1.085 1.33 0 2.257.841 2.257 2.476V102h-1.073v-3.77c0-1.073-.61-1.635-1.501-1.635-.964 0-1.745.769-1.745 1.855V102zm10.237.159c-1.611 0-2.611-.781-2.721-2.087h1.098c.147.818.696 1.208 1.647 1.208.83 0 1.342-.378 1.342-.964 0-.451-.329-.768-.964-.878l-1.207-.244c-.879-.17-1.745-.586-1.745-1.708 0-1.025.964-1.793 2.403-1.793 1.391 0 2.404.585 2.526 1.927h-1.098c-.11-.683-.622-1.049-1.44-1.049-.781 0-1.305.366-1.305.878 0 .488.427.72.915.818l1.281.244c.866.17 1.744.646 1.744 1.744 0 1.147-1.012 1.904-2.476 1.904M181.4 102v-5.258h-1.83v-.89h1.549c.171 0 .281-.11.281-.27v-.536c0-1.013.463-1.586 1.525-1.586h2.183v.89h-1.976c-.476 0-.659.232-.659.745v.756h2.55v.89h-2.55V102zm8.468.159c-1.867 0-2.965-1.391-2.965-3.233 0-1.83 1.098-3.233 2.965-3.233s2.964 1.403 2.964 3.233c0 1.842-1.098 3.233-2.964 3.233m-1.855-3.246c0 1.196.513 2.343 1.855 2.343s1.854-1.147 1.854-2.343c0-1.183-.512-2.318-1.854-2.318s-1.855 1.135-1.855 2.318m7.419 3.087v-6.149h1.111v1.037a2 2 0 0 1 1.756-1.037h1.477v1.037h-1.562c-.976 0-1.671.635-1.671 1.867V102zm6.321 0v-6.149h1.037v.525c.244-.44.708-.683 1.208-.683.622 0 .988.378 1.11.732.354-.586.879-.732 1.367-.732.793 0 1.33.597 1.33 1.61V102h-1.037v-4.502c0-.585-.208-.866-.586-.866-.476 0-.891.44-.891 1.183V102h-1.024v-4.502c0-.585-.22-.866-.598-.866-.476 0-.879.44-.879 1.183V102zm14.863 0v-.927h2.489V96.01h-1.977v-.94h1.672a.3.3 0 0 0 .305-.292V93.46h1.098v7.613h2.476V102zm9.761 0v-1.464h1.415V102zm8.139.159c-1.988 0-3.245-1.66-3.245-4.429 0-2.782 1.257-4.416 3.245-4.416 2.001 0 3.258 1.634 3.258 4.416 0 2.769-1.257 4.429-3.258 4.429m-2.098-4.429c0 2.196.695 3.477 2.098 3.477 1.415 0 2.099-1.281 2.099-3.477 0-2.208-.684-3.465-2.099-3.465-1.403 0-2.098 1.257-2.098 3.465m10.335 4.27v-2.342h-3.978V98.56l3.746-5.1h1.354v5.283h1.293v.915h-1.293V102zm-2.904-3.257h2.904v-3.965zm9.688 3.416c-1.61 0-2.611-.781-2.72-2.087h1.098c.146.818.695 1.208 1.647 1.208.829 0 1.342-.378 1.342-.964 0-.451-.33-.768-.964-.878l-1.208-.244c-.878-.17-1.745-.586-1.745-1.708 0-1.025.964-1.793 2.404-1.793 1.391 0 2.403.585 2.525 1.927h-1.098c-.11-.683-.622-1.049-1.439-1.049-.781 0-1.306.366-1.306.878 0 .488.427.72.915.818l1.281.244c.866.17 1.745.646 1.745 1.744 0 1.147-1.013 1.904-2.477 1.904m6.638 1.378v-.549h.171c.366 0 .525-.219.525-.524V102h-.72v-1.464h1.415v1.952c0 .683-.463 1.049-1.208 1.049zm15.692-1.378c-1.61 0-2.61-.781-2.72-2.087h1.098c.146.818.695 1.208 1.647 1.208.829 0 1.342-.378 1.342-.964 0-.451-.33-.768-.964-.878l-1.208-.244c-.878-.17-1.744-.586-1.744-1.708 0-1.025.963-1.793 2.403-1.793 1.391 0 2.403.585 2.525 1.927h-1.098c-.109-.683-.622-1.049-1.439-1.049-.781 0-1.306.366-1.306.878 0 .488.427.72.915.818l1.281.244c.867.17 1.745.646 1.745 1.744 0 1.147-1.013 1.904-2.477 1.904m7.419 0c-1.805 0-2.94-1.379-2.94-3.233 0-1.843 1.135-3.233 2.94-3.233 1.525 0 2.867.866 2.721 3.513h-4.551c.086 1.135.61 2.062 1.83 2.062.818 0 1.355-.5 1.538-1.074h1.073c-.171 1.025-1.134 1.965-2.611 1.965m-1.805-3.77h3.477c-.086-1.232-.659-1.806-1.672-1.806-1.11 0-1.659.805-1.805 1.806m9.554 3.611c-1.049 0-1.549-.427-1.549-1.452v-3.806h-1.83v-.89h1.549c.171 0 .281-.11.281-.27v-1.768h1.073v2.037h2.428v.89h-2.428v3.661c0 .439.183.695.732.695h1.964V102zm6.626.159c-1.33 0-2.257-.842-2.257-2.477v-3.83h1.086v3.769c0 1.074.598 1.635 1.5 1.635.952 0 1.745-.769 1.745-1.855v-3.55h1.074V102h-1.074v-.927c-.403.683-1.183 1.086-2.074 1.086m5.052 1.866v-8.174h1.074v.927c.5-.732 1.195-1.085 2.062-1.085 1.464 0 2.671 1.317 2.671 3.257 0 1.928-1.207 3.209-2.671 3.209-.867 0-1.623-.366-2.062-1.074v2.94zm1.025-5.087c0 1.33.683 2.318 1.842 2.318 1.147 0 1.818-.964 1.818-2.306 0-1.354-.671-2.355-1.818-2.355-1.159 0-1.842 1-1.842 2.343m16.424 3.245c-1.647 0-2.635-1.122-2.647-2.318h1.122c.146.927.793 1.354 1.598 1.354 1.33 0 2.135-1.195 2.135-3.404-.512.94-1.452 1.245-2.232 1.245-1.525 0-2.831-1.037-2.831-2.83 0-1.77 1.281-2.953 3.026-2.953 1.769 0 3.184 1.183 3.184 4.429 0 3.05-1.464 4.477-3.355 4.477m-1.708-6.002c0 1.17.83 1.964 1.867 1.964s1.866-.793 1.866-1.964c0-1.184-.829-1.965-1.866-1.965s-1.867.781-1.867 1.965m9.481 6.002c-1.769 0-3.184-1.183-3.184-4.429 0-3.05 1.464-4.477 3.355-4.477 1.647 0 2.635 1.122 2.647 2.318h-1.122c-.147-.927-.793-1.354-1.599-1.354-1.329 0-2.135 1.195-2.135 3.404.513-.94 1.452-1.245 2.233-1.245 1.525 0 2.83 1.037 2.83 2.83 0 1.77-1.281 2.953-3.025 2.953m-1.855-2.904c0 1.184.818 1.965 1.867 1.965 1.037 0 1.867-.781 1.867-1.965 0-1.17-.83-1.964-1.867-1.964-1.049 0-1.867.793-1.867 1.964m6.212 2.721v-6.149h1.037v.525c.244-.44.707-.683 1.207-.683.623 0 .989.378 1.111.732.353-.586.878-.732 1.366-.732.793 0 1.33.597 1.33 1.61V102h-1.037v-4.502c0-.585-.208-.866-.586-.866-.476 0-.89.44-.89 1.183V102h-1.025v-4.502c0-.585-.22-.866-.598-.866-.476 0-.878.44-.878 1.183V102zm10.566.159c-1.61 0-2.61-.781-2.72-2.087h1.098c.146.818.695 1.208 1.647 1.208.829 0 1.342-.378 1.342-.964 0-.451-.33-.768-.964-.878l-1.208-.244c-.878-.17-1.744-.586-1.744-1.708 0-1.025.963-1.793 2.403-1.793 1.391 0 2.403.585 2.525 1.927h-1.098c-.109-.683-.622-1.049-1.439-1.049-.781 0-1.306.366-1.306.878 0 .488.427.72.915.818l1.281.244c.867.17 1.745.646 1.745 1.744 0 1.147-1.013 1.904-2.477 1.904m6.639 1.378v-.549h.17c.366 0 .525-.219.525-.524V102h-.72v-1.464h1.415v1.952c0 .683-.463 1.049-1.207 1.049zm15.728-1.378c-1.793 0-2.964-1.391-2.964-3.233 0-1.83 1.171-3.233 2.976-3.233 1.403 0 2.44.854 2.636 2.269h-1.098c-.171-.866-.769-1.367-1.55-1.367-1.281 0-1.842 1.098-1.842 2.318 0 1.233.561 2.343 1.842 2.343.793 0 1.33-.415 1.55-1.208h1.085c-.231 1.257-1.171 2.111-2.635 2.111m7.285 0c-1.867 0-2.965-1.391-2.965-3.233 0-1.83 1.098-3.233 2.965-3.233s2.965 1.403 2.965 3.233c0 1.842-1.098 3.233-2.965 3.233m-1.854-3.246c0 1.196.512 2.343 1.854 2.343s1.854-1.147 1.854-2.343c0-1.183-.512-2.318-1.854-2.318s-1.854 1.135-1.854 2.318m6.382 3.087v-.891h2.379v-6.758h-1.94v-.891h3.025v7.649h2.367V102zm7.443 0v-.891h2.379v-6.758h-1.94v-.891h3.026v7.649h2.367V102zm10.457.159c-1.806 0-2.94-1.379-2.94-3.233 0-1.843 1.134-3.233 2.94-3.233 1.525 0 2.867.866 2.721 3.513h-4.551c.085 1.135.61 2.062 1.83 2.062.817 0 1.354-.5 1.537-1.074h1.074c-.171 1.025-1.135 1.965-2.611 1.965m-1.806-3.77h3.477c-.085-1.232-.658-1.806-1.671-1.806-1.11 0-1.659.805-1.806 1.806m9.31 3.77c-1.793 0-2.964-1.391-2.964-3.233 0-1.83 1.171-3.233 2.977-3.233 1.403 0 2.44.854 2.635 2.269h-1.098c-.171-.866-.769-1.367-1.55-1.367-1.281 0-1.842 1.098-1.842 2.318 0 1.233.561 2.343 1.842 2.343.793 0 1.33-.415 1.55-1.208h1.086c-.232 1.257-1.172 2.111-2.636 2.111m7.688-.159c-1.049 0-1.55-.427-1.55-1.452v-3.806h-1.83v-.89h1.55c.171 0 .28-.11.28-.27v-1.768h1.074v2.037h2.428v.89h-2.428v3.661c0 .439.183.695.732.695h1.964V102zm15.265 0v-2.342h-3.977V98.56l3.745-5.1h1.354v5.283h1.293v.915h-1.293V102zm-2.904-3.257h2.904v-3.965zM427.35 102v-1.464h1.415V102zm6.504 0 3.636-7.6h-5.051v-.94h6.136v1.135L435.062 102zm6.065 0v-.927h2.489V96.01h-1.977v-.94h1.672a.3.3 0 0 0 .305-.292V93.46h1.098v7.613h2.476V102zm10.591.159c-1.611 0-2.611-.781-2.721-2.087h1.098c.147.818.696 1.208 1.647 1.208.83 0 1.342-.378 1.342-.964 0-.451-.329-.768-.964-.878l-1.207-.244c-.879-.17-1.745-.586-1.745-1.708 0-1.025.964-1.793 2.403-1.793 1.391 0 2.404.585 2.526 1.927h-1.098c-.11-.683-.622-1.049-1.44-1.049-.781 0-1.305.366-1.305.878 0 .488.427.72.915.818l1.281.244c.866.17 1.744.646 1.744 1.744 0 1.147-1.012 1.904-2.476 1.904m6.638 1.378v-.549h.171c.366 0 .524-.219.524-.524V102h-.719v-1.464h1.415v1.952c0 .683-.464 1.049-1.208 1.049zM473.121 102c-1.05 0-1.55-.427-1.55-1.452v-3.806h-1.83v-.89h1.55c.17 0 .28-.11.28-.27v-1.768h1.074v2.037h2.428v.89h-2.428v3.661c0 .439.183.695.732.695h1.964V102zm7.138.159c-1.806 0-2.94-1.379-2.94-3.233 0-1.843 1.134-3.233 2.94-3.233 1.525 0 2.867.866 2.721 3.513h-4.551c.085 1.135.61 2.062 1.83 2.062.817 0 1.354-.5 1.537-1.074h1.074c-.171 1.025-1.135 1.965-2.611 1.965m-1.806-3.77h3.477c-.085-1.232-.658-1.806-1.671-1.806-1.11 0-1.659.805-1.806 1.806m9.274 3.77c-1.61 0-2.611-.781-2.721-2.087h1.098c.147.818.696 1.208 1.647 1.208.83 0 1.342-.378 1.342-.964 0-.451-.329-.768-.963-.878l-1.208-.244c-.879-.17-1.745-.586-1.745-1.708 0-1.025.964-1.793 2.404-1.793 1.39 0 2.403.585 2.525 1.927h-1.098c-.11-.683-.622-1.049-1.44-1.049-.78 0-1.305.366-1.305.878 0 .488.427.72.915.818l1.281.244c.866.17 1.745.646 1.745 1.744 0 1.147-1.013 1.904-2.477 1.904m7.724-.159c-1.049 0-1.549-.427-1.549-1.452v-3.806h-1.83v-.89h1.549c.171 0 .281-.11.281-.27v-1.768h1.073v2.037h2.428v.89h-2.428v3.661c0 .439.183.695.732.695h1.964V102zm7.163.159c-1.611 0-2.611-.781-2.721-2.087h1.098c.147.818.696 1.208 1.647 1.208.83 0 1.342-.378 1.342-.964 0-.451-.329-.768-.964-.878l-1.207-.244c-.879-.17-1.745-.586-1.745-1.708 0-1.025.964-1.793 2.403-1.793 1.391 0 2.404.585 2.526 1.927h-1.098c-.11-.683-.622-1.049-1.44-1.049-.781 0-1.305.366-1.305.878 0 .488.427.72.915.818l1.281.244c.866.17 1.744.646 1.744 1.744 0 1.147-1.012 1.904-2.476 1.904m14.728.024c-1.842 0-2.952-1.061-2.977-2.623h1.135c.061.708.463 1.659 1.83 1.659 1.134 0 1.903-.744 1.903-1.988 0-1.123-.732-1.989-1.891-1.989-1.098 0-1.549.622-1.72.927h-1.074l.683-4.709h4.71v.94h-3.77l-.366 2.525c.488-.403 1.098-.574 1.769-.574 1.598 0 2.818 1.16 2.818 2.855 0 1.708-1.11 2.977-3.05 2.977m4.455-.183v-.927h2.488V96.01h-1.976v-.94h1.671a.3.3 0 0 0 .305-.292V93.46h1.098v7.613h2.477V102zm11.249 0v-2.342h-3.977V98.56l3.746-5.1h1.354v5.283h1.293v.915h-1.293V102zm-2.903-3.257h2.903v-3.965zm6.565 3.257v-6.149h1.037v.525c.244-.44.707-.683 1.208-.683.622 0 .988.378 1.11.732.354-.586.878-.732 1.366-.732.793 0 1.33.597 1.33 1.61V102h-1.037v-4.502c0-.585-.207-.866-.586-.866-.475 0-.89.44-.89 1.183V102h-1.025v-4.502c0-.585-.22-.866-.598-.866-.476 0-.878.44-.878 1.183V102zm10.566.159c-1.61 0-2.61-.781-2.72-2.087h1.098c.146.818.695 1.208 1.647 1.208.829 0 1.342-.378 1.342-.964 0-.451-.33-.768-.964-.878l-1.208-.244c-.878-.17-1.744-.586-1.744-1.708 0-1.025.963-1.793 2.403-1.793 1.391 0 2.403.585 2.525 1.927h-1.098c-.109-.683-.622-1.049-1.439-1.049-.781 0-1.306.366-1.306.878 0 .488.427.72.915.818l1.281.244c.867.17 1.745.646 1.745 1.744 0 1.147-1.013 1.904-2.477 1.904m5.492 1.866c1.342-2.123 1.866-3.806 1.866-5.868 0-2.086-.536-3.782-1.866-5.917h.878c1.489 1.854 2.16 3.721 2.16 5.917 0 2.147-.671 4.002-2.16 5.868z"/><path fill="#f4f3ec" d="M90.187 80.683c0-1.5 1.062-2.391 2.16-3.184 1.183-.842 2.428-1.562 2.428-2.733 0-.964-.684-1.513-1.647-1.513-1.11 0-1.72.683-1.708 1.696h-1.135c-.073-1.61 1.159-2.672 2.891-2.672 1.623 0 2.758 1 2.758 2.428 0 1.025-.623 1.781-1.391 2.428-1.281 1.037-2.916 1.793-3.099 2.94h4.587V81h-5.844zm7.334.317v-.927h2.489V75.01h-1.977v-.94h1.672a.3.3 0 0 0 .305-.292V72.46h1.098v7.613h2.476V81zm9.761 0v-1.464h1.416V81zm0-4.246V75.29h1.416v1.464zM116.214 81v-2.342h-3.977V77.56l3.745-5.1h1.355v5.283h1.293v.915h-1.293V81zm-2.903-3.257h2.903v-3.965zm6.54 3.257v-.927h2.489V75.01h-1.976v-.94h1.671a.3.3 0 0 0 .305-.292V72.46h1.098v7.613h2.477V81zm9.762 0v-1.464h1.415V81zm0-4.246V75.29h1.415v1.464zm8.139 4.405c-1.989 0-3.246-1.66-3.246-4.429 0-2.782 1.257-4.416 3.246-4.416 2 0 3.257 1.634 3.257 4.416 0 2.77-1.257 4.429-3.257 4.429m-2.099-4.429c0 2.196.696 3.477 2.099 3.477 1.415 0 2.098-1.281 2.098-3.477 0-2.208-.683-3.465-2.098-3.465-1.403 0-2.099 1.257-2.099 3.465m9.64 4.453c-1.769 0-3.185-1.183-3.185-4.429 0-3.05 1.464-4.477 3.355-4.477 1.647 0 2.636 1.122 2.648 2.318h-1.123c-.146-.927-.793-1.354-1.598-1.354-1.33 0-2.135 1.195-2.135 3.404.513-.94 1.452-1.245 2.233-1.245 1.525 0 2.83 1.037 2.83 2.83 0 1.77-1.281 2.953-3.025 2.953m-1.855-2.904c0 1.184.818 1.965 1.867 1.965 1.037 0 1.866-.781 1.866-1.965 0-1.17-.829-1.964-1.866-1.964-1.049 0-1.867.793-1.867 1.964M90.078 102v-.927h2.488V96.01H90.59v-.94h1.671a.3.3 0 0 0 .305-.292V93.46h1.098v7.613h2.477V102zm9.761 0v-1.464h1.415V102zm5.235-.317c0-1.501 1.062-2.391 2.16-3.184 1.183-.842 2.427-1.562 2.427-2.733 0-.964-.683-1.513-1.647-1.513-1.11 0-1.72.683-1.708 1.696h-1.134c-.073-1.61 1.159-2.672 2.891-2.672 1.623 0 2.757 1 2.757 2.428 0 1.025-.622 1.781-1.39 2.428-1.281 1.037-2.916 1.793-3.099 2.94h4.587V102h-5.844zm7.334.317v-.927h2.489V96.01h-1.977v-.94h1.672a.3.3 0 0 0 .305-.292V93.46h1.098v7.613h2.476V102zm10.591.159c-1.611 0-2.611-.781-2.721-2.087h1.098c.147.818.696 1.208 1.647 1.208.83 0 1.342-.378 1.342-.964 0-.451-.329-.768-.964-.878l-1.207-.244c-.879-.17-1.745-.586-1.745-1.708 0-1.025.964-1.793 2.403-1.793 1.391 0 2.404.585 2.526 1.927h-1.098c-.11-.683-.622-1.049-1.44-1.049-.781 0-1.305.366-1.305.878 0 .488.427.72.915.818l1.281.244c.866.17 1.744.646 1.744 1.744 0 1.147-1.012 1.904-2.476 1.904"/><path fill="#38cc6e" d="M90.065 38.695c0-1.55 1.062-2.477 2.16-3.27 1.134-.817 2.318-1.488 2.318-2.55 0-.841-.586-1.317-1.428-1.317-.963 0-1.488.598-1.5 1.513H90.15c-.061-1.696 1.195-2.794 3.025-2.794 1.684 0 2.892.988 2.892 2.513 0 1.025-.598 1.781-1.342 2.404-1.123.927-2.562 1.598-2.855 2.574h4.294V39h-6.1zm10.469.464c-2.086 0-3.33-1.708-3.33-4.429 0-2.733 1.244-4.416 3.33-4.416s3.343 1.683 3.343 4.416c0 2.72-1.256 4.429-3.343 4.429m-1.817-4.429c0 1.952.56 3.184 1.817 3.184 1.269 0 1.818-1.232 1.818-3.184 0-1.964-.549-3.172-1.818-3.172-1.256 0-1.817 1.208-1.817 3.172m13.801 6.295v-8.174h1.415v.89c.488-.719 1.183-1.048 2.013-1.048 1.366 0 2.574 1.22 2.574 3.257 0 2.013-1.208 3.209-2.574 3.209-.83 0-1.574-.366-2.013-1.037v2.903zm1.366-5.087c0 1.183.586 2.05 1.598 2.05 1.001 0 1.574-.855 1.574-2.038 0-1.196-.573-2.086-1.574-2.086-1.012 0-1.598.89-1.598 2.074m7.968 3.22c-1.22 0-2.001-.707-2.001-1.78 0-1.44 1.245-1.794 2.282-1.953l1.183-.17c.451-.061.561-.305.561-.586v-.012c0-.5-.341-.89-1.086-.89-.744 0-1.22.34-1.305 1.012h-1.415c.171-1.367 1.256-2.086 2.733-2.086 1.659 0 2.476.793 2.476 2.281v2.635c0 .171.122.28.293.28h.329V39H125c-.623 0-1.013-.305-1.013-.78v-.135c-.537.78-1.342 1.074-2.135 1.074m-.561-1.927c0 .549.402.854 1.012.854.976 0 1.574-.805 1.574-1.818v-.33c-.171.098-.354.135-.561.184l-.915.158c-.769.135-1.11.427-1.11.952m9.103 1.928c-1.684 0-2.684-.806-2.782-2.087h1.427c.135.684.61 1 1.391 1 .696 0 1.147-.304 1.147-.78 0-.378-.281-.622-.805-.732l-1.22-.244c-.915-.195-1.757-.647-1.757-1.745 0-1.122 1.025-1.878 2.501-1.878 1.452 0 2.477.61 2.611 1.952h-1.428c-.097-.574-.512-.879-1.195-.879-.647 0-1.086.305-1.086.732 0 .415.342.61.781.696l1.317.256c.818.158 1.708.634 1.708 1.757 0 1.232-1.098 1.952-2.61 1.952m7.443 0c-1.684 0-2.684-.806-2.782-2.087h1.428c.134.684.61 1 1.391 1 .695 0 1.146-.304 1.146-.78 0-.378-.28-.622-.805-.732l-1.22-.244c-.915-.195-1.757-.647-1.757-1.745 0-1.122 1.025-1.878 2.501-1.878 1.452 0 2.477.61 2.611 1.952h-1.427c-.098-.574-.513-.879-1.196-.879-.646 0-1.086.305-1.086.732 0 .415.342.61.781.696l1.318.256c.817.158 1.708.634 1.708 1.757 0 1.232-1.098 1.952-2.611 1.952m7.443 0c-1.83 0-2.989-1.379-2.989-3.233 0-1.843 1.159-3.233 2.989-3.233 1.611 0 2.928.927 2.831 3.586h-4.417c.11 1.05.598 1.77 1.599 1.77.695 0 1.159-.403 1.329-.891h1.391c-.158 1.037-1.122 2-2.733 2m-1.561-3.831h3.001c-.085-1.086-.61-1.537-1.44-1.537-.939 0-1.403.67-1.561 1.537m8.419 3.83c-1.378 0-2.574-1.22-2.574-3.257 0-2.013 1.196-3.208 2.574-3.208.83 0 1.562.366 2.001 1.037v-3.27h1.415V39h-1.415v-.89c-.488.72-1.171 1.049-2.001 1.049m-1.122-3.257c0 1.196.573 2.086 1.574 2.086 1.012 0 1.598-.89 1.598-2.074s-.586-2.05-1.598-2.05c-1.001 0-1.574.855-1.574 2.038M93.189 60.183c-1.904 0-3.307-1.269-3.307-4.44 0-3.026 1.489-4.466 3.465-4.466 1.72 0 2.757 1.11 2.794 2.355h-1.476c-.122-.769-.671-1.147-1.379-1.147-1.098 0-1.89.964-1.89 2.94.475-.769 1.305-1.05 2.073-1.05 1.513 0 2.855 1.026 2.855 2.819 0 1.806-1.269 2.989-3.135 2.989m-1.623-2.928c0 1.025.72 1.696 1.623 1.696.915 0 1.647-.671 1.647-1.696s-.732-1.696-1.647-1.696c-.903 0-1.623.671-1.623 1.696M101.132 60v-2.208H97.24v-1.415l3.721-4.917h1.647v5.1h1.245v1.232h-1.245V60zm-2.537-3.44h2.537v-3.392zm6.357 3.135c0-1.55 1.062-2.477 2.16-3.27 1.134-.817 2.318-1.488 2.318-2.55 0-.841-.586-1.317-1.428-1.317-.964 0-1.488.598-1.5 1.513h-1.464c-.061-1.696 1.195-2.794 3.025-2.794 1.684 0 2.892.988 2.892 2.513 0 1.025-.598 1.781-1.342 2.404-1.123.927-2.562 1.598-2.855 2.574h4.294V60h-6.1zm15.009 2.33v-8.174h1.415v.89c.488-.719 1.184-1.048 2.013-1.048 1.367 0 2.574 1.22 2.574 3.257 0 2.013-1.207 3.209-2.574 3.209-.829 0-1.574-.366-2.013-1.037v2.903zm1.366-5.087c0 1.183.586 2.05 1.599 2.05 1 0 1.573-.855 1.573-2.038 0-1.196-.573-2.086-1.573-2.086-1.013 0-1.599.89-1.599 2.074m7.969 3.22c-1.22 0-2.001-.707-2.001-1.78 0-1.44 1.244-1.794 2.281-1.953l1.184-.17c.451-.061.561-.305.561-.586v-.012c0-.5-.342-.89-1.086-.89s-1.22.34-1.305 1.012h-1.416c.171-1.367 1.257-2.086 2.733-2.086 1.659 0 2.477.793 2.477 2.281v2.635c0 .171.122.28.293.28h.329V60h-.903c-.622 0-1.012-.305-1.012-.78v-.135c-.537.78-1.342 1.074-2.135 1.074m-.562-1.927c0 .549.403.854 1.013.854.976 0 1.574-.805 1.574-1.818v-.33c-.171.098-.354.135-.561.184l-.915.158c-.769.135-1.111.427-1.111.952m9.103 1.928c-1.684 0-2.684-.806-2.782-2.087h1.428c.134.684.61 1 1.391 1 .695 0 1.146-.304 1.146-.78 0-.378-.28-.622-.805-.732l-1.22-.244c-.915-.195-1.757-.647-1.757-1.745 0-1.122 1.025-1.878 2.501-1.878 1.452 0 2.477.61 2.611 1.952h-1.427c-.098-.574-.513-.879-1.196-.879-.646 0-1.086.305-1.086.732 0 .415.342.61.781.696l1.318.256c.817.158 1.708.634 1.708 1.757 0 1.232-1.098 1.952-2.611 1.952m7.443 0c-1.683 0-2.684-.806-2.781-2.087h1.427c.134.684.61 1 1.391 1 .695 0 1.147-.304 1.147-.78 0-.378-.281-.622-.805-.732l-1.22-.244c-.915-.195-1.757-.647-1.757-1.745 0-1.122 1.025-1.878 2.501-1.878 1.452 0 2.476.61 2.611 1.952h-1.428c-.097-.574-.512-.879-1.195-.879-.647 0-1.086.305-1.086.732 0 .415.341.61.781.696l1.317.256c.818.158 1.708.634 1.708 1.757 0 1.232-1.098 1.952-2.611 1.952m7.444 0c-1.83 0-2.989-1.379-2.989-3.233 0-1.843 1.159-3.233 2.989-3.233 1.61 0 2.928.927 2.83 3.586h-4.416c.11 1.05.598 1.77 1.598 1.77.695 0 1.159-.403 1.33-.891h1.391c-.159 1.037-1.123 2-2.733 2m-1.562-3.831h3.001c-.085-1.086-.61-1.537-1.439-1.537-.94 0-1.403.67-1.562 1.537m8.42 3.83c-1.379 0-2.575-1.22-2.575-3.257 0-2.013 1.196-3.208 2.575-3.208.829 0 1.561.366 2 1.037v-3.27h1.416V60h-1.416v-.89c-.488.72-1.171 1.049-2 1.049m-1.123-3.257c0 1.196.574 2.086 1.574 2.086 1.013 0 1.598-.89 1.598-2.074s-.585-2.05-1.598-2.05c-1 0-1.574.855-1.574 2.038"/><path fill="#f4f3ec" fill-opacity=".4" d="M168.489 41.025c-1.488-1.866-2.159-3.72-2.159-5.868 0-2.196.671-4.063 2.159-5.917h.878c-1.329 2.135-1.866 3.83-1.866 5.917 0 2.062.524 3.745 1.866 5.868zm3.576-2.342c0-1.5 1.061-2.391 2.159-3.184 1.184-.842 2.428-1.562 2.428-2.733 0-.964-.683-1.513-1.647-1.513-1.11 0-1.72.683-1.708 1.696h-1.134c-.074-1.61 1.159-2.672 2.891-2.672 1.623 0 2.757 1 2.757 2.428 0 1.025-.622 1.781-1.391 2.428-1.281 1.037-2.915 1.793-3.098 2.94h4.587V39h-5.844zm10.347.476c-1.988 0-3.245-1.66-3.245-4.429 0-2.782 1.257-4.416 3.245-4.416 2.001 0 3.258 1.634 3.258 4.416 0 2.77-1.257 4.429-3.258 4.429m-2.098-4.429c0 2.196.695 3.477 2.098 3.477 1.415 0 2.099-1.281 2.099-3.477 0-2.208-.684-3.465-2.099-3.465-1.403 0-2.098 1.257-2.098 3.465m7.724 6.295c1.342-2.123 1.866-3.806 1.866-5.868 0-2.086-.536-3.782-1.866-5.917h.878c1.489 1.854 2.16 3.721 2.16 5.917 0 2.147-.671 4.002-2.16 5.868zm-12.106 21c-1.488-1.866-2.159-3.72-2.159-5.868 0-2.196.671-4.063 2.159-5.917h.879c-1.33 2.135-1.867 3.83-1.867 5.917 0 2.062.525 3.745 1.867 5.868zm6.578-1.842c-1.769 0-3.184-1.183-3.184-4.429 0-3.05 1.464-4.477 3.355-4.477 1.647 0 2.635 1.122 2.647 2.318h-1.122c-.147-.927-.793-1.354-1.599-1.354-1.329 0-2.135 1.195-2.135 3.404.513-.94 1.452-1.245 2.233-1.245 1.525 0 2.83 1.037 2.83 2.83 0 1.77-1.281 2.953-3.025 2.953m-1.855-2.904c0 1.184.818 1.965 1.867 1.965 1.037 0 1.867-.781 1.867-1.965 0-1.17-.83-1.964-1.867-1.964-1.049 0-1.867.793-1.867 1.964M190.649 60v-2.342h-3.978V56.56l3.746-5.1h1.354v5.283h1.293v.915h-1.293V60zm-2.904-3.257h2.904v-3.965zm6.65 2.94c0-1.5 1.062-2.391 2.16-3.184 1.183-.842 2.428-1.562 2.428-2.733 0-.964-.684-1.513-1.647-1.513-1.111 0-1.721.683-1.708 1.696h-1.135c-.073-1.61 1.159-2.672 2.891-2.672 1.623 0 2.758 1 2.758 2.428 0 1.025-.623 1.781-1.391 2.428-1.281 1.037-2.916 1.793-3.099 2.94h4.587V60h-5.844zm8.53 2.342c1.342-2.123 1.866-3.806 1.866-5.868 0-2.086-.537-3.782-1.866-5.917h.878c1.488 1.854 2.159 3.721 2.159 5.917 0 2.147-.671 4.002-2.159 5.868z"/></svg>