<svg xmlns="http://www.w3.org/2000/svg" width="608" height="509" fill="none" viewBox="0 0 608 509"><rect width="674" height="563" y=".59" fill="#08060d" fill-opacity=".3" rx="6"/><rect width="673" height="562" x=".5" y="1.09" stroke="#fff" stroke-opacity=".2" rx="5.5"/><rect width="666" height="535.59" x="4" y="4.59" fill="#14121a" rx="4"/><path stroke="#3b3440" d="M83 195.68v49.686a8 8 0 0 0 2.343 5.657l5.814 5.814a8 8 0 0 1 2.343 5.656v103.873a8 8 0 0 1-2.343 5.657l-5.814 5.814A8 8 0 0 0 83 383.493V520.18"/><path stroke="url(#a)" d="M83 195.68v49.686a8 8 0 0 0 2.343 5.657l5.814 5.814a8 8 0 0 1 2.343 5.656v103.873a8 8 0 0 1-2.343 5.657l-5.814 5.814A8 8 0 0 0 83 383.493V520.18"/><rect width="562" height="85" x="24.5" y="25.09" fill="#0c0912" rx="3.5"/><rect width="562" height="85" x="24.5" y="25.09" stroke="#3b3440" rx="3.5"/><g clip-path="url(#b)"><path fill="#99adff" d="M37.59 49.09v-3.738h-1.344v-.462h3.228v.462H38.13v3.738zm3.985.078c-1.026 0-1.638-.624-1.668-1.38h.564c.084.57.54.9 1.11.9.516 0 .984-.234.984-.738 0-.33-.216-.516-.666-.642l-.684-.186c-.522-.138-1.146-.348-1.146-1.146 0-.69.618-1.164 1.464-1.164.894 0 1.434.534 1.47 1.248h-.564c-.084-.486-.402-.78-.918-.78-.498 0-.876.264-.876.666 0 .342.222.51.702.642l.708.192c.708.192 1.086.528 1.086 1.128 0 .78-.642 1.26-1.566 1.26"/></g><rect width="12.75" height="12.75" x="32.625" y="38.715" stroke="#99adff" stroke-width=".75" rx="2.375"/><path fill="#f4f3ec" fill-opacity=".5" d="M53.074 49.59v-1.464h1.416v1.464zm7.444 0v-1.464h1.415v1.464zm5.735 1.195 3.758-9.735h1.061l-3.757 9.735zm96.765 0 3.757-9.735h1.062l-3.758 9.735zm29.774 0 3.757-9.735h1.062l-3.758 9.735z"/><path fill="#f4f3ec" d="M75.783 49.748c-1.476 0-2.672-1.317-2.672-3.257 0-1.928 1.196-3.209 2.672-3.209.866 0 1.61.366 2.05 1.074V41.05h1.085v8.54h-1.086v-.927c-.487.732-1.183 1.085-2.05 1.085m-1.55-3.257c0 1.354.671 2.355 1.818 2.355 1.16 0 1.843-1 1.843-2.343 0-1.33-.684-2.318-1.843-2.318-1.147 0-1.817.964-1.817 2.306m9.42 3.257c-1.805 0-2.94-1.378-2.94-3.233 0-1.842 1.135-3.233 2.94-3.233 1.525 0 2.867.867 2.72 3.514h-4.55c.086 1.135.61 2.062 1.83 2.062.818 0 1.354-.5 1.537-1.074h1.074c-.17 1.025-1.135 1.964-2.61 1.964m-1.805-3.77h3.477c-.086-1.232-.66-1.805-1.672-1.805-1.11 0-1.659.805-1.805 1.806m8.383 3.612-2.477-6.149h1.159l2.013 5.234 2.013-5.234h1.147l-2.477 6.149zm8.614 0c-1.049 0-1.55-.427-1.55-1.452v-3.806h-1.83v-.891h1.55c.171 0 .28-.11.28-.268v-1.77h1.074v2.038h2.428v.89h-2.428v3.66c0 .44.183.696.732.696h1.965v.903zm7.041.158c-1.867 0-2.965-1.39-2.965-3.233 0-1.83 1.098-3.233 2.965-3.233s2.965 1.403 2.965 3.233c0 1.843-1.098 3.233-2.965 3.233m-1.854-3.245c0 1.196.512 2.343 1.854 2.343s1.854-1.147 1.854-2.343c0-1.183-.512-2.318-1.854-2.318s-1.854 1.135-1.854 2.318m9.297 3.245c-1.866 0-2.964-1.39-2.964-3.233 0-1.83 1.098-3.233 2.964-3.233 1.867 0 2.965 1.403 2.965 3.233 0 1.843-1.098 3.233-2.965 3.233m-1.854-3.245c0 1.196.512 2.343 1.854 2.343s1.855-1.147 1.855-2.343c0-1.183-.513-2.318-1.855-2.318s-1.854 1.135-1.854 2.318m6.382 3.087v-.89h2.379v-6.76h-1.94v-.89h3.026v7.65h2.367v.89zm10.481.158c-1.61 0-2.611-.78-2.72-2.086h1.098c.146.818.695 1.208 1.647 1.208.829 0 1.342-.378 1.342-.964 0-.451-.33-.768-.964-.878l-1.208-.244c-.878-.171-1.745-.586-1.745-1.708 0-1.025.964-1.794 2.404-1.794 1.391 0 2.403.586 2.525 1.928h-1.098c-.11-.683-.622-1.05-1.439-1.05-.781 0-1.306.367-1.306.88 0 .487.427.719.915.817l1.281.244c.866.17 1.745.646 1.745 1.744 0 1.147-1.013 1.903-2.477 1.903m5.675-3.257v-.988h3.294v.988zm7.211 3.099V43.44h1.111v1.037a2 2 0 0 1 1.756-1.037h1.477v1.037h-1.562c-.976 0-1.671.634-1.671 1.867v3.245zm6.517 2.025v-8.174h1.073v.927c.5-.732 1.196-1.086 2.062-1.086 1.464 0 2.672 1.318 2.672 3.258 0 1.927-1.208 3.208-2.672 3.208-.866 0-1.623-.366-2.062-1.073v2.94zm1.024-5.087c0 1.33.684 2.318 1.843 2.318 1.146 0 1.817-.964 1.817-2.306 0-1.354-.671-2.355-1.817-2.355-1.159 0-1.843 1-1.843 2.343m9.384 3.22c-1.794 0-2.965-1.39-2.965-3.233 0-1.83 1.171-3.233 2.977-3.233 1.403 0 2.44.854 2.635 2.27h-1.098c-.171-.867-.769-1.367-1.549-1.367-1.281 0-1.843 1.098-1.843 2.318 0 1.232.562 2.343 1.843 2.343.793 0 1.329-.415 1.549-1.208h1.086c-.232 1.256-1.171 2.11-2.635 2.11m14.85 0c-1.611 0-2.611-.78-2.721-2.086h1.098c.147.818.696 1.208 1.647 1.208.83 0 1.342-.378 1.342-.964 0-.451-.329-.768-.964-.878l-1.207-.244c-.879-.171-1.745-.586-1.745-1.708 0-1.025.964-1.794 2.403-1.794 1.391 0 2.404.586 2.526 1.928h-1.098c-.11-.683-.622-1.05-1.44-1.05-.781 0-1.305.367-1.305.88 0 .487.427.719.915.817l1.281.244c.866.17 1.744.646 1.744 1.744 0 1.147-1.012 1.903-2.476 1.903m5.443-.158V43.44h1.11v1.037a2 2 0 0 1 1.757-1.037h1.476v1.037h-1.562c-.976 0-1.671.634-1.671 1.867v3.245zm9.48.158c-1.793 0-2.964-1.39-2.964-3.233 0-1.83 1.171-3.233 2.977-3.233 1.403 0 2.44.854 2.635 2.27h-1.098c-.171-.867-.769-1.367-1.55-1.367-1.281 0-1.842 1.098-1.842 2.318 0 1.232.561 2.343 1.842 2.343.793 0 1.33-.415 1.55-1.208h1.086c-.232 1.256-1.172 2.11-2.636 2.11m14.887 0c-1.793 0-2.964-1.39-2.964-3.233 0-1.83 1.171-3.233 2.976-3.233 1.403 0 2.44.854 2.636 2.27h-1.098c-.171-.867-.769-1.367-1.55-1.367-1.281 0-1.842 1.098-1.842 2.318 0 1.232.561 2.343 1.842 2.343.793 0 1.33-.415 1.55-1.208h1.085c-.231 1.256-1.171 2.11-2.635 2.11m4.369-.158v-.89h2.379v-6.76h-1.94v-.89h3.026v7.65h2.367v.89zm7.517 0v-.915h2.293v-4.319h-2.049v-.915h3.16v5.234h2.281v.915zm2.245-7.198V41.05h1.22v1.342zm8.138 7.356c-1.805 0-2.94-1.378-2.94-3.233 0-1.842 1.135-3.233 2.94-3.233 1.525 0 2.867.867 2.721 3.514h-4.551c.086 1.135.61 2.062 1.83 2.062.818 0 1.355-.5 1.538-1.074h1.073c-.171 1.025-1.134 1.964-2.611 1.964m-1.805-3.77h3.477c-.086-1.232-.659-1.805-1.672-1.805-1.11 0-1.659.805-1.805 1.806m6.48 3.612V43.44h1.085v.927c.391-.683 1.184-1.086 2.062-1.086 1.33 0 2.257.842 2.257 2.477v3.83h-1.073V45.82c0-1.074-.61-1.635-1.501-1.635-.964 0-1.745.769-1.745 1.855v3.55zm10.517 0c-1.049 0-1.549-.427-1.549-1.452v-3.806h-1.83v-.891h1.549c.171 0 .281-.11.281-.268v-1.77h1.074v2.038h2.427v.89h-2.427v3.66c0 .44.183.696.732.696h1.964v.903zm6.334 0v-1.464h1.415v1.464zm8.553 0c-1.049 0-1.549-.427-1.549-1.452v-3.806h-1.83v-.891h1.549c.171 0 .281-.11.281-.268v-1.77h1.073v2.038h2.428v.89h-2.428v3.66c0 .44.183.696.732.696h1.965v.903zm7.163.158c-1.61 0-2.611-.78-2.721-2.086h1.098c.147.818.696 1.208 1.647 1.208.83 0 1.342-.378 1.342-.964 0-.451-.329-.768-.963-.878l-1.208-.244c-.879-.171-1.745-.586-1.745-1.708 0-1.025.964-1.794 2.404-1.794 1.39 0 2.403.586 2.525 1.928h-1.098c-.11-.683-.622-1.05-1.44-1.05-.78 0-1.305.367-1.305.88 0 .487.427.719.915.817l1.281.244c.866.17 1.745.646 1.745 1.744 0 1.147-1.013 1.903-2.477 1.903"/><rect width="176.667" height="28" x="33.5" y="72.09" fill="#14121a" rx="3.5"/><rect width="176.667" height="28" x="33.5" y="72.09" stroke="#3b3440" rx="3.5"/><g stroke="#b399ff" stroke-width=".75" clip-path="url(#c)"><path d="M92.333 81.715a1.458 1.458 0 1 1-2.917 0 1.458 1.458 0 0 1 2.917 0ZM92.333 90.465a1.458 1.458 0 1 1-2.917 0 1.458 1.458 0 0 1 2.917 0ZM87.667 86.09a2.333 2.333 0 1 1-4.667 0 2.333 2.333 0 0 1 4.667 0Z"/><path stroke-linecap="round" stroke-linejoin="round" d="M94.667 81.715h-2.334m-7 2.041c0-.819 0-1.228.197-1.523q.129-.192.322-.322c.294-.196.704-.196 1.523-.196h2.042m5.25 8.75h-2.334m-7-2.042c0 .82 0 1.23.197 1.523q.129.193.322.322c.294.197.704.197 1.523.197h2.042"/></g><path fill="#b399ff" d="M107.663 90.59v-8.54h3.794c1.427 0 2.464.744 2.464 2.062.013 1-.622 1.744-1.622 2.037 1.305.207 2.025 1.025 2.025 2.074 0 1.39-1.098 2.367-2.855 2.367zm1.476-1.196h2.172c.793 0 1.488-.439 1.488-1.342 0-.793-.634-1.293-1.452-1.293h-2.208zm0-3.782h2.013c.805 0 1.281-.573 1.281-1.244 0-.659-.415-1.11-1.244-1.11h-2.05zm8.24 5.136c-1.245 0-2.111-.83-2.111-2.305V84.44h1.428v3.733c0 .915.512 1.391 1.268 1.391.806 0 1.44-.659 1.44-1.61V84.44h1.427v6.149h-1.415v-.988c-.378.756-1.122 1.146-2.037 1.146m4.727-.158V84.44h1.427v6.149zm-.049-7.064V82.05h1.525v1.476zm2.775 7.064v-8.54h1.415v8.54zm4.945.158c-1.366 0-2.574-1.22-2.574-3.257 0-2.013 1.208-3.209 2.574-3.209.842 0 1.574.366 2.013 1.037v-3.27h1.416v8.54h-1.416v-.89c-.488.72-1.171 1.05-2.013 1.05m-1.122-3.257c0 1.196.573 2.086 1.586 2.086s1.598-.89 1.598-2.074-.585-2.05-1.598-2.05-1.586.855-1.586 2.038m8.335 3.099v-8.54h5.893v1.232h-4.417v2.355h4.087v1.195h-4.087v3.758zm6.786 0v-8.54h1.415v8.54zm5.397.158c-1.916 0-3.026-1.378-3.026-3.233 0-1.842 1.11-3.233 3.026-3.233s3.013 1.391 3.013 3.233c0 1.855-1.098 3.233-3.013 3.233m-1.574-3.245c0 1.11.439 2.099 1.574 2.099 1.134 0 1.573-.989 1.573-2.099 0-1.098-.439-2.074-1.573-2.074-1.135 0-1.574.976-1.574 2.074m6.649 3.087-1.818-6.149h1.464l1.184 4.465 1.244-4.465h1.281l1.196 4.477 1.22-4.477h1.427l-1.867 6.149h-1.451l-1.172-4.343-1.256 4.343z"/><rect width="176.667" height="28" x="217.167" y="72.09" stroke="#3b3440" rx="3.5"/><g stroke="#fff" stroke-width=".75" clip-path="url(#d)" opacity=".5"><path d="M282 91.923a5.833 5.833 0 1 0 0-11.667 5.833 5.833 0 1 0 0 11.667Z"/><path d="M282 89.007a2.917 2.917 0 1 0 0-5.834 2.917 2.917 0 0 0 0 5.834Z"/><path stroke-linecap="round" d="M279.083 86.09h-2.916"/><path stroke-linecap="round" stroke-linejoin="round" d="M282 89.006v2.917"/></g><path fill="#f4f3ec" fill-opacity=".5" d="M304.355 90.748c-2.305 0-3.855-1.756-3.855-4.428 0-2.66 1.586-4.429 3.855-4.429 1.989 0 3.233 1.232 3.477 3.075h-1.146c-.22-1.123-.94-2.123-2.331-2.123-1.695 0-2.708 1.488-2.708 3.477 0 1.976 1.037 3.477 2.708 3.477 1.452 0 2.233-1.037 2.404-2.16h1.159c-.342 2.087-1.696 3.111-3.563 3.111m4.752-.158v-8.54h1.073v3.318c.391-.67 1.111-1.086 2.013-1.086 1.257 0 2.184.83 2.184 2.477v3.83h-1.073V86.82c0-1.074-.598-1.635-1.44-1.635-.915 0-1.684.769-1.684 1.867v3.538zm8.401.158c-1.257 0-2.062-.732-2.062-1.817 0-1.44 1.232-1.757 2.232-1.891l1.33-.171c.488-.073.586-.354.586-.635 0-.597-.403-1.085-1.33-1.085-.915 0-1.44.427-1.537 1.183h-1.074c.134-1.232 1.123-2.05 2.587-2.05 1.634 0 2.415.818 2.415 2.196v2.99c0 .134.11.231.256.231h.379v.89h-.732c-.586 0-.903-.304-.903-.756v-.146c-.537.793-1.391 1.061-2.147 1.061m-.952-1.866c0 .634.476 1 1.22 1 1.098 0 1.818-.805 1.818-2.013v-.439c-.208.11-.415.146-.622.183l-1.086.17c-.927.147-1.33.477-1.33 1.099m5.697 1.708V84.44h1.074v1.025c.378-.757.963-1.025 1.683-1.025h.342v1.013h-.427c-.976 0-1.598.61-1.598 1.878v3.258zm5.961 0c-.939 0-1.378-.403-1.378-1.44v-3.83h-.976v-.879h.695c.171 0 .281-.11.281-.268v-1.77h1.061v2.038h1.354v.878h-1.354v3.673c0 .524.147.707.635.707h.866v.89zm4.441.158c-1.61 0-2.61-.768-2.72-2.086h1.098c.146.818.695 1.22 1.647 1.22.829 0 1.354-.378 1.354-.976 0-.451-.342-.768-.976-.89l-1.196-.232c-.89-.171-1.744-.586-1.744-1.72 0-1.013.951-1.782 2.391-1.782 1.391 0 2.403.586 2.525 1.916h-1.085c-.122-.683-.623-1.05-1.452-1.05-.781 0-1.306.367-1.306.891 0 .5.427.72.928.818l1.268.244c.879.17 1.757.646 1.757 1.744 0 1.147-1.025 1.903-2.489 1.903"/><rect width="176.667" height="28" x="400.833" y="72.09" stroke="#3b3440" rx="3.5"/><g stroke="#fff" stroke-linecap="round" stroke-linejoin="round" stroke-width=".75" clip-path="url(#e)" opacity=".5"><path d="M467.833 87.843v-2.535c0-.477 0-.715-.089-.93-.089-.214-.257-.383-.594-.72l-2.763-2.764c-.291-.292-.437-.437-.617-.523a1 1 0 0 0-.115-.048c-.189-.067-.394-.067-.806-.067-1.893 0-2.839 0-3.48.517q-.196.158-.352.353c-.517.64-.517 1.588-.517 3.481v2.652c0 2.201 0 3.302.683 3.985.55.55 1.37.658 2.817.679m1.75-11.375v.292c0 1.65 0 2.476.512 2.989.513.513 1.338.513 2.988.513h.291"/><path d="M464.917 91.923c-.354-.344-1.75-1.26-1.75-1.75s1.396-1.406 1.75-1.75m-1.167 1.75h4.083"/></g><path fill="#f4f3ec" fill-opacity=".5" d="M482.106 90.59v-8.54h1.098v8.54zm2.698 0V84.44h1.073v.878c.342-.683 1.098-1.037 1.83-1.037.805 0 1.489.5 1.708 1.27.354-.745 1.086-1.27 2.111-1.27 1.342 0 2.123.83 2.123 2.343v3.965h-1.074v-3.782c0-1.074-.476-1.623-1.305-1.623-.952 0-1.501.757-1.501 1.842v3.563h-1.074v-3.782c0-1.074-.488-1.623-1.329-1.623-.806 0-1.489.757-1.489 1.842v3.563zm10.207 2.025v-8.174h1.074v.927c.5-.744 1.195-1.086 2.049-1.086 1.501 0 2.684 1.318 2.684 3.246s-1.183 3.22-2.684 3.22c-.854 0-1.61-.378-2.049-1.073v2.94zm1.013-5.1c0 1.342.695 2.33 1.854 2.33 1.171 0 1.83-.963 1.83-2.317 0-1.342-.659-2.355-1.83-2.355-1.159 0-1.854 1.013-1.854 2.342m8.469 3.233c-1.866 0-2.964-1.39-2.964-3.233 0-1.83 1.098-3.233 2.964-3.233 1.867 0 2.965 1.403 2.965 3.233 0 1.843-1.098 3.233-2.965 3.233m-1.854-3.245c0 1.208.5 2.355 1.854 2.355 1.342 0 1.855-1.147 1.855-2.355 0-1.195-.513-2.33-1.855-2.33-1.354 0-1.854 1.135-1.854 2.33m5.877 3.087V84.44h1.073v1.025c.379-.757.964-1.025 1.684-1.025h.342v1.013h-.427c-.976 0-1.599.61-1.599 1.878v3.258zm5.961 0c-.939 0-1.378-.403-1.378-1.44v-3.83h-.976v-.879h.695c.171 0 .281-.11.281-.268v-1.77h1.061v2.038h1.354v.878h-1.354v3.673c0 .524.146.707.634.707h.867v.89zm4.441.158c-1.61 0-2.61-.768-2.72-2.086h1.098c.146.818.695 1.22 1.647 1.22.829 0 1.354-.378 1.354-.976 0-.451-.342-.768-.976-.89l-1.196-.232c-.89-.171-1.744-.586-1.744-1.72 0-1.013.951-1.782 2.391-1.782 1.391 0 2.403.586 2.525 1.916h-1.085c-.122-.683-.623-1.05-1.452-1.05-.781 0-1.306.367-1.306.891 0 .5.427.72.928.818l1.268.244c.879.17 1.757.646 1.757 1.744 0 1.147-1.025 1.903-2.489 1.903"/><rect width="87" height="24" x="46.5" y="126.68" stroke="#3b3440" stroke-dasharray="2 2" rx="5.5"/><path stroke="#745df5" stroke-width=".75" d="M58.667 142.18a1.167 1.167 0 1 0-2.333-.001 1.167 1.167 0 0 0 2.333.001ZM65.667 138.68a1.167 1.167 0 1 0-2.333-.001 1.167 1.167 0 0 0 2.333.001ZM58.667 135.18a1.167 1.167 0 1 0-2.333-.001 1.167 1.167 0 0 0 2.333.001Z"/><path stroke="#745df5" stroke-linecap="round" stroke-linejoin="round" stroke-width=".75" d="M59.099 142.17c.976 0 2.017.141 1.893-1.869v-1.624m0 0v-2.206c-.13-.661 0-1.365-1.99-1.287m1.99 3.493h2.166"/><path fill="#745df5" d="M74.94 143.18v-8.54h1.097v8.54zm2.697 0v-6.149h1.074v.878c.341-.683 1.098-1.037 1.83-1.037.805 0 1.488.5 1.708 1.269.353-.744 1.085-1.269 2.11-1.269 1.342 0 2.123.83 2.123 2.343v3.965h-1.074v-3.782c0-1.074-.475-1.623-1.305-1.623-.952 0-1.5.756-1.5 1.842v3.563h-1.074v-3.782c0-1.074-.488-1.623-1.33-1.623-.805 0-1.488.756-1.488 1.842v3.563zm10.207 2.025v-8.174h1.074v.927c.5-.744 1.196-1.086 2.05-1.086 1.5 0 2.684 1.318 2.684 3.245s-1.184 3.221-2.684 3.221c-.854 0-1.61-.378-2.05-1.073v2.94zm1.013-5.1c0 1.342.695 2.33 1.855 2.33 1.17 0 1.83-.963 1.83-2.318 0-1.342-.66-2.354-1.83-2.354-1.16 0-1.855 1.012-1.855 2.342m8.47 3.233c-1.867 0-2.965-1.391-2.965-3.233 0-1.83 1.098-3.233 2.965-3.233s2.964 1.403 2.964 3.233c0 1.842-1.097 3.233-2.964 3.233m-1.855-3.245c0 1.208.5 2.355 1.855 2.355 1.342 0 1.854-1.147 1.854-2.355 0-1.196-.512-2.33-1.854-2.33-1.354 0-1.855 1.134-1.855 2.33m5.877 3.087v-6.149h1.074v1.025c.378-.757.964-1.025 1.684-1.025h.341v1.012h-.427c-.976 0-1.598.61-1.598 1.879v3.258zm5.962 0c-.94 0-1.379-.403-1.379-1.44v-3.831h-.976v-.878h.695c.171 0 .281-.11.281-.269v-1.769h1.061v2.038h1.355v.878h-1.355v3.672c0 .525.147.708.635.708h.866v.891zm4.685.158c-1.806 0-2.94-1.378-2.94-3.233 0-1.842 1.134-3.233 2.94-3.233 1.525 0 2.867.866 2.72 3.514h-4.55c.073 1.122.598 2.062 1.83 2.062.817 0 1.354-.415 1.574-1.196h1.073c-.232 1.22-1.171 2.086-2.647 2.086m-1.806-3.77h3.477c-.073-1.232-.646-1.817-1.671-1.817-1.123 0-1.672.805-1.806 1.817m5.614 3.612v-6.149h1.074v1.025c.378-.757.964-1.025 1.684-1.025h.341v1.012h-.427c-.976 0-1.598.61-1.598 1.879v3.258zm6.319.158c-1.61 0-2.611-.768-2.72-2.086h1.098c.146.817.695 1.22 1.647 1.22.829 0 1.354-.378 1.354-.976 0-.451-.342-.769-.976-.891l-1.196-.231c-.89-.171-1.744-.586-1.744-1.721 0-1.012.951-1.781 2.391-1.781 1.391 0 2.403.586 2.525 1.916h-1.086c-.122-.684-.622-1.05-1.451-1.05-.781 0-1.306.366-1.306.891 0 .5.427.72.927.817l1.269.244c.879.171 1.757.647 1.757 1.745 0 1.147-1.025 1.903-2.489 1.903"/><path stroke="#f4f3ec" stroke-linecap="round" stroke-linejoin="round" stroke-opacity=".5" stroke-width=".75" d="M123.25 311.013h-7.583c-.645 0-1.167.522-1.167 1.167v8.166"/><path stroke="#f4f3ec" stroke-linecap="round" stroke-linejoin="round" stroke-opacity=".5" stroke-width=".75" d="m112.75 318.596 1.75 1.75 1.75-1.75"/><g clip-path="url(#f)"><path fill="#99adff" d="M134.59 319.68v-3.738h-1.344v-.462h3.228v.462h-1.344v3.738zm3.985.078c-1.026 0-1.638-.624-1.668-1.38h.564c.084.57.54.9 1.11.9.516 0 .984-.234.984-.738 0-.33-.216-.516-.666-.642l-.684-.186c-.522-.138-1.146-.348-1.146-1.146 0-.69.618-1.164 1.464-1.164.894 0 1.434.534 1.47 1.248h-.564c-.084-.486-.402-.78-.918-.78-.498 0-.876.264-.876.666 0 .342.222.51.702.642l.708.192c.708.192 1.086.528 1.086 1.128 0 .78-.642 1.26-1.566 1.26"/></g><rect width="12.75" height="12.75" x="129.625" y="309.305" stroke="#99adff" stroke-width=".75" rx="2.375"/><path fill="#f4f3ec" fill-opacity=".5" d="M150.074 320.18v-1.464h1.416v1.464zm7.444 0v-1.464h1.415v1.464zm5.735 1.195 3.758-9.735h1.061l-3.757 9.735zm96.765 0 3.757-9.735h1.062l-3.758 9.735zm29.774 0 3.757-9.735h1.062l-3.758 9.735z"/><path fill="#f4f3ec" d="M172.783 320.338c-1.476 0-2.672-1.317-2.672-3.257 0-1.928 1.196-3.209 2.672-3.209.866 0 1.61.366 2.049 1.074v-3.306h1.086v8.54h-1.086v-.928c-.488.732-1.183 1.086-2.049 1.086m-1.55-3.257c0 1.354.671 2.354 1.818 2.354 1.159 0 1.842-1 1.842-2.342 0-1.33-.683-2.318-1.842-2.318-1.147 0-1.818.964-1.818 2.306m9.42 3.257c-1.805 0-2.94-1.378-2.94-3.233 0-1.842 1.135-3.233 2.94-3.233 1.525 0 2.867.866 2.721 3.514h-4.551c.086 1.134.61 2.062 1.83 2.062.818 0 1.355-.501 1.538-1.074h1.073c-.171 1.025-1.134 1.964-2.611 1.964m-1.805-3.77h3.477c-.086-1.232-.659-1.805-1.672-1.805-1.11 0-1.659.805-1.805 1.805m8.383 3.612-2.477-6.149h1.159l2.013 5.234 2.013-5.234h1.147l-2.477 6.149zm8.614 0c-1.049 0-1.549-.427-1.549-1.452v-3.807h-1.83v-.89h1.549c.171 0 .281-.11.281-.269v-1.769h1.073v2.038h2.428v.89h-2.428v3.66c0 .44.183.696.732.696h1.965v.903zm7.041.158c-1.867 0-2.965-1.391-2.965-3.233 0-1.83 1.098-3.233 2.965-3.233s2.965 1.403 2.965 3.233c0 1.842-1.098 3.233-2.965 3.233m-1.854-3.245c0 1.196.512 2.342 1.854 2.342s1.854-1.146 1.854-2.342c0-1.183-.512-2.318-1.854-2.318s-1.854 1.135-1.854 2.318m9.297 3.245c-1.866 0-2.964-1.391-2.964-3.233 0-1.83 1.098-3.233 2.964-3.233 1.867 0 2.965 1.403 2.965 3.233 0 1.842-1.098 3.233-2.965 3.233m-1.854-3.245c0 1.196.512 2.342 1.854 2.342s1.855-1.146 1.855-2.342c0-1.183-.513-2.318-1.855-2.318s-1.854 1.135-1.854 2.318m6.382 3.087v-.891h2.379v-6.759h-1.94v-.89h3.026v7.649h2.367v.891zm10.481.158c-1.61 0-2.611-.781-2.72-2.086h1.098c.146.817.695 1.208 1.647 1.208.829 0 1.342-.378 1.342-.964 0-.451-.33-.769-.964-.878l-1.208-.244c-.878-.171-1.745-.586-1.745-1.708 0-1.025.964-1.794 2.404-1.794 1.391 0 2.403.586 2.525 1.928h-1.098c-.11-.683-.622-1.049-1.439-1.049-.781 0-1.306.366-1.306.878 0 .488.427.72.915.817l1.281.244c.866.171 1.745.647 1.745 1.745 0 1.147-1.013 1.903-2.477 1.903m5.675-3.257v-.988h3.294v.988zm7.211 3.099v-6.149h1.111v1.037a2 2 0 0 1 1.756-1.037h1.477v1.037h-1.562c-.976 0-1.671.634-1.671 1.866v3.246zm6.517 2.025v-8.174h1.073v.927c.5-.732 1.196-1.086 2.062-1.086 1.464 0 2.672 1.318 2.672 3.258 0 1.927-1.208 3.208-2.672 3.208-.866 0-1.623-.366-2.062-1.073v2.94zm1.024-5.088c0 1.33.684 2.318 1.843 2.318 1.146 0 1.817-.963 1.817-2.305 0-1.355-.671-2.355-1.817-2.355-1.159 0-1.843 1-1.843 2.342m9.384 3.221c-1.794 0-2.965-1.391-2.965-3.233 0-1.83 1.171-3.233 2.977-3.233 1.403 0 2.44.854 2.635 2.269h-1.098c-.171-.866-.769-1.366-1.549-1.366-1.281 0-1.843 1.098-1.843 2.318 0 1.232.562 2.342 1.843 2.342.793 0 1.329-.414 1.549-1.207h1.086c-.232 1.256-1.171 2.11-2.635 2.11m14.85 0c-1.611 0-2.611-.781-2.721-2.086h1.098c.147.817.696 1.208 1.647 1.208.83 0 1.342-.378 1.342-.964 0-.451-.329-.769-.964-.878l-1.207-.244c-.879-.171-1.745-.586-1.745-1.708 0-1.025.964-1.794 2.403-1.794 1.391 0 2.404.586 2.526 1.928h-1.098c-.11-.683-.622-1.049-1.44-1.049-.781 0-1.305.366-1.305.878 0 .488.427.72.915.817l1.281.244c.866.171 1.744.647 1.744 1.745 0 1.147-1.012 1.903-2.476 1.903m5.443-.158v-6.149h1.11v1.037a2 2 0 0 1 1.757-1.037h1.476v1.037h-1.562c-.976 0-1.671.634-1.671 1.866v3.246zm9.48.158c-1.793 0-2.964-1.391-2.964-3.233 0-1.83 1.171-3.233 2.977-3.233 1.403 0 2.44.854 2.635 2.269h-1.098c-.171-.866-.769-1.366-1.55-1.366-1.281 0-1.842 1.098-1.842 2.318 0 1.232.561 2.342 1.842 2.342.793 0 1.33-.414 1.55-1.207h1.086c-.232 1.256-1.172 2.11-2.636 2.11m14.887 0c-1.793 0-2.964-1.391-2.964-3.233 0-1.83 1.171-3.233 2.976-3.233 1.403 0 2.44.854 2.636 2.269h-1.098c-.171-.866-.769-1.366-1.55-1.366-1.281 0-1.842 1.098-1.842 2.318 0 1.232.561 2.342 1.842 2.342.793 0 1.33-.414 1.55-1.207h1.085c-.231 1.256-1.171 2.11-2.635 2.11m4.369-.158v-.891h2.379v-6.759h-1.94v-.89h3.026v7.649h2.367v.891zm7.517 0v-.915h2.293v-4.319h-2.049v-.915h3.16v5.234h2.281v.915zm2.245-7.198v-1.342h1.22v1.342zm8.138 7.356c-1.805 0-2.94-1.378-2.94-3.233 0-1.842 1.135-3.233 2.94-3.233 1.525 0 2.867.866 2.721 3.514h-4.551c.086 1.134.61 2.062 1.83 2.062.818 0 1.355-.501 1.538-1.074h1.073c-.171 1.025-1.134 1.964-2.611 1.964m-1.805-3.77h3.477c-.086-1.232-.659-1.805-1.672-1.805-1.11 0-1.659.805-1.805 1.805m6.48 3.612v-6.149h1.085v.927c.391-.683 1.184-1.086 2.062-1.086 1.33 0 2.257.842 2.257 2.477v3.831h-1.073v-3.77c0-1.074-.61-1.635-1.501-1.635-.964 0-1.745.769-1.745 1.854v3.551zm10.517 0c-1.049 0-1.549-.427-1.549-1.452v-3.807h-1.83v-.89h1.549c.171 0 .281-.11.281-.269v-1.769h1.074v2.038h2.427v.89h-2.427v3.66c0 .44.183.696.732.696h1.964v.903zm6.334 0v-1.464h1.415v1.464zm8.553 0c-1.049 0-1.549-.427-1.549-1.452v-3.807h-1.83v-.89h1.549c.171 0 .281-.11.281-.269v-1.769h1.073v2.038h2.428v.89h-2.428v3.66c0 .44.183.696.732.696h1.965v.903zm7.163.158c-1.61 0-2.611-.781-2.721-2.086h1.098c.147.817.696 1.208 1.647 1.208.83 0 1.342-.378 1.342-.964 0-.451-.329-.769-.963-.878l-1.208-.244c-.879-.171-1.745-.586-1.745-1.708 0-1.025.964-1.794 2.404-1.794 1.39 0 2.403.586 2.525 1.928h-1.098c-.11-.683-.622-1.049-1.44-1.049-.78 0-1.305.366-1.305.878 0 .488.427.72.915.817l1.281.244c.866.171 1.745.647 1.745 1.745 0 1.147-1.013 1.903-2.477 1.903"/><path stroke="#99adff" stroke-linecap="round" stroke-linejoin="round" stroke-width=".75" d="M118.583 342.138v.292c0 1.649 0 2.474.513 2.987.512.513 1.337.513 2.987.513h.292m.292.966v1.95c0 2.2 0 3.3-.684 3.983-.683.684-1.783.684-3.983.684s-3.3 0-3.983-.684c-.684-.683-.684-1.783-.684-3.983v-2.651c0-1.892 0-2.839.517-3.48q.158-.196.352-.352c.641-.517 1.588-.517 3.48-.517.412 0 .618 0 .806.067q.059.02.115.047c.181.087.326.232.617.523l2.763 2.763c.337.337.506.506.595.72.089.215.089.453.089.93"/><path fill="#f4f3ec" fill-opacity=".5" d="M133.074 352.18v-1.464h1.416v1.464zm95.057 1.195 3.758-9.735h1.061l-3.758 9.735zm29.774 0 3.757-9.735h1.062l-3.758 9.735z"/><path fill="#f4f3ec" d="M140.896 352.338c-1.476 0-2.672-1.317-2.672-3.257 0-1.928 1.196-3.209 2.672-3.209.866 0 1.61.366 2.05 1.074v-3.306h1.085v8.54h-1.085v-.928c-.488.732-1.184 1.086-2.05 1.086m-1.549-3.257c0 1.354.671 2.354 1.817 2.354 1.159 0 1.843-1 1.843-2.342 0-1.33-.684-2.318-1.843-2.318-1.146 0-1.817.964-1.817 2.306m9.419 3.257c-1.805 0-2.94-1.378-2.94-3.233 0-1.842 1.135-3.233 2.94-3.233 1.525 0 2.867.866 2.721 3.514h-4.551c.086 1.134.61 2.062 1.83 2.062.818 0 1.355-.501 1.538-1.074h1.073c-.171 1.025-1.134 1.964-2.611 1.964m-1.805-3.77h3.477c-.086-1.232-.659-1.805-1.672-1.805-1.11 0-1.659.805-1.805 1.805m8.383 3.612-2.477-6.149h1.159l2.013 5.234 2.013-5.234h1.147l-2.477 6.149zm8.614 0c-1.049 0-1.549-.427-1.549-1.452v-3.807h-1.83v-.89h1.549c.171 0 .281-.11.281-.269v-1.769h1.074v2.038h2.427v.89h-2.427v3.66c0 .44.183.696.732.696h1.964v.903zm7.041.158c-1.866 0-2.964-1.391-2.964-3.233 0-1.83 1.098-3.233 2.964-3.233 1.867 0 2.965 1.403 2.965 3.233 0 1.842-1.098 3.233-2.965 3.233m-1.854-3.245c0 1.196.512 2.342 1.854 2.342s1.855-1.146 1.855-2.342c0-1.183-.513-2.318-1.855-2.318s-1.854 1.135-1.854 2.318m9.298 3.245c-1.867 0-2.965-1.391-2.965-3.233 0-1.83 1.098-3.233 2.965-3.233s2.964 1.403 2.964 3.233c0 1.842-1.098 3.233-2.964 3.233m-1.855-3.245c0 1.196.513 2.342 1.855 2.342s1.854-1.146 1.854-2.342c0-1.183-.512-2.318-1.854-2.318s-1.855 1.135-1.855 2.318m6.382 3.087v-.891h2.379v-6.759h-1.94v-.89h3.026v7.649h2.367v.891zm10.481.158c-1.61 0-2.61-.781-2.72-2.086h1.098c.146.817.695 1.208 1.647 1.208.829 0 1.342-.378 1.342-.964 0-.451-.33-.769-.964-.878l-1.208-.244c-.878-.171-1.744-.586-1.744-1.708 0-1.025.963-1.794 2.403-1.794 1.391 0 2.403.586 2.525 1.928h-1.098c-.109-.683-.622-1.049-1.439-1.049-.781 0-1.306.366-1.306.878 0 .488.427.72.915.817l1.281.244c.867.171 1.745.647 1.745 1.745 0 1.147-1.013 1.903-2.477 1.903m5.675-3.257v-.988h3.294v.988zm7.211 3.099v-6.149h1.111v1.037a2 2 0 0 1 1.756-1.037h1.477v1.037h-1.562c-.976 0-1.671.634-1.671 1.866v3.246zm6.517 2.025v-8.174h1.073v.927c.501-.732 1.196-1.086 2.062-1.086 1.464 0 2.672 1.318 2.672 3.258 0 1.927-1.208 3.208-2.672 3.208-.866 0-1.622-.366-2.062-1.073v2.94zm1.025-5.088c0 1.33.683 2.318 1.842 2.318 1.147 0 1.818-.963 1.818-2.305 0-1.355-.671-2.355-1.818-2.355-1.159 0-1.842 1-1.842 2.342m9.383 3.221c-1.794 0-2.965-1.391-2.965-3.233 0-1.83 1.171-3.233 2.977-3.233 1.403 0 2.44.854 2.635 2.269h-1.098c-.171-.866-.768-1.366-1.549-1.366-1.281 0-1.842 1.098-1.842 2.318 0 1.232.561 2.342 1.842 2.342.793 0 1.33-.414 1.549-1.207h1.086c-.232 1.256-1.171 2.11-2.635 2.11m14.85 0c-1.61 0-2.611-.781-2.721-2.086h1.098c.147.817.696 1.208 1.647 1.208.83 0 1.342-.378 1.342-.964 0-.451-.329-.769-.963-.878l-1.208-.244c-.879-.171-1.745-.586-1.745-1.708 0-1.025.964-1.794 2.404-1.794 1.39 0 2.403.586 2.525 1.928h-1.098c-.11-.683-.622-1.049-1.44-1.049-.78 0-1.305.366-1.305.878 0 .488.427.72.915.817l1.281.244c.866.171 1.745.647 1.745 1.745 0 1.147-1.013 1.903-2.477 1.903m5.443-.158v-6.149h1.11v1.037a2 2 0 0 1 1.757-1.037h1.476v1.037h-1.562c-.976 0-1.671.634-1.671 1.866v3.246zm9.48.158c-1.793 0-2.964-1.391-2.964-3.233 0-1.83 1.171-3.233 2.977-3.233 1.403 0 2.44.854 2.635 2.269h-1.098c-.171-.866-.769-1.366-1.55-1.366-1.281 0-1.842 1.098-1.842 2.318 0 1.232.561 2.342 1.842 2.342.793 0 1.33-.414 1.55-1.207h1.086c-.232 1.256-1.172 2.11-2.636 2.11m14.887 0c-1.793 0-2.964-1.391-2.964-3.233 0-1.83 1.171-3.233 2.977-3.233 1.403 0 2.44.854 2.635 2.269h-1.098c-.171-.866-.769-1.366-1.55-1.366-1.281 0-1.842 1.098-1.842 2.318 0 1.232.561 2.342 1.842 2.342.793 0 1.33-.414 1.55-1.207h1.086c-.232 1.256-1.172 2.11-2.636 2.11m4.369-.158v-.891h2.379v-6.759h-1.939v-.89h3.025v7.649h2.367v.891zm7.517 0v-.915h2.294v-4.319h-2.05v-.915h3.16v5.234h2.281v.915zm2.245-7.198v-1.342h1.22v1.342zm8.139 7.356c-1.806 0-2.941-1.378-2.941-3.233 0-1.842 1.135-3.233 2.941-3.233 1.525 0 2.867.866 2.72 3.514h-4.55c.085 1.134.61 2.062 1.83 2.062.817 0 1.354-.501 1.537-1.074h1.073c-.17 1.025-1.134 1.964-2.61 1.964m-1.806-3.77h3.477c-.085-1.232-.659-1.805-1.671-1.805-1.111 0-1.66.805-1.806 1.805m6.48 3.612v-6.149h1.085v.927c.391-.683 1.184-1.086 2.062-1.086 1.33 0 2.257.842 2.257 2.477v3.831h-1.073v-3.77c0-1.074-.61-1.635-1.501-1.635-.964 0-1.745.769-1.745 1.854v3.551zm10.517 0c-1.049 0-1.549-.427-1.549-1.452v-3.807h-1.83v-.89h1.549c.171 0 .281-.11.281-.269v-1.769h1.074v2.038h2.427v.89h-2.427v3.66c0 .44.183.696.732.696h1.964v.903zm6.334 0v-1.464h1.415v1.464zm8.553 0c-1.049 0-1.549-.427-1.549-1.452v-3.807h-1.83v-.89h1.549c.171 0 .281-.11.281-.269v-1.769h1.074v2.038h2.427v.89h-2.427v3.66c0 .44.183.696.732.696h1.964v.903zm7.163.158c-1.61 0-2.611-.781-2.72-2.086h1.098c.146.817.695 1.208 1.647 1.208.829 0 1.342-.378 1.342-.964 0-.451-.33-.769-.964-.878l-1.208-.244c-.878-.171-1.745-.586-1.745-1.708 0-1.025.964-1.794 2.404-1.794 1.391 0 2.403.586 2.525 1.928h-1.098c-.11-.683-.622-1.049-1.439-1.049-.781 0-1.306.366-1.306.878 0 .488.427.72.915.817l1.281.244c.866.171 1.745.647 1.745 1.745 0 1.147-1.013 1.903-2.477 1.903"/><rect width="252" height="32" x="46.5" y="163.68" fill="#0c0912" rx="5.5"/><rect width="252" height="32" x="46.5" y="163.68" stroke="#3b3440" rx="5.5"/><rect width="252" height="32" x="46.5" y="163.68" stroke="#000" stroke-opacity=".2" rx="5.5"/><rect width="252" height="32" x="46.5" y="163.68" stroke="url(#g)" rx="5.5"/><g clip-path="url(#h)"><path fill="#99adff" d="M60.59 183.68v-3.738h-1.344v-.462h3.228v.462H61.13v3.738zm3.985.078c-1.026 0-1.638-.624-1.668-1.38h.564c.084.57.54.9 1.11.9.516 0 .984-.234.984-.738 0-.33-.216-.516-.666-.642l-.684-.186c-.522-.138-1.146-.348-1.146-1.146 0-.69.618-1.164 1.464-1.164.894 0 1.434.534 1.47 1.248h-.564c-.084-.486-.402-.78-.918-.78-.498 0-.876.264-.876.666 0 .342.222.51.702.642l.708.192c.708.192 1.086.528 1.086 1.128 0 .78-.642 1.26-1.566 1.26"/></g><rect width="12.75" height="12.75" x="55.625" y="173.305" stroke="#99adff" stroke-width=".75" rx="2.375"/><path fill="#f4f3ec" fill-opacity=".5" d="M76.074 184.18v-1.464h1.416v1.464zm7.444 0v-1.464h1.415v1.464zm5.735 1.195 3.758-9.735h1.061l-3.757 9.735zm96.765 0 3.757-9.735h1.062l-3.758 9.735zm29.774 0 3.757-9.735h1.062l-3.758 9.735z"/><path fill="#f4f3ec" d="M98.783 184.338c-1.476 0-2.672-1.317-2.672-3.257 0-1.928 1.196-3.209 2.672-3.209.866 0 1.61.366 2.049 1.074v-3.306h1.086v8.54h-1.086v-.928c-.488.732-1.183 1.086-2.05 1.086m-1.55-3.257c0 1.354.671 2.354 1.818 2.354 1.159 0 1.842-1 1.842-2.342 0-1.33-.683-2.318-1.842-2.318-1.147 0-1.817.964-1.817 2.306m9.42 3.257c-1.805 0-2.94-1.378-2.94-3.233 0-1.842 1.135-3.233 2.94-3.233 1.525 0 2.867.866 2.721 3.514h-4.551c.086 1.134.61 2.062 1.83 2.062.818 0 1.355-.501 1.538-1.074h1.073c-.171 1.025-1.134 1.964-2.611 1.964m-1.805-3.77h3.477c-.086-1.232-.659-1.805-1.672-1.805-1.11 0-1.659.805-1.805 1.805m8.383 3.612-2.477-6.149h1.159l2.013 5.234 2.013-5.234h1.147l-2.477 6.149zm8.614 0c-1.049 0-1.549-.427-1.549-1.452v-3.807h-1.83v-.89h1.549c.171 0 .281-.11.281-.269v-1.769h1.073v2.038h2.428v.89h-2.428v3.66c0 .44.183.696.732.696h1.965v.903zm7.041.158c-1.867 0-2.965-1.391-2.965-3.233 0-1.83 1.098-3.233 2.965-3.233s2.965 1.403 2.965 3.233c0 1.842-1.098 3.233-2.965 3.233m-1.854-3.245c0 1.196.512 2.342 1.854 2.342s1.854-1.146 1.854-2.342c0-1.183-.512-2.318-1.854-2.318s-1.854 1.135-1.854 2.318m9.297 3.245c-1.866 0-2.964-1.391-2.964-3.233 0-1.83 1.098-3.233 2.964-3.233 1.867 0 2.965 1.403 2.965 3.233 0 1.842-1.098 3.233-2.965 3.233m-1.854-3.245c0 1.196.512 2.342 1.854 2.342s1.855-1.146 1.855-2.342c0-1.183-.513-2.318-1.855-2.318s-1.854 1.135-1.854 2.318m6.382 3.087v-.891h2.379v-6.759h-1.94v-.89h3.026v7.649h2.367v.891zm10.481.158c-1.61 0-2.611-.781-2.72-2.086h1.098c.146.817.695 1.208 1.647 1.208.829 0 1.342-.378 1.342-.964 0-.451-.33-.769-.964-.878l-1.208-.244c-.878-.171-1.745-.586-1.745-1.708 0-1.025.964-1.794 2.404-1.794 1.391 0 2.403.586 2.525 1.928h-1.098c-.11-.683-.622-1.049-1.439-1.049-.781 0-1.306.366-1.306.878 0 .488.427.72.915.817l1.281.244c.866.171 1.745.647 1.745 1.745 0 1.147-1.013 1.903-2.477 1.903m5.675-3.257v-.988h3.294v.988zm7.211 3.099v-6.149h1.111v1.037a2 2 0 0 1 1.756-1.037h1.477v1.037h-1.562c-.976 0-1.671.634-1.671 1.866v3.246zm6.517 2.025v-8.174h1.073v.927c.5-.732 1.196-1.086 2.062-1.086 1.464 0 2.672 1.318 2.672 3.258 0 1.927-1.208 3.208-2.672 3.208-.866 0-1.623-.366-2.062-1.073v2.94zm1.024-5.088c0 1.33.684 2.318 1.843 2.318 1.146 0 1.817-.963 1.817-2.305 0-1.355-.671-2.355-1.817-2.355-1.159 0-1.843 1-1.843 2.342m9.384 3.221c-1.794 0-2.965-1.391-2.965-3.233 0-1.83 1.171-3.233 2.977-3.233 1.403 0 2.44.854 2.635 2.269h-1.098c-.171-.866-.769-1.366-1.549-1.366-1.281 0-1.843 1.098-1.843 2.318 0 1.232.562 2.342 1.843 2.342.793 0 1.329-.414 1.549-1.207h1.086c-.232 1.256-1.171 2.11-2.635 2.11m14.85 0c-1.611 0-2.611-.781-2.721-2.086h1.098c.147.817.696 1.208 1.647 1.208.83 0 1.342-.378 1.342-.964 0-.451-.329-.769-.964-.878l-1.207-.244c-.879-.171-1.745-.586-1.745-1.708 0-1.025.964-1.794 2.403-1.794 1.391 0 2.404.586 2.526 1.928h-1.098c-.11-.683-.622-1.049-1.44-1.049-.781 0-1.305.366-1.305.878 0 .488.427.72.915.817l1.281.244c.866.171 1.744.647 1.744 1.745 0 1.147-1.012 1.903-2.476 1.903m5.443-.158v-6.149h1.11v1.037a2 2 0 0 1 1.757-1.037h1.476v1.037h-1.562c-.976 0-1.671.634-1.671 1.866v3.246zm9.48.158c-1.793 0-2.964-1.391-2.964-3.233 0-1.83 1.171-3.233 2.977-3.233 1.403 0 2.44.854 2.635 2.269h-1.098c-.171-.866-.769-1.366-1.55-1.366-1.281 0-1.842 1.098-1.842 2.318 0 1.232.561 2.342 1.842 2.342.793 0 1.33-.414 1.55-1.207h1.086c-.232 1.256-1.172 2.11-2.636 2.11m14.887 0c-1.793 0-2.964-1.391-2.964-3.233 0-1.83 1.171-3.233 2.976-3.233 1.403 0 2.44.854 2.636 2.269h-1.098c-.171-.866-.769-1.366-1.55-1.366-1.281 0-1.842 1.098-1.842 2.318 0 1.232.561 2.342 1.842 2.342.793 0 1.33-.414 1.55-1.207h1.085c-.231 1.256-1.171 2.11-2.635 2.11m4.369-.158v-.891h2.379v-6.759h-1.94v-.89h3.026v7.649h2.367v.891zm7.517 0v-.915h2.293v-4.319h-2.049v-.915h3.16v5.234h2.281v.915zm2.245-7.198v-1.342h1.22v1.342zm8.138 7.356c-1.805 0-2.94-1.378-2.94-3.233 0-1.842 1.135-3.233 2.94-3.233 1.525 0 2.867.866 2.721 3.514h-4.551c.086 1.134.61 2.062 1.83 2.062.818 0 1.355-.501 1.538-1.074h1.073c-.171 1.025-1.134 1.964-2.611 1.964m-1.805-3.77h3.477c-.086-1.232-.659-1.805-1.672-1.805-1.11 0-1.659.805-1.805 1.805m6.48 3.612v-6.149h1.085v.927c.391-.683 1.184-1.086 2.062-1.086 1.33 0 2.257.842 2.257 2.477v3.831h-1.073v-3.77c0-1.074-.61-1.635-1.501-1.635-.964 0-1.745.769-1.745 1.854v3.551zm10.517 0c-1.049 0-1.549-.427-1.549-1.452v-3.807h-1.83v-.89h1.549c.171 0 .281-.11.281-.269v-1.769h1.074v2.038h2.427v.89h-2.427v3.66c0 .44.183.696.732.696h1.964v.903zm6.334 0v-1.464h1.415v1.464zm8.553 0c-1.049 0-1.549-.427-1.549-1.452v-3.807h-1.83v-.89h1.549c.171 0 .281-.11.281-.269v-1.769h1.073v2.038h2.428v.89h-2.428v3.66c0 .44.183.696.732.696h1.965v.903zm7.163.158c-1.61 0-2.611-.781-2.721-2.086h1.098c.147.817.696 1.208 1.647 1.208.83 0 1.342-.378 1.342-.964 0-.451-.329-.769-.963-.878l-1.208-.244c-.879-.171-1.745-.586-1.745-1.708 0-1.025.964-1.794 2.404-1.794 1.39 0 2.403.586 2.525 1.928h-1.098c-.11-.683-.622-1.049-1.44-1.049-.78 0-1.305.366-1.305.878 0 .488.427.72.915.817l1.281.244c.866.171 1.745.647 1.745 1.745 0 1.147-1.013 1.903-2.477 1.903"/><path stroke="#3b3440" stroke-dasharray="2 2" d="M299 179.68h32M402 167.18v.5h1.888v-.499q.94-.001 1.772.007l-.005.5q.947.01 1.757.041l.02-.5q.963.039 1.767.126l-.053.495c.631.069 1.181.166 1.665.298l.13-.482c.62.17 1.151.4 1.617.71l-.277.416a4 4 0 0 1 1.107 1.106l.415-.277c.31.465.54.997.71 1.616l-.482.132c.133.483.23 1.033.299 1.665l.493-.055c.059.538.101 1.124.126 1.768l-.498.021q.031.81.04 1.756l.499-.005q.008.832.008 1.773h-.498v1.138h.5v.5h-.5v1.137h.498q0 .941-.008 1.773l-.499-.005a60 60 0 0 1-.04 1.757l.498.019a25 25 0 0 1-.126 1.768l-.493-.054a10.7 10.7 0 0 1-.299 1.665l.482.131c-.17.62-.4 1.151-.71 1.616l-.415-.276a4 4 0 0 1-1.107 1.106l.277.415c-.466.31-.997.54-1.617.71l-.13-.481a11 11 0 0 1-1.665.299l.053.493q-.804.088-1.767.126l-.02-.498q-.81.03-1.757.04l.005.499q-.832.008-1.772.008v-.498H402v.5h-2v-.5h-2v.5h-2v-.5h-2v.5h-2v-.5h-2v.5h-2v-.5h-2v.5h-2v-.5h-2v.5h-2v-.5h-2v.5h-2v-.5h-2v.5h-2v-.5h-2v.5h-2v-.5h-2v.5h-2v-.5h-2v.5h-2v-.5h-2v.5h-2v-.5h-2v.5h-2v-.5h-2v.5h-2v-.5h-2v.5h-2v-.5h-1.888v.498q-.94 0-1.773-.008l.006-.499a64 64 0 0 1-1.757-.04l-.021.498a26 26 0 0 1-1.767-.126l.054-.493a11 11 0 0 1-1.665-.299l-.131.481c-.62-.17-1.151-.399-1.617-.71l.278-.415a4 4 0 0 1-.608-.499l-.137-.143a4 4 0 0 1-.362-.464l-.416.276c-.31-.465-.54-.997-.71-1.616l.483-.131a10.7 10.7 0 0 1-.299-1.665l-.494.054a25 25 0 0 1-.126-1.768l.499-.019a60 60 0 0 1-.04-1.757l-.5.005q-.007-.832-.007-1.773h.498v-1.137h-.5v-.5h.5v-1.138h-.498q0-.941.007-1.773l.5.005q.009-.946.04-1.756l-.499-.021c.025-.644.067-1.23.126-1.768l.494.055c.069-.632.166-1.182.299-1.665l-.483-.132c.17-.619.4-1.151.71-1.616l.416.277q.163-.244.362-.463l.137-.144q.282-.282.608-.499l-.278-.416c.466-.31.997-.54 1.617-.71l.131.482a11 11 0 0 1 1.665-.298l-.054-.495q.804-.087 1.767-.126l.021.5a60 60 0 0 1 1.757-.041l-.006-.5q.832-.008 1.773-.007v.499H344v-.5h2v.5h2v-.5h2v.5h2v-.5h2v.5h2v-.5h2v.5h2v-.5h2v.5h2v-.5h2v.5h2v-.5h2v.5h2v-.5h2v.5h2v-.5h2v.5h2v-.5h2v.5h2v-.5h2v.5h2v-.5h2v.5h2v-.5h2v.5h2v-.5h2v.5h2v-.5z"/><path stroke="#32f3e9" stroke-width=".75" d="M348.333 183.18a1.167 1.167 0 1 1 2.334 0 1.167 1.167 0 0 1-2.334 0ZM341.333 179.68a1.167 1.167 0 1 1 2.334 0 1.167 1.167 0 0 1-2.334 0ZM348.333 176.18a1.167 1.167 0 1 1 2.334 0 1.167 1.167 0 0 1-2.334 0Z"/><path stroke="#32f3e9" stroke-linecap="round" stroke-linejoin="round" stroke-width=".75" d="M347.901 183.17c-.976 0-2.017.141-1.892-1.869v-1.624m0 0v-2.206c.128-.661 0-1.365 1.988-1.287m-1.988 3.493h-2.167"/><path fill="#32f3e9" d="M361.55 184.18v-6.003h-1.977v-.927h1.684a.29.29 0 0 0 .293-.293v-1.317h1.098v8.54zm5.386 0v-6.149h1.074v6.149zm-.061-7.198v-1.342h1.208v1.342zm2.583 7.198v-6.149h1.074v.878c.341-.683 1.098-1.037 1.83-1.037.805 0 1.488.5 1.708 1.269.353-.744 1.085-1.269 2.11-1.269 1.342 0 2.123.83 2.123 2.343v3.965h-1.074v-3.782c0-1.074-.475-1.623-1.305-1.623-.952 0-1.501.756-1.501 1.842v3.563h-1.073v-3.782c0-1.074-.488-1.623-1.33-1.623-.805 0-1.488.756-1.488 1.842v3.563zm10.208 2.025v-8.174h1.073v.927c.5-.744 1.196-1.086 2.05-1.086 1.5 0 2.684 1.318 2.684 3.245s-1.184 3.221-2.684 3.221c-.854 0-1.611-.378-2.05-1.073v2.94zm1.012-5.1c0 1.342.696 2.33 1.855 2.33 1.171 0 1.83-.963 1.83-2.318 0-1.342-.659-2.354-1.83-2.354-1.159 0-1.855 1.012-1.855 2.342m8.47 3.233c-1.867 0-2.965-1.391-2.965-3.233 0-1.83 1.098-3.233 2.965-3.233s2.965 1.403 2.965 3.233c0 1.842-1.098 3.233-2.965 3.233m-1.854-3.245c0 1.208.5 2.355 1.854 2.355 1.342 0 1.854-1.147 1.854-2.355 0-1.196-.512-2.33-1.854-2.33-1.354 0-1.854 1.134-1.854 2.33m5.876 3.087v-6.149h1.074v1.025c.378-.757.964-1.025 1.684-1.025h.341v1.012h-.427c-.976 0-1.598.61-1.598 1.879v3.258zm5.962 0c-.94 0-1.379-.403-1.379-1.44v-3.831h-.976v-.878h.696c.17 0 .28-.11.28-.269v-1.769h1.062v2.038h1.354v.878h-1.354v3.672c0 .525.146.708.634.708h.866v.891zm4.441.158c-1.611 0-2.611-.768-2.721-2.086h1.098c.147.817.696 1.22 1.647 1.22.83 0 1.354-.378 1.354-.976 0-.451-.341-.769-.976-.891l-1.195-.231c-.891-.171-1.745-.586-1.745-1.721 0-1.012.952-1.781 2.391-1.781 1.391 0 2.404.586 2.526 1.916h-1.086c-.122-.684-.622-1.05-1.452-1.05-.781 0-1.305.366-1.305.891 0 .5.427.72.927.817l1.269.244c.878.171 1.757.647 1.757 1.745 0 1.147-1.025 1.903-2.489 1.903"/><rect width="105" height="24" x="79.5" y="267.68" fill="#14121a" rx="5.5"/><rect width="105" height="24" x="79.5" y="267.68" stroke="#3b3440" rx="5.5"/><path fill="#999bff" d="m90.013 284.18-2.476-6.149h1.159l2.013 5.234 2.013-5.234h1.147l-2.477 6.149zm5.37 0v-.915h2.293v-4.319h-2.05v-.915h3.16v5.234h2.282v.915zm2.245-7.198v-1.342h1.22v1.342zm8.443 7.198c-1.049 0-1.549-.427-1.549-1.452v-3.807h-1.83v-.89h1.549c.171 0 .281-.11.281-.269v-1.769h1.074v2.038h2.427v.89h-2.427v3.66c0 .44.183.696.732.696h1.964v.903zm7.139.158c-1.806 0-2.94-1.378-2.94-3.233 0-1.842 1.134-3.233 2.94-3.233 1.525 0 2.867.866 2.72 3.514h-4.55c.085 1.134.61 2.062 1.83 2.062.817 0 1.354-.501 1.537-1.074h1.074c-.171 1.025-1.135 1.964-2.611 1.964m-1.806-3.77h3.477c-.085-1.232-.659-1.805-1.671-1.805-1.11 0-1.659.805-1.806 1.805m8.444 3.612v-1.464h1.415v1.464zm0-4.246v-1.464h1.415v1.464z"/><path fill="#f4f3ec" d="M126.12 284.18v-6.149h1.111v1.037a2 2 0 0 1 1.756-1.037h1.477v1.037h-1.562c-.976 0-1.671.634-1.671 1.866v3.246zm9.42.158c-1.805 0-2.94-1.378-2.94-3.233 0-1.842 1.135-3.233 2.94-3.233 1.525 0 2.867.866 2.721 3.514h-4.551c.086 1.134.61 2.062 1.83 2.062.818 0 1.354-.501 1.537-1.074h1.074c-.171 1.025-1.135 1.964-2.611 1.964m-1.805-3.77h3.477c-.086-1.232-.659-1.805-1.672-1.805-1.11 0-1.659.805-1.805 1.805m9.273 3.77c-1.61 0-2.611-.781-2.721-2.086h1.098c.147.817.696 1.208 1.647 1.208.83 0 1.342-.378 1.342-.964 0-.451-.329-.769-.963-.878l-1.208-.244c-.879-.171-1.745-.586-1.745-1.708 0-1.025.964-1.794 2.404-1.794 1.39 0 2.403.586 2.525 1.928h-1.098c-.11-.683-.622-1.049-1.44-1.049-.78 0-1.305.366-1.305.878 0 .488.427.72.915.817l1.281.244c.866.171 1.745.647 1.745 1.745 0 1.147-1.013 1.903-2.477 1.903m7.321 0c-1.866 0-2.964-1.391-2.964-3.233 0-1.83 1.098-3.233 2.964-3.233 1.867 0 2.965 1.403 2.965 3.233 0 1.842-1.098 3.233-2.965 3.233m-1.854-3.245c0 1.196.512 2.342 1.854 2.342s1.855-1.146 1.855-2.342c0-1.183-.513-2.318-1.855-2.318s-1.854 1.135-1.854 2.318m6.382 3.087v-.891h2.379v-6.759h-1.94v-.89h3.026v7.649h2.367v.891zm9.591 0-2.477-6.149h1.159l2.013 5.234 2.013-5.234h1.147l-2.477 6.149zm8.309.158c-1.805 0-2.94-1.378-2.94-3.233 0-1.842 1.135-3.233 2.94-3.233 1.525 0 2.867.866 2.721 3.514h-4.551c.086 1.134.61 2.062 1.83 2.062.818 0 1.355-.501 1.538-1.074h1.073c-.171 1.025-1.134 1.964-2.611 1.964m-1.805-3.77h3.477c-.086-1.232-.659-1.805-1.672-1.805-1.11 0-1.659.805-1.805 1.805"/><path fill="#f4f3ec" fill-opacity=".5" d="M198.299 283.18v-5.412h-1.782v-.836h1.518a.26.26 0 0 0 .264-.264v-1.188h.99v7.7zm2.339-.286c0-1.353.946-2.156 1.936-2.871 1.067-.759 2.2-1.408 2.2-2.464 0-.869-.616-1.375-1.496-1.375-1.012 0-1.551.627-1.551 1.54h-1.001c-.066-1.452 1.034-2.409 2.596-2.409 1.463 0 2.475.902 2.475 2.178 0 .924-.55 1.617-1.254 2.2-1.144.935-2.629 1.617-2.794 2.662h4.147v.825h-5.258zm6.319.286v-5.544h.968v.792c.308-.616.99-.935 1.65-.935.726 0 1.342.451 1.54 1.144.319-.671.979-1.144 1.903-1.144 1.21 0 1.914.748 1.914 2.112v3.575h-.968v-3.41c0-.968-.429-1.463-1.177-1.463-.858 0-1.353.682-1.353 1.661v3.212h-.968v-3.41c0-.968-.44-1.463-1.199-1.463-.726 0-1.342.682-1.342 1.661v3.212zm11.316.143c-1.452 0-2.354-.693-2.453-1.881h.99c.132.737.627 1.1 1.485 1.1.748 0 1.221-.341 1.221-.88 0-.407-.308-.693-.88-.803l-1.078-.209c-.803-.154-1.573-.528-1.573-1.551 0-.913.858-1.606 2.156-1.606 1.254 0 2.167.528 2.277 1.727h-.979c-.11-.616-.561-.946-1.309-.946-.704 0-1.177.33-1.177.803 0 .451.385.649.836.737l1.144.22c.792.154 1.584.583 1.584 1.573 0 1.034-.924 1.716-2.244 1.716"/><path stroke="#827a89" stroke-linecap="round" stroke-linejoin="round" stroke-miterlimit="16" d="m50 222.68 4 4 4-4"/><rect width="109" height="32" x="68.5" y="208.68" fill="#0c0912" rx="5.5"/><rect width="109" height="32" x="68.5" y="208.68" stroke="#3b3440" rx="5.5"/><path stroke="#f4f3ec" stroke-linecap="round" stroke-linejoin="round" stroke-width=".75" d="m87.917 227.596 2.333 2.334M89.083 224.096a4.666 4.666 0 1 0-9.332 0 4.666 4.666 0 0 0 9.332 0"/><path fill="#f4f3ec" d="M97.94 229.18v-8.54h3.745c1.5 0 2.598.915 2.598 2.464 0 1.244-.707 2.074-1.769 2.355l1.904 3.721h-1.22l-1.843-3.612h-2.318v3.612zm1.097-4.527h2.465c1.037 0 1.635-.573 1.635-1.549s-.598-1.537-1.635-1.537h-2.465zm8.988 4.685c-1.806 0-2.94-1.378-2.94-3.233 0-1.842 1.134-3.233 2.94-3.233 1.525 0 2.867.866 2.72 3.514h-4.55c.073 1.122.598 2.062 1.83 2.062.817 0 1.354-.415 1.574-1.196h1.073c-.232 1.22-1.171 2.086-2.647 2.086m-1.806-3.77h3.477c-.073-1.232-.646-1.817-1.671-1.817-1.123 0-1.672.805-1.806 1.817m7.957 3.77c-1.611 0-2.611-.768-2.721-2.086h1.098c.147.817.696 1.22 1.647 1.22.83 0 1.354-.378 1.354-.976 0-.451-.341-.769-.976-.891l-1.195-.231c-.891-.171-1.745-.586-1.745-1.721 0-1.012.952-1.781 2.391-1.781 1.391 0 2.404.586 2.526 1.916h-1.086c-.122-.684-.622-1.05-1.452-1.05-.781 0-1.305.366-1.305.891 0 .5.427.72.927.817l1.269.244c.878.171 1.757.647 1.757 1.745 0 1.147-1.025 1.903-2.489 1.903m6.187 0c-1.867 0-2.965-1.391-2.965-3.233 0-1.83 1.098-3.233 2.965-3.233s2.964 1.403 2.964 3.233c0 1.842-1.098 3.233-2.964 3.233m-1.855-3.245c0 1.208.5 2.355 1.855 2.355 1.342 0 1.854-1.147 1.854-2.355 0-1.196-.512-2.33-1.854-2.33-1.355 0-1.855 1.134-1.855 2.33m5.926 3.087v-8.54h1.073v8.54zm4.169 0-2.245-6.149h1.159l1.744 5.051 1.745-5.051h1.171l-2.245 6.149zm6.822.158c-1.806 0-2.94-1.378-2.94-3.233 0-1.842 1.134-3.233 2.94-3.233 1.525 0 2.867.866 2.72 3.514h-4.55c.073 1.122.598 2.062 1.83 2.062.817 0 1.354-.415 1.574-1.196h1.073c-.232 1.22-1.171 2.086-2.647 2.086m-1.806-3.77h3.477c-.073-1.232-.646-1.817-1.671-1.817-1.123 0-1.672.805-1.806 1.817m8.284 3.612v-8.54h1.098v8.54zm5.016.158c-1.476 0-2.672-1.317-2.672-3.257 0-1.928 1.196-3.209 2.672-3.209.878 0 1.635.366 2.062 1.074v-3.306h1.073v8.54h-1.073v-.928c-.488.732-1.184 1.086-2.062 1.086m-1.562-3.257c0 1.354.671 2.354 1.842 2.354 1.159 0 1.843-1 1.843-2.342 0-1.33-.684-2.33-1.843-2.33-1.171 0-1.842.976-1.842 2.318"/><path fill="#f4f3ec" fill-opacity=".5" d="M158.263 231.205c-1.098-1.611-1.623-3.343-1.623-5.271 0-1.952.525-3.708 1.623-5.294h.829c-.927 1.915-1.293 3.44-1.293 5.294 0 1.843.354 3.368 1.293 5.271zm3.787-2.025v-6.003h-1.977v-.927h1.684a.29.29 0 0 0 .293-.293v-1.317h1.098v8.54zm2.594 2.025c.94-1.903 1.318-3.428 1.318-5.271 0-1.854-.391-3.379-1.318-5.294h.842c1.086 1.586 1.61 3.342 1.61 5.294 0 1.928-.524 3.66-1.61 5.271z"/><path stroke="#827a89" stroke-linecap="round" stroke-linejoin="round" stroke-miterlimit="16" d="m52 410.68 4-4-4-4"/><rect width="84" height="32" x="68.5" y="390.68" fill="#0c0912" rx="5.5"/><rect width="84" height="32" x="68.5" y="390.68" stroke="#3b3440" rx="5.5"/><path stroke="#fff" stroke-linecap="round" stroke-linejoin="round" stroke-width=".75" d="M90.25 411.346v-1.458a.583.583 0 0 0-.583-.583h-1.85c-.31 0-.607.123-.825.341l-.363.363a.59.59 0 0 1-.412.171h-2.434a.59.59 0 0 1-.412-.171l-.363-.363a1.17 1.17 0 0 0-.825-.341h-1.85a.583.583 0 0 0-.583.583v1.458c0 .323.261.584.583.584h9.334a.583.583 0 0 0 .583-.584M82.375 404.055 85 401.43l2.625 2.625M85 402.013v6.417"/><path fill="#f4f3ec" d="M97.94 411.18v-8.54h1.097v7.625h4.148v.915zm8.596.158c-1.866 0-2.964-1.391-2.964-3.233 0-1.83 1.098-3.233 2.964-3.233 1.867 0 2.965 1.403 2.965 3.233 0 1.842-1.098 3.233-2.965 3.233m-1.854-3.245c0 1.208.5 2.355 1.854 2.355 1.342 0 1.855-1.147 1.855-2.355 0-1.196-.513-2.33-1.855-2.33-1.354 0-1.854 1.134-1.854 2.33m7.538 3.245c-1.257 0-2.062-.732-2.062-1.818 0-1.439 1.232-1.756 2.233-1.891l1.33-.17c.488-.074.585-.354.585-.635 0-.598-.402-1.086-1.33-1.086-.915 0-1.439.427-1.537 1.184h-1.073c.134-1.232 1.122-2.05 2.586-2.05 1.635 0 2.416.818 2.416 2.196v2.989c0 .134.109.232.256.232h.378v.891h-.732c-.586 0-.903-.305-.903-.757v-.146c-.537.793-1.391 1.061-2.147 1.061m-.952-1.866c0 .634.476 1 1.22 1 1.098 0 1.818-.805 1.818-2.013v-.439c-.207.11-.415.146-.622.183l-1.086.171c-.927.146-1.33.475-1.33 1.098m7.92 1.866c-1.476 0-2.672-1.317-2.672-3.257 0-1.928 1.196-3.209 2.672-3.209.879 0 1.635.366 2.062 1.074v-3.306h1.074v8.54h-1.074v-.928c-.488.732-1.183 1.086-2.062 1.086m-1.561-3.257c0 1.354.671 2.354 1.842 2.354 1.159 0 1.842-1 1.842-2.342 0-1.33-.683-2.33-1.842-2.33-1.171 0-1.842.976-1.842 2.318"/><path fill="#f4f3ec" fill-opacity=".5" d="M130.532 413.205c-1.098-1.611-1.622-3.343-1.622-5.271 0-1.952.524-3.708 1.622-5.294h.83c-.927 1.915-1.293 3.44-1.293 5.294 0 1.843.353 3.368 1.293 5.271zm1.762-2.343c0-1.5 1.049-2.391 2.147-3.184 1.183-.842 2.44-1.561 2.44-2.733 0-.963-.683-1.525-1.659-1.525-1.123 0-1.721.696-1.721 1.708h-1.11c-.073-1.61 1.147-2.671 2.879-2.671 1.623 0 2.745 1 2.745 2.415 0 1.025-.61 1.794-1.39 2.44-1.269 1.037-2.916 1.794-3.099 2.953h4.599v.915h-5.831zm6.764 2.343c.939-1.903 1.318-3.428 1.318-5.271 0-1.854-.391-3.379-1.318-5.294h.842c1.086 1.586 1.61 3.342 1.61 5.294 0 1.928-.524 3.66-1.61 5.271z"/><path stroke="#827a89" stroke-linecap="round" stroke-linejoin="round" stroke-miterlimit="16" d="m52 451.68 4-4-4-4"/><rect width="117" height="32" x="68.5" y="431.68" fill="#0c0912" rx="5.5"/><rect width="117" height="32" x="68.5" y="431.68" stroke="#3b3440" rx="5.5"/><path stroke="#fff" stroke-linejoin="round" stroke-width=".75" d="m87.737 446.398 1.045-1.045a1.029 1.029 0 1 0-1.455-1.455l-1.045 1.045m1.455 1.455-6.23 6.23a1.029 1.029 0 1 1-1.456-1.455l6.23-6.23m1.456 1.455-1.455-1.455M88.485 448.859c.003-.017.027-.017.03 0a2.21 2.21 0 0 0 1.722 1.722c.017.003.017.027 0 .031a2.21 2.21 0 0 0-1.722 1.722c-.003.016-.027.016-.03 0a2.21 2.21 0 0 0-1.722-1.722c-.017-.004-.017-.028 0-.031a2.21 2.21 0 0 0 1.722-1.722Z"/><path fill="#fff" d="M82.737 442.61c.05-.241.393-.241.443 0 .108.532.524.948 1.056 1.057.24.049.24.393 0 .442a1.36 1.36 0 0 0-1.056 1.057c-.05.241-.394.241-.443 0a1.36 1.36 0 0 0-1.056-1.057c-.241-.049-.241-.393 0-.442a1.36 1.36 0 0 0 1.056-1.057"/><path fill="#f4f3ec" d="M100.123 452.18v-7.613h-2.842v-.927h6.795v.927h-2.843v7.613zm3.933 0v-6.149h1.074v1.025c.378-.757.964-1.025 1.684-1.025h.341v1.012h-.427c-.976 0-1.598.61-1.598 1.879v3.258zm5.614.158c-1.256 0-2.061-.732-2.061-1.818 0-1.439 1.232-1.756 2.232-1.891l1.33-.17c.488-.074.586-.354.586-.635 0-.598-.403-1.086-1.33-1.086-.915 0-1.44.427-1.537 1.184h-1.074c.134-1.232 1.122-2.05 2.586-2.05 1.635 0 2.416.818 2.416 2.196v2.989c0 .134.11.232.256.232h.378v.891h-.732c-.585 0-.902-.305-.902-.757v-.146c-.537.793-1.391 1.061-2.148 1.061m-.951-1.866c0 .634.476 1 1.22 1 1.098 0 1.818-.805 1.818-2.013v-.439c-.208.11-.415.146-.623.183l-1.085.171c-.928.146-1.33.475-1.33 1.098m5.697 1.708v-6.149h1.073v.927c.403-.683 1.184-1.086 2.074-1.086 1.33 0 2.27.842 2.27 2.477v3.831h-1.074v-3.77c0-1.074-.61-1.635-1.513-1.635-.964 0-1.757.769-1.757 1.854v3.551zm9.13.158c-1.61 0-2.61-.768-2.72-2.086h1.098c.146.817.695 1.22 1.647 1.22.829 0 1.354-.378 1.354-.976 0-.451-.342-.769-.976-.891l-1.196-.231c-.89-.171-1.744-.586-1.744-1.721 0-1.012.951-1.781 2.391-1.781 1.391 0 2.403.586 2.525 1.916h-1.085c-.122-.684-.623-1.05-1.452-1.05-.781 0-1.306.366-1.306.891 0 .5.427.72.928.817l1.268.244c.879.171 1.757.647 1.757 1.745 0 1.147-1.025 1.903-2.489 1.903m4.114-.158v-5.271h-1.073v-.878h.805c.159 0 .268-.11.268-.269v-.536c0-1.025.452-1.586 1.525-1.586h1.111v.878h-.891c-.488 0-.671.244-.671.756v.757h1.476v.878h-1.476v5.271zm5.859.158c-1.867 0-2.965-1.391-2.965-3.233 0-1.83 1.098-3.233 2.965-3.233s2.965 1.403 2.965 3.233c0 1.842-1.098 3.233-2.965 3.233m-1.854-3.245c0 1.208.5 2.355 1.854 2.355 1.342 0 1.854-1.147 1.854-2.355 0-1.196-.512-2.33-1.854-2.33-1.354 0-1.854 1.134-1.854 2.33m5.877 3.087v-6.149h1.073v1.025c.378-.757.964-1.025 1.684-1.025h.341v1.012h-.427c-.976 0-1.598.61-1.598 1.879v3.258zm4.071 0v-6.149h1.074v.878c.342-.683 1.098-1.037 1.83-1.037.805 0 1.488.5 1.708 1.269.354-.744 1.086-1.269 2.111-1.269 1.342 0 2.122.83 2.122 2.343v3.965h-1.073v-3.782c0-1.074-.476-1.623-1.306-1.623-.951 0-1.5.756-1.5 1.842v3.563h-1.074v-3.782c0-1.074-.488-1.623-1.33-1.623-.805 0-1.488.756-1.488 1.842v3.563z"/><path fill="#f4f3ec" fill-opacity=".5" d="M158.564 454.205c-1.098-1.611-1.623-3.343-1.623-5.271 0-1.952.525-3.708 1.623-5.294h.829c-.927 1.915-1.293 3.44-1.293 5.294 0 1.843.354 3.368 1.293 5.271zm3.786-2.025v-6.003h-1.976v-.927h1.683a.29.29 0 0 0 .293-.293v-1.317h1.098v8.54zm6.877 0v-2.343h-4.465v-1.086l4.233-5.111h1.342v5.282h1.293v.915h-1.293v2.343zm-3.404-3.258h3.404v-4.136zm6.577 5.283c.94-1.903 1.318-3.428 1.318-5.271 0-1.854-.391-3.379-1.318-5.294h.842c1.086 1.586 1.61 3.342 1.61 5.294 0 1.928-.524 3.66-1.61 5.271z"/><path stroke="#827a89" stroke-linecap="round" stroke-linejoin="round" stroke-miterlimit="16" d="m52 492.68 4-4-4-4"/><rect width="88" height="32" x="68.5" y="472.68" fill="#0c0912" rx="5.5"/><rect width="88" height="32" x="68.5" y="472.68" stroke="#3b3440" rx="5.5"/><path stroke="#f4f3ec" stroke-width=".75" d="M81.792 488.096a2.625 2.625 0 1 0 0-5.25 2.625 2.625 0 0 0 0 5.25Z"/><path stroke="#f4f3ec" stroke-width=".75" d="M84.417 485.18h4.244c1.317 0 1.976 0 2.14.395.164.396-.302.862-1.233 1.793l-5.88 5.879c-.93.932-1.397 1.398-1.792 1.234-.396-.164-.396-.823-.396-2.14v-4.245"/><path stroke="#f4f3ec" stroke-width=".75" d="M88.208 488.68h.292c1.1 0 1.65 0 1.992.341.341.342.341.892.341 1.992v.583c0 1.1 0 1.65-.341 1.992-.342.342-.892.342-1.992.342h-.583c-1.1 0-1.65 0-1.992-.342s-.342-.892-.342-1.992v-.291"/><path fill="#f4f3ec" d="M101.355 493.338c-2.305 0-3.855-1.757-3.855-4.428 0-2.66 1.586-4.429 3.855-4.429 1.989 0 3.233 1.232 3.477 3.074h-1.146c-.22-1.122-.94-2.122-2.331-2.122-1.695 0-2.708 1.488-2.708 3.477 0 1.976 1.037 3.477 2.708 3.477 1.452 0 2.233-1.037 2.404-2.16h1.159c-.342 2.086-1.696 3.111-3.563 3.111m4.752-.158v-8.54h1.073v3.318c.391-.671 1.111-1.086 2.013-1.086 1.257 0 2.184.83 2.184 2.477v3.831h-1.073v-3.77c0-1.074-.598-1.635-1.44-1.635-.915 0-1.684.769-1.684 1.867v3.538zm8.779.158c-1.281 0-2.184-.854-2.184-2.452v-3.855h1.074v3.782c0 1.073.61 1.622 1.488 1.622s1.659-.756 1.659-1.854v-3.55h1.074v6.149h-1.074v-.952c-.402.732-1.171 1.11-2.037 1.11m4.522-.158v-6.149h1.073v.927c.403-.683 1.184-1.086 2.074-1.086 1.33 0 2.27.842 2.27 2.477v3.831h-1.074v-3.77c0-1.074-.61-1.635-1.513-1.635-.964 0-1.757.769-1.757 1.854v3.551zm6.837 0v-8.54h1.073v5.282l2.709-2.891h1.342l-2.233 2.342 2.648 3.807h-1.294l-2.098-3.014-1.074 1.123v1.891z"/><path fill="#f4f3ec" fill-opacity=".5" d="M136.656 495.205c-1.098-1.611-1.623-3.343-1.623-5.271 0-1.952.525-3.708 1.623-5.294h.83c-.928 1.915-1.294 3.44-1.294 5.294 0 1.843.354 3.368 1.294 5.271zm3.787-2.025v-6.003h-1.977v-.927h1.684a.29.29 0 0 0 .293-.293v-1.317h1.098v8.54zm2.594 2.025c.94-1.903 1.318-3.428 1.318-5.271 0-1.854-.391-3.379-1.318-5.294h.842c1.086 1.586 1.61 3.342 1.61 5.294 0 1.928-.524 3.66-1.61 5.271z"/><defs><clipPath id="b"><rect width="12" height="12" x="33" y="39.09" fill="#fff" rx="2"/></clipPath><clipPath id="c"><path fill="#fff" d="M81.833 79.09h14v14h-14z"/></clipPath><clipPath id="d"><path fill="#fff" d="M275 79.09h14v14h-14z"/></clipPath><clipPath id="e"><path fill="#fff" d="M456.167 79.09h14v14h-14z"/></clipPath><clipPath id="f"><rect width="12" height="12" x="130" y="309.68" fill="#fff" rx="2"/></clipPath><clipPath id="h"><rect width="12" height="12" x="56" y="173.68" fill="#fff" rx="2"/></clipPath><linearGradient id="a" x1="88.25" x2="88.25" y1="195.68" y2="365.68" gradientUnits="userSpaceOnUse"><stop stop-color="#6c3bff"/><stop offset="1" stop-color="#6c3bff" stop-opacity="0"/></linearGradient><linearGradient id="g" x1="87.5" x2="94" y1="196.18" y2="167.68" gradientUnits="userSpaceOnUse"><stop stop-color="#6c3bff"/><stop offset="1" stop-color="#6c3bff" stop-opacity="0"/></linearGradient></defs></svg>